%TF.GenerationSoftware,KiCad,Pcbnew,7.0.1*%
%TF.CreationDate,2024-02-15T14:19:22+01:00*%
%TF.ProjectId,stm32f405-sensorleap-v1,73746d33-3266-4343-9035-2d73656e736f,rev?*%
%TF.SameCoordinates,Original*%
%TF.FileFunction,Copper,L3,Inr*%
%TF.FilePolarity,Positive*%
%FSLAX46Y46*%
G04 Gerber Fmt 4.6, Leading zero omitted, Abs format (unit mm)*
G04 Created by KiCad (PCBNEW 7.0.1) date 2024-02-15 14:19:22*
%MOMM*%
%LPD*%
G01*
G04 APERTURE LIST*
%TA.AperFunction,ComponentPad*%
%ADD10O,1.150000X1.800000*%
%TD*%
%TA.AperFunction,ViaPad*%
%ADD11C,0.800000*%
%TD*%
%TA.AperFunction,ViaPad*%
%ADD12C,0.609600*%
%TD*%
%TA.AperFunction,ViaPad*%
%ADD13C,0.500000*%
%TD*%
G04 APERTURE END LIST*
D10*
%TO.N,unconnected-(J402-Shield-Pad6)*%
%TO.C,J402*%
X133050000Y-129416029D03*
X133050000Y-132886029D03*
X140200000Y-129416029D03*
X140200000Y-132886029D03*
%TD*%
D11*
%TO.N,GND*%
X131200000Y-128148529D03*
X132113940Y-115773529D03*
X116653616Y-122923529D03*
X115503616Y-122923529D03*
X114528616Y-117498529D03*
X133908940Y-112123529D03*
D12*
X111113940Y-122248529D03*
X111113940Y-121248529D03*
X111113940Y-120248529D03*
X111113940Y-119248529D03*
X111113940Y-118248529D03*
X111113940Y-117248529D03*
X112153616Y-116248529D03*
X113153616Y-116248529D03*
X114153616Y-116248529D03*
X115153616Y-116248529D03*
X112153616Y-124323529D03*
X113153616Y-124323529D03*
X114153616Y-124323529D03*
D13*
X128513940Y-132273529D03*
X137799440Y-108969529D03*
X111590000Y-107053529D03*
X123513940Y-114973529D03*
X140597880Y-116658529D03*
X102890000Y-110573529D03*
X112690000Y-111173529D03*
X108400000Y-103717529D03*
X103000000Y-102200000D03*
X140513940Y-127273529D03*
X112400000Y-100517529D03*
X121513940Y-104273529D03*
X109130000Y-105253529D03*
X121013940Y-114973529D03*
D11*
X135613940Y-119698529D03*
D13*
X109990000Y-112073529D03*
X109990000Y-111173529D03*
X103913940Y-120723529D03*
X109513940Y-129273529D03*
X131800000Y-133900000D03*
X111090000Y-105553529D03*
X114000000Y-101317529D03*
X109130000Y-104653529D03*
X105490000Y-113073529D03*
X109630000Y-107353529D03*
X108400000Y-101317529D03*
X107000000Y-105173529D03*
D11*
X141000000Y-120100000D03*
D13*
X136300000Y-102200000D03*
X124397500Y-106419529D03*
X127413940Y-120923529D03*
D12*
X111113940Y-123248529D03*
D13*
X112400000Y-101317529D03*
X106800000Y-103717529D03*
X134400000Y-131923529D03*
X113200000Y-100517529D03*
D11*
X139463940Y-121098529D03*
X143000000Y-120400000D03*
D13*
X101013940Y-122673529D03*
X107600000Y-101317529D03*
X128513940Y-112273529D03*
D11*
X134363940Y-120898529D03*
X130413940Y-113073529D03*
D13*
X112690000Y-112073529D03*
X119900000Y-123948529D03*
X107600000Y-102917529D03*
X112400000Y-102917529D03*
X133663940Y-109723529D03*
X105513940Y-102217529D03*
X121563940Y-126373529D03*
X103000000Y-105173529D03*
X111790000Y-111173529D03*
X106240000Y-110343529D03*
X114040000Y-107123529D03*
X111790000Y-112073529D03*
X111590000Y-106453529D03*
X109130000Y-105853529D03*
X137950000Y-128273529D03*
X108400000Y-100517529D03*
X121413940Y-117873529D03*
X111590000Y-105853529D03*
X127400000Y-122800000D03*
D11*
X112153940Y-123193529D03*
D13*
X108813940Y-115148529D03*
X109130000Y-106453529D03*
D11*
X137913940Y-119048529D03*
D13*
X107913940Y-126673529D03*
X107600000Y-103717529D03*
X113200000Y-102117529D03*
X103213940Y-113548529D03*
X108400000Y-102917529D03*
X114000000Y-100517529D03*
X106800000Y-100517529D03*
X105240000Y-110343529D03*
X114990000Y-107173529D03*
X128797500Y-108319529D03*
X105000000Y-105173529D03*
X115513940Y-102217529D03*
X112400000Y-103717529D03*
X114000000Y-103717529D03*
X112990000Y-105173529D03*
X109013940Y-119073529D03*
X107600000Y-100517529D03*
X118513940Y-108217529D03*
X127000000Y-129848529D03*
X131893440Y-104969529D03*
X110890000Y-112073529D03*
X112513940Y-129773529D03*
X111090000Y-106753529D03*
X110890000Y-111173529D03*
X121513940Y-107273529D03*
X140597880Y-115358529D03*
X106800000Y-102117529D03*
X113200000Y-102917529D03*
X111590000Y-105253529D03*
X114900000Y-111600000D03*
X113200000Y-103717529D03*
X111090000Y-104953529D03*
X116263940Y-127173529D03*
X111590000Y-104653529D03*
X136193440Y-104369529D03*
X103913940Y-119173529D03*
X133314940Y-112589529D03*
X113200000Y-101317529D03*
X106800000Y-102917529D03*
X128797500Y-105619529D03*
X109630000Y-106753529D03*
X109630000Y-105553529D03*
X109630000Y-106153529D03*
X140597880Y-112858529D03*
X111090000Y-106153529D03*
X121400000Y-119500000D03*
X124313940Y-132873529D03*
X109630000Y-104953529D03*
X132013940Y-109573529D03*
X112400000Y-102117529D03*
X101013940Y-118573529D03*
X114900000Y-113873529D03*
X128013940Y-108573529D03*
X108400000Y-102117529D03*
X111090000Y-107353529D03*
X101013940Y-111248529D03*
X107600000Y-102117529D03*
X114000000Y-102117529D03*
X109130000Y-107053529D03*
X114000000Y-102917529D03*
X106800000Y-101317529D03*
X118513940Y-105217529D03*
X118613940Y-134123529D03*
D11*
%TO.N,+3V3*%
X128903616Y-128798529D03*
X131053616Y-117602145D03*
X119800000Y-128148529D03*
X116050000Y-128148529D03*
X106400000Y-128248529D03*
X140413940Y-117873529D03*
X130413940Y-126973529D03*
X134013940Y-123173529D03*
D13*
%TO.N,NRST*%
X125000000Y-121348529D03*
X133113940Y-113873529D03*
%TO.N,Net-(D201-RK)*%
X126613940Y-133873529D03*
X129913940Y-132473529D03*
%TO.N,BOOT0*%
X122600000Y-117748529D03*
X118263940Y-132373529D03*
%TO.N,I2C1_SCL*%
X133261440Y-110794529D03*
X122313940Y-114773529D03*
X126047500Y-111669529D03*
%TO.N,I2C1_SDA*%
X121613940Y-114373529D03*
X126047500Y-110769529D03*
%TO.N,TIM3_CH1*%
X129913940Y-130073529D03*
X125600000Y-117748529D03*
%TO.N,TIM3_CH2*%
X123900000Y-118148529D03*
X124250000Y-130998529D03*
%TO.N,TIM4_CH1*%
X123300000Y-117748529D03*
X124900000Y-130748529D03*
%TO.N,SWCLK*%
X133313940Y-116573529D03*
X128100000Y-115148529D03*
%TO.N,SWO*%
X133213940Y-115273529D03*
X125600000Y-114948529D03*
%TO.N,IRQ_DW*%
X124200000Y-126448529D03*
X123013940Y-112873529D03*
%TO.N,INT_GYR*%
X131893440Y-106269529D03*
X120600000Y-122348529D03*
%TO.N,INT_ACC*%
X121300000Y-122748529D03*
X134799440Y-104569529D03*
%TO.N,Net-(D1-A)*%
X116213940Y-132873529D03*
X117013940Y-110617529D03*
%TO.N,Net-(D2-A)*%
X117013940Y-109567529D03*
X117363940Y-133023529D03*
%TO.N,IRQ_MM350*%
X126413940Y-108773529D03*
X119900000Y-121948529D03*
%TD*%
%TA.AperFunction,Conductor*%
%TO.N,GND*%
G36*
X136905392Y-100100972D02*
G01*
X136917433Y-100102025D01*
X136944880Y-100104426D01*
X136945961Y-100104526D01*
X137071776Y-100116918D01*
X137091685Y-100120541D01*
X137156467Y-100137899D01*
X137160203Y-100138966D01*
X137251570Y-100166682D01*
X137267959Y-100172952D01*
X137333867Y-100203686D01*
X137339867Y-100206685D01*
X137382639Y-100229548D01*
X137419046Y-100249008D01*
X137431715Y-100256791D01*
X137492889Y-100299625D01*
X137500430Y-100305346D01*
X137568455Y-100361172D01*
X137577472Y-100369345D01*
X137630653Y-100422526D01*
X137638826Y-100431543D01*
X137694652Y-100499568D01*
X137700373Y-100507109D01*
X137743207Y-100568283D01*
X137750990Y-100580952D01*
X137793304Y-100660114D01*
X137796328Y-100666163D01*
X137827041Y-100732027D01*
X137833319Y-100748436D01*
X137861008Y-100839713D01*
X137862123Y-100843616D01*
X137879454Y-100908298D01*
X137883082Y-100928238D01*
X137895456Y-101053882D01*
X137895581Y-101055223D01*
X137899028Y-101094604D01*
X137899500Y-101105416D01*
X137899500Y-103099500D01*
X137899500Y-103100000D01*
X137899500Y-103257250D01*
X137926511Y-103514244D01*
X137932375Y-103570031D01*
X137997761Y-103877649D01*
X138094947Y-104176761D01*
X138222865Y-104464066D01*
X138380112Y-104736428D01*
X138564975Y-104990870D01*
X138775413Y-105224586D01*
X139009129Y-105435024D01*
X139009132Y-105435026D01*
X139009133Y-105435027D01*
X139263568Y-105619885D01*
X139535932Y-105777134D01*
X139677535Y-105840180D01*
X139823238Y-105905052D01*
X139823240Y-105905052D01*
X139823241Y-105905053D01*
X140122348Y-106002238D01*
X140429974Y-106067626D01*
X140742750Y-106100500D01*
X140899901Y-106100500D01*
X140900000Y-106100500D01*
X140900500Y-106100500D01*
X142894587Y-106100500D01*
X142905392Y-106100972D01*
X142917433Y-106102025D01*
X142944880Y-106104426D01*
X142945961Y-106104526D01*
X143071776Y-106116918D01*
X143091685Y-106120541D01*
X143156467Y-106137899D01*
X143160203Y-106138966D01*
X143251570Y-106166682D01*
X143267959Y-106172952D01*
X143333867Y-106203686D01*
X143339867Y-106206685D01*
X143382639Y-106229548D01*
X143419046Y-106249008D01*
X143431715Y-106256791D01*
X143492889Y-106299625D01*
X143500430Y-106305346D01*
X143568455Y-106361172D01*
X143577472Y-106369345D01*
X143630653Y-106422526D01*
X143638826Y-106431543D01*
X143694652Y-106499568D01*
X143700373Y-106507109D01*
X143743207Y-106568283D01*
X143750990Y-106580952D01*
X143793304Y-106660114D01*
X143796328Y-106666163D01*
X143827041Y-106732027D01*
X143833319Y-106748436D01*
X143861008Y-106839713D01*
X143862123Y-106843616D01*
X143879454Y-106908298D01*
X143883082Y-106928238D01*
X143895456Y-107053882D01*
X143895581Y-107055223D01*
X143899028Y-107094604D01*
X143899500Y-107105416D01*
X143899500Y-130566519D01*
X143899305Y-130573475D01*
X143896542Y-130622653D01*
X143896472Y-130623806D01*
X143884738Y-130802846D01*
X143883251Y-130815509D01*
X143867545Y-130907943D01*
X143866915Y-130911361D01*
X143862096Y-130935591D01*
X143844928Y-131021903D01*
X143840524Y-131044042D01*
X143838060Y-131054180D01*
X143809976Y-131151660D01*
X143808241Y-131157190D01*
X143766986Y-131278724D01*
X143764128Y-131286319D01*
X143724653Y-131381619D01*
X143721304Y-131389010D01*
X143664531Y-131504133D01*
X143661847Y-131509269D01*
X143612783Y-131598045D01*
X143607357Y-131606955D01*
X143532190Y-131719451D01*
X143530218Y-131722316D01*
X143475971Y-131798770D01*
X143468069Y-131808774D01*
X143349866Y-131943558D01*
X143349100Y-131944423D01*
X143316235Y-131981201D01*
X143311353Y-131986359D01*
X140980915Y-134311442D01*
X140975962Y-134316120D01*
X140938765Y-134349361D01*
X140937904Y-134350123D01*
X140803549Y-134467968D01*
X140793538Y-134475876D01*
X140716413Y-134530599D01*
X140713549Y-134532571D01*
X140601770Y-134607260D01*
X140592859Y-134612686D01*
X140503589Y-134662023D01*
X140498452Y-134664708D01*
X140383880Y-134721207D01*
X140376489Y-134724555D01*
X140280718Y-134764224D01*
X140273123Y-134767083D01*
X140152164Y-134808141D01*
X140146632Y-134809875D01*
X140048619Y-134838110D01*
X140038483Y-134840574D01*
X139906596Y-134866805D01*
X139903184Y-134867434D01*
X139887486Y-134870101D01*
X139809971Y-134883269D01*
X139797310Y-134884755D01*
X139620377Y-134896346D01*
X139619225Y-134896416D01*
X139574417Y-134898932D01*
X139567781Y-134899305D01*
X139560837Y-134899500D01*
X107105416Y-134899500D01*
X107094606Y-134899028D01*
X107092001Y-134898800D01*
X107055223Y-134895581D01*
X107053882Y-134895456D01*
X106928238Y-134883082D01*
X106908298Y-134879454D01*
X106843616Y-134862123D01*
X106839713Y-134861008D01*
X106748436Y-134833319D01*
X106732027Y-134827041D01*
X106666163Y-134796328D01*
X106660114Y-134793304D01*
X106580952Y-134750990D01*
X106568283Y-134743207D01*
X106507109Y-134700373D01*
X106499568Y-134694652D01*
X106431543Y-134638826D01*
X106422526Y-134630653D01*
X106369345Y-134577472D01*
X106361172Y-134568455D01*
X106305346Y-134500430D01*
X106299625Y-134492889D01*
X106256791Y-134431715D01*
X106249008Y-134419046D01*
X106211760Y-134349361D01*
X106206685Y-134339867D01*
X106203686Y-134333867D01*
X106172952Y-134267959D01*
X106166682Y-134251570D01*
X106138966Y-134160203D01*
X106137899Y-134156467D01*
X106120541Y-134091685D01*
X106116918Y-134071776D01*
X106104526Y-133945961D01*
X106104426Y-133944880D01*
X106100972Y-133905392D01*
X106100500Y-133894587D01*
X106100500Y-133873529D01*
X126108293Y-133873529D01*
X126128774Y-134015986D01*
X126188563Y-134146903D01*
X126282810Y-134255670D01*
X126282812Y-134255672D01*
X126403887Y-134333482D01*
X126541979Y-134374029D01*
X126685901Y-134374029D01*
X126823993Y-134333482D01*
X126945068Y-134255672D01*
X127039317Y-134146902D01*
X127099105Y-134015986D01*
X127119587Y-133873529D01*
X127099105Y-133731072D01*
X127093409Y-133718600D01*
X127039316Y-133600154D01*
X126945069Y-133491387D01*
X126945068Y-133491386D01*
X126823993Y-133413576D01*
X126685901Y-133373029D01*
X126541979Y-133373029D01*
X126403887Y-133413576D01*
X126282810Y-133491387D01*
X126188563Y-133600154D01*
X126128774Y-133731071D01*
X126108293Y-133873529D01*
X106100500Y-133873529D01*
X106100500Y-133042362D01*
X108745623Y-133042362D01*
X108755943Y-133206387D01*
X108755944Y-133206389D01*
X108806732Y-133362700D01*
X108834002Y-133405670D01*
X108894797Y-133501469D01*
X108956797Y-133559690D01*
X109014607Y-133613977D01*
X109158632Y-133693156D01*
X109158634Y-133693157D01*
X109317821Y-133734029D01*
X109317823Y-133734029D01*
X109440925Y-133734029D01*
X109440927Y-133734029D01*
X109563059Y-133718600D01*
X109639464Y-133688348D01*
X109715871Y-133658097D01*
X109848837Y-133561492D01*
X109953600Y-133434855D01*
X110023579Y-133286142D01*
X110054376Y-133124699D01*
X110049196Y-133042362D01*
X111745623Y-133042362D01*
X111755943Y-133206387D01*
X111755944Y-133206389D01*
X111806732Y-133362700D01*
X111834002Y-133405670D01*
X111894797Y-133501469D01*
X111956797Y-133559690D01*
X112014607Y-133613977D01*
X112158632Y-133693156D01*
X112158634Y-133693157D01*
X112317821Y-133734029D01*
X112317823Y-133734029D01*
X112440925Y-133734029D01*
X112440927Y-133734029D01*
X112563059Y-133718600D01*
X112639464Y-133688348D01*
X112715871Y-133658097D01*
X112848837Y-133561492D01*
X112953600Y-133434855D01*
X113023579Y-133286142D01*
X113054376Y-133124699D01*
X113044056Y-132960669D01*
X113015742Y-132873528D01*
X115708293Y-132873528D01*
X115728774Y-133015986D01*
X115788563Y-133146903D01*
X115840108Y-133206389D01*
X115882812Y-133255672D01*
X116003887Y-133333482D01*
X116141979Y-133374029D01*
X116285901Y-133374029D01*
X116423993Y-133333482D01*
X116545068Y-133255672D01*
X116639317Y-133146902D01*
X116643919Y-133136826D01*
X116683827Y-133088019D01*
X116742578Y-133065145D01*
X116804982Y-133074117D01*
X116854908Y-133112616D01*
X116870732Y-133150058D01*
X116871368Y-133149768D01*
X116938563Y-133296903D01*
X117018828Y-133389534D01*
X117032812Y-133405672D01*
X117153887Y-133483482D01*
X117291979Y-133524029D01*
X117435901Y-133524029D01*
X117573993Y-133483482D01*
X117695068Y-133405672D01*
X117789317Y-133296902D01*
X117808093Y-133255789D01*
X132224500Y-133255789D01*
X132239045Y-133389533D01*
X132296377Y-133559690D01*
X132388949Y-133713546D01*
X132405550Y-133731071D01*
X132512431Y-133843904D01*
X132556125Y-133873529D01*
X132661047Y-133944669D01*
X132827850Y-134011129D01*
X132827853Y-134011130D01*
X133005045Y-134040179D01*
X133184339Y-134030458D01*
X133357351Y-133982422D01*
X133515992Y-133898315D01*
X133652843Y-133782073D01*
X133761507Y-133639128D01*
X133761506Y-133639128D01*
X133761508Y-133639127D01*
X133836900Y-133476169D01*
X133836899Y-133476169D01*
X133836901Y-133476167D01*
X133875500Y-133300808D01*
X133875500Y-133255789D01*
X139374500Y-133255789D01*
X139389045Y-133389533D01*
X139446377Y-133559690D01*
X139538949Y-133713546D01*
X139555550Y-133731071D01*
X139662431Y-133843904D01*
X139706125Y-133873529D01*
X139811047Y-133944669D01*
X139977850Y-134011129D01*
X139977853Y-134011130D01*
X140155045Y-134040179D01*
X140334339Y-134030458D01*
X140507351Y-133982422D01*
X140665992Y-133898315D01*
X140802843Y-133782073D01*
X140911507Y-133639128D01*
X140911506Y-133639128D01*
X140911508Y-133639127D01*
X140986900Y-133476169D01*
X140986899Y-133476169D01*
X140986901Y-133476167D01*
X141025500Y-133300808D01*
X141025500Y-132516269D01*
X141010954Y-132382524D01*
X140953622Y-132212367D01*
X140886107Y-132100156D01*
X140861050Y-132058511D01*
X140791006Y-131984567D01*
X140737569Y-131928154D01*
X140695899Y-131899901D01*
X140588952Y-131827388D01*
X140422149Y-131760928D01*
X140351270Y-131749308D01*
X140244955Y-131731879D01*
X140244952Y-131731879D01*
X140065660Y-131741599D01*
X139892649Y-131789635D01*
X139734008Y-131873742D01*
X139597156Y-131989985D01*
X139488491Y-132132930D01*
X139413099Y-132295888D01*
X139374500Y-132471250D01*
X139374500Y-133255789D01*
X133875500Y-133255789D01*
X133875500Y-132516269D01*
X133860954Y-132382524D01*
X133803622Y-132212367D01*
X133736107Y-132100156D01*
X133711050Y-132058511D01*
X133641006Y-131984567D01*
X133587569Y-131928154D01*
X133545899Y-131899901D01*
X133438952Y-131827388D01*
X133272149Y-131760928D01*
X133201270Y-131749308D01*
X133094955Y-131731879D01*
X133094952Y-131731879D01*
X132915660Y-131741599D01*
X132742649Y-131789635D01*
X132584008Y-131873742D01*
X132447156Y-131989985D01*
X132338491Y-132132930D01*
X132263099Y-132295888D01*
X132224500Y-132471250D01*
X132224500Y-133255789D01*
X117808093Y-133255789D01*
X117849105Y-133165986D01*
X117869587Y-133023529D01*
X117859359Y-132952390D01*
X117869303Y-132883232D01*
X117915058Y-132830428D01*
X117982097Y-132810744D01*
X118049135Y-132830428D01*
X118053887Y-132833482D01*
X118191979Y-132874029D01*
X118335901Y-132874029D01*
X118473993Y-132833482D01*
X118595068Y-132755672D01*
X118689317Y-132646902D01*
X118749105Y-132515986D01*
X118755209Y-132473529D01*
X129408293Y-132473529D01*
X129428774Y-132615986D01*
X129488563Y-132746903D01*
X129563584Y-132833482D01*
X129582812Y-132855672D01*
X129703887Y-132933482D01*
X129841979Y-132974029D01*
X129985901Y-132974029D01*
X130123993Y-132933482D01*
X130245068Y-132855672D01*
X130339317Y-132746902D01*
X130399105Y-132615986D01*
X130419587Y-132473529D01*
X130399105Y-132331072D01*
X130383038Y-132295891D01*
X130339316Y-132200154D01*
X130245069Y-132091387D01*
X130245068Y-132091386D01*
X130123993Y-132013576D01*
X129985901Y-131973029D01*
X129841979Y-131973029D01*
X129703887Y-132013576D01*
X129582810Y-132091387D01*
X129488563Y-132200154D01*
X129428774Y-132331071D01*
X129408293Y-132473529D01*
X118755209Y-132473529D01*
X118769587Y-132373529D01*
X118749105Y-132231072D01*
X118689317Y-132100156D01*
X118689316Y-132100155D01*
X118689316Y-132100154D01*
X118595069Y-131991387D01*
X118595068Y-131991386D01*
X118473993Y-131913576D01*
X118335901Y-131873029D01*
X118191979Y-131873029D01*
X118053887Y-131913576D01*
X117932810Y-131991387D01*
X117838563Y-132100154D01*
X117778774Y-132231071D01*
X117758293Y-132373529D01*
X117768520Y-132444668D01*
X117758576Y-132513825D01*
X117712821Y-132566629D01*
X117645782Y-132586313D01*
X117578744Y-132566629D01*
X117573994Y-132563576D01*
X117435901Y-132523029D01*
X117291979Y-132523029D01*
X117153887Y-132563576D01*
X117032810Y-132641387D01*
X116938561Y-132750156D01*
X116933958Y-132760236D01*
X116894047Y-132809042D01*
X116835295Y-132831912D01*
X116772890Y-132822937D01*
X116722966Y-132784435D01*
X116707148Y-132746999D01*
X116706512Y-132747290D01*
X116639316Y-132600154D01*
X116545069Y-132491387D01*
X116545068Y-132491386D01*
X116423993Y-132413576D01*
X116285901Y-132373029D01*
X116141979Y-132373029D01*
X116003887Y-132413576D01*
X115882810Y-132491387D01*
X115788563Y-132600154D01*
X115728774Y-132731071D01*
X115708293Y-132873528D01*
X113015742Y-132873528D01*
X112993268Y-132804358D01*
X112939392Y-132719463D01*
X112905202Y-132665588D01*
X112785393Y-132553081D01*
X112641365Y-132473900D01*
X112482179Y-132433029D01*
X112482177Y-132433029D01*
X112359075Y-132433029D01*
X112359073Y-132433029D01*
X112236940Y-132448457D01*
X112084129Y-132508960D01*
X111951165Y-132605563D01*
X111846399Y-132732204D01*
X111798742Y-132833481D01*
X111776421Y-132880916D01*
X111761207Y-132960669D01*
X111745623Y-133042362D01*
X110049196Y-133042362D01*
X110044056Y-132960669D01*
X109993268Y-132804358D01*
X109939392Y-132719463D01*
X109905202Y-132665588D01*
X109785393Y-132553081D01*
X109641365Y-132473900D01*
X109482179Y-132433029D01*
X109482177Y-132433029D01*
X109359075Y-132433029D01*
X109359073Y-132433029D01*
X109236940Y-132448457D01*
X109084129Y-132508960D01*
X108951165Y-132605563D01*
X108846399Y-132732204D01*
X108798742Y-132833481D01*
X108776421Y-132880916D01*
X108761207Y-132960669D01*
X108745623Y-133042362D01*
X106100500Y-133042362D01*
X106100500Y-131742753D01*
X106099357Y-131731879D01*
X106067626Y-131429974D01*
X106002238Y-131122348D01*
X105962007Y-130998528D01*
X123744353Y-130998528D01*
X123764834Y-131140986D01*
X123824623Y-131271903D01*
X123918870Y-131380670D01*
X123918872Y-131380672D01*
X124039947Y-131458482D01*
X124178039Y-131499029D01*
X124321961Y-131499029D01*
X124460053Y-131458482D01*
X124581128Y-131380672D01*
X124669957Y-131278156D01*
X124706846Y-131249147D01*
X124751880Y-131235923D01*
X124798598Y-131240384D01*
X124828039Y-131249029D01*
X124971961Y-131249029D01*
X125110053Y-131208482D01*
X125231128Y-131130672D01*
X125325377Y-131021902D01*
X125385165Y-130890986D01*
X125397615Y-130804396D01*
X134149500Y-130804396D01*
X134188022Y-130935591D01*
X134261943Y-131050616D01*
X134365282Y-131140159D01*
X134489657Y-131196960D01*
X134590989Y-131211529D01*
X134659011Y-131211529D01*
X134760342Y-131196960D01*
X134760341Y-131196960D01*
X134884718Y-131140159D01*
X134988055Y-131050618D01*
X135061978Y-130935590D01*
X135100500Y-130804396D01*
X138149500Y-130804396D01*
X138188022Y-130935591D01*
X138261943Y-131050616D01*
X138365282Y-131140159D01*
X138489657Y-131196960D01*
X138590989Y-131211529D01*
X138659011Y-131211529D01*
X138760342Y-131196960D01*
X138760341Y-131196960D01*
X138884718Y-131140159D01*
X138988055Y-131050618D01*
X139061978Y-130935590D01*
X139100500Y-130804396D01*
X139100500Y-130667662D01*
X139061978Y-130536468D01*
X139060059Y-130533482D01*
X138988056Y-130421441D01*
X138884717Y-130331898D01*
X138760342Y-130275097D01*
X138659011Y-130260529D01*
X138590989Y-130260529D01*
X138489657Y-130275097D01*
X138365282Y-130331898D01*
X138261943Y-130421441D01*
X138188022Y-130536466D01*
X138149500Y-130667662D01*
X138149500Y-130804396D01*
X135100500Y-130804396D01*
X135100500Y-130667662D01*
X135061978Y-130536468D01*
X135060059Y-130533482D01*
X134988056Y-130421441D01*
X134884717Y-130331898D01*
X134760342Y-130275097D01*
X134659011Y-130260529D01*
X134590989Y-130260529D01*
X134489657Y-130275097D01*
X134365282Y-130331898D01*
X134261943Y-130421441D01*
X134188022Y-130536466D01*
X134149500Y-130667662D01*
X134149500Y-130804396D01*
X125397615Y-130804396D01*
X125405647Y-130748529D01*
X125385165Y-130606072D01*
X125370531Y-130574029D01*
X125325376Y-130475154D01*
X125231129Y-130366387D01*
X125231128Y-130366386D01*
X125110053Y-130288576D01*
X124971961Y-130248029D01*
X124828039Y-130248029D01*
X124689947Y-130288576D01*
X124568871Y-130366385D01*
X124480045Y-130468898D01*
X124421267Y-130506672D01*
X124351398Y-130506672D01*
X124321962Y-130498029D01*
X124321961Y-130498029D01*
X124178039Y-130498029D01*
X124039947Y-130538576D01*
X123918870Y-130616387D01*
X123824623Y-130725154D01*
X123764834Y-130856071D01*
X123744353Y-130998528D01*
X105962007Y-130998528D01*
X105905053Y-130823241D01*
X105901610Y-130815509D01*
X105812955Y-130616387D01*
X105777134Y-130535932D01*
X105647889Y-130312072D01*
X105619887Y-130263571D01*
X105585314Y-130215986D01*
X105481813Y-130073529D01*
X129408293Y-130073529D01*
X129428774Y-130215986D01*
X129488563Y-130346903D01*
X129559107Y-130428315D01*
X129582812Y-130455672D01*
X129703887Y-130533482D01*
X129841979Y-130574029D01*
X129985901Y-130574029D01*
X130123993Y-130533482D01*
X130245068Y-130455672D01*
X130339317Y-130346902D01*
X130399105Y-130215986D01*
X130419587Y-130073529D01*
X130399105Y-129931072D01*
X130393835Y-129919533D01*
X130339316Y-129800154D01*
X130326869Y-129785789D01*
X132224500Y-129785789D01*
X132239045Y-129919533D01*
X132296377Y-130089690D01*
X132388949Y-130243546D01*
X132418837Y-130275098D01*
X132512431Y-130373904D01*
X132551289Y-130400250D01*
X132661047Y-130474669D01*
X132827850Y-130541129D01*
X132827853Y-130541130D01*
X133005045Y-130570179D01*
X133184339Y-130560458D01*
X133357351Y-130512422D01*
X133515992Y-130428315D01*
X133652843Y-130312073D01*
X133761507Y-130169128D01*
X133761506Y-130169128D01*
X133761508Y-130169127D01*
X133836900Y-130006169D01*
X133836899Y-130006169D01*
X133836901Y-130006167D01*
X133875500Y-129830808D01*
X133875500Y-129785789D01*
X139374500Y-129785789D01*
X139389045Y-129919533D01*
X139446377Y-130089690D01*
X139538949Y-130243546D01*
X139568837Y-130275098D01*
X139662431Y-130373904D01*
X139701289Y-130400250D01*
X139811047Y-130474669D01*
X139977850Y-130541129D01*
X139977853Y-130541130D01*
X140155045Y-130570179D01*
X140334339Y-130560458D01*
X140507351Y-130512422D01*
X140665992Y-130428315D01*
X140802843Y-130312073D01*
X140911507Y-130169128D01*
X140911506Y-130169128D01*
X140911508Y-130169127D01*
X140986900Y-130006169D01*
X140986899Y-130006169D01*
X140986901Y-130006167D01*
X141025500Y-129830808D01*
X141025500Y-129046269D01*
X141010954Y-128912524D01*
X140953622Y-128742367D01*
X140920797Y-128687812D01*
X140861050Y-128588511D01*
X140796138Y-128519985D01*
X140737569Y-128458154D01*
X140679889Y-128419046D01*
X140588952Y-128357388D01*
X140422149Y-128290928D01*
X140351270Y-128279308D01*
X140244955Y-128261879D01*
X140244952Y-128261879D01*
X140065660Y-128271599D01*
X139892649Y-128319635D01*
X139734008Y-128403742D01*
X139597156Y-128519985D01*
X139488491Y-128662930D01*
X139413099Y-128825888D01*
X139374500Y-129001250D01*
X139374500Y-129785789D01*
X133875500Y-129785789D01*
X133875500Y-129046269D01*
X133860954Y-128912524D01*
X133803622Y-128742367D01*
X133770797Y-128687812D01*
X133711050Y-128588511D01*
X133646138Y-128519985D01*
X133587569Y-128458154D01*
X133529889Y-128419046D01*
X133438952Y-128357388D01*
X133272149Y-128290928D01*
X133201270Y-128279308D01*
X133094955Y-128261879D01*
X133094952Y-128261879D01*
X132915660Y-128271599D01*
X132742649Y-128319635D01*
X132584008Y-128403742D01*
X132447156Y-128519985D01*
X132338491Y-128662930D01*
X132263099Y-128825888D01*
X132224500Y-129001250D01*
X132224500Y-129785789D01*
X130326869Y-129785789D01*
X130245069Y-129691387D01*
X130245068Y-129691386D01*
X130123993Y-129613576D01*
X129985901Y-129573029D01*
X129841979Y-129573029D01*
X129703887Y-129613576D01*
X129582810Y-129691387D01*
X129488563Y-129800154D01*
X129428774Y-129931071D01*
X129408293Y-130073529D01*
X105481813Y-130073529D01*
X105435027Y-130009133D01*
X105435026Y-130009132D01*
X105435024Y-130009129D01*
X105224586Y-129775413D01*
X104990870Y-129564975D01*
X104736428Y-129380112D01*
X104464066Y-129222865D01*
X104176761Y-129094947D01*
X103877649Y-128997761D01*
X103570031Y-128932375D01*
X103570030Y-128932374D01*
X103570026Y-128932374D01*
X103257250Y-128899500D01*
X103257247Y-128899500D01*
X101105416Y-128899500D01*
X101094606Y-128899028D01*
X101092001Y-128898800D01*
X101055223Y-128895581D01*
X101053882Y-128895456D01*
X100928238Y-128883082D01*
X100908298Y-128879454D01*
X100843616Y-128862123D01*
X100839713Y-128861008D01*
X100748436Y-128833319D01*
X100732027Y-128827041D01*
X100666163Y-128796328D01*
X100660114Y-128793304D01*
X100580952Y-128750990D01*
X100568283Y-128743207D01*
X100507109Y-128700373D01*
X100499568Y-128694652D01*
X100431543Y-128638826D01*
X100422526Y-128630653D01*
X100369345Y-128577472D01*
X100361172Y-128568455D01*
X100305346Y-128500430D01*
X100299625Y-128492889D01*
X100256791Y-128431715D01*
X100249008Y-128419046D01*
X100219585Y-128364000D01*
X100206685Y-128339867D01*
X100203686Y-128333867D01*
X100172952Y-128267959D01*
X100166682Y-128251570D01*
X100165760Y-128248529D01*
X105744721Y-128248529D01*
X105763763Y-128405347D01*
X105819780Y-128553052D01*
X105909515Y-128683057D01*
X105909516Y-128683058D01*
X105909517Y-128683059D01*
X106027760Y-128787812D01*
X106167635Y-128861225D01*
X106321015Y-128899029D01*
X106478985Y-128899029D01*
X106632365Y-128861225D01*
X106772240Y-128787812D01*
X106890483Y-128683059D01*
X106980220Y-128553052D01*
X107036237Y-128405347D01*
X107055278Y-128248529D01*
X107043136Y-128148529D01*
X115394721Y-128148529D01*
X115413763Y-128305347D01*
X115469780Y-128453052D01*
X115559515Y-128583057D01*
X115559516Y-128583058D01*
X115559517Y-128583059D01*
X115677760Y-128687812D01*
X115817635Y-128761225D01*
X115971015Y-128799029D01*
X116128985Y-128799029D01*
X116282365Y-128761225D01*
X116422240Y-128687812D01*
X116540483Y-128583059D01*
X116630220Y-128453052D01*
X116686237Y-128305347D01*
X116705278Y-128148529D01*
X119144721Y-128148529D01*
X119163763Y-128305347D01*
X119219780Y-128453052D01*
X119309515Y-128583057D01*
X119309516Y-128583058D01*
X119309517Y-128583059D01*
X119427760Y-128687812D01*
X119567635Y-128761225D01*
X119721015Y-128799029D01*
X119878985Y-128799029D01*
X119881014Y-128798529D01*
X128248337Y-128798529D01*
X128267379Y-128955347D01*
X128323396Y-129103052D01*
X128413131Y-129233057D01*
X128413132Y-129233058D01*
X128413133Y-129233059D01*
X128531376Y-129337812D01*
X128671251Y-129411225D01*
X128824631Y-129449029D01*
X128982601Y-129449029D01*
X129135981Y-129411225D01*
X129275856Y-129337812D01*
X129394099Y-129233059D01*
X129483836Y-129103052D01*
X129539853Y-128955347D01*
X129558894Y-128798529D01*
X129539853Y-128641711D01*
X129483836Y-128494006D01*
X129394099Y-128363999D01*
X129275856Y-128259246D01*
X129242709Y-128241849D01*
X129135980Y-128185832D01*
X128982601Y-128148029D01*
X128824631Y-128148029D01*
X128671251Y-128185832D01*
X128531377Y-128259245D01*
X128413131Y-128364000D01*
X128323396Y-128494005D01*
X128267379Y-128641710D01*
X128248337Y-128798529D01*
X119881014Y-128798529D01*
X120032365Y-128761225D01*
X120172240Y-128687812D01*
X120290483Y-128583059D01*
X120380220Y-128453052D01*
X120436237Y-128305347D01*
X120455278Y-128148529D01*
X120436237Y-127991711D01*
X120380220Y-127844006D01*
X120290483Y-127713999D01*
X120172240Y-127609246D01*
X120128378Y-127586225D01*
X120032364Y-127535832D01*
X119878985Y-127498029D01*
X119721015Y-127498029D01*
X119567635Y-127535832D01*
X119427761Y-127609245D01*
X119309515Y-127714000D01*
X119219780Y-127844005D01*
X119163763Y-127991710D01*
X119144721Y-128148529D01*
X116705278Y-128148529D01*
X116686237Y-127991711D01*
X116630220Y-127844006D01*
X116540483Y-127713999D01*
X116422240Y-127609246D01*
X116378378Y-127586225D01*
X116282364Y-127535832D01*
X116128985Y-127498029D01*
X115971015Y-127498029D01*
X115817635Y-127535832D01*
X115677761Y-127609245D01*
X115559515Y-127714000D01*
X115469780Y-127844005D01*
X115413763Y-127991710D01*
X115394721Y-128148529D01*
X107043136Y-128148529D01*
X107036237Y-128091711D01*
X106980220Y-127944006D01*
X106890483Y-127813999D01*
X106772240Y-127709246D01*
X106758994Y-127702294D01*
X106632364Y-127635832D01*
X106478985Y-127598029D01*
X106321015Y-127598029D01*
X106167635Y-127635832D01*
X106027761Y-127709245D01*
X105909515Y-127814000D01*
X105819780Y-127944005D01*
X105763763Y-128091710D01*
X105744721Y-128248529D01*
X100165760Y-128248529D01*
X100138966Y-128160203D01*
X100137899Y-128156467D01*
X100120541Y-128091685D01*
X100116918Y-128071776D01*
X100104526Y-127945961D01*
X100104426Y-127944880D01*
X100100972Y-127905392D01*
X100100500Y-127894587D01*
X100100500Y-126056328D01*
X101745709Y-126056328D01*
X101775925Y-126279388D01*
X101830882Y-126448529D01*
X101845483Y-126493464D01*
X101952148Y-126691681D01*
X102051856Y-126816710D01*
X102062988Y-126830670D01*
X102092492Y-126867666D01*
X102262004Y-127015765D01*
X102262006Y-127015766D01*
X102455237Y-127131216D01*
X102573214Y-127175493D01*
X102665976Y-127210307D01*
X102887453Y-127250500D01*
X103056153Y-127250500D01*
X103056155Y-127250500D01*
X103224188Y-127235377D01*
X103441170Y-127175493D01*
X103643973Y-127077829D01*
X103787530Y-126973529D01*
X129758661Y-126973529D01*
X129777703Y-127130347D01*
X129833720Y-127278052D01*
X129923455Y-127408057D01*
X129923456Y-127408058D01*
X129923457Y-127408059D01*
X130041700Y-127512812D01*
X130181575Y-127586225D01*
X130334955Y-127624029D01*
X130492925Y-127624029D01*
X130646305Y-127586225D01*
X130786180Y-127512812D01*
X130904423Y-127408059D01*
X130994160Y-127278052D01*
X131050177Y-127130347D01*
X131069218Y-126973529D01*
X131050177Y-126816711D01*
X130994160Y-126669006D01*
X130949291Y-126604002D01*
X130904424Y-126539000D01*
X130853024Y-126493464D01*
X130786180Y-126434246D01*
X130698042Y-126387987D01*
X130646304Y-126360832D01*
X130492925Y-126323029D01*
X130334955Y-126323029D01*
X130181575Y-126360832D01*
X130041701Y-126434245D01*
X129923455Y-126539000D01*
X129833720Y-126669005D01*
X129777703Y-126816710D01*
X129758661Y-126973529D01*
X103787530Y-126973529D01*
X103826078Y-126945522D01*
X103981632Y-126782825D01*
X104105635Y-126594968D01*
X104168226Y-126448529D01*
X123694353Y-126448529D01*
X123714834Y-126590986D01*
X123774623Y-126721903D01*
X123868870Y-126830670D01*
X123868872Y-126830672D01*
X123989947Y-126908482D01*
X124128039Y-126949029D01*
X124271961Y-126949029D01*
X124410053Y-126908482D01*
X124531128Y-126830672D01*
X124625377Y-126721902D01*
X124685165Y-126590986D01*
X124705647Y-126448529D01*
X124685165Y-126306072D01*
X124672978Y-126279387D01*
X124625376Y-126175154D01*
X124531129Y-126066387D01*
X124531128Y-126066386D01*
X124410053Y-125988576D01*
X124271961Y-125948029D01*
X124128039Y-125948029D01*
X123989947Y-125988576D01*
X123868870Y-126066387D01*
X123774623Y-126175154D01*
X123714834Y-126306071D01*
X123694353Y-126448529D01*
X104168226Y-126448529D01*
X104194103Y-126387988D01*
X104244191Y-126168537D01*
X104254290Y-125943670D01*
X104224075Y-125720613D01*
X104154517Y-125506536D01*
X104047852Y-125308319D01*
X103907508Y-125132334D01*
X103737996Y-124984235D01*
X103737993Y-124984233D01*
X103544762Y-124868783D01*
X103334025Y-124789693D01*
X103112547Y-124749500D01*
X102943845Y-124749500D01*
X102876631Y-124755549D01*
X102775809Y-124764623D01*
X102558828Y-124824507D01*
X102356027Y-124922170D01*
X102173925Y-125054475D01*
X102018365Y-125217178D01*
X101894365Y-125405031D01*
X101805896Y-125612012D01*
X101755809Y-125831462D01*
X101745709Y-126056328D01*
X100100500Y-126056328D01*
X100100500Y-121948529D01*
X119394353Y-121948529D01*
X119414834Y-122090986D01*
X119474623Y-122221903D01*
X119568870Y-122330670D01*
X119568872Y-122330672D01*
X119689947Y-122408482D01*
X119828039Y-122449029D01*
X119971959Y-122449029D01*
X119971961Y-122449029D01*
X119977952Y-122447269D01*
X120036351Y-122444488D01*
X120089537Y-122468776D01*
X120125680Y-122514734D01*
X120174624Y-122621904D01*
X120268870Y-122730670D01*
X120268872Y-122730672D01*
X120389947Y-122808482D01*
X120528039Y-122849029D01*
X120671959Y-122849029D01*
X120671961Y-122849029D01*
X120677952Y-122847269D01*
X120736351Y-122844488D01*
X120789537Y-122868776D01*
X120825680Y-122914734D01*
X120874624Y-123021904D01*
X120968870Y-123130670D01*
X120968872Y-123130672D01*
X121089947Y-123208482D01*
X121228039Y-123249029D01*
X121371961Y-123249029D01*
X121510053Y-123208482D01*
X121564441Y-123173529D01*
X133358661Y-123173529D01*
X133377703Y-123330347D01*
X133433720Y-123478052D01*
X133523455Y-123608057D01*
X133523456Y-123608058D01*
X133523457Y-123608059D01*
X133641700Y-123712812D01*
X133781575Y-123786225D01*
X133934955Y-123824029D01*
X134092925Y-123824029D01*
X134246305Y-123786225D01*
X134386180Y-123712812D01*
X134504423Y-123608059D01*
X134594160Y-123478052D01*
X134650177Y-123330347D01*
X134669218Y-123173529D01*
X134650177Y-123016711D01*
X134594160Y-122869006D01*
X134504423Y-122738999D01*
X134386180Y-122634246D01*
X134332498Y-122606071D01*
X134246304Y-122560832D01*
X134092925Y-122523029D01*
X133934955Y-122523029D01*
X133781575Y-122560832D01*
X133641701Y-122634245D01*
X133523455Y-122739000D01*
X133433720Y-122869005D01*
X133377703Y-123016710D01*
X133358661Y-123173529D01*
X121564441Y-123173529D01*
X121631128Y-123130672D01*
X121725377Y-123021902D01*
X121785165Y-122890986D01*
X121805647Y-122748529D01*
X121785165Y-122606072D01*
X121764504Y-122560832D01*
X121725376Y-122475154D01*
X121631129Y-122366387D01*
X121631128Y-122366386D01*
X121510053Y-122288576D01*
X121371961Y-122248029D01*
X121228039Y-122248029D01*
X121228037Y-122248029D01*
X121222042Y-122249789D01*
X121163642Y-122252568D01*
X121110460Y-122228280D01*
X121074319Y-122182322D01*
X121025376Y-122075154D01*
X120931129Y-121966387D01*
X120931128Y-121966386D01*
X120810053Y-121888576D01*
X120671961Y-121848029D01*
X120528039Y-121848029D01*
X120528037Y-121848029D01*
X120522042Y-121849789D01*
X120463642Y-121852568D01*
X120410460Y-121828280D01*
X120374319Y-121782322D01*
X120325376Y-121675154D01*
X120231129Y-121566387D01*
X120231128Y-121566386D01*
X120110053Y-121488576D01*
X119971961Y-121448029D01*
X119828039Y-121448029D01*
X119689947Y-121488576D01*
X119568870Y-121566387D01*
X119474623Y-121675154D01*
X119414834Y-121806071D01*
X119394353Y-121948529D01*
X100100500Y-121948529D01*
X100100500Y-121348528D01*
X124494353Y-121348528D01*
X124514834Y-121490986D01*
X124574623Y-121621903D01*
X124620767Y-121675156D01*
X124668872Y-121730672D01*
X124789947Y-121808482D01*
X124928039Y-121849029D01*
X125071961Y-121849029D01*
X125210053Y-121808482D01*
X125331128Y-121730672D01*
X125425377Y-121621902D01*
X125485165Y-121490986D01*
X125505647Y-121348529D01*
X125485165Y-121206072D01*
X125425377Y-121075156D01*
X125425376Y-121075155D01*
X125425376Y-121075154D01*
X125331129Y-120966387D01*
X125331128Y-120966386D01*
X125210053Y-120888576D01*
X125071961Y-120848029D01*
X124928039Y-120848029D01*
X124789947Y-120888576D01*
X124668870Y-120966387D01*
X124574623Y-121075154D01*
X124514834Y-121206071D01*
X124494353Y-121348528D01*
X100100500Y-121348528D01*
X100100500Y-117748529D01*
X122094353Y-117748529D01*
X122114834Y-117890986D01*
X122174623Y-118021903D01*
X122268870Y-118130670D01*
X122268872Y-118130672D01*
X122389947Y-118208482D01*
X122528039Y-118249029D01*
X122671961Y-118249029D01*
X122810053Y-118208482D01*
X122882962Y-118161625D01*
X122926533Y-118144183D01*
X122973467Y-118144183D01*
X123017037Y-118161625D01*
X123089947Y-118208482D01*
X123228039Y-118249029D01*
X123315984Y-118249029D01*
X123383023Y-118268713D01*
X123428778Y-118321517D01*
X123474623Y-118421903D01*
X123563116Y-118524029D01*
X123568872Y-118530672D01*
X123689947Y-118608482D01*
X123828039Y-118649029D01*
X123971961Y-118649029D01*
X124110053Y-118608482D01*
X124231128Y-118530672D01*
X124325377Y-118421902D01*
X124385165Y-118290986D01*
X124405647Y-118148529D01*
X124385165Y-118006072D01*
X124325377Y-117875156D01*
X124325376Y-117875155D01*
X124325376Y-117875154D01*
X124231129Y-117766387D01*
X124231128Y-117766386D01*
X124203342Y-117748529D01*
X125094353Y-117748529D01*
X125114834Y-117890986D01*
X125174623Y-118021903D01*
X125268870Y-118130670D01*
X125268872Y-118130672D01*
X125389947Y-118208482D01*
X125528039Y-118249029D01*
X125671961Y-118249029D01*
X125810053Y-118208482D01*
X125931128Y-118130672D01*
X126025377Y-118021902D01*
X126085165Y-117890986D01*
X126105647Y-117748529D01*
X126085165Y-117606072D01*
X126083371Y-117602144D01*
X130398337Y-117602144D01*
X130417379Y-117758963D01*
X130473396Y-117906668D01*
X130563131Y-118036673D01*
X130563132Y-118036674D01*
X130563133Y-118036675D01*
X130681376Y-118141428D01*
X130821251Y-118214841D01*
X130974631Y-118252645D01*
X131132601Y-118252645D01*
X131285981Y-118214841D01*
X131425856Y-118141428D01*
X131544099Y-118036675D01*
X131633836Y-117906668D01*
X131646404Y-117873528D01*
X139758661Y-117873528D01*
X139777703Y-118030347D01*
X139833720Y-118178052D01*
X139923455Y-118308057D01*
X139923456Y-118308058D01*
X139923457Y-118308059D01*
X140041700Y-118412812D01*
X140181575Y-118486225D01*
X140334955Y-118524029D01*
X140492925Y-118524029D01*
X140646305Y-118486225D01*
X140786180Y-118412812D01*
X140904423Y-118308059D01*
X140994160Y-118178052D01*
X141050177Y-118030347D01*
X141069218Y-117873529D01*
X141050177Y-117716711D01*
X140994160Y-117569006D01*
X140904423Y-117438999D01*
X140786180Y-117334246D01*
X140716398Y-117297621D01*
X140646304Y-117260832D01*
X140492925Y-117223029D01*
X140334955Y-117223029D01*
X140181575Y-117260832D01*
X140041701Y-117334245D01*
X139923455Y-117439000D01*
X139833720Y-117569005D01*
X139777703Y-117716710D01*
X139758661Y-117873528D01*
X131646404Y-117873528D01*
X131689853Y-117758963D01*
X131708894Y-117602145D01*
X131689853Y-117445327D01*
X131633836Y-117297622D01*
X131544099Y-117167615D01*
X131425856Y-117062862D01*
X131369876Y-117033481D01*
X131285980Y-116989448D01*
X131132601Y-116951645D01*
X130974631Y-116951645D01*
X130821251Y-116989448D01*
X130681377Y-117062861D01*
X130563131Y-117167616D01*
X130473396Y-117297621D01*
X130417379Y-117445326D01*
X130398337Y-117602144D01*
X126083371Y-117602144D01*
X126025376Y-117475154D01*
X125931129Y-117366387D01*
X125931128Y-117366386D01*
X125810053Y-117288576D01*
X125671961Y-117248029D01*
X125528039Y-117248029D01*
X125389947Y-117288576D01*
X125268870Y-117366387D01*
X125174623Y-117475154D01*
X125114834Y-117606071D01*
X125094353Y-117748529D01*
X124203342Y-117748529D01*
X124110053Y-117688576D01*
X123971961Y-117648029D01*
X123884016Y-117648029D01*
X123816977Y-117628345D01*
X123771222Y-117575541D01*
X123725376Y-117475154D01*
X123631129Y-117366387D01*
X123631128Y-117366386D01*
X123510053Y-117288576D01*
X123371961Y-117248029D01*
X123228039Y-117248029D01*
X123089947Y-117288576D01*
X123017039Y-117335431D01*
X122950000Y-117355115D01*
X122882961Y-117335431D01*
X122880819Y-117334054D01*
X122810053Y-117288576D01*
X122671961Y-117248029D01*
X122528039Y-117248029D01*
X122389947Y-117288576D01*
X122268870Y-117366387D01*
X122174623Y-117475154D01*
X122114834Y-117606071D01*
X122094353Y-117748529D01*
X100100500Y-117748529D01*
X100100500Y-116573529D01*
X132808293Y-116573529D01*
X132828774Y-116715986D01*
X132888563Y-116846903D01*
X132982810Y-116955670D01*
X132982812Y-116955672D01*
X133103887Y-117033482D01*
X133241979Y-117074029D01*
X133385901Y-117074029D01*
X133523993Y-117033482D01*
X133645068Y-116955672D01*
X133739317Y-116846902D01*
X133799105Y-116715986D01*
X133819587Y-116573529D01*
X133799105Y-116431072D01*
X133739317Y-116300156D01*
X133739316Y-116300155D01*
X133739316Y-116300154D01*
X133645069Y-116191387D01*
X133645068Y-116191386D01*
X133523993Y-116113576D01*
X133385901Y-116073029D01*
X133241979Y-116073029D01*
X133103887Y-116113576D01*
X132982810Y-116191387D01*
X132888563Y-116300154D01*
X132828774Y-116431071D01*
X132808293Y-116573529D01*
X100100500Y-116573529D01*
X100100500Y-114373528D01*
X121108293Y-114373528D01*
X121128774Y-114515986D01*
X121188563Y-114646903D01*
X121224673Y-114688576D01*
X121282812Y-114755672D01*
X121403887Y-114833482D01*
X121541979Y-114874029D01*
X121685899Y-114874029D01*
X121685901Y-114874029D01*
X121691892Y-114872269D01*
X121750291Y-114869488D01*
X121803477Y-114893776D01*
X121839620Y-114939734D01*
X121888564Y-115046904D01*
X121982810Y-115155670D01*
X121982812Y-115155672D01*
X122103887Y-115233482D01*
X122241979Y-115274029D01*
X122385901Y-115274029D01*
X122523993Y-115233482D01*
X122645068Y-115155672D01*
X122739317Y-115046902D01*
X122784243Y-114948529D01*
X125094353Y-114948529D01*
X125114834Y-115090986D01*
X125174623Y-115221903D01*
X125234484Y-115290986D01*
X125268872Y-115330672D01*
X125389947Y-115408482D01*
X125528039Y-115449029D01*
X125671961Y-115449029D01*
X125810053Y-115408482D01*
X125931128Y-115330672D01*
X126025377Y-115221902D01*
X126058886Y-115148529D01*
X127594353Y-115148529D01*
X127614834Y-115290986D01*
X127674623Y-115421903D01*
X127698128Y-115449029D01*
X127768872Y-115530672D01*
X127889947Y-115608482D01*
X128028039Y-115649029D01*
X128171961Y-115649029D01*
X128310053Y-115608482D01*
X128431128Y-115530672D01*
X128525377Y-115421902D01*
X128585165Y-115290986D01*
X128587675Y-115273529D01*
X132708293Y-115273529D01*
X132728774Y-115415986D01*
X132788563Y-115546903D01*
X132877056Y-115649029D01*
X132882812Y-115655672D01*
X133003887Y-115733482D01*
X133141979Y-115774029D01*
X133285901Y-115774029D01*
X133423993Y-115733482D01*
X133545068Y-115655672D01*
X133639317Y-115546902D01*
X133699105Y-115415986D01*
X133719587Y-115273529D01*
X133699105Y-115131072D01*
X133660665Y-115046902D01*
X133639316Y-115000154D01*
X133545069Y-114891387D01*
X133545068Y-114891386D01*
X133423993Y-114813576D01*
X133285901Y-114773029D01*
X133141979Y-114773029D01*
X133003887Y-114813576D01*
X132882810Y-114891387D01*
X132788563Y-115000154D01*
X132728774Y-115131071D01*
X132708293Y-115273529D01*
X128587675Y-115273529D01*
X128605647Y-115148529D01*
X128585165Y-115006072D01*
X128582463Y-115000156D01*
X128525376Y-114875154D01*
X128431129Y-114766387D01*
X128431128Y-114766386D01*
X128310053Y-114688576D01*
X128171961Y-114648029D01*
X128028039Y-114648029D01*
X127889947Y-114688576D01*
X127768870Y-114766387D01*
X127674623Y-114875154D01*
X127614834Y-115006071D01*
X127594353Y-115148529D01*
X126058886Y-115148529D01*
X126085165Y-115090986D01*
X126105647Y-114948529D01*
X126085165Y-114806072D01*
X126067041Y-114766387D01*
X126025376Y-114675154D01*
X125931129Y-114566387D01*
X125931128Y-114566386D01*
X125810053Y-114488576D01*
X125671961Y-114448029D01*
X125528039Y-114448029D01*
X125389947Y-114488576D01*
X125268870Y-114566387D01*
X125174623Y-114675154D01*
X125114834Y-114806071D01*
X125094353Y-114948529D01*
X122784243Y-114948529D01*
X122799105Y-114915986D01*
X122819587Y-114773529D01*
X122799105Y-114631072D01*
X122739317Y-114500156D01*
X122739316Y-114500155D01*
X122739316Y-114500154D01*
X122645069Y-114391387D01*
X122645068Y-114391386D01*
X122523993Y-114313576D01*
X122385901Y-114273029D01*
X122241979Y-114273029D01*
X122241977Y-114273029D01*
X122235982Y-114274789D01*
X122177582Y-114277568D01*
X122124400Y-114253280D01*
X122088259Y-114207322D01*
X122039316Y-114100154D01*
X121945069Y-113991387D01*
X121945068Y-113991386D01*
X121823993Y-113913576D01*
X121687600Y-113873528D01*
X132608293Y-113873528D01*
X132628774Y-114015986D01*
X132688563Y-114146903D01*
X132761495Y-114231071D01*
X132782812Y-114255672D01*
X132903887Y-114333482D01*
X133041979Y-114374029D01*
X133185901Y-114374029D01*
X133323993Y-114333482D01*
X133445068Y-114255672D01*
X133539317Y-114146902D01*
X133599105Y-114015986D01*
X133619587Y-113873529D01*
X133599105Y-113731072D01*
X133539317Y-113600156D01*
X133539316Y-113600155D01*
X133539316Y-113600154D01*
X133445069Y-113491387D01*
X133445068Y-113491386D01*
X133323993Y-113413576D01*
X133185901Y-113373029D01*
X133041979Y-113373029D01*
X132903887Y-113413576D01*
X132782810Y-113491387D01*
X132688563Y-113600154D01*
X132628774Y-113731071D01*
X132608293Y-113873528D01*
X121687600Y-113873528D01*
X121685901Y-113873029D01*
X121541979Y-113873029D01*
X121403887Y-113913576D01*
X121282810Y-113991387D01*
X121188563Y-114100154D01*
X121128774Y-114231071D01*
X121108293Y-114373528D01*
X100100500Y-114373528D01*
X100100500Y-112873529D01*
X122508293Y-112873529D01*
X122528774Y-113015986D01*
X122588563Y-113146903D01*
X122682810Y-113255670D01*
X122682812Y-113255672D01*
X122803887Y-113333482D01*
X122941979Y-113374029D01*
X123085901Y-113374029D01*
X123223993Y-113333482D01*
X123345068Y-113255672D01*
X123439317Y-113146902D01*
X123499105Y-113015986D01*
X123519587Y-112873529D01*
X123499105Y-112731072D01*
X123439317Y-112600156D01*
X123439316Y-112600155D01*
X123439316Y-112600154D01*
X123345069Y-112491387D01*
X123345068Y-112491386D01*
X123223993Y-112413576D01*
X123085901Y-112373029D01*
X122941979Y-112373029D01*
X122803887Y-112413576D01*
X122682810Y-112491387D01*
X122588563Y-112600154D01*
X122528774Y-112731071D01*
X122508293Y-112873529D01*
X100100500Y-112873529D01*
X100100500Y-111669528D01*
X125541853Y-111669528D01*
X125562334Y-111811986D01*
X125622123Y-111942903D01*
X125716370Y-112051670D01*
X125716372Y-112051672D01*
X125837447Y-112129482D01*
X125975539Y-112170029D01*
X126119461Y-112170029D01*
X126257553Y-112129482D01*
X126378628Y-112051672D01*
X126472877Y-111942902D01*
X126532665Y-111811986D01*
X126553147Y-111669529D01*
X126532665Y-111527072D01*
X126472877Y-111396156D01*
X126472876Y-111396155D01*
X126472876Y-111396154D01*
X126390192Y-111300731D01*
X126363400Y-111248763D01*
X126363400Y-111190295D01*
X126390192Y-111138327D01*
X126472876Y-111042903D01*
X126472875Y-111042903D01*
X126472877Y-111042902D01*
X126532665Y-110911986D01*
X126549553Y-110794529D01*
X132755793Y-110794529D01*
X132776274Y-110936986D01*
X132836063Y-111067903D01*
X132930310Y-111176670D01*
X132930312Y-111176672D01*
X133051387Y-111254482D01*
X133189479Y-111295029D01*
X133333401Y-111295029D01*
X133471493Y-111254482D01*
X133592568Y-111176672D01*
X133686817Y-111067902D01*
X133746605Y-110936986D01*
X133767087Y-110794529D01*
X133746605Y-110652072D01*
X133735187Y-110627071D01*
X133686816Y-110521154D01*
X133592569Y-110412387D01*
X133592568Y-110412386D01*
X133471493Y-110334576D01*
X133333401Y-110294029D01*
X133189479Y-110294029D01*
X133051387Y-110334576D01*
X132930310Y-110412387D01*
X132836063Y-110521154D01*
X132776274Y-110652071D01*
X132755793Y-110794529D01*
X126549553Y-110794529D01*
X126553147Y-110769529D01*
X126532665Y-110627072D01*
X126528306Y-110617528D01*
X126472876Y-110496154D01*
X126378629Y-110387387D01*
X126378628Y-110387386D01*
X126257553Y-110309576D01*
X126119461Y-110269029D01*
X125975539Y-110269029D01*
X125837447Y-110309576D01*
X125716370Y-110387387D01*
X125622123Y-110496154D01*
X125562334Y-110627071D01*
X125541853Y-110769528D01*
X125562334Y-110911986D01*
X125622123Y-111042903D01*
X125704808Y-111138327D01*
X125731600Y-111190295D01*
X125731600Y-111248763D01*
X125704808Y-111300731D01*
X125622123Y-111396154D01*
X125562334Y-111527071D01*
X125541853Y-111669528D01*
X100100500Y-111669528D01*
X100100500Y-110617528D01*
X116508293Y-110617528D01*
X116528774Y-110759986D01*
X116588563Y-110890903D01*
X116682810Y-110999670D01*
X116682812Y-110999672D01*
X116803887Y-111077482D01*
X116941979Y-111118029D01*
X117085901Y-111118029D01*
X117223993Y-111077482D01*
X117345068Y-110999672D01*
X117439317Y-110890902D01*
X117499105Y-110759986D01*
X117519587Y-110617529D01*
X117499105Y-110475072D01*
X117470477Y-110412387D01*
X117439316Y-110344154D01*
X117345069Y-110235386D01*
X117285095Y-110196843D01*
X117243303Y-110151954D01*
X117228135Y-110092527D01*
X117243304Y-110033100D01*
X117285092Y-109988215D01*
X117345068Y-109949672D01*
X117348663Y-109945524D01*
X117439316Y-109840903D01*
X117439315Y-109840903D01*
X117439317Y-109840902D01*
X117499105Y-109709986D01*
X117519587Y-109567529D01*
X117499105Y-109425072D01*
X117439317Y-109294156D01*
X117439316Y-109294155D01*
X117439316Y-109294154D01*
X117345069Y-109185387D01*
X117345068Y-109185386D01*
X117223993Y-109107576D01*
X117085901Y-109067029D01*
X116941979Y-109067029D01*
X116803887Y-109107576D01*
X116682810Y-109185387D01*
X116588563Y-109294154D01*
X116528774Y-109425071D01*
X116508293Y-109567529D01*
X116528774Y-109709986D01*
X116588563Y-109840903D01*
X116682809Y-109949669D01*
X116682812Y-109949672D01*
X116737669Y-109984926D01*
X116742783Y-109988213D01*
X116784576Y-110033102D01*
X116799744Y-110092529D01*
X116784576Y-110151956D01*
X116742783Y-110196845D01*
X116682810Y-110235387D01*
X116588563Y-110344154D01*
X116528774Y-110475071D01*
X116508293Y-110617528D01*
X100100500Y-110617528D01*
X100100500Y-108773529D01*
X125908293Y-108773529D01*
X125928774Y-108915986D01*
X125988563Y-109046903D01*
X126082810Y-109155670D01*
X126082812Y-109155672D01*
X126203887Y-109233482D01*
X126341979Y-109274029D01*
X126485901Y-109274029D01*
X126623993Y-109233482D01*
X126745068Y-109155672D01*
X126831149Y-109056328D01*
X139745709Y-109056328D01*
X139775925Y-109279388D01*
X139823260Y-109425071D01*
X139845483Y-109493464D01*
X139952148Y-109691681D01*
X140092492Y-109867666D01*
X140262004Y-110015765D01*
X140325051Y-110053434D01*
X140455237Y-110131216D01*
X140573214Y-110175493D01*
X140665976Y-110210307D01*
X140887453Y-110250500D01*
X141056153Y-110250500D01*
X141056155Y-110250500D01*
X141224188Y-110235377D01*
X141441170Y-110175493D01*
X141643973Y-110077829D01*
X141826078Y-109945522D01*
X141981632Y-109782825D01*
X142105635Y-109594968D01*
X142194103Y-109387988D01*
X142244191Y-109168537D01*
X142254290Y-108943670D01*
X142224075Y-108720613D01*
X142154517Y-108506536D01*
X142047852Y-108308319D01*
X141907508Y-108132334D01*
X141737996Y-107984235D01*
X141737993Y-107984233D01*
X141544762Y-107868783D01*
X141334025Y-107789693D01*
X141112547Y-107749500D01*
X140943845Y-107749500D01*
X140876631Y-107755549D01*
X140775809Y-107764623D01*
X140558828Y-107824507D01*
X140356027Y-107922170D01*
X140173925Y-108054475D01*
X140018365Y-108217178D01*
X139894365Y-108405031D01*
X139805896Y-108612012D01*
X139755809Y-108831462D01*
X139745709Y-109056328D01*
X126831149Y-109056328D01*
X126839317Y-109046902D01*
X126899105Y-108915986D01*
X126919587Y-108773529D01*
X126899105Y-108631072D01*
X126890400Y-108612012D01*
X126839316Y-108500154D01*
X126745069Y-108391387D01*
X126745068Y-108391386D01*
X126623993Y-108313576D01*
X126485901Y-108273029D01*
X126341979Y-108273029D01*
X126203887Y-108313576D01*
X126082810Y-108391387D01*
X125988563Y-108500154D01*
X125928774Y-108631071D01*
X125908293Y-108773529D01*
X100100500Y-108773529D01*
X100100500Y-106269529D01*
X131387793Y-106269529D01*
X131408274Y-106411986D01*
X131468063Y-106542903D01*
X131562310Y-106651670D01*
X131562312Y-106651672D01*
X131683387Y-106729482D01*
X131821479Y-106770029D01*
X131965401Y-106770029D01*
X132103493Y-106729482D01*
X132224568Y-106651672D01*
X132318817Y-106542902D01*
X132378605Y-106411986D01*
X132399087Y-106269529D01*
X132380158Y-106137875D01*
X132378605Y-106127071D01*
X132318816Y-105996154D01*
X132224569Y-105887387D01*
X132224568Y-105887386D01*
X132103493Y-105809576D01*
X131965401Y-105769029D01*
X131821479Y-105769029D01*
X131683387Y-105809576D01*
X131562310Y-105887387D01*
X131468063Y-105996154D01*
X131408274Y-106127071D01*
X131387793Y-106269529D01*
X100100500Y-106269529D01*
X100100500Y-104569529D01*
X134293793Y-104569529D01*
X134314274Y-104711986D01*
X134374063Y-104842903D01*
X134468310Y-104951670D01*
X134468312Y-104951672D01*
X134589387Y-105029482D01*
X134727479Y-105070029D01*
X134871401Y-105070029D01*
X135009493Y-105029482D01*
X135130568Y-104951672D01*
X135224817Y-104842902D01*
X135284605Y-104711986D01*
X135305087Y-104569529D01*
X135284605Y-104427072D01*
X135224817Y-104296156D01*
X135224816Y-104296155D01*
X135224816Y-104296154D01*
X135130569Y-104187387D01*
X135130568Y-104187386D01*
X135009493Y-104109576D01*
X134871401Y-104069029D01*
X134727479Y-104069029D01*
X134589387Y-104109576D01*
X134468310Y-104187387D01*
X134374063Y-104296154D01*
X134314274Y-104427071D01*
X134293793Y-104569529D01*
X100100500Y-104569529D01*
X100100500Y-104328848D01*
X100100695Y-104321898D01*
X100100952Y-104317308D01*
X100103439Y-104273035D01*
X100103470Y-104272531D01*
X100115316Y-104092184D01*
X100116794Y-104079602D01*
X100132260Y-103988571D01*
X100132865Y-103985296D01*
X100159600Y-103850887D01*
X100162051Y-103840802D01*
X100189828Y-103744384D01*
X100191523Y-103738976D01*
X100233231Y-103616102D01*
X100236070Y-103608560D01*
X100275147Y-103514213D01*
X100278467Y-103506886D01*
X100335864Y-103390489D01*
X100338464Y-103385511D01*
X100387019Y-103297651D01*
X100392410Y-103288797D01*
X100468542Y-103174848D01*
X100470500Y-103172007D01*
X100523831Y-103096836D01*
X100531703Y-103086869D01*
X100652761Y-102948814D01*
X100653382Y-102948113D01*
X100683310Y-102914620D01*
X100688269Y-102909385D01*
X102884834Y-100722646D01*
X102885016Y-100722526D01*
X102919099Y-100688540D01*
X102924029Y-100683886D01*
X102933351Y-100675555D01*
X102961380Y-100650506D01*
X102961884Y-100650059D01*
X103096475Y-100532008D01*
X103106433Y-100524143D01*
X103183672Y-100469338D01*
X103186361Y-100467487D01*
X103298265Y-100392715D01*
X103307101Y-100387335D01*
X103396460Y-100337947D01*
X103401496Y-100335315D01*
X103516145Y-100278778D01*
X103523495Y-100275448D01*
X103619308Y-100235763D01*
X103626831Y-100232931D01*
X103747879Y-100191842D01*
X103753321Y-100190136D01*
X103851406Y-100161881D01*
X103861483Y-100159431D01*
X103993531Y-100133169D01*
X103996651Y-100132593D01*
X104090062Y-100116724D01*
X104102669Y-100115245D01*
X104279737Y-100103644D01*
X104280665Y-100103588D01*
X104332214Y-100100694D01*
X104339161Y-100100500D01*
X136894587Y-100100500D01*
X136905392Y-100100972D01*
G37*
%TD.AperFunction*%
%TD*%
M02*
