%TF.GenerationSoftware,KiCad,Pcbnew,7.0.1*%
%TF.CreationDate,2024-02-15T14:19:22+01:00*%
%TF.ProjectId,stm32f405-sensorleap-v1,73746d33-3266-4343-9035-2d73656e736f,rev?*%
%TF.SameCoordinates,Original*%
%TF.FileFunction,Legend,Top*%
%TF.FilePolarity,Positive*%
%FSLAX46Y46*%
G04 Gerber Fmt 4.6, Leading zero omitted, Abs format (unit mm)*
G04 Created by KiCad (PCBNEW 7.0.1) date 2024-02-15 14:19:22*
%MOMM*%
%LPD*%
G01*
G04 APERTURE LIST*
%ADD10C,0.100000*%
%ADD11C,0.150000*%
%ADD12C,0.010000*%
%ADD13C,0.120000*%
%ADD14C,0.050000*%
%ADD15C,0.250000*%
G04 APERTURE END LIST*
D10*
X141763940Y-119173529D02*
X141463940Y-119173529D01*
X141463940Y-119773529D01*
X141263940Y-119773529D01*
X141263940Y-119173529D01*
X140963940Y-119173529D01*
X141363940Y-118773529D01*
X141763940Y-119173529D01*
G36*
X141763940Y-119173529D02*
G01*
X141463940Y-119173529D01*
X141463940Y-119773529D01*
X141263940Y-119773529D01*
X141263940Y-119173529D01*
X140963940Y-119173529D01*
X141363940Y-118773529D01*
X141763940Y-119173529D01*
G37*
D11*
X114495711Y-112327819D02*
G75*
G03*
X114495711Y-112327819I-70711J0D01*
G01*
X117400000Y-112003529D02*
X117400000Y-105503529D01*
D12*
X100000000Y-100000000D02*
X144000000Y-100000000D01*
X144000000Y-135000000D01*
X100000000Y-135000000D01*
X100000000Y-100000000D01*
D11*
X102400000Y-115503529D02*
X102700000Y-115503529D01*
X102400000Y-105503529D02*
X102400000Y-105803529D01*
X102400000Y-105503529D02*
X113900000Y-105503529D01*
X117400000Y-115503529D02*
X117400000Y-115203529D01*
X117400000Y-105503529D02*
X117100000Y-105503529D01*
X117400000Y-115503529D02*
X105800000Y-115503529D01*
X102400000Y-115473529D02*
X102400000Y-109003529D01*
D10*
X131809178Y-123701362D02*
X132418702Y-123701362D01*
X132113940Y-124006124D02*
X132113940Y-123396600D01*
X101084035Y-121912767D02*
X101655463Y-121912767D01*
X101655463Y-121912767D02*
X101769749Y-121950862D01*
X101769749Y-121950862D02*
X101845940Y-122027053D01*
X101845940Y-122027053D02*
X101884035Y-122141338D01*
X101884035Y-122141338D02*
X101884035Y-122217529D01*
X101884035Y-121150862D02*
X101884035Y-121531814D01*
X101884035Y-121531814D02*
X101084035Y-121531814D01*
X101807844Y-120427052D02*
X101845940Y-120465148D01*
X101845940Y-120465148D02*
X101884035Y-120579433D01*
X101884035Y-120579433D02*
X101884035Y-120655624D01*
X101884035Y-120655624D02*
X101845940Y-120769910D01*
X101845940Y-120769910D02*
X101769749Y-120846100D01*
X101769749Y-120846100D02*
X101693559Y-120884195D01*
X101693559Y-120884195D02*
X101541178Y-120922291D01*
X101541178Y-120922291D02*
X101426892Y-120922291D01*
X101426892Y-120922291D02*
X101274511Y-120884195D01*
X101274511Y-120884195D02*
X101198320Y-120846100D01*
X101198320Y-120846100D02*
X101122130Y-120769910D01*
X101122130Y-120769910D02*
X101084035Y-120655624D01*
X101084035Y-120655624D02*
X101084035Y-120579433D01*
X101084035Y-120579433D02*
X101122130Y-120465148D01*
X101122130Y-120465148D02*
X101160225Y-120427052D01*
X101084035Y-119855624D02*
X101655463Y-119855624D01*
X101655463Y-119855624D02*
X101769749Y-119893719D01*
X101769749Y-119893719D02*
X101845940Y-119969910D01*
X101845940Y-119969910D02*
X101884035Y-120084195D01*
X101884035Y-120084195D02*
X101884035Y-120160386D01*
X101884035Y-119093719D02*
X101884035Y-119474671D01*
X101884035Y-119474671D02*
X101084035Y-119474671D01*
X101807844Y-118369909D02*
X101845940Y-118408005D01*
X101845940Y-118408005D02*
X101884035Y-118522290D01*
X101884035Y-118522290D02*
X101884035Y-118598481D01*
X101884035Y-118598481D02*
X101845940Y-118712767D01*
X101845940Y-118712767D02*
X101769749Y-118788957D01*
X101769749Y-118788957D02*
X101693559Y-118827052D01*
X101693559Y-118827052D02*
X101541178Y-118865148D01*
X101541178Y-118865148D02*
X101426892Y-118865148D01*
X101426892Y-118865148D02*
X101274511Y-118827052D01*
X101274511Y-118827052D02*
X101198320Y-118788957D01*
X101198320Y-118788957D02*
X101122130Y-118712767D01*
X101122130Y-118712767D02*
X101084035Y-118598481D01*
X101084035Y-118598481D02*
X101084035Y-118522290D01*
X101084035Y-118522290D02*
X101122130Y-118408005D01*
X101122130Y-118408005D02*
X101160225Y-118369909D01*
X101084035Y-117798481D02*
X101655463Y-117798481D01*
X101655463Y-117798481D02*
X101769749Y-117836576D01*
X101769749Y-117836576D02*
X101845940Y-117912767D01*
X101845940Y-117912767D02*
X101884035Y-118027052D01*
X101884035Y-118027052D02*
X101884035Y-118103243D01*
X101884035Y-117036576D02*
X101884035Y-117417528D01*
X101884035Y-117417528D02*
X101084035Y-117417528D01*
X101807844Y-116312766D02*
X101845940Y-116350862D01*
X101845940Y-116350862D02*
X101884035Y-116465147D01*
X101884035Y-116465147D02*
X101884035Y-116541338D01*
X101884035Y-116541338D02*
X101845940Y-116655624D01*
X101845940Y-116655624D02*
X101769749Y-116731814D01*
X101769749Y-116731814D02*
X101693559Y-116769909D01*
X101693559Y-116769909D02*
X101541178Y-116808005D01*
X101541178Y-116808005D02*
X101426892Y-116808005D01*
X101426892Y-116808005D02*
X101274511Y-116769909D01*
X101274511Y-116769909D02*
X101198320Y-116731814D01*
X101198320Y-116731814D02*
X101122130Y-116655624D01*
X101122130Y-116655624D02*
X101084035Y-116541338D01*
X101084035Y-116541338D02*
X101084035Y-116465147D01*
X101084035Y-116465147D02*
X101122130Y-116350862D01*
X101122130Y-116350862D02*
X101160225Y-116312766D01*
X101084035Y-115741338D02*
X101655463Y-115741338D01*
X101655463Y-115741338D02*
X101769749Y-115779433D01*
X101769749Y-115779433D02*
X101845940Y-115855624D01*
X101845940Y-115855624D02*
X101884035Y-115969909D01*
X101884035Y-115969909D02*
X101884035Y-116046100D01*
X101884035Y-114979433D02*
X101884035Y-115360385D01*
X101884035Y-115360385D02*
X101084035Y-115360385D01*
X101807844Y-114255623D02*
X101845940Y-114293719D01*
X101845940Y-114293719D02*
X101884035Y-114408004D01*
X101884035Y-114408004D02*
X101884035Y-114484195D01*
X101884035Y-114484195D02*
X101845940Y-114598481D01*
X101845940Y-114598481D02*
X101769749Y-114674671D01*
X101769749Y-114674671D02*
X101693559Y-114712766D01*
X101693559Y-114712766D02*
X101541178Y-114750862D01*
X101541178Y-114750862D02*
X101426892Y-114750862D01*
X101426892Y-114750862D02*
X101274511Y-114712766D01*
X101274511Y-114712766D02*
X101198320Y-114674671D01*
X101198320Y-114674671D02*
X101122130Y-114598481D01*
X101122130Y-114598481D02*
X101084035Y-114484195D01*
X101084035Y-114484195D02*
X101084035Y-114408004D01*
X101084035Y-114408004D02*
X101122130Y-114293719D01*
X101122130Y-114293719D02*
X101160225Y-114255623D01*
D11*
X117890476Y-102030000D02*
X118033333Y-102077619D01*
X118033333Y-102077619D02*
X118271428Y-102077619D01*
X118271428Y-102077619D02*
X118366666Y-102030000D01*
X118366666Y-102030000D02*
X118414285Y-101982380D01*
X118414285Y-101982380D02*
X118461904Y-101887142D01*
X118461904Y-101887142D02*
X118461904Y-101791904D01*
X118461904Y-101791904D02*
X118414285Y-101696666D01*
X118414285Y-101696666D02*
X118366666Y-101649047D01*
X118366666Y-101649047D02*
X118271428Y-101601428D01*
X118271428Y-101601428D02*
X118080952Y-101553809D01*
X118080952Y-101553809D02*
X117985714Y-101506190D01*
X117985714Y-101506190D02*
X117938095Y-101458571D01*
X117938095Y-101458571D02*
X117890476Y-101363333D01*
X117890476Y-101363333D02*
X117890476Y-101268095D01*
X117890476Y-101268095D02*
X117938095Y-101172857D01*
X117938095Y-101172857D02*
X117985714Y-101125238D01*
X117985714Y-101125238D02*
X118080952Y-101077619D01*
X118080952Y-101077619D02*
X118319047Y-101077619D01*
X118319047Y-101077619D02*
X118461904Y-101125238D01*
X118747619Y-101077619D02*
X119319047Y-101077619D01*
X119033333Y-102077619D02*
X119033333Y-101077619D01*
X119652381Y-102077619D02*
X119652381Y-101077619D01*
X119652381Y-101077619D02*
X119985714Y-101791904D01*
X119985714Y-101791904D02*
X120319047Y-101077619D01*
X120319047Y-101077619D02*
X120319047Y-102077619D01*
X120700000Y-101077619D02*
X121319047Y-101077619D01*
X121319047Y-101077619D02*
X120985714Y-101458571D01*
X120985714Y-101458571D02*
X121128571Y-101458571D01*
X121128571Y-101458571D02*
X121223809Y-101506190D01*
X121223809Y-101506190D02*
X121271428Y-101553809D01*
X121271428Y-101553809D02*
X121319047Y-101649047D01*
X121319047Y-101649047D02*
X121319047Y-101887142D01*
X121319047Y-101887142D02*
X121271428Y-101982380D01*
X121271428Y-101982380D02*
X121223809Y-102030000D01*
X121223809Y-102030000D02*
X121128571Y-102077619D01*
X121128571Y-102077619D02*
X120842857Y-102077619D01*
X120842857Y-102077619D02*
X120747619Y-102030000D01*
X120747619Y-102030000D02*
X120700000Y-101982380D01*
X121700000Y-101172857D02*
X121747619Y-101125238D01*
X121747619Y-101125238D02*
X121842857Y-101077619D01*
X121842857Y-101077619D02*
X122080952Y-101077619D01*
X122080952Y-101077619D02*
X122176190Y-101125238D01*
X122176190Y-101125238D02*
X122223809Y-101172857D01*
X122223809Y-101172857D02*
X122271428Y-101268095D01*
X122271428Y-101268095D02*
X122271428Y-101363333D01*
X122271428Y-101363333D02*
X122223809Y-101506190D01*
X122223809Y-101506190D02*
X121652381Y-102077619D01*
X121652381Y-102077619D02*
X122271428Y-102077619D01*
X123414286Y-102030000D02*
X123557143Y-102077619D01*
X123557143Y-102077619D02*
X123795238Y-102077619D01*
X123795238Y-102077619D02*
X123890476Y-102030000D01*
X123890476Y-102030000D02*
X123938095Y-101982380D01*
X123938095Y-101982380D02*
X123985714Y-101887142D01*
X123985714Y-101887142D02*
X123985714Y-101791904D01*
X123985714Y-101791904D02*
X123938095Y-101696666D01*
X123938095Y-101696666D02*
X123890476Y-101649047D01*
X123890476Y-101649047D02*
X123795238Y-101601428D01*
X123795238Y-101601428D02*
X123604762Y-101553809D01*
X123604762Y-101553809D02*
X123509524Y-101506190D01*
X123509524Y-101506190D02*
X123461905Y-101458571D01*
X123461905Y-101458571D02*
X123414286Y-101363333D01*
X123414286Y-101363333D02*
X123414286Y-101268095D01*
X123414286Y-101268095D02*
X123461905Y-101172857D01*
X123461905Y-101172857D02*
X123509524Y-101125238D01*
X123509524Y-101125238D02*
X123604762Y-101077619D01*
X123604762Y-101077619D02*
X123842857Y-101077619D01*
X123842857Y-101077619D02*
X123985714Y-101125238D01*
X124795238Y-102030000D02*
X124700000Y-102077619D01*
X124700000Y-102077619D02*
X124509524Y-102077619D01*
X124509524Y-102077619D02*
X124414286Y-102030000D01*
X124414286Y-102030000D02*
X124366667Y-101934761D01*
X124366667Y-101934761D02*
X124366667Y-101553809D01*
X124366667Y-101553809D02*
X124414286Y-101458571D01*
X124414286Y-101458571D02*
X124509524Y-101410952D01*
X124509524Y-101410952D02*
X124700000Y-101410952D01*
X124700000Y-101410952D02*
X124795238Y-101458571D01*
X124795238Y-101458571D02*
X124842857Y-101553809D01*
X124842857Y-101553809D02*
X124842857Y-101649047D01*
X124842857Y-101649047D02*
X124366667Y-101744285D01*
X125271429Y-101410952D02*
X125271429Y-102077619D01*
X125271429Y-101506190D02*
X125319048Y-101458571D01*
X125319048Y-101458571D02*
X125414286Y-101410952D01*
X125414286Y-101410952D02*
X125557143Y-101410952D01*
X125557143Y-101410952D02*
X125652381Y-101458571D01*
X125652381Y-101458571D02*
X125700000Y-101553809D01*
X125700000Y-101553809D02*
X125700000Y-102077619D01*
X126128572Y-102030000D02*
X126223810Y-102077619D01*
X126223810Y-102077619D02*
X126414286Y-102077619D01*
X126414286Y-102077619D02*
X126509524Y-102030000D01*
X126509524Y-102030000D02*
X126557143Y-101934761D01*
X126557143Y-101934761D02*
X126557143Y-101887142D01*
X126557143Y-101887142D02*
X126509524Y-101791904D01*
X126509524Y-101791904D02*
X126414286Y-101744285D01*
X126414286Y-101744285D02*
X126271429Y-101744285D01*
X126271429Y-101744285D02*
X126176191Y-101696666D01*
X126176191Y-101696666D02*
X126128572Y-101601428D01*
X126128572Y-101601428D02*
X126128572Y-101553809D01*
X126128572Y-101553809D02*
X126176191Y-101458571D01*
X126176191Y-101458571D02*
X126271429Y-101410952D01*
X126271429Y-101410952D02*
X126414286Y-101410952D01*
X126414286Y-101410952D02*
X126509524Y-101458571D01*
X127128572Y-102077619D02*
X127033334Y-102030000D01*
X127033334Y-102030000D02*
X126985715Y-101982380D01*
X126985715Y-101982380D02*
X126938096Y-101887142D01*
X126938096Y-101887142D02*
X126938096Y-101601428D01*
X126938096Y-101601428D02*
X126985715Y-101506190D01*
X126985715Y-101506190D02*
X127033334Y-101458571D01*
X127033334Y-101458571D02*
X127128572Y-101410952D01*
X127128572Y-101410952D02*
X127271429Y-101410952D01*
X127271429Y-101410952D02*
X127366667Y-101458571D01*
X127366667Y-101458571D02*
X127414286Y-101506190D01*
X127414286Y-101506190D02*
X127461905Y-101601428D01*
X127461905Y-101601428D02*
X127461905Y-101887142D01*
X127461905Y-101887142D02*
X127414286Y-101982380D01*
X127414286Y-101982380D02*
X127366667Y-102030000D01*
X127366667Y-102030000D02*
X127271429Y-102077619D01*
X127271429Y-102077619D02*
X127128572Y-102077619D01*
X127890477Y-102077619D02*
X127890477Y-101410952D01*
X127890477Y-101601428D02*
X127938096Y-101506190D01*
X127938096Y-101506190D02*
X127985715Y-101458571D01*
X127985715Y-101458571D02*
X128080953Y-101410952D01*
X128080953Y-101410952D02*
X128176191Y-101410952D01*
X128652382Y-102077619D02*
X128557144Y-102030000D01*
X128557144Y-102030000D02*
X128509525Y-101934761D01*
X128509525Y-101934761D02*
X128509525Y-101077619D01*
X129414287Y-102030000D02*
X129319049Y-102077619D01*
X129319049Y-102077619D02*
X129128573Y-102077619D01*
X129128573Y-102077619D02*
X129033335Y-102030000D01*
X129033335Y-102030000D02*
X128985716Y-101934761D01*
X128985716Y-101934761D02*
X128985716Y-101553809D01*
X128985716Y-101553809D02*
X129033335Y-101458571D01*
X129033335Y-101458571D02*
X129128573Y-101410952D01*
X129128573Y-101410952D02*
X129319049Y-101410952D01*
X129319049Y-101410952D02*
X129414287Y-101458571D01*
X129414287Y-101458571D02*
X129461906Y-101553809D01*
X129461906Y-101553809D02*
X129461906Y-101649047D01*
X129461906Y-101649047D02*
X128985716Y-101744285D01*
X130319049Y-102077619D02*
X130319049Y-101553809D01*
X130319049Y-101553809D02*
X130271430Y-101458571D01*
X130271430Y-101458571D02*
X130176192Y-101410952D01*
X130176192Y-101410952D02*
X129985716Y-101410952D01*
X129985716Y-101410952D02*
X129890478Y-101458571D01*
X130319049Y-102030000D02*
X130223811Y-102077619D01*
X130223811Y-102077619D02*
X129985716Y-102077619D01*
X129985716Y-102077619D02*
X129890478Y-102030000D01*
X129890478Y-102030000D02*
X129842859Y-101934761D01*
X129842859Y-101934761D02*
X129842859Y-101839523D01*
X129842859Y-101839523D02*
X129890478Y-101744285D01*
X129890478Y-101744285D02*
X129985716Y-101696666D01*
X129985716Y-101696666D02*
X130223811Y-101696666D01*
X130223811Y-101696666D02*
X130319049Y-101649047D01*
X130795240Y-101410952D02*
X130795240Y-102410952D01*
X130795240Y-101458571D02*
X130890478Y-101410952D01*
X130890478Y-101410952D02*
X131080954Y-101410952D01*
X131080954Y-101410952D02*
X131176192Y-101458571D01*
X131176192Y-101458571D02*
X131223811Y-101506190D01*
X131223811Y-101506190D02*
X131271430Y-101601428D01*
X131271430Y-101601428D02*
X131271430Y-101887142D01*
X131271430Y-101887142D02*
X131223811Y-101982380D01*
X131223811Y-101982380D02*
X131176192Y-102030000D01*
X131176192Y-102030000D02*
X131080954Y-102077619D01*
X131080954Y-102077619D02*
X130890478Y-102077619D01*
X130890478Y-102077619D02*
X130795240Y-102030000D01*
X132366669Y-101410952D02*
X132604764Y-102077619D01*
X132604764Y-102077619D02*
X132842859Y-101410952D01*
X133747621Y-102077619D02*
X133176193Y-102077619D01*
X133461907Y-102077619D02*
X133461907Y-101077619D01*
X133461907Y-101077619D02*
X133366669Y-101220476D01*
X133366669Y-101220476D02*
X133271431Y-101315714D01*
X133271431Y-101315714D02*
X133176193Y-101363333D01*
X134176193Y-101982380D02*
X134223812Y-102030000D01*
X134223812Y-102030000D02*
X134176193Y-102077619D01*
X134176193Y-102077619D02*
X134128574Y-102030000D01*
X134128574Y-102030000D02*
X134176193Y-101982380D01*
X134176193Y-101982380D02*
X134176193Y-102077619D01*
X134842859Y-101077619D02*
X134938097Y-101077619D01*
X134938097Y-101077619D02*
X135033335Y-101125238D01*
X135033335Y-101125238D02*
X135080954Y-101172857D01*
X135080954Y-101172857D02*
X135128573Y-101268095D01*
X135128573Y-101268095D02*
X135176192Y-101458571D01*
X135176192Y-101458571D02*
X135176192Y-101696666D01*
X135176192Y-101696666D02*
X135128573Y-101887142D01*
X135128573Y-101887142D02*
X135080954Y-101982380D01*
X135080954Y-101982380D02*
X135033335Y-102030000D01*
X135033335Y-102030000D02*
X134938097Y-102077619D01*
X134938097Y-102077619D02*
X134842859Y-102077619D01*
X134842859Y-102077619D02*
X134747621Y-102030000D01*
X134747621Y-102030000D02*
X134700002Y-101982380D01*
X134700002Y-101982380D02*
X134652383Y-101887142D01*
X134652383Y-101887142D02*
X134604764Y-101696666D01*
X134604764Y-101696666D02*
X134604764Y-101458571D01*
X134604764Y-101458571D02*
X134652383Y-101268095D01*
X134652383Y-101268095D02*
X134700002Y-101172857D01*
X134700002Y-101172857D02*
X134747621Y-101125238D01*
X134747621Y-101125238D02*
X134842859Y-101077619D01*
D10*
%TO.C,D201*%
X128209178Y-134338862D02*
X128818702Y-134338862D01*
X128513940Y-134643624D02*
X128513940Y-134034100D01*
D13*
%TO.C,C200*%
X117654520Y-117483529D02*
X117373360Y-117483529D01*
X117654520Y-116463529D02*
X117373360Y-116463529D01*
%TO.C,C201*%
X116641776Y-118733529D02*
X116426104Y-118733529D01*
X116641776Y-118013529D02*
X116426104Y-118013529D01*
%TO.C,C202*%
X118001288Y-127776365D02*
X118001288Y-127560693D01*
X118721288Y-127776365D02*
X118721288Y-127560693D01*
%TO.C,C203*%
X129680780Y-127788529D02*
X129896452Y-127788529D01*
X129680780Y-128508529D02*
X129896452Y-128508529D01*
%TO.C,C204*%
X130043616Y-116821365D02*
X130043616Y-116605693D01*
X130763616Y-116821365D02*
X130763616Y-116605693D01*
%TO.C,C205*%
X119606104Y-114413529D02*
X119821776Y-114413529D01*
X119606104Y-115133529D02*
X119821776Y-115133529D01*
%TO.C,C206*%
X115143616Y-124206365D02*
X115143616Y-123990693D01*
X115863616Y-124206365D02*
X115863616Y-123990693D01*
%TO.C,C207*%
X116293616Y-124206365D02*
X116293616Y-123990693D01*
X117013616Y-124206365D02*
X117013616Y-123990693D01*
%TO.C,C208*%
X128710000Y-130532949D02*
X128710000Y-130814109D01*
X127690000Y-130532949D02*
X127690000Y-130814109D01*
%TO.C,C209*%
X131643616Y-117651609D02*
X131643616Y-117370449D01*
X132663616Y-117651609D02*
X132663616Y-117370449D01*
%TO.C,C210*%
X113245780Y-117138529D02*
X113461452Y-117138529D01*
X113245780Y-117858529D02*
X113461452Y-117858529D01*
%TO.C,C211*%
X113461452Y-123558529D02*
X113245780Y-123558529D01*
X113461452Y-122838529D02*
X113245780Y-122838529D01*
%TO.C,C212*%
X126540000Y-131336365D02*
X126540000Y-131120693D01*
X127260000Y-131336365D02*
X127260000Y-131120693D01*
%TO.C,C400*%
X133548940Y-113416365D02*
X133548940Y-113200693D01*
X134268940Y-113416365D02*
X134268940Y-113200693D01*
%TO.C,D102*%
X131298940Y-134808529D02*
X131298940Y-133338529D01*
X131298940Y-133338529D02*
X129013940Y-133338529D01*
X129013940Y-134808529D02*
X131298940Y-134808529D01*
%TO.C,D200*%
X124898940Y-134808529D02*
X124898940Y-133338529D01*
X124898940Y-133338529D02*
X122613940Y-133338529D01*
X122613940Y-134808529D02*
X124898940Y-134808529D01*
%TO.C,D201*%
X125213940Y-132973529D02*
X128013940Y-132973529D01*
X125213940Y-134773529D02*
X125213940Y-132973529D01*
X128013940Y-132973529D02*
X128013940Y-134773529D01*
X128013940Y-134773529D02*
X125213940Y-134773529D01*
%TO.C,FB200*%
X115837122Y-126608529D02*
X115037878Y-126608529D01*
X115837122Y-125488529D02*
X115037878Y-125488529D01*
%TO.C,R105*%
X130791440Y-130535787D02*
X130791440Y-130061271D01*
X131836440Y-130535787D02*
X131836440Y-130061271D01*
%TO.C,R200*%
X116422257Y-121828529D02*
X116114975Y-121828529D01*
X116422257Y-121068529D02*
X116114975Y-121068529D01*
%TO.C,R201*%
X119557581Y-132753529D02*
X119250299Y-132753529D01*
X119557581Y-131993529D02*
X119250299Y-131993529D01*
%TO.C,R202*%
X122126198Y-132746029D02*
X121651682Y-132746029D01*
X122126198Y-131701029D02*
X121651682Y-131701029D01*
%TO.C,R203*%
X125763641Y-130128529D02*
X125456359Y-130128529D01*
X125763641Y-129368529D02*
X125456359Y-129368529D01*
%TO.C,R204*%
X135615081Y-111174529D02*
X135307799Y-111174529D01*
X135615081Y-110414529D02*
X135307799Y-110414529D01*
%TO.C,R205*%
X131041440Y-110130888D02*
X131041440Y-110438170D01*
X130281440Y-110130888D02*
X130281440Y-110438170D01*
%TO.C,R206*%
X129533940Y-131437170D02*
X129533940Y-131129888D01*
X130293940Y-131437170D02*
X130293940Y-131129888D01*
%TO.C,R207*%
X124557581Y-132303529D02*
X124250299Y-132303529D01*
X124557581Y-131543529D02*
X124250299Y-131543529D01*
%TO.C,R208*%
X125533940Y-131392170D02*
X125533940Y-131084888D01*
X126293940Y-131392170D02*
X126293940Y-131084888D01*
%TO.C,R400*%
X134420299Y-117503529D02*
X134727581Y-117503529D01*
X134420299Y-118263529D02*
X134727581Y-118263529D01*
%TO.C,R401*%
X134420299Y-116203529D02*
X134727581Y-116203529D01*
X134420299Y-116963529D02*
X134727581Y-116963529D01*
%TO.C,R402*%
X134405299Y-114953529D02*
X134712581Y-114953529D01*
X134405299Y-115713529D02*
X134712581Y-115713529D01*
%TO.C,R403*%
X134728940Y-113462170D02*
X134728940Y-113154888D01*
X135488940Y-113462170D02*
X135488940Y-113154888D01*
%TO.C,SW200*%
X107450000Y-132683529D02*
X107450000Y-133473529D01*
X108050000Y-134483529D02*
X113750000Y-134483529D01*
X109300000Y-131633529D02*
X111000000Y-131633529D01*
X112300000Y-131633529D02*
X112500000Y-131633529D01*
X114350000Y-133473529D02*
X114350000Y-132683529D01*
%TO.C,U200*%
X119243616Y-116988529D02*
X119243616Y-117938529D01*
X119243616Y-117938529D02*
X117903616Y-117938529D01*
X119243616Y-127208529D02*
X119243616Y-126258529D01*
X120193616Y-116988529D02*
X119243616Y-116988529D01*
X120193616Y-127208529D02*
X119243616Y-127208529D01*
X128513616Y-116988529D02*
X129463616Y-116988529D01*
X128513616Y-127208529D02*
X129463616Y-127208529D01*
X129463616Y-116988529D02*
X129463616Y-117938529D01*
X129463616Y-127208529D02*
X129463616Y-126258529D01*
%TO.C,Y200*%
X115003616Y-118348529D02*
X111703616Y-118348529D01*
X111703616Y-118348529D02*
X111703616Y-122348529D01*
%TO.C,J401*%
X143398940Y-118503529D02*
X142073940Y-118503529D01*
X142073940Y-118568529D02*
X142073940Y-118503529D01*
X142073940Y-118568529D02*
X138543940Y-118568529D01*
X142073940Y-112163529D02*
X142073940Y-112098529D01*
X142073940Y-112098529D02*
X138543940Y-112098529D01*
X138543940Y-118568529D02*
X138543940Y-118503529D01*
X138543940Y-112163529D02*
X138543940Y-112098529D01*
D10*
%TO.C,J402*%
X135075000Y-128336029D02*
X135575000Y-128336029D01*
X135075000Y-128636029D02*
X135075000Y-128336029D01*
X135325000Y-128886029D02*
X135075000Y-128636029D01*
X135575000Y-128336029D02*
X135575000Y-128636029D01*
X135575000Y-128636029D02*
X135325000Y-128886029D01*
%TO.C,MP2*%
X101600000Y-108753529D02*
X101600000Y-106053529D01*
X103200000Y-108753529D02*
X101600000Y-108753529D01*
X101600000Y-106053529D02*
X103200000Y-106053529D01*
X103200000Y-106053529D02*
X103200000Y-108753529D01*
D13*
%TO.C,L1*%
X138216004Y-126258529D02*
X137011876Y-126258529D01*
X138216004Y-123538529D02*
X137011876Y-123538529D01*
D10*
%TO.C,U2*%
X136295440Y-105123529D02*
X136295440Y-105458529D01*
X135295440Y-105123529D02*
X136295440Y-105123529D01*
X134295440Y-105123529D02*
X134295440Y-105123529D01*
X133295440Y-105123529D02*
X134295440Y-105123529D01*
X133295440Y-105458529D02*
X133295440Y-105123529D01*
X136995440Y-105873529D02*
X136995440Y-105873529D01*
X136895440Y-105873529D02*
X136895440Y-105873529D01*
X136295440Y-109288529D02*
X136295440Y-109623529D01*
X133295440Y-109373529D02*
X133295440Y-109623529D01*
X136295440Y-109623529D02*
X135295440Y-109623529D01*
X133295440Y-109623529D02*
X134295440Y-109623529D01*
X136895440Y-105873529D02*
G75*
G03*
X136995440Y-105873529I50000J0D01*
G01*
X136995440Y-105873529D02*
G75*
G03*
X136895440Y-105873529I-50000J0D01*
G01*
D13*
%TO.C,R6*%
X115560299Y-110237529D02*
X115867581Y-110237529D01*
X115560299Y-110997529D02*
X115867581Y-110997529D01*
D10*
%TO.C,MP3*%
X118200000Y-112253529D02*
X118200000Y-114953529D01*
X116600000Y-112253529D02*
X118200000Y-112253529D01*
X118200000Y-114953529D02*
X116600000Y-114953529D01*
X116600000Y-114953529D02*
X116600000Y-112253529D01*
D13*
%TO.C,C4*%
X108792164Y-113513529D02*
X109007836Y-113513529D01*
X108792164Y-114233529D02*
X109007836Y-114233529D01*
%TO.C,C18*%
X124037500Y-107827365D02*
X124037500Y-107611693D01*
X124757500Y-107827365D02*
X124757500Y-107611693D01*
%TO.C,C10*%
X110720000Y-106365693D02*
X110720000Y-106581365D01*
X110000000Y-106365693D02*
X110000000Y-106581365D01*
%TO.C,R3*%
X110393940Y-120309888D02*
X110393940Y-120617170D01*
X109633940Y-120309888D02*
X109633940Y-120617170D01*
%TO.C,C7*%
X113817836Y-114233529D02*
X113602164Y-114233529D01*
X113817836Y-113513529D02*
X113602164Y-113513529D01*
%TO.C,C9*%
X108377499Y-107183893D02*
X108377499Y-107399565D01*
X107657499Y-107183893D02*
X107657499Y-107399565D01*
%TO.C,C8*%
X107094000Y-109295693D02*
X107094000Y-109511365D01*
X106374000Y-109295693D02*
X106374000Y-109511365D01*
%TO.C,C14*%
X104374000Y-111361365D02*
X104374000Y-111145693D01*
X105094000Y-111361365D02*
X105094000Y-111145693D01*
%TO.C,C5*%
X106867836Y-114003529D02*
X106652164Y-114003529D01*
X106867836Y-113283529D02*
X106652164Y-113283529D01*
%TO.C,C16*%
X132355440Y-108165693D02*
X132355440Y-108381365D01*
X131635440Y-108165693D02*
X131635440Y-108381365D01*
%TO.C,C15*%
X137435440Y-107461365D02*
X137435440Y-107245693D01*
X138155440Y-107461365D02*
X138155440Y-107245693D01*
%TO.C,C13*%
X105374000Y-111361365D02*
X105374000Y-111145693D01*
X106094000Y-111361365D02*
X106094000Y-111145693D01*
%TO.C,R7*%
X115560299Y-109187529D02*
X115867581Y-109187529D01*
X115560299Y-109947529D02*
X115867581Y-109947529D01*
%TO.C,C6*%
X106094000Y-109285693D02*
X106094000Y-109501365D01*
X105374000Y-109285693D02*
X105374000Y-109501365D01*
%TO.C,C302*%
X135153940Y-121864109D02*
X135153940Y-121582949D01*
X136173940Y-121864109D02*
X136173940Y-121582949D01*
D10*
%TO.C,MP1*%
X116850000Y-106303529D02*
X114150000Y-106303529D01*
X116850000Y-104703529D02*
X116850000Y-106303529D01*
X114150000Y-106303529D02*
X114150000Y-104703529D01*
X114150000Y-104703529D02*
X116850000Y-104703529D01*
D13*
%TO.C,C301*%
X140053940Y-121864109D02*
X140053940Y-121582949D01*
X141073940Y-121864109D02*
X141073940Y-121582949D01*
%TO.C,U1*%
X114016000Y-113167529D02*
X114016000Y-112717529D01*
X114016000Y-107867529D02*
X114016000Y-108317529D01*
X113566000Y-113167529D02*
X114016000Y-113167529D01*
X113566000Y-107867529D02*
X114016000Y-107867529D01*
X109166000Y-113167529D02*
X108716000Y-113167529D01*
X109166000Y-107867529D02*
X108716000Y-107867529D01*
X108716000Y-113167529D02*
X108716000Y-112717529D01*
X108716000Y-107867529D02*
X108716000Y-108317529D01*
%TO.C,R5*%
X113013641Y-107507529D02*
X112706359Y-107507529D01*
X113013641Y-106747529D02*
X112706359Y-106747529D01*
%TO.C,C2*%
X105094000Y-109285693D02*
X105094000Y-109501365D01*
X104374000Y-109285693D02*
X104374000Y-109501365D01*
%TO.C,X1*%
X106120342Y-108081429D02*
X106279658Y-108081429D01*
X106279658Y-106125629D02*
X106120342Y-106125629D01*
%TO.C,C3*%
X104017499Y-107399565D02*
X104017499Y-107183893D01*
X104737499Y-107399565D02*
X104737499Y-107183893D01*
D10*
%TO.C,MP4*%
X105650000Y-116303529D02*
X102950000Y-116303529D01*
X105650000Y-114703529D02*
X105650000Y-116303529D01*
X102950000Y-116303529D02*
X102950000Y-114703529D01*
X102950000Y-114703529D02*
X105650000Y-114703529D01*
D13*
%TO.C,D2*%
X118728940Y-133338529D02*
X118728940Y-134808529D01*
X118728940Y-134808529D02*
X121013940Y-134808529D01*
X121013940Y-133338529D02*
X118728940Y-133338529D01*
%TO.C,C12*%
X106374000Y-111361365D02*
X106374000Y-111145693D01*
X107094000Y-111361365D02*
X107094000Y-111145693D01*
D14*
%TO.C,U3*%
X125097500Y-108319529D02*
X125327500Y-108319529D01*
X125097500Y-108319529D02*
X125097500Y-108089529D01*
X126497500Y-108319529D02*
X126267500Y-108319529D01*
X126497500Y-108319529D02*
X126497500Y-108089529D01*
X125097500Y-106919529D02*
X125097500Y-107149529D01*
X125097500Y-106919529D02*
X125327500Y-106919529D01*
X126497500Y-106919529D02*
X126497500Y-107149529D01*
X126497500Y-106919529D02*
X126267500Y-106919529D01*
D10*
X126247500Y-108459529D02*
G75*
G03*
X126247500Y-108459529I-50000J0D01*
G01*
D13*
%TO.C,C19*%
X127557500Y-107911693D02*
X127557500Y-108127365D01*
X126837500Y-107911693D02*
X126837500Y-108127365D01*
%TO.C,R2*%
X109293940Y-121709888D02*
X109293940Y-122017170D01*
X108533940Y-121709888D02*
X108533940Y-122017170D01*
%TO.C,R301*%
X133491440Y-125235787D02*
X133491440Y-124761271D01*
X134536440Y-125235787D02*
X134536440Y-124761271D01*
%TO.C,C1*%
X103229520Y-118033529D02*
X102948360Y-118033529D01*
X103229520Y-117013529D02*
X102948360Y-117013529D01*
%TO.C,C20*%
X126486248Y-104884529D02*
X127008752Y-104884529D01*
X126486248Y-106354529D02*
X127008752Y-106354529D01*
%TO.C,R4*%
X107093940Y-121209888D02*
X107093940Y-121517170D01*
X106333940Y-121209888D02*
X106333940Y-121517170D01*
%TO.C,R1*%
X108193940Y-121209888D02*
X108193940Y-121517170D01*
X107433940Y-121209888D02*
X107433940Y-121517170D01*
%TO.C,D1*%
X118498940Y-134808529D02*
X118498940Y-133338529D01*
X118498940Y-133338529D02*
X116213940Y-133338529D01*
X116213940Y-134808529D02*
X118498940Y-134808529D01*
%TO.C,C11*%
X106867836Y-113033529D02*
X106652164Y-113033529D01*
X106867836Y-112313529D02*
X106652164Y-112313529D01*
D15*
%TO.C,U301*%
X139438940Y-119998529D02*
G75*
G03*
X139438940Y-119998529I-125000J0D01*
G01*
%TD*%
M02*
