%TF.GenerationSoftware,KiCad,Pcbnew,7.0.1*%
%TF.CreationDate,2024-02-15T14:19:22+01:00*%
%TF.ProjectId,stm32f405-sensorleap-v1,73746d33-3266-4343-9035-2d73656e736f,rev?*%
%TF.SameCoordinates,Original*%
%TF.FileFunction,Legend,Bot*%
%TF.FilePolarity,Positive*%
%FSLAX46Y46*%
G04 Gerber Fmt 4.6, Leading zero omitted, Abs format (unit mm)*
G04 Created by KiCad (PCBNEW 7.0.1) date 2024-02-15 14:19:22*
%MOMM*%
%LPD*%
G01*
G04 APERTURE LIST*
%ADD10C,0.000000*%
G04 APERTURE END LIST*
D10*
G36*
X126029379Y-103676796D02*
G01*
X125812086Y-104308092D01*
X125847540Y-104402284D01*
X125850610Y-104410841D01*
X125853867Y-104419054D01*
X125857314Y-104426921D01*
X125860951Y-104434447D01*
X125864780Y-104441631D01*
X125868804Y-104448476D01*
X125873022Y-104454983D01*
X125877438Y-104461153D01*
X125882052Y-104466989D01*
X125886866Y-104472491D01*
X125891881Y-104477662D01*
X125897100Y-104482502D01*
X125902523Y-104487013D01*
X125908153Y-104491198D01*
X125913990Y-104495057D01*
X125920036Y-104498592D01*
X125926355Y-104501860D01*
X125933010Y-104504917D01*
X125940001Y-104507763D01*
X125947329Y-104510399D01*
X125954996Y-104512824D01*
X125963001Y-104515037D01*
X125971345Y-104517040D01*
X125980030Y-104518833D01*
X125989056Y-104520414D01*
X125998424Y-104521784D01*
X126008134Y-104522944D01*
X126018188Y-104523893D01*
X126028586Y-104524631D01*
X126039328Y-104525158D01*
X126061852Y-104525580D01*
X126119531Y-104525580D01*
X126119531Y-104839375D01*
X126095867Y-104845503D01*
X126072493Y-104850794D01*
X126049405Y-104855253D01*
X126026596Y-104858888D01*
X126004060Y-104861704D01*
X125981791Y-104863708D01*
X125959782Y-104864906D01*
X125938027Y-104865304D01*
X125899871Y-104864231D01*
X125881347Y-104862890D01*
X125863191Y-104861013D01*
X125845403Y-104858599D01*
X125827984Y-104855649D01*
X125810934Y-104852162D01*
X125794251Y-104848139D01*
X125777937Y-104843580D01*
X125761991Y-104838484D01*
X125746413Y-104832852D01*
X125731203Y-104826683D01*
X125716361Y-104819978D01*
X125701886Y-104812737D01*
X125687779Y-104804959D01*
X125674040Y-104796645D01*
X125660668Y-104787794D01*
X125647663Y-104778407D01*
X125635025Y-104768484D01*
X125622755Y-104758024D01*
X125610851Y-104747028D01*
X125599315Y-104735495D01*
X125588145Y-104723426D01*
X125577343Y-104710821D01*
X125566906Y-104697679D01*
X125556837Y-104684001D01*
X125547133Y-104669786D01*
X125537797Y-104655035D01*
X125528826Y-104639747D01*
X125520221Y-104623924D01*
X125511983Y-104607563D01*
X125504111Y-104590667D01*
X125479240Y-104530342D01*
X125181505Y-103677326D01*
X125609944Y-103677326D01*
X125610473Y-103676796D01*
X125610277Y-103676135D01*
X125609944Y-103677326D01*
X125181505Y-103677326D01*
X124902978Y-102879342D01*
X125374994Y-102879342D01*
X125610277Y-103676135D01*
X125833253Y-102879871D01*
X126303682Y-102879871D01*
X126029379Y-103676796D01*
G37*
G36*
X122525629Y-101516401D02*
G01*
X122557099Y-101520102D01*
X122587973Y-101526172D01*
X122618135Y-101534530D01*
X122647465Y-101545096D01*
X122675847Y-101557789D01*
X122703162Y-101572528D01*
X122729293Y-101589233D01*
X122754121Y-101607823D01*
X122777530Y-101628218D01*
X122799400Y-101650336D01*
X122819615Y-101674098D01*
X122838056Y-101699423D01*
X122854606Y-101726229D01*
X122869147Y-101754437D01*
X122881560Y-101783966D01*
X124044668Y-104885941D01*
X124047381Y-104893807D01*
X124049668Y-104901718D01*
X124051536Y-104909661D01*
X124052991Y-104917624D01*
X124054039Y-104925592D01*
X124054685Y-104933553D01*
X124054936Y-104941494D01*
X124054797Y-104949400D01*
X124054274Y-104957259D01*
X124053374Y-104965057D01*
X124052101Y-104972782D01*
X124050463Y-104980419D01*
X124048465Y-104987956D01*
X124046112Y-104995380D01*
X124043412Y-105002676D01*
X124040369Y-105009832D01*
X124036989Y-105016835D01*
X124033279Y-105023671D01*
X124029245Y-105030327D01*
X124024892Y-105036790D01*
X124020226Y-105043046D01*
X124015253Y-105049082D01*
X124009979Y-105054885D01*
X124004410Y-105060442D01*
X123998552Y-105065739D01*
X123992411Y-105070763D01*
X123985993Y-105075501D01*
X123979303Y-105079940D01*
X123972348Y-105084065D01*
X123965133Y-105087865D01*
X123957664Y-105091325D01*
X123949948Y-105094433D01*
X123946463Y-105095685D01*
X123942957Y-105096863D01*
X123939432Y-105097964D01*
X123935892Y-105098989D01*
X123932339Y-105099936D01*
X123928777Y-105100804D01*
X123925209Y-105101594D01*
X123921637Y-105102304D01*
X123918066Y-105102933D01*
X123914497Y-105103481D01*
X123910935Y-105103947D01*
X123907383Y-105104330D01*
X123903842Y-105104629D01*
X123900317Y-105104843D01*
X123896811Y-105104973D01*
X123893326Y-105105016D01*
X123881075Y-105104548D01*
X123868960Y-105103161D01*
X123857031Y-105100876D01*
X123845338Y-105097715D01*
X123833930Y-105093702D01*
X123822856Y-105088859D01*
X123812168Y-105083208D01*
X123801913Y-105076772D01*
X123792142Y-105069573D01*
X123782904Y-105061634D01*
X123774250Y-105052977D01*
X123766228Y-105043624D01*
X123758888Y-105033599D01*
X123752279Y-105022924D01*
X123746452Y-105011621D01*
X123741456Y-104999712D01*
X122578348Y-101897737D01*
X122577048Y-101894496D01*
X122575630Y-101891322D01*
X122574097Y-101888218D01*
X122572453Y-101885186D01*
X122570700Y-101882228D01*
X122568842Y-101879348D01*
X122566881Y-101876546D01*
X122564821Y-101873825D01*
X122562665Y-101871189D01*
X122560416Y-101868638D01*
X122558078Y-101866176D01*
X122555652Y-101863804D01*
X122553142Y-101861526D01*
X122550552Y-101859343D01*
X122547885Y-101857257D01*
X122545143Y-101855272D01*
X122542330Y-101853388D01*
X122539448Y-101851610D01*
X122536501Y-101849938D01*
X122533493Y-101848376D01*
X122530425Y-101846925D01*
X122527302Y-101845588D01*
X122524126Y-101844368D01*
X122520900Y-101843266D01*
X122517628Y-101842285D01*
X122514313Y-101841427D01*
X122510957Y-101840695D01*
X122507564Y-101840091D01*
X122504136Y-101839617D01*
X122500678Y-101839276D01*
X122497192Y-101839069D01*
X122493681Y-101839000D01*
X122486684Y-101839276D01*
X122479799Y-101840091D01*
X122473050Y-101841427D01*
X122466462Y-101843266D01*
X122460060Y-101845588D01*
X122453869Y-101848376D01*
X122447914Y-101851610D01*
X122442219Y-101855272D01*
X122436810Y-101859343D01*
X122431710Y-101863804D01*
X122426946Y-101868638D01*
X122422541Y-101873825D01*
X122418520Y-101879348D01*
X122414909Y-101885186D01*
X122411732Y-101891322D01*
X122409014Y-101897737D01*
X121324752Y-104789103D01*
X121317780Y-104806582D01*
X121310171Y-104823690D01*
X121301941Y-104840414D01*
X121293108Y-104856742D01*
X121283689Y-104872662D01*
X121273700Y-104888162D01*
X121263159Y-104903231D01*
X121252082Y-104917856D01*
X121240487Y-104932025D01*
X121228390Y-104945727D01*
X121215808Y-104958948D01*
X121202759Y-104971678D01*
X121189259Y-104983904D01*
X121175325Y-104995614D01*
X121160974Y-105006796D01*
X121146224Y-105017439D01*
X121131090Y-105027529D01*
X121115591Y-105037056D01*
X121099743Y-105046006D01*
X121083562Y-105054369D01*
X121067067Y-105062131D01*
X121050273Y-105069282D01*
X121033198Y-105075809D01*
X121015859Y-105081699D01*
X120998273Y-105086942D01*
X120980456Y-105091525D01*
X120962426Y-105095435D01*
X120944200Y-105098662D01*
X120925794Y-105101192D01*
X120907225Y-105103014D01*
X120888512Y-105104116D01*
X120869669Y-105104487D01*
X120660119Y-105104487D01*
X120635167Y-105103853D01*
X120610538Y-105101973D01*
X120586262Y-105098877D01*
X120562370Y-105094596D01*
X120538892Y-105089160D01*
X120515860Y-105082602D01*
X120493305Y-105074951D01*
X120471256Y-105066238D01*
X120449745Y-105056494D01*
X120428804Y-105045750D01*
X120408461Y-105034036D01*
X120388750Y-105021385D01*
X120369699Y-105007825D01*
X120351340Y-104993389D01*
X120333704Y-104978106D01*
X120316822Y-104962008D01*
X120300725Y-104945126D01*
X120285442Y-104927490D01*
X120271006Y-104909132D01*
X120257446Y-104890081D01*
X120244794Y-104870369D01*
X120233081Y-104850027D01*
X120222337Y-104829085D01*
X120212593Y-104807574D01*
X120203880Y-104785526D01*
X120196229Y-104762970D01*
X120189671Y-104739938D01*
X120184235Y-104716461D01*
X120179954Y-104692568D01*
X120176858Y-104668292D01*
X120174978Y-104643663D01*
X120174344Y-104618712D01*
X120174344Y-101677604D01*
X120174555Y-101669272D01*
X120175180Y-101661048D01*
X120176210Y-101652945D01*
X120177634Y-101644971D01*
X120179442Y-101637137D01*
X120181624Y-101629453D01*
X120184170Y-101621929D01*
X120187069Y-101614576D01*
X120190312Y-101607403D01*
X120193888Y-101600421D01*
X120197787Y-101593640D01*
X120201999Y-101587070D01*
X120206513Y-101580722D01*
X120211320Y-101574605D01*
X120216410Y-101568729D01*
X120221771Y-101563106D01*
X120227395Y-101557744D01*
X120233270Y-101552655D01*
X120239387Y-101547848D01*
X120245736Y-101543333D01*
X120252305Y-101539122D01*
X120259086Y-101535223D01*
X120266068Y-101531647D01*
X120273241Y-101528404D01*
X120280594Y-101525505D01*
X120288118Y-101522959D01*
X120295802Y-101520777D01*
X120303636Y-101518969D01*
X120311610Y-101517545D01*
X120319713Y-101516515D01*
X120327937Y-101515890D01*
X120336269Y-101515679D01*
X120344602Y-101515890D01*
X120352825Y-101516515D01*
X120360929Y-101517545D01*
X120368903Y-101518969D01*
X120376737Y-101520777D01*
X120384421Y-101522959D01*
X120391944Y-101525505D01*
X120399298Y-101528404D01*
X120406470Y-101531647D01*
X120413452Y-101535223D01*
X120420233Y-101539122D01*
X120426803Y-101543333D01*
X120433151Y-101547848D01*
X120439268Y-101552655D01*
X120445144Y-101557744D01*
X120450767Y-101563106D01*
X120456129Y-101568729D01*
X120461218Y-101574605D01*
X120466025Y-101580722D01*
X120470540Y-101587070D01*
X120474752Y-101593640D01*
X120478651Y-101600421D01*
X120482226Y-101607403D01*
X120485469Y-101614576D01*
X120488368Y-101621929D01*
X120490914Y-101629453D01*
X120493096Y-101637137D01*
X120494904Y-101644971D01*
X120496328Y-101652945D01*
X120497358Y-101661048D01*
X120497983Y-101669272D01*
X120498194Y-101677604D01*
X120498194Y-104619241D01*
X120498405Y-104627574D01*
X120499030Y-104635797D01*
X120500060Y-104643901D01*
X120501484Y-104651875D01*
X120503292Y-104659709D01*
X120505474Y-104667393D01*
X120508020Y-104674917D01*
X120510919Y-104682270D01*
X120514161Y-104689443D01*
X120517737Y-104696425D01*
X120521636Y-104703206D01*
X120525848Y-104709775D01*
X120530363Y-104716124D01*
X120535170Y-104722241D01*
X120540259Y-104728116D01*
X120545621Y-104733740D01*
X120551244Y-104739101D01*
X120557119Y-104744191D01*
X120563236Y-104748998D01*
X120569585Y-104753512D01*
X120576155Y-104757724D01*
X120582936Y-104761623D01*
X120589918Y-104765199D01*
X120597090Y-104768441D01*
X120604444Y-104771341D01*
X120611967Y-104773886D01*
X120619651Y-104776068D01*
X120627485Y-104777876D01*
X120635459Y-104779300D01*
X120643563Y-104780330D01*
X120651786Y-104780955D01*
X120660119Y-104781166D01*
X120869669Y-104781166D01*
X120882188Y-104780675D01*
X120894513Y-104779224D01*
X120906599Y-104776844D01*
X120918401Y-104773568D01*
X120929875Y-104769426D01*
X120940976Y-104764451D01*
X120951657Y-104758674D01*
X120961876Y-104752128D01*
X120971585Y-104744844D01*
X120980742Y-104736854D01*
X120989299Y-104728189D01*
X120997214Y-104718882D01*
X121004440Y-104708964D01*
X121010933Y-104698466D01*
X121016647Y-104687422D01*
X121021538Y-104675862D01*
X122105802Y-101783966D01*
X122111736Y-101769042D01*
X122118216Y-101754437D01*
X122125228Y-101740163D01*
X122132756Y-101726229D01*
X122140788Y-101712646D01*
X122149306Y-101699423D01*
X122158298Y-101686570D01*
X122167748Y-101674098D01*
X122177641Y-101662017D01*
X122187962Y-101650336D01*
X122198698Y-101639067D01*
X122209833Y-101628218D01*
X122221352Y-101617800D01*
X122233241Y-101607823D01*
X122245485Y-101598298D01*
X122258070Y-101589233D01*
X122270980Y-101580640D01*
X122284200Y-101572528D01*
X122297717Y-101564908D01*
X122311516Y-101557789D01*
X122325580Y-101551182D01*
X122339897Y-101545096D01*
X122354451Y-101539542D01*
X122369228Y-101534530D01*
X122384212Y-101530070D01*
X122399389Y-101526172D01*
X122414745Y-101522846D01*
X122430264Y-101520102D01*
X122445932Y-101517951D01*
X122461734Y-101516401D01*
X122477655Y-101515464D01*
X122493681Y-101515150D01*
X122525629Y-101516401D01*
G37*
G36*
X128355260Y-104294333D02*
G01*
X127896473Y-104294333D01*
X127896473Y-103536037D01*
X127156698Y-103536037D01*
X127156698Y-103182554D01*
X127896473Y-103182554D01*
X127896473Y-102744933D01*
X127082085Y-102744933D01*
X127082085Y-102390921D01*
X128355260Y-102390921D01*
X128355260Y-104294333D01*
G37*
G36*
X131247140Y-103871529D02*
G01*
X131247685Y-103894812D01*
X131247139Y-103917397D01*
X131245502Y-103939508D01*
X131242774Y-103961146D01*
X131238954Y-103982307D01*
X131234043Y-104002991D01*
X131228040Y-104023195D01*
X131220946Y-104042919D01*
X131212760Y-104062161D01*
X131203483Y-104080920D01*
X131193115Y-104099193D01*
X131181655Y-104116979D01*
X131169104Y-104134277D01*
X131155461Y-104151085D01*
X131140727Y-104167401D01*
X131124902Y-104183225D01*
X131107985Y-104198554D01*
X131090287Y-104213257D01*
X131072118Y-104227006D01*
X131053477Y-104239802D01*
X131034365Y-104251644D01*
X131014782Y-104262535D01*
X130994727Y-104272475D01*
X130974201Y-104281465D01*
X130953204Y-104289505D01*
X130931736Y-104296596D01*
X130909796Y-104302739D01*
X130887385Y-104307935D01*
X130864502Y-104312184D01*
X130841149Y-104315488D01*
X130817324Y-104317847D01*
X130793028Y-104319262D01*
X130768260Y-104319733D01*
X130741354Y-104319138D01*
X130715203Y-104317351D01*
X130689809Y-104314372D01*
X130665172Y-104310200D01*
X130641291Y-104304834D01*
X130618167Y-104298274D01*
X130595800Y-104290519D01*
X130574189Y-104281567D01*
X130553334Y-104271419D01*
X130533236Y-104260073D01*
X130513895Y-104247528D01*
X130495310Y-104233785D01*
X130477481Y-104218842D01*
X130460410Y-104202698D01*
X130444094Y-104185352D01*
X130428536Y-104166804D01*
X130423896Y-104187194D01*
X130419101Y-104206293D01*
X130414146Y-104224103D01*
X130409022Y-104240623D01*
X130406396Y-104248399D01*
X130403726Y-104255853D01*
X130401010Y-104262984D01*
X130398249Y-104269793D01*
X130395441Y-104276280D01*
X130392586Y-104282444D01*
X130389683Y-104288285D01*
X130386731Y-104293804D01*
X130385144Y-104293275D01*
X129944877Y-104293275D01*
X129944877Y-104271050D01*
X129951903Y-104257792D01*
X129958494Y-104243816D01*
X129964652Y-104229121D01*
X129970376Y-104213710D01*
X129975666Y-104197582D01*
X129980521Y-104180739D01*
X129984943Y-104163182D01*
X129988930Y-104144910D01*
X129992483Y-104125925D01*
X129995602Y-104106228D01*
X129998288Y-104085819D01*
X130000539Y-104064700D01*
X130002356Y-104042870D01*
X130003738Y-104020332D01*
X130005202Y-103973129D01*
X130005202Y-103891109D01*
X130448114Y-103891109D01*
X130451209Y-103896634D01*
X130454539Y-103902095D01*
X130458104Y-103907491D01*
X130461906Y-103912821D01*
X130465943Y-103918082D01*
X130470215Y-103923274D01*
X130474724Y-103928394D01*
X130479468Y-103933442D01*
X130484447Y-103938415D01*
X130489662Y-103943312D01*
X130495113Y-103948132D01*
X130500800Y-103952872D01*
X130506722Y-103957532D01*
X130512880Y-103962110D01*
X130519273Y-103966604D01*
X130525902Y-103971013D01*
X130532761Y-103975335D01*
X130539842Y-103979373D01*
X130547147Y-103983127D01*
X130554675Y-103986598D01*
X130562427Y-103989787D01*
X130570402Y-103992695D01*
X130578599Y-103995322D01*
X130587021Y-103997669D01*
X130595665Y-103999738D01*
X130604533Y-104001528D01*
X130613624Y-104003040D01*
X130622938Y-104004276D01*
X130632475Y-104005235D01*
X130642236Y-104005920D01*
X130652220Y-104006330D01*
X130662427Y-104006467D01*
X130662427Y-104005938D01*
X130670178Y-104005795D01*
X130677756Y-104005366D01*
X130685160Y-104004651D01*
X130692391Y-104003648D01*
X130699448Y-104002356D01*
X130706331Y-104000776D01*
X130713041Y-103998905D01*
X130719577Y-103996744D01*
X130725939Y-103994291D01*
X130732128Y-103991546D01*
X130738143Y-103988508D01*
X130743985Y-103985176D01*
X130749653Y-103981550D01*
X130755147Y-103977629D01*
X130760468Y-103973411D01*
X130765615Y-103968896D01*
X130770519Y-103964146D01*
X130775114Y-103959221D01*
X130779396Y-103954121D01*
X130783366Y-103948846D01*
X130787023Y-103943393D01*
X130790366Y-103937763D01*
X130793395Y-103931955D01*
X130796107Y-103925967D01*
X130798504Y-103919800D01*
X130800584Y-103913452D01*
X130802345Y-103906923D01*
X130803789Y-103900212D01*
X130804912Y-103893318D01*
X130805716Y-103886240D01*
X130806199Y-103878977D01*
X130806360Y-103871529D01*
X130806135Y-103858833D01*
X130805461Y-103846539D01*
X130804337Y-103834648D01*
X130802763Y-103823160D01*
X130800740Y-103812076D01*
X130798268Y-103801394D01*
X130795345Y-103791116D01*
X130791973Y-103781240D01*
X130788152Y-103771768D01*
X130783881Y-103762699D01*
X130779160Y-103754033D01*
X130773990Y-103745770D01*
X130768370Y-103737910D01*
X130762301Y-103730453D01*
X130755782Y-103723399D01*
X130748813Y-103716748D01*
X130741395Y-103710500D01*
X130733527Y-103704656D01*
X130725210Y-103699214D01*
X130716443Y-103694176D01*
X130707227Y-103689540D01*
X130697560Y-103685308D01*
X130687445Y-103681479D01*
X130676880Y-103678053D01*
X130665865Y-103675030D01*
X130654400Y-103672410D01*
X130642486Y-103670193D01*
X130630123Y-103668379D01*
X130604047Y-103665960D01*
X130576172Y-103665154D01*
X130448114Y-103665154D01*
X130448114Y-103891109D01*
X130005202Y-103891109D01*
X130005202Y-103347125D01*
X130006293Y-103318736D01*
X130008576Y-103291116D01*
X130012052Y-103264265D01*
X130016720Y-103238183D01*
X130022581Y-103212870D01*
X130029638Y-103188325D01*
X130037889Y-103164550D01*
X130047337Y-103141544D01*
X130057981Y-103119306D01*
X130069823Y-103097838D01*
X130082864Y-103077139D01*
X130097103Y-103057208D01*
X130112543Y-103038046D01*
X130129183Y-103019654D01*
X130147025Y-103002030D01*
X130166069Y-102985175D01*
X130186154Y-102969220D01*
X130207121Y-102954293D01*
X130228971Y-102940397D01*
X130251703Y-102927529D01*
X130275318Y-102915691D01*
X130299819Y-102904882D01*
X130325204Y-102895103D01*
X130351475Y-102886353D01*
X130378634Y-102878633D01*
X130406679Y-102871942D01*
X130435613Y-102866280D01*
X130465436Y-102861648D01*
X130496149Y-102858045D01*
X130527753Y-102855471D01*
X130560248Y-102853927D01*
X130593635Y-102853413D01*
X130627091Y-102853915D01*
X130659790Y-102855421D01*
X130691735Y-102857930D01*
X130722926Y-102861441D01*
X130753362Y-102865954D01*
X130783047Y-102871467D01*
X130811979Y-102877981D01*
X130840161Y-102885493D01*
X130867592Y-102894004D01*
X130894273Y-102903513D01*
X130920206Y-102914018D01*
X130945390Y-102925520D01*
X130969828Y-102938016D01*
X130993519Y-102951508D01*
X131016464Y-102965993D01*
X131038664Y-102981471D01*
X131059810Y-102997749D01*
X131079592Y-103014634D01*
X131098009Y-103032125D01*
X131115063Y-103050221D01*
X131130752Y-103068922D01*
X131145076Y-103088227D01*
X131158037Y-103108135D01*
X131169633Y-103128645D01*
X131179865Y-103149757D01*
X131188733Y-103171470D01*
X131196236Y-103193782D01*
X131202375Y-103216694D01*
X131207150Y-103240204D01*
X131210561Y-103264311D01*
X131212607Y-103289016D01*
X131213289Y-103314317D01*
X130773023Y-103314317D01*
X130772871Y-103304793D01*
X130772415Y-103295571D01*
X130771654Y-103286649D01*
X130770590Y-103278028D01*
X130769220Y-103269709D01*
X130767546Y-103261691D01*
X130765567Y-103253974D01*
X130763283Y-103246558D01*
X130760693Y-103239445D01*
X130757798Y-103232632D01*
X130754596Y-103226122D01*
X130751089Y-103219913D01*
X130747276Y-103214006D01*
X130743156Y-103208401D01*
X130738730Y-103203099D01*
X130733997Y-103198098D01*
X130728957Y-103193400D01*
X130723609Y-103189004D01*
X130717955Y-103184911D01*
X130711993Y-103181121D01*
X130705723Y-103177633D01*
X130699145Y-103174447D01*
X130692259Y-103171565D01*
X130685065Y-103168986D01*
X130677563Y-103166710D01*
X130669751Y-103164737D01*
X130661631Y-103163067D01*
X130653202Y-103161701D01*
X130644463Y-103160638D01*
X130635415Y-103159878D01*
X130626057Y-103159423D01*
X130616389Y-103159271D01*
X130605988Y-103159461D01*
X130595919Y-103160034D01*
X130586181Y-103160987D01*
X130576775Y-103162323D01*
X130567700Y-103164040D01*
X130558957Y-103166139D01*
X130550544Y-103168620D01*
X130542463Y-103171483D01*
X130534713Y-103174728D01*
X130527293Y-103178356D01*
X130520205Y-103182365D01*
X130513447Y-103186757D01*
X130507019Y-103191532D01*
X130500923Y-103196690D01*
X130495156Y-103202230D01*
X130489720Y-103208153D01*
X130484614Y-103214458D01*
X130479838Y-103221147D01*
X130475393Y-103228219D01*
X130471277Y-103235674D01*
X130467491Y-103243513D01*
X130464034Y-103251735D01*
X130460908Y-103260340D01*
X130458111Y-103269329D01*
X130455643Y-103278702D01*
X130453505Y-103288458D01*
X130450215Y-103309123D01*
X130448243Y-103331324D01*
X130447585Y-103355063D01*
X130447585Y-103429675D01*
X130583581Y-103429675D01*
X130623554Y-103430134D01*
X130662312Y-103431511D01*
X130699856Y-103433805D01*
X130736188Y-103437017D01*
X130771307Y-103441147D01*
X130805214Y-103446195D01*
X130837911Y-103452160D01*
X130869397Y-103459044D01*
X130899675Y-103466845D01*
X130928743Y-103475564D01*
X130956605Y-103485200D01*
X130983259Y-103495755D01*
X131008707Y-103507227D01*
X131032950Y-103519617D01*
X131055988Y-103532925D01*
X131077823Y-103547150D01*
X131098392Y-103562275D01*
X131117634Y-103578280D01*
X131135549Y-103595166D01*
X131152137Y-103612932D01*
X131167399Y-103631579D01*
X131181333Y-103651107D01*
X131193940Y-103671515D01*
X131205219Y-103692803D01*
X131215172Y-103714972D01*
X131223798Y-103738022D01*
X131231097Y-103761952D01*
X131237069Y-103786763D01*
X131241713Y-103812455D01*
X131245031Y-103839027D01*
X131247022Y-103866479D01*
X131247140Y-103871529D01*
G37*
G36*
X134779344Y-105797696D02*
G01*
X134779344Y-105956446D01*
X118904345Y-105956446D01*
X118904345Y-105797696D01*
X119063094Y-105797696D01*
X134620594Y-105797696D01*
X134620594Y-100823529D01*
X119063094Y-100823529D01*
X119063094Y-105797696D01*
X118904345Y-105797696D01*
X118904345Y-100664779D01*
X134779344Y-100664779D01*
X134779344Y-105797696D01*
G37*
G36*
X132481702Y-103714896D02*
G01*
X132906623Y-102390921D01*
X133508815Y-102390921D01*
X133508815Y-104294333D01*
X133050027Y-104294333D01*
X133050027Y-103849833D01*
X133094477Y-102938608D01*
X132633044Y-104293804D01*
X132329831Y-104293804D01*
X131869985Y-102939667D01*
X131914435Y-103849304D01*
X131914435Y-104293804D01*
X131454590Y-104293804D01*
X131454590Y-102390921D01*
X132058369Y-102390921D01*
X132481702Y-103714896D01*
G37*
G36*
X122511421Y-103281414D02*
G01*
X122528405Y-103282706D01*
X122545142Y-103284832D01*
X122561611Y-103287774D01*
X122577791Y-103291508D01*
X122593661Y-103296015D01*
X122609200Y-103301272D01*
X122624387Y-103307260D01*
X122639201Y-103313958D01*
X122653621Y-103321343D01*
X122667627Y-103329396D01*
X122681196Y-103338095D01*
X122694308Y-103347419D01*
X122706941Y-103357347D01*
X122719076Y-103367859D01*
X122730691Y-103378932D01*
X122741764Y-103390547D01*
X122752276Y-103402682D01*
X122762204Y-103415316D01*
X122771528Y-103428428D01*
X122780227Y-103441997D01*
X122788280Y-103456002D01*
X122795666Y-103470422D01*
X122802363Y-103485236D01*
X122808351Y-103500423D01*
X122813609Y-103515962D01*
X122818116Y-103531832D01*
X122821850Y-103548012D01*
X122824791Y-103564481D01*
X122826918Y-103581219D01*
X122828209Y-103598203D01*
X122828644Y-103615412D01*
X122828209Y-103632622D01*
X122826918Y-103649606D01*
X122824791Y-103666343D01*
X122821850Y-103682812D01*
X122818116Y-103698993D01*
X122813609Y-103714863D01*
X122808351Y-103730402D01*
X122802363Y-103745589D01*
X122795666Y-103760403D01*
X122788280Y-103774823D01*
X122780227Y-103788828D01*
X122771528Y-103802397D01*
X122762204Y-103815509D01*
X122752276Y-103828143D01*
X122741764Y-103840278D01*
X122730691Y-103851892D01*
X122719076Y-103862966D01*
X122706941Y-103873477D01*
X122694308Y-103883406D01*
X122681196Y-103892730D01*
X122667627Y-103901429D01*
X122653621Y-103909481D01*
X122639201Y-103916867D01*
X122624387Y-103923564D01*
X122609200Y-103929552D01*
X122593661Y-103934810D01*
X122577791Y-103939317D01*
X122561611Y-103943051D01*
X122545142Y-103945992D01*
X122528405Y-103948119D01*
X122511421Y-103949410D01*
X122494211Y-103949846D01*
X122477001Y-103949410D01*
X122460017Y-103948119D01*
X122443280Y-103945992D01*
X122426811Y-103943051D01*
X122410631Y-103939317D01*
X122394760Y-103934810D01*
X122379221Y-103929552D01*
X122364034Y-103923564D01*
X122349220Y-103916867D01*
X122334800Y-103909481D01*
X122320795Y-103901429D01*
X122307226Y-103892730D01*
X122294114Y-103883406D01*
X122281480Y-103873477D01*
X122269345Y-103862966D01*
X122257730Y-103851892D01*
X122246657Y-103840278D01*
X122236145Y-103828143D01*
X122226217Y-103815509D01*
X122216893Y-103802397D01*
X122208194Y-103788828D01*
X122200141Y-103774823D01*
X122192756Y-103760403D01*
X122186058Y-103745589D01*
X122180070Y-103730402D01*
X122174812Y-103714863D01*
X122170306Y-103698993D01*
X122166571Y-103682812D01*
X122163630Y-103666343D01*
X122161504Y-103649606D01*
X122160212Y-103632622D01*
X122159777Y-103615412D01*
X122160212Y-103598203D01*
X122161504Y-103581219D01*
X122163630Y-103564481D01*
X122166571Y-103548012D01*
X122170306Y-103531832D01*
X122174812Y-103515962D01*
X122180070Y-103500423D01*
X122186058Y-103485236D01*
X122192756Y-103470422D01*
X122200141Y-103456002D01*
X122208194Y-103441997D01*
X122216893Y-103428428D01*
X122226217Y-103415316D01*
X122236145Y-103402682D01*
X122246657Y-103390547D01*
X122257730Y-103378932D01*
X122269345Y-103367859D01*
X122281480Y-103357347D01*
X122294114Y-103347419D01*
X122307226Y-103338095D01*
X122320795Y-103329396D01*
X122334800Y-103321343D01*
X122349220Y-103313958D01*
X122364034Y-103307260D01*
X122379221Y-103301272D01*
X122394760Y-103296015D01*
X122410631Y-103291508D01*
X122426811Y-103287774D01*
X122443280Y-103284832D01*
X122460017Y-103282706D01*
X122477001Y-103281414D01*
X122494211Y-103280979D01*
X122511421Y-103281414D01*
G37*
G36*
X129616071Y-103676796D02*
G01*
X129398778Y-104308092D01*
X129434232Y-104402284D01*
X129437302Y-104410841D01*
X129440559Y-104419054D01*
X129444006Y-104426921D01*
X129447643Y-104434447D01*
X129451472Y-104441631D01*
X129455496Y-104448476D01*
X129459714Y-104454983D01*
X129464130Y-104461153D01*
X129468744Y-104466989D01*
X129473558Y-104472491D01*
X129478573Y-104477662D01*
X129483792Y-104482502D01*
X129489215Y-104487013D01*
X129494844Y-104491198D01*
X129500681Y-104495057D01*
X129506728Y-104498592D01*
X129513047Y-104501860D01*
X129519702Y-104504917D01*
X129526693Y-104507763D01*
X129534021Y-104510399D01*
X129541688Y-104512824D01*
X129549693Y-104515037D01*
X129558037Y-104517040D01*
X129566722Y-104518833D01*
X129575748Y-104520414D01*
X129585116Y-104521784D01*
X129594826Y-104522944D01*
X129604880Y-104523893D01*
X129615278Y-104524631D01*
X129626021Y-104525158D01*
X129648545Y-104525580D01*
X129706224Y-104525580D01*
X129706224Y-104839375D01*
X129682559Y-104845503D01*
X129659186Y-104850794D01*
X129636098Y-104855253D01*
X129613288Y-104858888D01*
X129590752Y-104861704D01*
X129568483Y-104863708D01*
X129546474Y-104864906D01*
X129524719Y-104865304D01*
X129486563Y-104864231D01*
X129468038Y-104862890D01*
X129449882Y-104861013D01*
X129432095Y-104858599D01*
X129414676Y-104855649D01*
X129397625Y-104852162D01*
X129380943Y-104848139D01*
X129364629Y-104843580D01*
X129348683Y-104838484D01*
X129333105Y-104832852D01*
X129317895Y-104826683D01*
X129303052Y-104819978D01*
X129288578Y-104812737D01*
X129274471Y-104804959D01*
X129260731Y-104796645D01*
X129247359Y-104787794D01*
X129234355Y-104778407D01*
X129221717Y-104768484D01*
X129209447Y-104758024D01*
X129197543Y-104747028D01*
X129186007Y-104735495D01*
X129174837Y-104723426D01*
X129164034Y-104710821D01*
X129153598Y-104697679D01*
X129143529Y-104684001D01*
X129133825Y-104669786D01*
X129124488Y-104655035D01*
X129115518Y-104639747D01*
X129106913Y-104623924D01*
X129098675Y-104607563D01*
X129090803Y-104590667D01*
X129065932Y-104530342D01*
X128768196Y-103677326D01*
X129196636Y-103677326D01*
X129197165Y-103676796D01*
X129196970Y-103676135D01*
X129196636Y-103677326D01*
X128768196Y-103677326D01*
X128489669Y-102879342D01*
X128961686Y-102879342D01*
X129196970Y-103676135D01*
X129419945Y-102879871D01*
X129890373Y-102879871D01*
X129616071Y-103676796D01*
G37*
G36*
X126888940Y-104293804D02*
G01*
X126447085Y-104293804D01*
X126447085Y-102286146D01*
X126888940Y-102286146D01*
X126888940Y-104293804D01*
G37*
M02*
