M48
; DRILL file {KiCad 7.0.1} date Thu Feb 15 14:19:19 2024
; FORMAT={-:-/ absolute / inch / decimal}
; #@! TF.CreationDate,2024-02-15T14:19:19+01:00
; #@! TF.GenerationSoftware,Kicad,Pcbnew,7.0.1
; #@! TF.FileFunction,Plated,1,4,PTH
FMAT,2
INCH
; #@! TA.AperFunction,Plated,PTH,ViaDrill
T1C0.0098
; #@! TA.AperFunction,Plated,PTH,ViaDrill
T2C0.0140
; #@! TA.AperFunction,Plated,PTH,ViaDrill
T3C0.0157
; #@! TA.AperFunction,Plated,PTH,ComponentDrill
T4C0.0197
%
G90
G05
T1
X3.9769Y-4.3799
X3.9769Y-4.6682
X3.9769Y-4.8297
X4.0508Y-4.3533
X4.0551Y-4.0236
X4.0551Y-4.1407
X4.0635Y-4.4704
X4.0911Y-4.6919
X4.0911Y-4.7529
X4.1339Y-4.1407
X4.1433Y-4.3442
X4.1531Y-4.4517
X4.1541Y-4.0243
X4.1827Y-4.3442
X4.2047Y-3.9574
X4.2047Y-3.9889
X4.2047Y-4.0204
X4.2047Y-4.0519
X4.2047Y-4.0834
X4.2126Y-4.1407
X4.2362Y-3.9574
X4.2362Y-3.9889
X4.2362Y-4.0204
X4.2362Y-4.0519
X4.2362Y-4.0834
X4.2486Y-4.9871
X4.2677Y-3.9574
X4.2677Y-3.9889
X4.2677Y-4.0204
X4.2677Y-4.0519
X4.2677Y-4.0834
X4.284Y-4.5334
X4.2919Y-4.6879
X4.2965Y-4.1202
X4.2965Y-4.1438
X4.2965Y-4.1675
X4.2965Y-4.1911
X4.2965Y-4.2147
X4.3116Y-5.0895
X4.3161Y-4.132
X4.3161Y-4.1557
X4.3161Y-4.1793
X4.3161Y-4.2029
X4.3161Y-4.2265
X4.3303Y-4.3769
X4.3303Y-4.4123
X4.3657Y-4.3769
X4.3657Y-4.4123
X4.3736Y-4.132
X4.3736Y-4.1557
X4.3736Y-4.1793
X4.3736Y-4.2029
X4.3736Y-4.2265
X4.3933Y-4.1202
X4.3933Y-4.1438
X4.3933Y-4.1675
X4.3933Y-4.1911
X4.3933Y-4.2147
X4.4012Y-4.3769
X4.4012Y-4.4123
X4.4252Y-3.9574
X4.4252Y-3.9889
X4.4252Y-4.0204
X4.4252Y-4.0519
X4.4252Y-4.0834
X4.4297Y-5.1092
X4.4366Y-4.3769
X4.4366Y-4.4123
X4.4484Y-4.1407
X4.4567Y-3.9574
X4.4567Y-3.9889
X4.4567Y-4.0204
X4.4567Y-4.0519
X4.4567Y-4.0834
X4.4882Y-3.9574
X4.4882Y-3.9889
X4.4882Y-4.0204
X4.4882Y-4.0519
X4.4882Y-4.0834
X4.4898Y-4.2175
X4.5236Y-4.3937
X4.5236Y-4.4832
X4.5272Y-4.2194
X4.5478Y-4.0243
X4.5754Y-5.2312
X4.5773Y-5.0068
X4.6068Y-4.3137
X4.6068Y-4.355
X4.6206Y-5.2371
X4.6561Y-5.2116
X4.6659Y-4.1424
X4.6659Y-4.2605
X4.6698Y-5.2805
X4.7205Y-4.8011
X4.7205Y-4.8799
X4.748Y-4.8169
X4.7643Y-4.5265
X4.7756Y-4.8326
X4.7795Y-4.7047
X4.7801Y-4.6407
X4.784Y-4.1053
X4.784Y-4.2234
X4.786Y-4.9753
X4.788Y-4.5029
X4.8155Y-4.5186
X4.8268Y-4.6358
X4.8431Y-4.4438
X4.8543Y-4.6358
X4.8628Y-4.5265
X4.878Y-4.6515
X4.8898Y-4.9783
X4.8917Y-5.1574
X4.8942Y-5.2312
X4.8975Y-4.1897
X4.9173Y-5.1476
X4.9213Y-4.7775
X4.9449Y-4.5255
X4.9449Y-4.6358
X4.9625Y-4.361
X4.9625Y-4.3964
X4.9769Y-4.2824
X4.9848Y-5.2706
X5.0Y-5.1121
X5.0157Y-4.8346
X5.0163Y-4.7608
X5.0399Y-4.2745
X5.0433Y-4.5334
X5.0596Y-4.4202
X5.0596Y-5.2076
X5.0708Y-4.1582
X5.0708Y-4.2645
X5.1147Y-5.121
X5.1147Y-5.2155
X5.189Y-5.2717
X5.1927Y-4.1327
X5.1927Y-4.1838
X5.1974Y-4.3139
X5.2407Y-4.4832
X5.2446Y-4.5383
X5.2465Y-4.362
X5.2486Y-4.5895
X5.2486Y-4.4327
X5.2624Y-4.3198
X5.2913Y-5.1938
X5.3071Y-4.1169
X5.3619Y-4.109
X5.3661Y-4.0236
X5.4252Y-4.2901
X5.4311Y-5.0501
X5.532Y-5.0108
X5.5353Y-4.4432
X5.5353Y-4.5417
X5.5353Y-4.5929
T2
X4.3746Y-4.6161
X4.3746Y-4.6555
X4.3746Y-4.6948
X4.3746Y-4.7342
X4.3746Y-4.7736
X4.3746Y-4.8129
X4.3746Y-4.8523
X4.4155Y-4.5767
X4.4155Y-4.8946
X4.4549Y-4.5767
X4.4549Y-4.8946
X4.4942Y-4.5767
X4.4942Y-4.8946
X4.5336Y-4.5767
T3
X4.189Y-5.0492
X4.4155Y-4.8501
X4.509Y-4.6259
X4.5474Y-4.8395
X4.5689Y-5.0452
X4.5927Y-4.8395
X4.7165Y-5.0452
X5.0749Y-5.0708
X5.1344Y-4.4517
X5.1344Y-4.999
X5.1596Y-4.63
X5.1654Y-5.0452
X5.2013Y-4.558
X5.272Y-4.4143
X5.2761Y-4.8494
X5.2899Y-4.7598
X5.3391Y-4.7125
X5.4297Y-4.6869
X5.4907Y-4.7677
X5.5281Y-4.6407
X5.5512Y-4.7283
X5.6299Y-4.7402
T4
G00X5.2382Y-5.0813
M15
G01X5.2382Y-5.1089
M16
G05
G00X5.2382Y-5.218
M15
G01X5.2382Y-5.2455
M16
G05
G00X5.5197Y-5.0813
M15
G01X5.5197Y-5.1089
M16
G05
G00X5.5197Y-5.218
M15
G01X5.5197Y-5.2455
M16
G05
T0
M30
