%TF.GenerationSoftware,KiCad,Pcbnew,7.0.1*%
%TF.CreationDate,2024-02-15T14:19:22+01:00*%
%TF.ProjectId,stm32f405-sensorleap-v1,73746d33-3266-4343-9035-2d73656e736f,rev?*%
%TF.SameCoordinates,Original*%
%TF.FileFunction,Profile,NP*%
%FSLAX46Y46*%
G04 Gerber Fmt 4.6, Leading zero omitted, Abs format (unit mm)*
G04 Created by KiCad (PCBNEW 7.0.1) date 2024-02-15 14:19:22*
%MOMM*%
%LPD*%
G01*
G04 APERTURE LIST*
%TA.AperFunction,Profile*%
%ADD10C,0.100000*%
%TD*%
G04 APERTURE END LIST*
D10*
X139564633Y-134899982D02*
G75*
G03*
X140978847Y-134314214I67J1999882D01*
G01*
X101100000Y-128900000D02*
X103100000Y-128900000D01*
X136900000Y-100100000D02*
X104335367Y-100100000D01*
X100685786Y-102911153D02*
X102921153Y-100685786D01*
X137900000Y-101100000D02*
G75*
G03*
X136900000Y-100100000I-1000000J0D01*
G01*
X106100000Y-133900000D02*
G75*
G03*
X107100000Y-134900000I1000000J0D01*
G01*
X100685762Y-102911129D02*
G75*
G03*
X100100000Y-104325367I1414438J-1414271D01*
G01*
X142900000Y-106100000D02*
X140900000Y-106100000D01*
X107100000Y-134900000D02*
X139564633Y-134900000D01*
X137900000Y-103100000D02*
G75*
G03*
X140900000Y-106100000I3000000J0D01*
G01*
X143314214Y-131984214D02*
X140978847Y-134314214D01*
X137900000Y-103100000D02*
X137900000Y-101100000D01*
X106100000Y-131900000D02*
X106100000Y-133900000D01*
X100100000Y-127900000D02*
G75*
G03*
X101100000Y-128900000I1000000J0D01*
G01*
X143314214Y-131984214D02*
G75*
G03*
X143900000Y-130570000I-1414214J1414214D01*
G01*
X106100000Y-131900000D02*
G75*
G03*
X103100000Y-128900000I-3000000J0D01*
G01*
X104335367Y-100100018D02*
G75*
G03*
X102921153Y-100685786I-67J-1999882D01*
G01*
X143900000Y-107100000D02*
G75*
G03*
X142900000Y-106100000I-1000000J0D01*
G01*
X143900000Y-130570000D02*
X143900000Y-107100000D01*
X100100000Y-104325367D02*
X100100000Y-127900000D01*
M02*
