%TF.GenerationSoftware,KiCad,Pcbnew,7.0.1*%
%TF.CreationDate,2023-10-27T08:58:37+02:00*%
%TF.ProjectId,SensorLeapSMA,53656e73-6f72-44c6-9561-70534d412e6b,rev?*%
%TF.SameCoordinates,Original*%
%TF.FileFunction,Legend,Top*%
%TF.FilePolarity,Positive*%
%FSLAX46Y46*%
G04 Gerber Fmt 4.6, Leading zero omitted, Abs format (unit mm)*
G04 Created by KiCad (PCBNEW 7.0.1) date 2023-10-27 08:58:37*
%MOMM*%
%LPD*%
G01*
G04 APERTURE LIST*
G04 Aperture macros list*
%AMRoundRect*
0 Rectangle with rounded corners*
0 $1 Rounding radius*
0 $2 $3 $4 $5 $6 $7 $8 $9 X,Y pos of 4 corners*
0 Add a 4 corners polygon primitive as box body*
4,1,4,$2,$3,$4,$5,$6,$7,$8,$9,$2,$3,0*
0 Add four circle primitives for the rounded corners*
1,1,$1+$1,$2,$3*
1,1,$1+$1,$4,$5*
1,1,$1+$1,$6,$7*
1,1,$1+$1,$8,$9*
0 Add four rect primitives between the rounded corners*
20,1,$1+$1,$2,$3,$4,$5,0*
20,1,$1+$1,$4,$5,$6,$7,0*
20,1,$1+$1,$6,$7,$8,$9,0*
20,1,$1+$1,$8,$9,$2,$3,0*%
G04 Aperture macros list end*
%ADD10C,0.150000*%
%ADD11C,0.000000*%
%ADD12C,0.200000*%
%ADD13C,0.100000*%
%ADD14C,0.120000*%
%ADD15C,0.050000*%
%ADD16RoundRect,0.135000X-0.135000X-0.185000X0.135000X-0.185000X0.135000X0.185000X-0.135000X0.185000X0*%
%ADD17RoundRect,0.135000X-0.185000X0.135000X-0.185000X-0.135000X0.185000X-0.135000X0.185000X0.135000X0*%
%ADD18RoundRect,0.140000X0.140000X0.170000X-0.140000X0.170000X-0.140000X-0.170000X0.140000X-0.170000X0*%
%ADD19RoundRect,0.218750X-0.218750X-0.256250X0.218750X-0.256250X0.218750X0.256250X-0.218750X0.256250X0*%
%ADD20C,2.500000*%
%ADD21RoundRect,0.140000X0.170000X-0.140000X0.170000X0.140000X-0.170000X0.140000X-0.170000X-0.140000X0*%
%ADD22R,0.685800X0.584200*%
%ADD23RoundRect,0.250000X-0.250000X-0.475000X0.250000X-0.475000X0.250000X0.475000X-0.250000X0.475000X0*%
%ADD24RoundRect,0.147500X-0.147500X-0.172500X0.147500X-0.172500X0.147500X0.172500X-0.147500X0.172500X0*%
%ADD25RoundRect,0.225000X0.225000X0.250000X-0.225000X0.250000X-0.225000X-0.250000X0.225000X-0.250000X0*%
%ADD26RoundRect,0.140000X-0.170000X0.140000X-0.170000X-0.140000X0.170000X-0.140000X0.170000X0.140000X0*%
%ADD27RoundRect,0.135000X0.135000X0.185000X-0.135000X0.185000X-0.135000X-0.185000X0.135000X-0.185000X0*%
%ADD28C,1.650000*%
%ADD29R,1.250000X2.100000*%
%ADD30R,3.500000X2.000000*%
%ADD31RoundRect,0.087250X-0.087250X0.192750X-0.087250X-0.192750X0.087250X-0.192750X0.087250X0.192750X0*%
%ADD32RoundRect,0.140000X-0.140000X-0.170000X0.140000X-0.170000X0.140000X0.170000X-0.140000X0.170000X0*%
%ADD33R,0.400000X0.200000*%
%ADD34R,0.200000X0.400000*%
%ADD35R,1.200000X2.300000*%
%ADD36R,1.520000X5.080000*%
%ADD37C,0.269000*%
%ADD38R,2.300000X1.200000*%
%ADD39R,0.400000X1.350000*%
%ADD40O,1.000000X1.900000*%
%ADD41R,0.875000X1.900000*%
%ADD42O,1.050000X1.250000*%
%ADD43R,2.900000X1.900000*%
%ADD44R,0.675000X0.250000*%
%ADD45R,0.250000X0.675000*%
G04 APERTURE END LIST*
D10*
X75495711Y-53154290D02*
G75*
G03*
X75495711Y-53154290I-70711J0D01*
G01*
D11*
G36*
X70127319Y-71140759D02*
G01*
X70546225Y-71140759D01*
X70546754Y-71141289D01*
X70546421Y-71140098D01*
X70546225Y-71140759D01*
X70127319Y-71140759D01*
X69853016Y-70343834D01*
X70323445Y-70343834D01*
X70546421Y-71140098D01*
X70781704Y-70343305D01*
X71253720Y-70343305D01*
X70677458Y-71994305D01*
X70652587Y-72054630D01*
X70644715Y-72071526D01*
X70636477Y-72087887D01*
X70627872Y-72103710D01*
X70618901Y-72118998D01*
X70609565Y-72133749D01*
X70599861Y-72147964D01*
X70589792Y-72161642D01*
X70579355Y-72174784D01*
X70568553Y-72187389D01*
X70557383Y-72199458D01*
X70545847Y-72210991D01*
X70533943Y-72221987D01*
X70521673Y-72232447D01*
X70509035Y-72242370D01*
X70496030Y-72251757D01*
X70482658Y-72260608D01*
X70468919Y-72268922D01*
X70454812Y-72276700D01*
X70440337Y-72283941D01*
X70425495Y-72290646D01*
X70410285Y-72296815D01*
X70394707Y-72302447D01*
X70378761Y-72307543D01*
X70362447Y-72312102D01*
X70345764Y-72316125D01*
X70328714Y-72319612D01*
X70311295Y-72322562D01*
X70293507Y-72324976D01*
X70275351Y-72326853D01*
X70256827Y-72328194D01*
X70218671Y-72329267D01*
X70196916Y-72328869D01*
X70174907Y-72327671D01*
X70152638Y-72325667D01*
X70130102Y-72322851D01*
X70107293Y-72319216D01*
X70084205Y-72314757D01*
X70060831Y-72309466D01*
X70037167Y-72303338D01*
X70037167Y-71989543D01*
X70094846Y-71989543D01*
X70117370Y-71989121D01*
X70128112Y-71988594D01*
X70138510Y-71987856D01*
X70148564Y-71986907D01*
X70158274Y-71985747D01*
X70167642Y-71984377D01*
X70176668Y-71982796D01*
X70185353Y-71981003D01*
X70193697Y-71979000D01*
X70201702Y-71976787D01*
X70209369Y-71974362D01*
X70216697Y-71971726D01*
X70223688Y-71968880D01*
X70230343Y-71965823D01*
X70236662Y-71962555D01*
X70242708Y-71959020D01*
X70248545Y-71955161D01*
X70254175Y-71950976D01*
X70259598Y-71946465D01*
X70264817Y-71941625D01*
X70269832Y-71936454D01*
X70274646Y-71930952D01*
X70279260Y-71925116D01*
X70283676Y-71918946D01*
X70287894Y-71912439D01*
X70291918Y-71905594D01*
X70295747Y-71898410D01*
X70299384Y-71890884D01*
X70302831Y-71883017D01*
X70306088Y-71874804D01*
X70309158Y-71866247D01*
X70344612Y-71772055D01*
X70127319Y-71140759D01*
G37*
G36*
X73679043Y-68979427D02*
G01*
X73694964Y-68980364D01*
X73710766Y-68981914D01*
X73726434Y-68984065D01*
X73741953Y-68986809D01*
X73757309Y-68990135D01*
X73772486Y-68994033D01*
X73787470Y-68998493D01*
X73802247Y-69003505D01*
X73816801Y-69009059D01*
X73831118Y-69015145D01*
X73845182Y-69021752D01*
X73858981Y-69028871D01*
X73872498Y-69036491D01*
X73885718Y-69044603D01*
X73898628Y-69053196D01*
X73911213Y-69062261D01*
X73923457Y-69071786D01*
X73935346Y-69081763D01*
X73946865Y-69092181D01*
X73958000Y-69103030D01*
X73968736Y-69114299D01*
X73979057Y-69125980D01*
X73988950Y-69138061D01*
X73998400Y-69150533D01*
X74007392Y-69163386D01*
X74015910Y-69176609D01*
X74023942Y-69190192D01*
X74031470Y-69204126D01*
X74038482Y-69218400D01*
X74044962Y-69233005D01*
X74050896Y-69247929D01*
X75135160Y-72139825D01*
X75140051Y-72151385D01*
X75145765Y-72162429D01*
X75152258Y-72172927D01*
X75159484Y-72182845D01*
X75167399Y-72192152D01*
X75175956Y-72200817D01*
X75185113Y-72208807D01*
X75194822Y-72216091D01*
X75205041Y-72222637D01*
X75215722Y-72228414D01*
X75226823Y-72233389D01*
X75238297Y-72237531D01*
X75250099Y-72240807D01*
X75262185Y-72243187D01*
X75274510Y-72244638D01*
X75287029Y-72245129D01*
X75496579Y-72245129D01*
X75504912Y-72244918D01*
X75513135Y-72244293D01*
X75521239Y-72243263D01*
X75529213Y-72241839D01*
X75537047Y-72240031D01*
X75544731Y-72237849D01*
X75552254Y-72235304D01*
X75559608Y-72232404D01*
X75566780Y-72229162D01*
X75573762Y-72225586D01*
X75580543Y-72221687D01*
X75587113Y-72217475D01*
X75593462Y-72212961D01*
X75599579Y-72208154D01*
X75605454Y-72203064D01*
X75611077Y-72197703D01*
X75616439Y-72192079D01*
X75621528Y-72186204D01*
X75626335Y-72180087D01*
X75630850Y-72173738D01*
X75635062Y-72167169D01*
X75638961Y-72160388D01*
X75642537Y-72153406D01*
X75645779Y-72146233D01*
X75648678Y-72138880D01*
X75651224Y-72131356D01*
X75653406Y-72123672D01*
X75655214Y-72115838D01*
X75656638Y-72107864D01*
X75657668Y-72099760D01*
X75658293Y-72091537D01*
X75658504Y-72083204D01*
X75658504Y-69141567D01*
X75658715Y-69133235D01*
X75659340Y-69125011D01*
X75660370Y-69116908D01*
X75661794Y-69108934D01*
X75663602Y-69101100D01*
X75665784Y-69093416D01*
X75668330Y-69085892D01*
X75671229Y-69078539D01*
X75674472Y-69071366D01*
X75678047Y-69064384D01*
X75681946Y-69057603D01*
X75686158Y-69051033D01*
X75690673Y-69044685D01*
X75695480Y-69038568D01*
X75700569Y-69032692D01*
X75705931Y-69027069D01*
X75711554Y-69021707D01*
X75717430Y-69016618D01*
X75723547Y-69011811D01*
X75729895Y-69007296D01*
X75736465Y-69003085D01*
X75743246Y-68999186D01*
X75750228Y-68995610D01*
X75757400Y-68992367D01*
X75764754Y-68989468D01*
X75772277Y-68986922D01*
X75779961Y-68984740D01*
X75787795Y-68982932D01*
X75795769Y-68981508D01*
X75803873Y-68980478D01*
X75812096Y-68979853D01*
X75820429Y-68979642D01*
X75828761Y-68979853D01*
X75836985Y-68980478D01*
X75845088Y-68981508D01*
X75853062Y-68982932D01*
X75860896Y-68984740D01*
X75868580Y-68986922D01*
X75876104Y-68989468D01*
X75883457Y-68992367D01*
X75890630Y-68995610D01*
X75897612Y-68999186D01*
X75904393Y-69003085D01*
X75910962Y-69007296D01*
X75917311Y-69011811D01*
X75923428Y-69016618D01*
X75929303Y-69021707D01*
X75934927Y-69027069D01*
X75940288Y-69032692D01*
X75945378Y-69038568D01*
X75950185Y-69044685D01*
X75954699Y-69051033D01*
X75958911Y-69057603D01*
X75962810Y-69064384D01*
X75966386Y-69071366D01*
X75969629Y-69078539D01*
X75972528Y-69085892D01*
X75975074Y-69093416D01*
X75977256Y-69101100D01*
X75979064Y-69108934D01*
X75980488Y-69116908D01*
X75981518Y-69125011D01*
X75982143Y-69133235D01*
X75982354Y-69141567D01*
X75982354Y-72082675D01*
X75981720Y-72107626D01*
X75979840Y-72132255D01*
X75976744Y-72156531D01*
X75972463Y-72180424D01*
X75967027Y-72203901D01*
X75960469Y-72226933D01*
X75952818Y-72249489D01*
X75944105Y-72271537D01*
X75934361Y-72293048D01*
X75923617Y-72313990D01*
X75911904Y-72334332D01*
X75899252Y-72354044D01*
X75885692Y-72373095D01*
X75871256Y-72391453D01*
X75855973Y-72409089D01*
X75839876Y-72425971D01*
X75822994Y-72442069D01*
X75805358Y-72457352D01*
X75786999Y-72471788D01*
X75767948Y-72485348D01*
X75748237Y-72497999D01*
X75727894Y-72509713D01*
X75706953Y-72520457D01*
X75685442Y-72530201D01*
X75663393Y-72538914D01*
X75640838Y-72546565D01*
X75617806Y-72553123D01*
X75594328Y-72558559D01*
X75570436Y-72562840D01*
X75546160Y-72565936D01*
X75521531Y-72567816D01*
X75496579Y-72568450D01*
X75287029Y-72568450D01*
X75268186Y-72568079D01*
X75249473Y-72566977D01*
X75230904Y-72565155D01*
X75212498Y-72562625D01*
X75194272Y-72559398D01*
X75176242Y-72555488D01*
X75158425Y-72550905D01*
X75140839Y-72545662D01*
X75123500Y-72539772D01*
X75106425Y-72533245D01*
X75089631Y-72526094D01*
X75073136Y-72518332D01*
X75056955Y-72509969D01*
X75041107Y-72501019D01*
X75025608Y-72491492D01*
X75010474Y-72481402D01*
X74995724Y-72470759D01*
X74981373Y-72459577D01*
X74967439Y-72447867D01*
X74953939Y-72435641D01*
X74940890Y-72422911D01*
X74928308Y-72409690D01*
X74916211Y-72395988D01*
X74904616Y-72381819D01*
X74893539Y-72367194D01*
X74882998Y-72352125D01*
X74873009Y-72336625D01*
X74863590Y-72320705D01*
X74854757Y-72304377D01*
X74846527Y-72287653D01*
X74838918Y-72270545D01*
X74831946Y-72253066D01*
X73747684Y-69361700D01*
X73744966Y-69355285D01*
X73741789Y-69349149D01*
X73738178Y-69343311D01*
X73734157Y-69337788D01*
X73729752Y-69332601D01*
X73724988Y-69327767D01*
X73719888Y-69323306D01*
X73714479Y-69319235D01*
X73708784Y-69315573D01*
X73702829Y-69312339D01*
X73696638Y-69309551D01*
X73690236Y-69307229D01*
X73683648Y-69305390D01*
X73676899Y-69304054D01*
X73670014Y-69303239D01*
X73663017Y-69302963D01*
X73659506Y-69303032D01*
X73656020Y-69303239D01*
X73652562Y-69303580D01*
X73649134Y-69304054D01*
X73645741Y-69304658D01*
X73642385Y-69305390D01*
X73639070Y-69306248D01*
X73635798Y-69307229D01*
X73632572Y-69308331D01*
X73629396Y-69309551D01*
X73626273Y-69310888D01*
X73623205Y-69312339D01*
X73620197Y-69313901D01*
X73617250Y-69315573D01*
X73614368Y-69317351D01*
X73611555Y-69319235D01*
X73608813Y-69321220D01*
X73606146Y-69323306D01*
X73603556Y-69325489D01*
X73601046Y-69327767D01*
X73598620Y-69330139D01*
X73596282Y-69332601D01*
X73594033Y-69335152D01*
X73591877Y-69337788D01*
X73589817Y-69340509D01*
X73587856Y-69343311D01*
X73585998Y-69346191D01*
X73584245Y-69349149D01*
X73582601Y-69352181D01*
X73581068Y-69355285D01*
X73579650Y-69358459D01*
X73578350Y-69361700D01*
X72415242Y-72463675D01*
X72410246Y-72475584D01*
X72404419Y-72486887D01*
X72397810Y-72497562D01*
X72390470Y-72507587D01*
X72382448Y-72516940D01*
X72373794Y-72525597D01*
X72364556Y-72533536D01*
X72354785Y-72540735D01*
X72344530Y-72547171D01*
X72333842Y-72552822D01*
X72322768Y-72557665D01*
X72311360Y-72561678D01*
X72299667Y-72564839D01*
X72287738Y-72567124D01*
X72275623Y-72568511D01*
X72263372Y-72568979D01*
X72259887Y-72568936D01*
X72256381Y-72568806D01*
X72252856Y-72568592D01*
X72249315Y-72568293D01*
X72245763Y-72567910D01*
X72242201Y-72567444D01*
X72238632Y-72566896D01*
X72235061Y-72566267D01*
X72231489Y-72565557D01*
X72227921Y-72564767D01*
X72224359Y-72563899D01*
X72220806Y-72562952D01*
X72217266Y-72561927D01*
X72213741Y-72560826D01*
X72210235Y-72559648D01*
X72206750Y-72558396D01*
X72199034Y-72555288D01*
X72191565Y-72551828D01*
X72184350Y-72548028D01*
X72177395Y-72543903D01*
X72170705Y-72539464D01*
X72164287Y-72534726D01*
X72158146Y-72529702D01*
X72152288Y-72524405D01*
X72146719Y-72518848D01*
X72141445Y-72513045D01*
X72136472Y-72507009D01*
X72131806Y-72500753D01*
X72127453Y-72494290D01*
X72123419Y-72487634D01*
X72119709Y-72480798D01*
X72116329Y-72473795D01*
X72113286Y-72466639D01*
X72110586Y-72459343D01*
X72108233Y-72451919D01*
X72106235Y-72444382D01*
X72104597Y-72436745D01*
X72103324Y-72429020D01*
X72102424Y-72421222D01*
X72101901Y-72413363D01*
X72101762Y-72405457D01*
X72102013Y-72397516D01*
X72102659Y-72389555D01*
X72103707Y-72381587D01*
X72105162Y-72373624D01*
X72107030Y-72365681D01*
X72109317Y-72357770D01*
X72112030Y-72349904D01*
X73275138Y-69247929D01*
X73287551Y-69218400D01*
X73302092Y-69190192D01*
X73318642Y-69163386D01*
X73337083Y-69138061D01*
X73357298Y-69114299D01*
X73379168Y-69092181D01*
X73402577Y-69071786D01*
X73427405Y-69053196D01*
X73453536Y-69036491D01*
X73480851Y-69021752D01*
X73509233Y-69009059D01*
X73538563Y-68998493D01*
X73568725Y-68990135D01*
X73599599Y-68984065D01*
X73631069Y-68980364D01*
X73663017Y-68979113D01*
X73679043Y-68979427D01*
G37*
G36*
X69074613Y-70208896D02*
G01*
X68260225Y-70208896D01*
X68260225Y-70646517D01*
X69000000Y-70646517D01*
X69000000Y-71000000D01*
X68260225Y-71000000D01*
X68260225Y-71758296D01*
X67801438Y-71758296D01*
X67801438Y-69854884D01*
X69074613Y-69854884D01*
X69074613Y-70208896D01*
G37*
D10*
X78400000Y-56330000D02*
X78400000Y-56030000D01*
D11*
G36*
X61377354Y-68128742D02*
G01*
X77252353Y-68128742D01*
X77252353Y-73420409D01*
X61377354Y-73420409D01*
X61377354Y-73261659D01*
X61377354Y-68287492D01*
X61536104Y-68287492D01*
X61536104Y-73261659D01*
X77093604Y-73261659D01*
X77093604Y-68287492D01*
X61536104Y-68287492D01*
X61377354Y-68287492D01*
X61377354Y-68128742D01*
G37*
G36*
X66540627Y-71140759D02*
G01*
X66959533Y-71140759D01*
X66960062Y-71141289D01*
X66959728Y-71140098D01*
X66959533Y-71140759D01*
X66540627Y-71140759D01*
X66266325Y-70343834D01*
X66736753Y-70343834D01*
X66959728Y-71140098D01*
X67195012Y-70343305D01*
X67667029Y-70343305D01*
X67090766Y-71994305D01*
X67065895Y-72054630D01*
X67058023Y-72071526D01*
X67049785Y-72087887D01*
X67041180Y-72103710D01*
X67032210Y-72118998D01*
X67022873Y-72133749D01*
X67013169Y-72147964D01*
X67003100Y-72161642D01*
X66992664Y-72174784D01*
X66981861Y-72187389D01*
X66970691Y-72199458D01*
X66959155Y-72210991D01*
X66947251Y-72221987D01*
X66934981Y-72232447D01*
X66922343Y-72242370D01*
X66909339Y-72251757D01*
X66895967Y-72260608D01*
X66882227Y-72268922D01*
X66868120Y-72276700D01*
X66853646Y-72283941D01*
X66838803Y-72290646D01*
X66823593Y-72296815D01*
X66808015Y-72302447D01*
X66792069Y-72307543D01*
X66775755Y-72312102D01*
X66759073Y-72316125D01*
X66742022Y-72319612D01*
X66724603Y-72322562D01*
X66706816Y-72324976D01*
X66688660Y-72326853D01*
X66670135Y-72328194D01*
X66631979Y-72329267D01*
X66610224Y-72328869D01*
X66588215Y-72327671D01*
X66565946Y-72325667D01*
X66543410Y-72322851D01*
X66520600Y-72319216D01*
X66497512Y-72314757D01*
X66474139Y-72309466D01*
X66450474Y-72303338D01*
X66450474Y-71989543D01*
X66508153Y-71989543D01*
X66530677Y-71989121D01*
X66541420Y-71988594D01*
X66551818Y-71987856D01*
X66561872Y-71986907D01*
X66571582Y-71985747D01*
X66580950Y-71984377D01*
X66589976Y-71982796D01*
X66598661Y-71981003D01*
X66607005Y-71979000D01*
X66615010Y-71976787D01*
X66622677Y-71974362D01*
X66630005Y-71971726D01*
X66636996Y-71968880D01*
X66643651Y-71965823D01*
X66649970Y-71962555D01*
X66656017Y-71959020D01*
X66661854Y-71955161D01*
X66667483Y-71950976D01*
X66672906Y-71946465D01*
X66678125Y-71941625D01*
X66683140Y-71936454D01*
X66687954Y-71930952D01*
X66692568Y-71925116D01*
X66696984Y-71918946D01*
X66701202Y-71912439D01*
X66705226Y-71905594D01*
X66709055Y-71898410D01*
X66712692Y-71890884D01*
X66716139Y-71883017D01*
X66719396Y-71874804D01*
X66722466Y-71866247D01*
X66757920Y-71772055D01*
X66540627Y-71140759D01*
G37*
D10*
X63400000Y-46330000D02*
X63400000Y-46630000D01*
D11*
G36*
X63674996Y-71178859D02*
G01*
X64098329Y-69854884D01*
X64702108Y-69854884D01*
X64702108Y-71757767D01*
X64242263Y-71757767D01*
X64242263Y-71313267D01*
X64286713Y-70403630D01*
X63826867Y-71757767D01*
X63523654Y-71757767D01*
X63062221Y-70402571D01*
X63106671Y-71313796D01*
X63106671Y-71758296D01*
X62647883Y-71758296D01*
X62647883Y-69854884D01*
X63250075Y-69854884D01*
X63674996Y-71178859D01*
G37*
D10*
X78400000Y-56330000D02*
X66800000Y-56330000D01*
D11*
G36*
X69709613Y-71757767D02*
G01*
X69267758Y-71757767D01*
X69267758Y-69750109D01*
X69709613Y-69750109D01*
X69709613Y-71757767D01*
G37*
D10*
X78400000Y-46330000D02*
X78100000Y-46330000D01*
X63400000Y-56300000D02*
X63400000Y-49830000D01*
X63400000Y-56330000D02*
X63700000Y-56330000D01*
X63400000Y-46330000D02*
X74900000Y-46330000D01*
D11*
G36*
X73679697Y-70745377D02*
G01*
X73696681Y-70746669D01*
X73713418Y-70748795D01*
X73729887Y-70751737D01*
X73746067Y-70755471D01*
X73761938Y-70759978D01*
X73777477Y-70765235D01*
X73792664Y-70771223D01*
X73807478Y-70777921D01*
X73821898Y-70785306D01*
X73835903Y-70793359D01*
X73849472Y-70802058D01*
X73862584Y-70811382D01*
X73875218Y-70821310D01*
X73887353Y-70831822D01*
X73898968Y-70842895D01*
X73910041Y-70854510D01*
X73920553Y-70866645D01*
X73930481Y-70879279D01*
X73939805Y-70892391D01*
X73948504Y-70905960D01*
X73956557Y-70919965D01*
X73963942Y-70934385D01*
X73970640Y-70949199D01*
X73976628Y-70964386D01*
X73981886Y-70979925D01*
X73986392Y-70995795D01*
X73990127Y-71011975D01*
X73993068Y-71028444D01*
X73995194Y-71045182D01*
X73996486Y-71062166D01*
X73996921Y-71079375D01*
X73996486Y-71096585D01*
X73995194Y-71113569D01*
X73993068Y-71130306D01*
X73990127Y-71146775D01*
X73986392Y-71162956D01*
X73981886Y-71178826D01*
X73976628Y-71194365D01*
X73970640Y-71209552D01*
X73963942Y-71224366D01*
X73956557Y-71238786D01*
X73948504Y-71252791D01*
X73939805Y-71266360D01*
X73930481Y-71279472D01*
X73920553Y-71292106D01*
X73910041Y-71304241D01*
X73898968Y-71315855D01*
X73887353Y-71326929D01*
X73875218Y-71337440D01*
X73862584Y-71347369D01*
X73849472Y-71356693D01*
X73835903Y-71365392D01*
X73821898Y-71373444D01*
X73807478Y-71380830D01*
X73792664Y-71387527D01*
X73777477Y-71393515D01*
X73761938Y-71398773D01*
X73746067Y-71403280D01*
X73729887Y-71407014D01*
X73713418Y-71409955D01*
X73696681Y-71412082D01*
X73679697Y-71413373D01*
X73662487Y-71413809D01*
X73645277Y-71413373D01*
X73628293Y-71412082D01*
X73611556Y-71409955D01*
X73595087Y-71407014D01*
X73578907Y-71403280D01*
X73563037Y-71398773D01*
X73547498Y-71393515D01*
X73532311Y-71387527D01*
X73517497Y-71380830D01*
X73503077Y-71373444D01*
X73489071Y-71365392D01*
X73475502Y-71356693D01*
X73462390Y-71347369D01*
X73449757Y-71337440D01*
X73437622Y-71326929D01*
X73426007Y-71315855D01*
X73414934Y-71304241D01*
X73404422Y-71292106D01*
X73394494Y-71279472D01*
X73385170Y-71266360D01*
X73376471Y-71252791D01*
X73368418Y-71238786D01*
X73361032Y-71224366D01*
X73354335Y-71209552D01*
X73348347Y-71194365D01*
X73343089Y-71178826D01*
X73338582Y-71162956D01*
X73334848Y-71146775D01*
X73331907Y-71130306D01*
X73329780Y-71113569D01*
X73328489Y-71096585D01*
X73328054Y-71079375D01*
X73328489Y-71062166D01*
X73329780Y-71045182D01*
X73331907Y-71028444D01*
X73334848Y-71011975D01*
X73338582Y-70995795D01*
X73343089Y-70979925D01*
X73348347Y-70964386D01*
X73354335Y-70949199D01*
X73361032Y-70934385D01*
X73368418Y-70919965D01*
X73376471Y-70905960D01*
X73385170Y-70892391D01*
X73394494Y-70879279D01*
X73404422Y-70866645D01*
X73414934Y-70854510D01*
X73426007Y-70842895D01*
X73437622Y-70831822D01*
X73449757Y-70821310D01*
X73462390Y-70811382D01*
X73475502Y-70802058D01*
X73489071Y-70793359D01*
X73503077Y-70785306D01*
X73517497Y-70777921D01*
X73532311Y-70771223D01*
X73547498Y-70765235D01*
X73563037Y-70759978D01*
X73578907Y-70755471D01*
X73595087Y-70751737D01*
X73611556Y-70748795D01*
X73628293Y-70746669D01*
X73645277Y-70745377D01*
X73662487Y-70744942D01*
X73679697Y-70745377D01*
G37*
G36*
X64909558Y-71335492D02*
G01*
X65350338Y-71335492D01*
X65350499Y-71342940D01*
X65350982Y-71350203D01*
X65351786Y-71357281D01*
X65352909Y-71364175D01*
X65354353Y-71370886D01*
X65356114Y-71377415D01*
X65358194Y-71383763D01*
X65360591Y-71389930D01*
X65363303Y-71395918D01*
X65366332Y-71401726D01*
X65369675Y-71407356D01*
X65373332Y-71412809D01*
X65377302Y-71418084D01*
X65381584Y-71423184D01*
X65386179Y-71428109D01*
X65391083Y-71432859D01*
X65396230Y-71437374D01*
X65401551Y-71441592D01*
X65407045Y-71445513D01*
X65412713Y-71449139D01*
X65418555Y-71452471D01*
X65424570Y-71455509D01*
X65430759Y-71458254D01*
X65437121Y-71460707D01*
X65443657Y-71462868D01*
X65450367Y-71464739D01*
X65457250Y-71466319D01*
X65464307Y-71467611D01*
X65471538Y-71468614D01*
X65478942Y-71469329D01*
X65486520Y-71469758D01*
X65494271Y-71469901D01*
X65494271Y-71470430D01*
X65504478Y-71470293D01*
X65514462Y-71469883D01*
X65524223Y-71469198D01*
X65533760Y-71468239D01*
X65543074Y-71467003D01*
X65552165Y-71465491D01*
X65561033Y-71463701D01*
X65569677Y-71461632D01*
X65578099Y-71459285D01*
X65586296Y-71456658D01*
X65594271Y-71453750D01*
X65602023Y-71450561D01*
X65609551Y-71447090D01*
X65616856Y-71443336D01*
X65623937Y-71439298D01*
X65630796Y-71434976D01*
X65637425Y-71430567D01*
X65643818Y-71426073D01*
X65649976Y-71421495D01*
X65655898Y-71416835D01*
X65661585Y-71412095D01*
X65667036Y-71407275D01*
X65672251Y-71402378D01*
X65677230Y-71397405D01*
X65681974Y-71392357D01*
X65686483Y-71387237D01*
X65690755Y-71382045D01*
X65694792Y-71376784D01*
X65698594Y-71371454D01*
X65702159Y-71366058D01*
X65705489Y-71360597D01*
X65708584Y-71355072D01*
X65708584Y-71129117D01*
X65580526Y-71129117D01*
X65552651Y-71129923D01*
X65526575Y-71132342D01*
X65514212Y-71134156D01*
X65502298Y-71136373D01*
X65490833Y-71138993D01*
X65479818Y-71142016D01*
X65469253Y-71145442D01*
X65459138Y-71149271D01*
X65449471Y-71153503D01*
X65440255Y-71158139D01*
X65431488Y-71163177D01*
X65423171Y-71168619D01*
X65415303Y-71174463D01*
X65407885Y-71180711D01*
X65400916Y-71187362D01*
X65394397Y-71194416D01*
X65388328Y-71201873D01*
X65382708Y-71209733D01*
X65377538Y-71217996D01*
X65372817Y-71226662D01*
X65368546Y-71235731D01*
X65364725Y-71245203D01*
X65361353Y-71255079D01*
X65358430Y-71265357D01*
X65355958Y-71276039D01*
X65353935Y-71287123D01*
X65352361Y-71298611D01*
X65351237Y-71310502D01*
X65350563Y-71322796D01*
X65350338Y-71335492D01*
X64909558Y-71335492D01*
X64909676Y-71330442D01*
X64911667Y-71302990D01*
X64914985Y-71276418D01*
X64919629Y-71250726D01*
X64925601Y-71225915D01*
X64932900Y-71201985D01*
X64941526Y-71178935D01*
X64951479Y-71156766D01*
X64962758Y-71135478D01*
X64975365Y-71115070D01*
X64989299Y-71095542D01*
X65004561Y-71076895D01*
X65021149Y-71059129D01*
X65039064Y-71042243D01*
X65058306Y-71026238D01*
X65078875Y-71011113D01*
X65100710Y-70996888D01*
X65123748Y-70983580D01*
X65147991Y-70971190D01*
X65173439Y-70959718D01*
X65200093Y-70949163D01*
X65227955Y-70939527D01*
X65257023Y-70930808D01*
X65287301Y-70923007D01*
X65318787Y-70916123D01*
X65351484Y-70910158D01*
X65385391Y-70905110D01*
X65420510Y-70900980D01*
X65456842Y-70897768D01*
X65494386Y-70895474D01*
X65533144Y-70894097D01*
X65573117Y-70893638D01*
X65709113Y-70893638D01*
X65709113Y-70819026D01*
X65708455Y-70795287D01*
X65706483Y-70773086D01*
X65703193Y-70752421D01*
X65701055Y-70742665D01*
X65698587Y-70733292D01*
X65695790Y-70724303D01*
X65692664Y-70715698D01*
X65689207Y-70707476D01*
X65685421Y-70699637D01*
X65681305Y-70692182D01*
X65676860Y-70685110D01*
X65672084Y-70678421D01*
X65666978Y-70672116D01*
X65661542Y-70666193D01*
X65655775Y-70660653D01*
X65649679Y-70655495D01*
X65643251Y-70650720D01*
X65636493Y-70646328D01*
X65629405Y-70642319D01*
X65621985Y-70638691D01*
X65614235Y-70635446D01*
X65606154Y-70632583D01*
X65597741Y-70630102D01*
X65588998Y-70628003D01*
X65579923Y-70626286D01*
X65570517Y-70624950D01*
X65560779Y-70623997D01*
X65550710Y-70623424D01*
X65540309Y-70623234D01*
X65530641Y-70623386D01*
X65521283Y-70623841D01*
X65512235Y-70624601D01*
X65503496Y-70625664D01*
X65495067Y-70627030D01*
X65486947Y-70628700D01*
X65479135Y-70630673D01*
X65471633Y-70632949D01*
X65464439Y-70635528D01*
X65457553Y-70638410D01*
X65450975Y-70641596D01*
X65444705Y-70645084D01*
X65438743Y-70648874D01*
X65433089Y-70652967D01*
X65427741Y-70657363D01*
X65422701Y-70662061D01*
X65417968Y-70667062D01*
X65413542Y-70672364D01*
X65409422Y-70677969D01*
X65405609Y-70683876D01*
X65402102Y-70690085D01*
X65398900Y-70696595D01*
X65396005Y-70703408D01*
X65393415Y-70710521D01*
X65391131Y-70717937D01*
X65389152Y-70725654D01*
X65387478Y-70733672D01*
X65386108Y-70741991D01*
X65385044Y-70750612D01*
X65384283Y-70759534D01*
X65383827Y-70768756D01*
X65383675Y-70778280D01*
X64943409Y-70778280D01*
X64944091Y-70752979D01*
X64946137Y-70728274D01*
X64949548Y-70704167D01*
X64954323Y-70680657D01*
X64960462Y-70657745D01*
X64967965Y-70635433D01*
X64976833Y-70613720D01*
X64987065Y-70592608D01*
X64998661Y-70572098D01*
X65011622Y-70552190D01*
X65025946Y-70532885D01*
X65041635Y-70514184D01*
X65058689Y-70496088D01*
X65077106Y-70478597D01*
X65096888Y-70461712D01*
X65118034Y-70445434D01*
X65140234Y-70429956D01*
X65163179Y-70415471D01*
X65186870Y-70401979D01*
X65211308Y-70389483D01*
X65236492Y-70377981D01*
X65262425Y-70367476D01*
X65289106Y-70357967D01*
X65316537Y-70349456D01*
X65344719Y-70341944D01*
X65373651Y-70335430D01*
X65403336Y-70329917D01*
X65433772Y-70325404D01*
X65464963Y-70321893D01*
X65496908Y-70319384D01*
X65529607Y-70317878D01*
X65563063Y-70317376D01*
X65596450Y-70317890D01*
X65628945Y-70319434D01*
X65660549Y-70322008D01*
X65691262Y-70325611D01*
X65721085Y-70330243D01*
X65750019Y-70335905D01*
X65778064Y-70342596D01*
X65805223Y-70350316D01*
X65831494Y-70359066D01*
X65856879Y-70368845D01*
X65881380Y-70379654D01*
X65904995Y-70391492D01*
X65927727Y-70404360D01*
X65949577Y-70418256D01*
X65970544Y-70433183D01*
X65990629Y-70449138D01*
X66009673Y-70465993D01*
X66027515Y-70483617D01*
X66044155Y-70502009D01*
X66059595Y-70521171D01*
X66073834Y-70541102D01*
X66086875Y-70561801D01*
X66098717Y-70583269D01*
X66109361Y-70605507D01*
X66118809Y-70628513D01*
X66127060Y-70652288D01*
X66134117Y-70676833D01*
X66139978Y-70702146D01*
X66144646Y-70728228D01*
X66148122Y-70755079D01*
X66150405Y-70782699D01*
X66151496Y-70811088D01*
X66151496Y-71437092D01*
X66152960Y-71484295D01*
X66154342Y-71506833D01*
X66156159Y-71528663D01*
X66158410Y-71549782D01*
X66161096Y-71570191D01*
X66164215Y-71589888D01*
X66167768Y-71608873D01*
X66171755Y-71627145D01*
X66176177Y-71644702D01*
X66181032Y-71661545D01*
X66186322Y-71677673D01*
X66192046Y-71693084D01*
X66198204Y-71707779D01*
X66204795Y-71721755D01*
X66211821Y-71735013D01*
X66211821Y-71757238D01*
X65771554Y-71757238D01*
X65769967Y-71757767D01*
X65767015Y-71752248D01*
X65764112Y-71746407D01*
X65761257Y-71740243D01*
X65758449Y-71733756D01*
X65755688Y-71726947D01*
X65752972Y-71719816D01*
X65750302Y-71712362D01*
X65747676Y-71704586D01*
X65742552Y-71688066D01*
X65737597Y-71670256D01*
X65732802Y-71651157D01*
X65728162Y-71630767D01*
X65712604Y-71649315D01*
X65696288Y-71666661D01*
X65679217Y-71682805D01*
X65661388Y-71697748D01*
X65642803Y-71711491D01*
X65623462Y-71724036D01*
X65603364Y-71735382D01*
X65582509Y-71745530D01*
X65560898Y-71754482D01*
X65538531Y-71762237D01*
X65515407Y-71768797D01*
X65491526Y-71774163D01*
X65466889Y-71778335D01*
X65441495Y-71781314D01*
X65415344Y-71783101D01*
X65388438Y-71783696D01*
X65363670Y-71783225D01*
X65339374Y-71781810D01*
X65315549Y-71779451D01*
X65292196Y-71776147D01*
X65269313Y-71771898D01*
X65246902Y-71766702D01*
X65224962Y-71760559D01*
X65203494Y-71753468D01*
X65182497Y-71745428D01*
X65161971Y-71736438D01*
X65141916Y-71726498D01*
X65122333Y-71715607D01*
X65103221Y-71703765D01*
X65084580Y-71690969D01*
X65066411Y-71677220D01*
X65048713Y-71662517D01*
X65031796Y-71647188D01*
X65015971Y-71631364D01*
X65001237Y-71615048D01*
X64987594Y-71598240D01*
X64975043Y-71580942D01*
X64963583Y-71563156D01*
X64953215Y-71544883D01*
X64943938Y-71526124D01*
X64935752Y-71506882D01*
X64928658Y-71487158D01*
X64922655Y-71466954D01*
X64917744Y-71446270D01*
X64913924Y-71425109D01*
X64911196Y-71403471D01*
X64909559Y-71381360D01*
X64909013Y-71358775D01*
X64909558Y-71335492D01*
G37*
D10*
X78400000Y-52830000D02*
X78400000Y-46330000D01*
D12*
X70040476Y-43430000D02*
X70183333Y-43477619D01*
X70183333Y-43477619D02*
X70421428Y-43477619D01*
X70421428Y-43477619D02*
X70516666Y-43430000D01*
X70516666Y-43430000D02*
X70564285Y-43382380D01*
X70564285Y-43382380D02*
X70611904Y-43287142D01*
X70611904Y-43287142D02*
X70611904Y-43191904D01*
X70611904Y-43191904D02*
X70564285Y-43096666D01*
X70564285Y-43096666D02*
X70516666Y-43049047D01*
X70516666Y-43049047D02*
X70421428Y-43001428D01*
X70421428Y-43001428D02*
X70230952Y-42953809D01*
X70230952Y-42953809D02*
X70135714Y-42906190D01*
X70135714Y-42906190D02*
X70088095Y-42858571D01*
X70088095Y-42858571D02*
X70040476Y-42763333D01*
X70040476Y-42763333D02*
X70040476Y-42668095D01*
X70040476Y-42668095D02*
X70088095Y-42572857D01*
X70088095Y-42572857D02*
X70135714Y-42525238D01*
X70135714Y-42525238D02*
X70230952Y-42477619D01*
X70230952Y-42477619D02*
X70469047Y-42477619D01*
X70469047Y-42477619D02*
X70611904Y-42525238D01*
X71421428Y-43430000D02*
X71326190Y-43477619D01*
X71326190Y-43477619D02*
X71135714Y-43477619D01*
X71135714Y-43477619D02*
X71040476Y-43430000D01*
X71040476Y-43430000D02*
X70992857Y-43334761D01*
X70992857Y-43334761D02*
X70992857Y-42953809D01*
X70992857Y-42953809D02*
X71040476Y-42858571D01*
X71040476Y-42858571D02*
X71135714Y-42810952D01*
X71135714Y-42810952D02*
X71326190Y-42810952D01*
X71326190Y-42810952D02*
X71421428Y-42858571D01*
X71421428Y-42858571D02*
X71469047Y-42953809D01*
X71469047Y-42953809D02*
X71469047Y-43049047D01*
X71469047Y-43049047D02*
X70992857Y-43144285D01*
X71897619Y-42810952D02*
X71897619Y-43477619D01*
X71897619Y-42906190D02*
X71945238Y-42858571D01*
X71945238Y-42858571D02*
X72040476Y-42810952D01*
X72040476Y-42810952D02*
X72183333Y-42810952D01*
X72183333Y-42810952D02*
X72278571Y-42858571D01*
X72278571Y-42858571D02*
X72326190Y-42953809D01*
X72326190Y-42953809D02*
X72326190Y-43477619D01*
X72754762Y-43430000D02*
X72850000Y-43477619D01*
X72850000Y-43477619D02*
X73040476Y-43477619D01*
X73040476Y-43477619D02*
X73135714Y-43430000D01*
X73135714Y-43430000D02*
X73183333Y-43334761D01*
X73183333Y-43334761D02*
X73183333Y-43287142D01*
X73183333Y-43287142D02*
X73135714Y-43191904D01*
X73135714Y-43191904D02*
X73040476Y-43144285D01*
X73040476Y-43144285D02*
X72897619Y-43144285D01*
X72897619Y-43144285D02*
X72802381Y-43096666D01*
X72802381Y-43096666D02*
X72754762Y-43001428D01*
X72754762Y-43001428D02*
X72754762Y-42953809D01*
X72754762Y-42953809D02*
X72802381Y-42858571D01*
X72802381Y-42858571D02*
X72897619Y-42810952D01*
X72897619Y-42810952D02*
X73040476Y-42810952D01*
X73040476Y-42810952D02*
X73135714Y-42858571D01*
X73754762Y-43477619D02*
X73659524Y-43430000D01*
X73659524Y-43430000D02*
X73611905Y-43382380D01*
X73611905Y-43382380D02*
X73564286Y-43287142D01*
X73564286Y-43287142D02*
X73564286Y-43001428D01*
X73564286Y-43001428D02*
X73611905Y-42906190D01*
X73611905Y-42906190D02*
X73659524Y-42858571D01*
X73659524Y-42858571D02*
X73754762Y-42810952D01*
X73754762Y-42810952D02*
X73897619Y-42810952D01*
X73897619Y-42810952D02*
X73992857Y-42858571D01*
X73992857Y-42858571D02*
X74040476Y-42906190D01*
X74040476Y-42906190D02*
X74088095Y-43001428D01*
X74088095Y-43001428D02*
X74088095Y-43287142D01*
X74088095Y-43287142D02*
X74040476Y-43382380D01*
X74040476Y-43382380D02*
X73992857Y-43430000D01*
X73992857Y-43430000D02*
X73897619Y-43477619D01*
X73897619Y-43477619D02*
X73754762Y-43477619D01*
X74516667Y-43477619D02*
X74516667Y-42810952D01*
X74516667Y-43001428D02*
X74564286Y-42906190D01*
X74564286Y-42906190D02*
X74611905Y-42858571D01*
X74611905Y-42858571D02*
X74707143Y-42810952D01*
X74707143Y-42810952D02*
X74802381Y-42810952D01*
X75611905Y-43477619D02*
X75135715Y-43477619D01*
X75135715Y-43477619D02*
X75135715Y-42477619D01*
X76326191Y-43430000D02*
X76230953Y-43477619D01*
X76230953Y-43477619D02*
X76040477Y-43477619D01*
X76040477Y-43477619D02*
X75945239Y-43430000D01*
X75945239Y-43430000D02*
X75897620Y-43334761D01*
X75897620Y-43334761D02*
X75897620Y-42953809D01*
X75897620Y-42953809D02*
X75945239Y-42858571D01*
X75945239Y-42858571D02*
X76040477Y-42810952D01*
X76040477Y-42810952D02*
X76230953Y-42810952D01*
X76230953Y-42810952D02*
X76326191Y-42858571D01*
X76326191Y-42858571D02*
X76373810Y-42953809D01*
X76373810Y-42953809D02*
X76373810Y-43049047D01*
X76373810Y-43049047D02*
X75897620Y-43144285D01*
X77230953Y-43477619D02*
X77230953Y-42953809D01*
X77230953Y-42953809D02*
X77183334Y-42858571D01*
X77183334Y-42858571D02*
X77088096Y-42810952D01*
X77088096Y-42810952D02*
X76897620Y-42810952D01*
X76897620Y-42810952D02*
X76802382Y-42858571D01*
X77230953Y-43430000D02*
X77135715Y-43477619D01*
X77135715Y-43477619D02*
X76897620Y-43477619D01*
X76897620Y-43477619D02*
X76802382Y-43430000D01*
X76802382Y-43430000D02*
X76754763Y-43334761D01*
X76754763Y-43334761D02*
X76754763Y-43239523D01*
X76754763Y-43239523D02*
X76802382Y-43144285D01*
X76802382Y-43144285D02*
X76897620Y-43096666D01*
X76897620Y-43096666D02*
X77135715Y-43096666D01*
X77135715Y-43096666D02*
X77230953Y-43049047D01*
X77707144Y-42810952D02*
X77707144Y-43810952D01*
X77707144Y-42858571D02*
X77802382Y-42810952D01*
X77802382Y-42810952D02*
X77992858Y-42810952D01*
X77992858Y-42810952D02*
X78088096Y-42858571D01*
X78088096Y-42858571D02*
X78135715Y-42906190D01*
X78135715Y-42906190D02*
X78183334Y-43001428D01*
X78183334Y-43001428D02*
X78183334Y-43287142D01*
X78183334Y-43287142D02*
X78135715Y-43382380D01*
X78135715Y-43382380D02*
X78088096Y-43430000D01*
X78088096Y-43430000D02*
X77992858Y-43477619D01*
X77992858Y-43477619D02*
X77802382Y-43477619D01*
X77802382Y-43477619D02*
X77707144Y-43430000D01*
X79326192Y-43430000D02*
X79469049Y-43477619D01*
X79469049Y-43477619D02*
X79707144Y-43477619D01*
X79707144Y-43477619D02*
X79802382Y-43430000D01*
X79802382Y-43430000D02*
X79850001Y-43382380D01*
X79850001Y-43382380D02*
X79897620Y-43287142D01*
X79897620Y-43287142D02*
X79897620Y-43191904D01*
X79897620Y-43191904D02*
X79850001Y-43096666D01*
X79850001Y-43096666D02*
X79802382Y-43049047D01*
X79802382Y-43049047D02*
X79707144Y-43001428D01*
X79707144Y-43001428D02*
X79516668Y-42953809D01*
X79516668Y-42953809D02*
X79421430Y-42906190D01*
X79421430Y-42906190D02*
X79373811Y-42858571D01*
X79373811Y-42858571D02*
X79326192Y-42763333D01*
X79326192Y-42763333D02*
X79326192Y-42668095D01*
X79326192Y-42668095D02*
X79373811Y-42572857D01*
X79373811Y-42572857D02*
X79421430Y-42525238D01*
X79421430Y-42525238D02*
X79516668Y-42477619D01*
X79516668Y-42477619D02*
X79754763Y-42477619D01*
X79754763Y-42477619D02*
X79897620Y-42525238D01*
X80326192Y-43477619D02*
X80326192Y-42477619D01*
X80326192Y-42477619D02*
X80659525Y-43191904D01*
X80659525Y-43191904D02*
X80992858Y-42477619D01*
X80992858Y-42477619D02*
X80992858Y-43477619D01*
X81421430Y-43191904D02*
X81897620Y-43191904D01*
X81326192Y-43477619D02*
X81659525Y-42477619D01*
X81659525Y-42477619D02*
X81992858Y-43477619D01*
X82992859Y-42810952D02*
X83230954Y-43477619D01*
X83230954Y-43477619D02*
X83469049Y-42810952D01*
X84373811Y-43477619D02*
X83802383Y-43477619D01*
X84088097Y-43477619D02*
X84088097Y-42477619D01*
X84088097Y-42477619D02*
X83992859Y-42620476D01*
X83992859Y-42620476D02*
X83897621Y-42715714D01*
X83897621Y-42715714D02*
X83802383Y-42763333D01*
X84802383Y-43382380D02*
X84850002Y-43430000D01*
X84850002Y-43430000D02*
X84802383Y-43477619D01*
X84802383Y-43477619D02*
X84754764Y-43430000D01*
X84754764Y-43430000D02*
X84802383Y-43382380D01*
X84802383Y-43382380D02*
X84802383Y-43477619D01*
X85469049Y-42477619D02*
X85564287Y-42477619D01*
X85564287Y-42477619D02*
X85659525Y-42525238D01*
X85659525Y-42525238D02*
X85707144Y-42572857D01*
X85707144Y-42572857D02*
X85754763Y-42668095D01*
X85754763Y-42668095D02*
X85802382Y-42858571D01*
X85802382Y-42858571D02*
X85802382Y-43096666D01*
X85802382Y-43096666D02*
X85754763Y-43287142D01*
X85754763Y-43287142D02*
X85707144Y-43382380D01*
X85707144Y-43382380D02*
X85659525Y-43430000D01*
X85659525Y-43430000D02*
X85564287Y-43477619D01*
X85564287Y-43477619D02*
X85469049Y-43477619D01*
X85469049Y-43477619D02*
X85373811Y-43430000D01*
X85373811Y-43430000D02*
X85326192Y-43382380D01*
X85326192Y-43382380D02*
X85278573Y-43287142D01*
X85278573Y-43287142D02*
X85230954Y-43096666D01*
X85230954Y-43096666D02*
X85230954Y-42858571D01*
X85230954Y-42858571D02*
X85278573Y-42668095D01*
X85278573Y-42668095D02*
X85326192Y-42572857D01*
X85326192Y-42572857D02*
X85373811Y-42525238D01*
X85373811Y-42525238D02*
X85469049Y-42477619D01*
X87183335Y-42477619D02*
X87278573Y-42477619D01*
X87278573Y-42477619D02*
X87373811Y-42525238D01*
X87373811Y-42525238D02*
X87421430Y-42572857D01*
X87421430Y-42572857D02*
X87469049Y-42668095D01*
X87469049Y-42668095D02*
X87516668Y-42858571D01*
X87516668Y-42858571D02*
X87516668Y-43096666D01*
X87516668Y-43096666D02*
X87469049Y-43287142D01*
X87469049Y-43287142D02*
X87421430Y-43382380D01*
X87421430Y-43382380D02*
X87373811Y-43430000D01*
X87373811Y-43430000D02*
X87278573Y-43477619D01*
X87278573Y-43477619D02*
X87183335Y-43477619D01*
X87183335Y-43477619D02*
X87088097Y-43430000D01*
X87088097Y-43430000D02*
X87040478Y-43382380D01*
X87040478Y-43382380D02*
X86992859Y-43287142D01*
X86992859Y-43287142D02*
X86945240Y-43096666D01*
X86945240Y-43096666D02*
X86945240Y-42858571D01*
X86945240Y-42858571D02*
X86992859Y-42668095D01*
X86992859Y-42668095D02*
X87040478Y-42572857D01*
X87040478Y-42572857D02*
X87088097Y-42525238D01*
X87088097Y-42525238D02*
X87183335Y-42477619D01*
X87945240Y-43382380D02*
X87992859Y-43430000D01*
X87992859Y-43430000D02*
X87945240Y-43477619D01*
X87945240Y-43477619D02*
X87897621Y-43430000D01*
X87897621Y-43430000D02*
X87945240Y-43382380D01*
X87945240Y-43382380D02*
X87945240Y-43477619D01*
X88897620Y-42477619D02*
X88421430Y-42477619D01*
X88421430Y-42477619D02*
X88373811Y-42953809D01*
X88373811Y-42953809D02*
X88421430Y-42906190D01*
X88421430Y-42906190D02*
X88516668Y-42858571D01*
X88516668Y-42858571D02*
X88754763Y-42858571D01*
X88754763Y-42858571D02*
X88850001Y-42906190D01*
X88850001Y-42906190D02*
X88897620Y-42953809D01*
X88897620Y-42953809D02*
X88945239Y-43049047D01*
X88945239Y-43049047D02*
X88945239Y-43287142D01*
X88945239Y-43287142D02*
X88897620Y-43382380D01*
X88897620Y-43382380D02*
X88850001Y-43430000D01*
X88850001Y-43430000D02*
X88754763Y-43477619D01*
X88754763Y-43477619D02*
X88516668Y-43477619D01*
X88516668Y-43477619D02*
X88421430Y-43430000D01*
X88421430Y-43430000D02*
X88373811Y-43382380D01*
X89516668Y-43477619D02*
X89421430Y-43430000D01*
X89421430Y-43430000D02*
X89373811Y-43382380D01*
X89373811Y-43382380D02*
X89326192Y-43287142D01*
X89326192Y-43287142D02*
X89326192Y-43001428D01*
X89326192Y-43001428D02*
X89373811Y-42906190D01*
X89373811Y-42906190D02*
X89421430Y-42858571D01*
X89421430Y-42858571D02*
X89516668Y-42810952D01*
X89516668Y-42810952D02*
X89659525Y-42810952D01*
X89659525Y-42810952D02*
X89754763Y-42858571D01*
X89754763Y-42858571D02*
X89802382Y-42906190D01*
X89802382Y-42906190D02*
X89850001Y-43001428D01*
X89850001Y-43001428D02*
X89850001Y-43287142D01*
X89850001Y-43287142D02*
X89802382Y-43382380D01*
X89802382Y-43382380D02*
X89754763Y-43430000D01*
X89754763Y-43430000D02*
X89659525Y-43477619D01*
X89659525Y-43477619D02*
X89516668Y-43477619D01*
X90183335Y-42810952D02*
X90707144Y-42810952D01*
X90707144Y-42810952D02*
X90183335Y-43477619D01*
X90183335Y-43477619D02*
X90707144Y-43477619D01*
X92040478Y-42477619D02*
X92135716Y-42477619D01*
X92135716Y-42477619D02*
X92230954Y-42525238D01*
X92230954Y-42525238D02*
X92278573Y-42572857D01*
X92278573Y-42572857D02*
X92326192Y-42668095D01*
X92326192Y-42668095D02*
X92373811Y-42858571D01*
X92373811Y-42858571D02*
X92373811Y-43096666D01*
X92373811Y-43096666D02*
X92326192Y-43287142D01*
X92326192Y-43287142D02*
X92278573Y-43382380D01*
X92278573Y-43382380D02*
X92230954Y-43430000D01*
X92230954Y-43430000D02*
X92135716Y-43477619D01*
X92135716Y-43477619D02*
X92040478Y-43477619D01*
X92040478Y-43477619D02*
X91945240Y-43430000D01*
X91945240Y-43430000D02*
X91897621Y-43382380D01*
X91897621Y-43382380D02*
X91850002Y-43287142D01*
X91850002Y-43287142D02*
X91802383Y-43096666D01*
X91802383Y-43096666D02*
X91802383Y-42858571D01*
X91802383Y-42858571D02*
X91850002Y-42668095D01*
X91850002Y-42668095D02*
X91897621Y-42572857D01*
X91897621Y-42572857D02*
X91945240Y-42525238D01*
X91945240Y-42525238D02*
X92040478Y-42477619D01*
X92802383Y-43382380D02*
X92850002Y-43430000D01*
X92850002Y-43430000D02*
X92802383Y-43477619D01*
X92802383Y-43477619D02*
X92754764Y-43430000D01*
X92754764Y-43430000D02*
X92802383Y-43382380D01*
X92802383Y-43382380D02*
X92802383Y-43477619D01*
X93183335Y-42477619D02*
X93802382Y-42477619D01*
X93802382Y-42477619D02*
X93469049Y-42858571D01*
X93469049Y-42858571D02*
X93611906Y-42858571D01*
X93611906Y-42858571D02*
X93707144Y-42906190D01*
X93707144Y-42906190D02*
X93754763Y-42953809D01*
X93754763Y-42953809D02*
X93802382Y-43049047D01*
X93802382Y-43049047D02*
X93802382Y-43287142D01*
X93802382Y-43287142D02*
X93754763Y-43382380D01*
X93754763Y-43382380D02*
X93707144Y-43430000D01*
X93707144Y-43430000D02*
X93611906Y-43477619D01*
X93611906Y-43477619D02*
X93326192Y-43477619D01*
X93326192Y-43477619D02*
X93230954Y-43430000D01*
X93230954Y-43430000D02*
X93183335Y-43382380D01*
X94659525Y-42810952D02*
X94659525Y-43477619D01*
X94421430Y-42430000D02*
X94183335Y-43144285D01*
X94183335Y-43144285D02*
X94802382Y-43144285D01*
X95230954Y-43477619D02*
X95421430Y-43477619D01*
X95421430Y-43477619D02*
X95516668Y-43430000D01*
X95516668Y-43430000D02*
X95564287Y-43382380D01*
X95564287Y-43382380D02*
X95659525Y-43239523D01*
X95659525Y-43239523D02*
X95707144Y-43049047D01*
X95707144Y-43049047D02*
X95707144Y-42668095D01*
X95707144Y-42668095D02*
X95659525Y-42572857D01*
X95659525Y-42572857D02*
X95611906Y-42525238D01*
X95611906Y-42525238D02*
X95516668Y-42477619D01*
X95516668Y-42477619D02*
X95326192Y-42477619D01*
X95326192Y-42477619D02*
X95230954Y-42525238D01*
X95230954Y-42525238D02*
X95183335Y-42572857D01*
X95183335Y-42572857D02*
X95135716Y-42668095D01*
X95135716Y-42668095D02*
X95135716Y-42906190D01*
X95135716Y-42906190D02*
X95183335Y-43001428D01*
X95183335Y-43001428D02*
X95230954Y-43049047D01*
X95230954Y-43049047D02*
X95326192Y-43096666D01*
X95326192Y-43096666D02*
X95516668Y-43096666D01*
X95516668Y-43096666D02*
X95611906Y-43049047D01*
X95611906Y-43049047D02*
X95659525Y-43001428D01*
X95659525Y-43001428D02*
X95707144Y-42906190D01*
X96040478Y-42477619D02*
X96659525Y-42477619D01*
X96659525Y-42477619D02*
X96326192Y-42858571D01*
X96326192Y-42858571D02*
X96469049Y-42858571D01*
X96469049Y-42858571D02*
X96564287Y-42906190D01*
X96564287Y-42906190D02*
X96611906Y-42953809D01*
X96611906Y-42953809D02*
X96659525Y-43049047D01*
X96659525Y-43049047D02*
X96659525Y-43287142D01*
X96659525Y-43287142D02*
X96611906Y-43382380D01*
X96611906Y-43382380D02*
X96564287Y-43430000D01*
X96564287Y-43430000D02*
X96469049Y-43477619D01*
X96469049Y-43477619D02*
X96183335Y-43477619D01*
X96183335Y-43477619D02*
X96088097Y-43430000D01*
X96088097Y-43430000D02*
X96040478Y-43382380D01*
X97088097Y-43477619D02*
X97088097Y-42810952D01*
X97088097Y-42906190D02*
X97135716Y-42858571D01*
X97135716Y-42858571D02*
X97230954Y-42810952D01*
X97230954Y-42810952D02*
X97373811Y-42810952D01*
X97373811Y-42810952D02*
X97469049Y-42858571D01*
X97469049Y-42858571D02*
X97516668Y-42953809D01*
X97516668Y-42953809D02*
X97516668Y-43477619D01*
X97516668Y-42953809D02*
X97564287Y-42858571D01*
X97564287Y-42858571D02*
X97659525Y-42810952D01*
X97659525Y-42810952D02*
X97802382Y-42810952D01*
X97802382Y-42810952D02*
X97897621Y-42858571D01*
X97897621Y-42858571D02*
X97945240Y-42953809D01*
X97945240Y-42953809D02*
X97945240Y-43477619D01*
X98421430Y-43477619D02*
X98421430Y-42810952D01*
X98421430Y-42906190D02*
X98469049Y-42858571D01*
X98469049Y-42858571D02*
X98564287Y-42810952D01*
X98564287Y-42810952D02*
X98707144Y-42810952D01*
X98707144Y-42810952D02*
X98802382Y-42858571D01*
X98802382Y-42858571D02*
X98850001Y-42953809D01*
X98850001Y-42953809D02*
X98850001Y-43477619D01*
X98850001Y-42953809D02*
X98897620Y-42858571D01*
X98897620Y-42858571D02*
X98992858Y-42810952D01*
X98992858Y-42810952D02*
X99135715Y-42810952D01*
X99135715Y-42810952D02*
X99230954Y-42858571D01*
X99230954Y-42858571D02*
X99278573Y-42953809D01*
X99278573Y-42953809D02*
X99278573Y-43477619D01*
D13*
%TO.C,R3*%
X87807500Y-77177571D02*
X87607500Y-76891857D01*
X87464643Y-77177571D02*
X87464643Y-76577571D01*
X87464643Y-76577571D02*
X87693214Y-76577571D01*
X87693214Y-76577571D02*
X87750357Y-76606142D01*
X87750357Y-76606142D02*
X87778928Y-76634714D01*
X87778928Y-76634714D02*
X87807500Y-76691857D01*
X87807500Y-76691857D02*
X87807500Y-76777571D01*
X87807500Y-76777571D02*
X87778928Y-76834714D01*
X87778928Y-76834714D02*
X87750357Y-76863285D01*
X87750357Y-76863285D02*
X87693214Y-76891857D01*
X87693214Y-76891857D02*
X87464643Y-76891857D01*
X88007500Y-76577571D02*
X88378928Y-76577571D01*
X88378928Y-76577571D02*
X88178928Y-76806142D01*
X88178928Y-76806142D02*
X88264643Y-76806142D01*
X88264643Y-76806142D02*
X88321786Y-76834714D01*
X88321786Y-76834714D02*
X88350357Y-76863285D01*
X88350357Y-76863285D02*
X88378928Y-76920428D01*
X88378928Y-76920428D02*
X88378928Y-77063285D01*
X88378928Y-77063285D02*
X88350357Y-77120428D01*
X88350357Y-77120428D02*
X88321786Y-77149000D01*
X88321786Y-77149000D02*
X88264643Y-77177571D01*
X88264643Y-77177571D02*
X88093214Y-77177571D01*
X88093214Y-77177571D02*
X88036071Y-77149000D01*
X88036071Y-77149000D02*
X88007500Y-77120428D01*
%TO.C,R6*%
X77100000Y-59277571D02*
X76900000Y-58991857D01*
X76757143Y-59277571D02*
X76757143Y-58677571D01*
X76757143Y-58677571D02*
X76985714Y-58677571D01*
X76985714Y-58677571D02*
X77042857Y-58706142D01*
X77042857Y-58706142D02*
X77071428Y-58734714D01*
X77071428Y-58734714D02*
X77100000Y-58791857D01*
X77100000Y-58791857D02*
X77100000Y-58877571D01*
X77100000Y-58877571D02*
X77071428Y-58934714D01*
X77071428Y-58934714D02*
X77042857Y-58963285D01*
X77042857Y-58963285D02*
X76985714Y-58991857D01*
X76985714Y-58991857D02*
X76757143Y-58991857D01*
X77614286Y-58677571D02*
X77500000Y-58677571D01*
X77500000Y-58677571D02*
X77442857Y-58706142D01*
X77442857Y-58706142D02*
X77414286Y-58734714D01*
X77414286Y-58734714D02*
X77357143Y-58820428D01*
X77357143Y-58820428D02*
X77328571Y-58934714D01*
X77328571Y-58934714D02*
X77328571Y-59163285D01*
X77328571Y-59163285D02*
X77357143Y-59220428D01*
X77357143Y-59220428D02*
X77385714Y-59249000D01*
X77385714Y-59249000D02*
X77442857Y-59277571D01*
X77442857Y-59277571D02*
X77557143Y-59277571D01*
X77557143Y-59277571D02*
X77614286Y-59249000D01*
X77614286Y-59249000D02*
X77642857Y-59220428D01*
X77642857Y-59220428D02*
X77671428Y-59163285D01*
X77671428Y-59163285D02*
X77671428Y-59020428D01*
X77671428Y-59020428D02*
X77642857Y-58963285D01*
X77642857Y-58963285D02*
X77614286Y-58934714D01*
X77614286Y-58934714D02*
X77557143Y-58906142D01*
X77557143Y-58906142D02*
X77442857Y-58906142D01*
X77442857Y-58906142D02*
X77385714Y-58934714D01*
X77385714Y-58934714D02*
X77357143Y-58963285D01*
X77357143Y-58963285D02*
X77328571Y-59020428D01*
%TO.C,C11*%
X65564285Y-53750428D02*
X65535713Y-53779000D01*
X65535713Y-53779000D02*
X65449999Y-53807571D01*
X65449999Y-53807571D02*
X65392856Y-53807571D01*
X65392856Y-53807571D02*
X65307142Y-53779000D01*
X65307142Y-53779000D02*
X65249999Y-53721857D01*
X65249999Y-53721857D02*
X65221428Y-53664714D01*
X65221428Y-53664714D02*
X65192856Y-53550428D01*
X65192856Y-53550428D02*
X65192856Y-53464714D01*
X65192856Y-53464714D02*
X65221428Y-53350428D01*
X65221428Y-53350428D02*
X65249999Y-53293285D01*
X65249999Y-53293285D02*
X65307142Y-53236142D01*
X65307142Y-53236142D02*
X65392856Y-53207571D01*
X65392856Y-53207571D02*
X65449999Y-53207571D01*
X65449999Y-53207571D02*
X65535713Y-53236142D01*
X65535713Y-53236142D02*
X65564285Y-53264714D01*
X66135713Y-53807571D02*
X65792856Y-53807571D01*
X65964285Y-53807571D02*
X65964285Y-53207571D01*
X65964285Y-53207571D02*
X65907142Y-53293285D01*
X65907142Y-53293285D02*
X65849999Y-53350428D01*
X65849999Y-53350428D02*
X65792856Y-53379000D01*
X66707142Y-53807571D02*
X66364285Y-53807571D01*
X66535714Y-53807571D02*
X66535714Y-53207571D01*
X66535714Y-53207571D02*
X66478571Y-53293285D01*
X66478571Y-53293285D02*
X66421428Y-53350428D01*
X66421428Y-53350428D02*
X66364285Y-53379000D01*
%TO.C,D5*%
X79457143Y-78127571D02*
X79457143Y-77527571D01*
X79457143Y-77527571D02*
X79600000Y-77527571D01*
X79600000Y-77527571D02*
X79685714Y-77556142D01*
X79685714Y-77556142D02*
X79742857Y-77613285D01*
X79742857Y-77613285D02*
X79771428Y-77670428D01*
X79771428Y-77670428D02*
X79800000Y-77784714D01*
X79800000Y-77784714D02*
X79800000Y-77870428D01*
X79800000Y-77870428D02*
X79771428Y-77984714D01*
X79771428Y-77984714D02*
X79742857Y-78041857D01*
X79742857Y-78041857D02*
X79685714Y-78099000D01*
X79685714Y-78099000D02*
X79600000Y-78127571D01*
X79600000Y-78127571D02*
X79457143Y-78127571D01*
X80342857Y-77527571D02*
X80057143Y-77527571D01*
X80057143Y-77527571D02*
X80028571Y-77813285D01*
X80028571Y-77813285D02*
X80057143Y-77784714D01*
X80057143Y-77784714D02*
X80114286Y-77756142D01*
X80114286Y-77756142D02*
X80257143Y-77756142D01*
X80257143Y-77756142D02*
X80314286Y-77784714D01*
X80314286Y-77784714D02*
X80342857Y-77813285D01*
X80342857Y-77813285D02*
X80371428Y-77870428D01*
X80371428Y-77870428D02*
X80371428Y-78013285D01*
X80371428Y-78013285D02*
X80342857Y-78070428D01*
X80342857Y-78070428D02*
X80314286Y-78099000D01*
X80314286Y-78099000D02*
X80257143Y-78127571D01*
X80257143Y-78127571D02*
X80114286Y-78127571D01*
X80114286Y-78127571D02*
X80057143Y-78099000D01*
X80057143Y-78099000D02*
X80028571Y-78070428D01*
%TO.C,C1*%
X65200000Y-47050428D02*
X65171428Y-47079000D01*
X65171428Y-47079000D02*
X65085714Y-47107571D01*
X65085714Y-47107571D02*
X65028571Y-47107571D01*
X65028571Y-47107571D02*
X64942857Y-47079000D01*
X64942857Y-47079000D02*
X64885714Y-47021857D01*
X64885714Y-47021857D02*
X64857143Y-46964714D01*
X64857143Y-46964714D02*
X64828571Y-46850428D01*
X64828571Y-46850428D02*
X64828571Y-46764714D01*
X64828571Y-46764714D02*
X64857143Y-46650428D01*
X64857143Y-46650428D02*
X64885714Y-46593285D01*
X64885714Y-46593285D02*
X64942857Y-46536142D01*
X64942857Y-46536142D02*
X65028571Y-46507571D01*
X65028571Y-46507571D02*
X65085714Y-46507571D01*
X65085714Y-46507571D02*
X65171428Y-46536142D01*
X65171428Y-46536142D02*
X65200000Y-46564714D01*
X65771428Y-47107571D02*
X65428571Y-47107571D01*
X65600000Y-47107571D02*
X65600000Y-46507571D01*
X65600000Y-46507571D02*
X65542857Y-46593285D01*
X65542857Y-46593285D02*
X65485714Y-46650428D01*
X65485714Y-46650428D02*
X65428571Y-46679000D01*
%TO.C,X1*%
X66014285Y-46507571D02*
X66414285Y-47107571D01*
X66414285Y-46507571D02*
X66014285Y-47107571D01*
X66957142Y-47107571D02*
X66614285Y-47107571D01*
X66785714Y-47107571D02*
X66785714Y-46507571D01*
X66785714Y-46507571D02*
X66728571Y-46593285D01*
X66728571Y-46593285D02*
X66671428Y-46650428D01*
X66671428Y-46650428D02*
X66614285Y-46679000D01*
D10*
%TO.C,C21*%
X95307142Y-45987380D02*
X95259523Y-46035000D01*
X95259523Y-46035000D02*
X95116666Y-46082619D01*
X95116666Y-46082619D02*
X95021428Y-46082619D01*
X95021428Y-46082619D02*
X94878571Y-46035000D01*
X94878571Y-46035000D02*
X94783333Y-45939761D01*
X94783333Y-45939761D02*
X94735714Y-45844523D01*
X94735714Y-45844523D02*
X94688095Y-45654047D01*
X94688095Y-45654047D02*
X94688095Y-45511190D01*
X94688095Y-45511190D02*
X94735714Y-45320714D01*
X94735714Y-45320714D02*
X94783333Y-45225476D01*
X94783333Y-45225476D02*
X94878571Y-45130238D01*
X94878571Y-45130238D02*
X95021428Y-45082619D01*
X95021428Y-45082619D02*
X95116666Y-45082619D01*
X95116666Y-45082619D02*
X95259523Y-45130238D01*
X95259523Y-45130238D02*
X95307142Y-45177857D01*
X95688095Y-45177857D02*
X95735714Y-45130238D01*
X95735714Y-45130238D02*
X95830952Y-45082619D01*
X95830952Y-45082619D02*
X96069047Y-45082619D01*
X96069047Y-45082619D02*
X96164285Y-45130238D01*
X96164285Y-45130238D02*
X96211904Y-45177857D01*
X96211904Y-45177857D02*
X96259523Y-45273095D01*
X96259523Y-45273095D02*
X96259523Y-45368333D01*
X96259523Y-45368333D02*
X96211904Y-45511190D01*
X96211904Y-45511190D02*
X95640476Y-46082619D01*
X95640476Y-46082619D02*
X96259523Y-46082619D01*
X97211904Y-46082619D02*
X96640476Y-46082619D01*
X96926190Y-46082619D02*
X96926190Y-45082619D01*
X96926190Y-45082619D02*
X96830952Y-45225476D01*
X96830952Y-45225476D02*
X96735714Y-45320714D01*
X96735714Y-45320714D02*
X96640476Y-45368333D01*
%TO.C,C23*%
X90957142Y-49767380D02*
X90909523Y-49815000D01*
X90909523Y-49815000D02*
X90766666Y-49862619D01*
X90766666Y-49862619D02*
X90671428Y-49862619D01*
X90671428Y-49862619D02*
X90528571Y-49815000D01*
X90528571Y-49815000D02*
X90433333Y-49719761D01*
X90433333Y-49719761D02*
X90385714Y-49624523D01*
X90385714Y-49624523D02*
X90338095Y-49434047D01*
X90338095Y-49434047D02*
X90338095Y-49291190D01*
X90338095Y-49291190D02*
X90385714Y-49100714D01*
X90385714Y-49100714D02*
X90433333Y-49005476D01*
X90433333Y-49005476D02*
X90528571Y-48910238D01*
X90528571Y-48910238D02*
X90671428Y-48862619D01*
X90671428Y-48862619D02*
X90766666Y-48862619D01*
X90766666Y-48862619D02*
X90909523Y-48910238D01*
X90909523Y-48910238D02*
X90957142Y-48957857D01*
X91338095Y-48957857D02*
X91385714Y-48910238D01*
X91385714Y-48910238D02*
X91480952Y-48862619D01*
X91480952Y-48862619D02*
X91719047Y-48862619D01*
X91719047Y-48862619D02*
X91814285Y-48910238D01*
X91814285Y-48910238D02*
X91861904Y-48957857D01*
X91861904Y-48957857D02*
X91909523Y-49053095D01*
X91909523Y-49053095D02*
X91909523Y-49148333D01*
X91909523Y-49148333D02*
X91861904Y-49291190D01*
X91861904Y-49291190D02*
X91290476Y-49862619D01*
X91290476Y-49862619D02*
X91909523Y-49862619D01*
X92242857Y-48862619D02*
X92861904Y-48862619D01*
X92861904Y-48862619D02*
X92528571Y-49243571D01*
X92528571Y-49243571D02*
X92671428Y-49243571D01*
X92671428Y-49243571D02*
X92766666Y-49291190D01*
X92766666Y-49291190D02*
X92814285Y-49338809D01*
X92814285Y-49338809D02*
X92861904Y-49434047D01*
X92861904Y-49434047D02*
X92861904Y-49672142D01*
X92861904Y-49672142D02*
X92814285Y-49767380D01*
X92814285Y-49767380D02*
X92766666Y-49815000D01*
X92766666Y-49815000D02*
X92671428Y-49862619D01*
X92671428Y-49862619D02*
X92385714Y-49862619D01*
X92385714Y-49862619D02*
X92290476Y-49815000D01*
X92290476Y-49815000D02*
X92242857Y-49767380D01*
D13*
%TO.C,FB1*%
X69100000Y-55663285D02*
X68900000Y-55663285D01*
X68900000Y-55977571D02*
X68900000Y-55377571D01*
X68900000Y-55377571D02*
X69185714Y-55377571D01*
X69614286Y-55663285D02*
X69700000Y-55691857D01*
X69700000Y-55691857D02*
X69728571Y-55720428D01*
X69728571Y-55720428D02*
X69757143Y-55777571D01*
X69757143Y-55777571D02*
X69757143Y-55863285D01*
X69757143Y-55863285D02*
X69728571Y-55920428D01*
X69728571Y-55920428D02*
X69700000Y-55949000D01*
X69700000Y-55949000D02*
X69642857Y-55977571D01*
X69642857Y-55977571D02*
X69414286Y-55977571D01*
X69414286Y-55977571D02*
X69414286Y-55377571D01*
X69414286Y-55377571D02*
X69614286Y-55377571D01*
X69614286Y-55377571D02*
X69671429Y-55406142D01*
X69671429Y-55406142D02*
X69700000Y-55434714D01*
X69700000Y-55434714D02*
X69728571Y-55491857D01*
X69728571Y-55491857D02*
X69728571Y-55549000D01*
X69728571Y-55549000D02*
X69700000Y-55606142D01*
X69700000Y-55606142D02*
X69671429Y-55634714D01*
X69671429Y-55634714D02*
X69614286Y-55663285D01*
X69614286Y-55663285D02*
X69414286Y-55663285D01*
X70328571Y-55977571D02*
X69985714Y-55977571D01*
X70157143Y-55977571D02*
X70157143Y-55377571D01*
X70157143Y-55377571D02*
X70100000Y-55463285D01*
X70100000Y-55463285D02*
X70042857Y-55520428D01*
X70042857Y-55520428D02*
X69985714Y-55549000D01*
D10*
%TO.C,C19*%
X92657142Y-74067380D02*
X92609523Y-74115000D01*
X92609523Y-74115000D02*
X92466666Y-74162619D01*
X92466666Y-74162619D02*
X92371428Y-74162619D01*
X92371428Y-74162619D02*
X92228571Y-74115000D01*
X92228571Y-74115000D02*
X92133333Y-74019761D01*
X92133333Y-74019761D02*
X92085714Y-73924523D01*
X92085714Y-73924523D02*
X92038095Y-73734047D01*
X92038095Y-73734047D02*
X92038095Y-73591190D01*
X92038095Y-73591190D02*
X92085714Y-73400714D01*
X92085714Y-73400714D02*
X92133333Y-73305476D01*
X92133333Y-73305476D02*
X92228571Y-73210238D01*
X92228571Y-73210238D02*
X92371428Y-73162619D01*
X92371428Y-73162619D02*
X92466666Y-73162619D01*
X92466666Y-73162619D02*
X92609523Y-73210238D01*
X92609523Y-73210238D02*
X92657142Y-73257857D01*
X93609523Y-74162619D02*
X93038095Y-74162619D01*
X93323809Y-74162619D02*
X93323809Y-73162619D01*
X93323809Y-73162619D02*
X93228571Y-73305476D01*
X93228571Y-73305476D02*
X93133333Y-73400714D01*
X93133333Y-73400714D02*
X93038095Y-73448333D01*
X94085714Y-74162619D02*
X94276190Y-74162619D01*
X94276190Y-74162619D02*
X94371428Y-74115000D01*
X94371428Y-74115000D02*
X94419047Y-74067380D01*
X94419047Y-74067380D02*
X94514285Y-73924523D01*
X94514285Y-73924523D02*
X94561904Y-73734047D01*
X94561904Y-73734047D02*
X94561904Y-73353095D01*
X94561904Y-73353095D02*
X94514285Y-73257857D01*
X94514285Y-73257857D02*
X94466666Y-73210238D01*
X94466666Y-73210238D02*
X94371428Y-73162619D01*
X94371428Y-73162619D02*
X94180952Y-73162619D01*
X94180952Y-73162619D02*
X94085714Y-73210238D01*
X94085714Y-73210238D02*
X94038095Y-73257857D01*
X94038095Y-73257857D02*
X93990476Y-73353095D01*
X93990476Y-73353095D02*
X93990476Y-73591190D01*
X93990476Y-73591190D02*
X94038095Y-73686428D01*
X94038095Y-73686428D02*
X94085714Y-73734047D01*
X94085714Y-73734047D02*
X94180952Y-73781666D01*
X94180952Y-73781666D02*
X94371428Y-73781666D01*
X94371428Y-73781666D02*
X94466666Y-73734047D01*
X94466666Y-73734047D02*
X94514285Y-73686428D01*
X94514285Y-73686428D02*
X94561904Y-73591190D01*
D13*
%TO.C,C3*%
X62110400Y-56965628D02*
X62081828Y-56994200D01*
X62081828Y-56994200D02*
X61996114Y-57022771D01*
X61996114Y-57022771D02*
X61938971Y-57022771D01*
X61938971Y-57022771D02*
X61853257Y-56994200D01*
X61853257Y-56994200D02*
X61796114Y-56937057D01*
X61796114Y-56937057D02*
X61767543Y-56879914D01*
X61767543Y-56879914D02*
X61738971Y-56765628D01*
X61738971Y-56765628D02*
X61738971Y-56679914D01*
X61738971Y-56679914D02*
X61767543Y-56565628D01*
X61767543Y-56565628D02*
X61796114Y-56508485D01*
X61796114Y-56508485D02*
X61853257Y-56451342D01*
X61853257Y-56451342D02*
X61938971Y-56422771D01*
X61938971Y-56422771D02*
X61996114Y-56422771D01*
X61996114Y-56422771D02*
X62081828Y-56451342D01*
X62081828Y-56451342D02*
X62110400Y-56479914D01*
X62310400Y-56422771D02*
X62681828Y-56422771D01*
X62681828Y-56422771D02*
X62481828Y-56651342D01*
X62481828Y-56651342D02*
X62567543Y-56651342D01*
X62567543Y-56651342D02*
X62624686Y-56679914D01*
X62624686Y-56679914D02*
X62653257Y-56708485D01*
X62653257Y-56708485D02*
X62681828Y-56765628D01*
X62681828Y-56765628D02*
X62681828Y-56908485D01*
X62681828Y-56908485D02*
X62653257Y-56965628D01*
X62653257Y-56965628D02*
X62624686Y-56994200D01*
X62624686Y-56994200D02*
X62567543Y-57022771D01*
X62567543Y-57022771D02*
X62396114Y-57022771D01*
X62396114Y-57022771D02*
X62338971Y-56994200D01*
X62338971Y-56994200D02*
X62310400Y-56965628D01*
D10*
%TO.C,C20*%
X85357142Y-74867380D02*
X85309523Y-74915000D01*
X85309523Y-74915000D02*
X85166666Y-74962619D01*
X85166666Y-74962619D02*
X85071428Y-74962619D01*
X85071428Y-74962619D02*
X84928571Y-74915000D01*
X84928571Y-74915000D02*
X84833333Y-74819761D01*
X84833333Y-74819761D02*
X84785714Y-74724523D01*
X84785714Y-74724523D02*
X84738095Y-74534047D01*
X84738095Y-74534047D02*
X84738095Y-74391190D01*
X84738095Y-74391190D02*
X84785714Y-74200714D01*
X84785714Y-74200714D02*
X84833333Y-74105476D01*
X84833333Y-74105476D02*
X84928571Y-74010238D01*
X84928571Y-74010238D02*
X85071428Y-73962619D01*
X85071428Y-73962619D02*
X85166666Y-73962619D01*
X85166666Y-73962619D02*
X85309523Y-74010238D01*
X85309523Y-74010238D02*
X85357142Y-74057857D01*
X85738095Y-74057857D02*
X85785714Y-74010238D01*
X85785714Y-74010238D02*
X85880952Y-73962619D01*
X85880952Y-73962619D02*
X86119047Y-73962619D01*
X86119047Y-73962619D02*
X86214285Y-74010238D01*
X86214285Y-74010238D02*
X86261904Y-74057857D01*
X86261904Y-74057857D02*
X86309523Y-74153095D01*
X86309523Y-74153095D02*
X86309523Y-74248333D01*
X86309523Y-74248333D02*
X86261904Y-74391190D01*
X86261904Y-74391190D02*
X85690476Y-74962619D01*
X85690476Y-74962619D02*
X86309523Y-74962619D01*
X86928571Y-73962619D02*
X87023809Y-73962619D01*
X87023809Y-73962619D02*
X87119047Y-74010238D01*
X87119047Y-74010238D02*
X87166666Y-74057857D01*
X87166666Y-74057857D02*
X87214285Y-74153095D01*
X87214285Y-74153095D02*
X87261904Y-74343571D01*
X87261904Y-74343571D02*
X87261904Y-74581666D01*
X87261904Y-74581666D02*
X87214285Y-74772142D01*
X87214285Y-74772142D02*
X87166666Y-74867380D01*
X87166666Y-74867380D02*
X87119047Y-74915000D01*
X87119047Y-74915000D02*
X87023809Y-74962619D01*
X87023809Y-74962619D02*
X86928571Y-74962619D01*
X86928571Y-74962619D02*
X86833333Y-74915000D01*
X86833333Y-74915000D02*
X86785714Y-74867380D01*
X86785714Y-74867380D02*
X86738095Y-74772142D01*
X86738095Y-74772142D02*
X86690476Y-74581666D01*
X86690476Y-74581666D02*
X86690476Y-74343571D01*
X86690476Y-74343571D02*
X86738095Y-74153095D01*
X86738095Y-74153095D02*
X86785714Y-74057857D01*
X86785714Y-74057857D02*
X86833333Y-74010238D01*
X86833333Y-74010238D02*
X86928571Y-73962619D01*
D13*
%TO.C,C6*%
X66100000Y-54730428D02*
X66071428Y-54759000D01*
X66071428Y-54759000D02*
X65985714Y-54787571D01*
X65985714Y-54787571D02*
X65928571Y-54787571D01*
X65928571Y-54787571D02*
X65842857Y-54759000D01*
X65842857Y-54759000D02*
X65785714Y-54701857D01*
X65785714Y-54701857D02*
X65757143Y-54644714D01*
X65757143Y-54644714D02*
X65728571Y-54530428D01*
X65728571Y-54530428D02*
X65728571Y-54444714D01*
X65728571Y-54444714D02*
X65757143Y-54330428D01*
X65757143Y-54330428D02*
X65785714Y-54273285D01*
X65785714Y-54273285D02*
X65842857Y-54216142D01*
X65842857Y-54216142D02*
X65928571Y-54187571D01*
X65928571Y-54187571D02*
X65985714Y-54187571D01*
X65985714Y-54187571D02*
X66071428Y-54216142D01*
X66071428Y-54216142D02*
X66100000Y-54244714D01*
X66614286Y-54187571D02*
X66500000Y-54187571D01*
X66500000Y-54187571D02*
X66442857Y-54216142D01*
X66442857Y-54216142D02*
X66414286Y-54244714D01*
X66414286Y-54244714D02*
X66357143Y-54330428D01*
X66357143Y-54330428D02*
X66328571Y-54444714D01*
X66328571Y-54444714D02*
X66328571Y-54673285D01*
X66328571Y-54673285D02*
X66357143Y-54730428D01*
X66357143Y-54730428D02*
X66385714Y-54759000D01*
X66385714Y-54759000D02*
X66442857Y-54787571D01*
X66442857Y-54787571D02*
X66557143Y-54787571D01*
X66557143Y-54787571D02*
X66614286Y-54759000D01*
X66614286Y-54759000D02*
X66642857Y-54730428D01*
X66642857Y-54730428D02*
X66671428Y-54673285D01*
X66671428Y-54673285D02*
X66671428Y-54530428D01*
X66671428Y-54530428D02*
X66642857Y-54473285D01*
X66642857Y-54473285D02*
X66614286Y-54444714D01*
X66614286Y-54444714D02*
X66557143Y-54416142D01*
X66557143Y-54416142D02*
X66442857Y-54416142D01*
X66442857Y-54416142D02*
X66385714Y-54444714D01*
X66385714Y-54444714D02*
X66357143Y-54473285D01*
X66357143Y-54473285D02*
X66328571Y-54530428D01*
%TO.C,C7*%
X68600000Y-49920428D02*
X68571428Y-49949000D01*
X68571428Y-49949000D02*
X68485714Y-49977571D01*
X68485714Y-49977571D02*
X68428571Y-49977571D01*
X68428571Y-49977571D02*
X68342857Y-49949000D01*
X68342857Y-49949000D02*
X68285714Y-49891857D01*
X68285714Y-49891857D02*
X68257143Y-49834714D01*
X68257143Y-49834714D02*
X68228571Y-49720428D01*
X68228571Y-49720428D02*
X68228571Y-49634714D01*
X68228571Y-49634714D02*
X68257143Y-49520428D01*
X68257143Y-49520428D02*
X68285714Y-49463285D01*
X68285714Y-49463285D02*
X68342857Y-49406142D01*
X68342857Y-49406142D02*
X68428571Y-49377571D01*
X68428571Y-49377571D02*
X68485714Y-49377571D01*
X68485714Y-49377571D02*
X68571428Y-49406142D01*
X68571428Y-49406142D02*
X68600000Y-49434714D01*
X68800000Y-49377571D02*
X69200000Y-49377571D01*
X69200000Y-49377571D02*
X68942857Y-49977571D01*
%TO.C,R2*%
X85142500Y-77227571D02*
X84942500Y-76941857D01*
X84799643Y-77227571D02*
X84799643Y-76627571D01*
X84799643Y-76627571D02*
X85028214Y-76627571D01*
X85028214Y-76627571D02*
X85085357Y-76656142D01*
X85085357Y-76656142D02*
X85113928Y-76684714D01*
X85113928Y-76684714D02*
X85142500Y-76741857D01*
X85142500Y-76741857D02*
X85142500Y-76827571D01*
X85142500Y-76827571D02*
X85113928Y-76884714D01*
X85113928Y-76884714D02*
X85085357Y-76913285D01*
X85085357Y-76913285D02*
X85028214Y-76941857D01*
X85028214Y-76941857D02*
X84799643Y-76941857D01*
X85371071Y-76684714D02*
X85399643Y-76656142D01*
X85399643Y-76656142D02*
X85456786Y-76627571D01*
X85456786Y-76627571D02*
X85599643Y-76627571D01*
X85599643Y-76627571D02*
X85656786Y-76656142D01*
X85656786Y-76656142D02*
X85685357Y-76684714D01*
X85685357Y-76684714D02*
X85713928Y-76741857D01*
X85713928Y-76741857D02*
X85713928Y-76799000D01*
X85713928Y-76799000D02*
X85685357Y-76884714D01*
X85685357Y-76884714D02*
X85342500Y-77227571D01*
X85342500Y-77227571D02*
X85713928Y-77227571D01*
%TO.C,R1*%
X73744000Y-47377571D02*
X73544000Y-47091857D01*
X73401143Y-47377571D02*
X73401143Y-46777571D01*
X73401143Y-46777571D02*
X73629714Y-46777571D01*
X73629714Y-46777571D02*
X73686857Y-46806142D01*
X73686857Y-46806142D02*
X73715428Y-46834714D01*
X73715428Y-46834714D02*
X73744000Y-46891857D01*
X73744000Y-46891857D02*
X73744000Y-46977571D01*
X73744000Y-46977571D02*
X73715428Y-47034714D01*
X73715428Y-47034714D02*
X73686857Y-47063285D01*
X73686857Y-47063285D02*
X73629714Y-47091857D01*
X73629714Y-47091857D02*
X73401143Y-47091857D01*
X74315428Y-47377571D02*
X73972571Y-47377571D01*
X74144000Y-47377571D02*
X74144000Y-46777571D01*
X74144000Y-46777571D02*
X74086857Y-46863285D01*
X74086857Y-46863285D02*
X74029714Y-46920428D01*
X74029714Y-46920428D02*
X73972571Y-46949000D01*
%TO.C,C5*%
X66600000Y-49920428D02*
X66571428Y-49949000D01*
X66571428Y-49949000D02*
X66485714Y-49977571D01*
X66485714Y-49977571D02*
X66428571Y-49977571D01*
X66428571Y-49977571D02*
X66342857Y-49949000D01*
X66342857Y-49949000D02*
X66285714Y-49891857D01*
X66285714Y-49891857D02*
X66257143Y-49834714D01*
X66257143Y-49834714D02*
X66228571Y-49720428D01*
X66228571Y-49720428D02*
X66228571Y-49634714D01*
X66228571Y-49634714D02*
X66257143Y-49520428D01*
X66257143Y-49520428D02*
X66285714Y-49463285D01*
X66285714Y-49463285D02*
X66342857Y-49406142D01*
X66342857Y-49406142D02*
X66428571Y-49377571D01*
X66428571Y-49377571D02*
X66485714Y-49377571D01*
X66485714Y-49377571D02*
X66571428Y-49406142D01*
X66571428Y-49406142D02*
X66600000Y-49434714D01*
X67142857Y-49377571D02*
X66857143Y-49377571D01*
X66857143Y-49377571D02*
X66828571Y-49663285D01*
X66828571Y-49663285D02*
X66857143Y-49634714D01*
X66857143Y-49634714D02*
X66914286Y-49606142D01*
X66914286Y-49606142D02*
X67057143Y-49606142D01*
X67057143Y-49606142D02*
X67114286Y-49634714D01*
X67114286Y-49634714D02*
X67142857Y-49663285D01*
X67142857Y-49663285D02*
X67171428Y-49720428D01*
X67171428Y-49720428D02*
X67171428Y-49863285D01*
X67171428Y-49863285D02*
X67142857Y-49920428D01*
X67142857Y-49920428D02*
X67114286Y-49949000D01*
X67114286Y-49949000D02*
X67057143Y-49977571D01*
X67057143Y-49977571D02*
X66914286Y-49977571D01*
X66914286Y-49977571D02*
X66857143Y-49949000D01*
X66857143Y-49949000D02*
X66828571Y-49920428D01*
%TO.C,R5*%
X80000000Y-57877571D02*
X79800000Y-57591857D01*
X79657143Y-57877571D02*
X79657143Y-57277571D01*
X79657143Y-57277571D02*
X79885714Y-57277571D01*
X79885714Y-57277571D02*
X79942857Y-57306142D01*
X79942857Y-57306142D02*
X79971428Y-57334714D01*
X79971428Y-57334714D02*
X80000000Y-57391857D01*
X80000000Y-57391857D02*
X80000000Y-57477571D01*
X80000000Y-57477571D02*
X79971428Y-57534714D01*
X79971428Y-57534714D02*
X79942857Y-57563285D01*
X79942857Y-57563285D02*
X79885714Y-57591857D01*
X79885714Y-57591857D02*
X79657143Y-57591857D01*
X80542857Y-57277571D02*
X80257143Y-57277571D01*
X80257143Y-57277571D02*
X80228571Y-57563285D01*
X80228571Y-57563285D02*
X80257143Y-57534714D01*
X80257143Y-57534714D02*
X80314286Y-57506142D01*
X80314286Y-57506142D02*
X80457143Y-57506142D01*
X80457143Y-57506142D02*
X80514286Y-57534714D01*
X80514286Y-57534714D02*
X80542857Y-57563285D01*
X80542857Y-57563285D02*
X80571428Y-57620428D01*
X80571428Y-57620428D02*
X80571428Y-57763285D01*
X80571428Y-57763285D02*
X80542857Y-57820428D01*
X80542857Y-57820428D02*
X80514286Y-57849000D01*
X80514286Y-57849000D02*
X80457143Y-57877571D01*
X80457143Y-57877571D02*
X80314286Y-57877571D01*
X80314286Y-57877571D02*
X80257143Y-57849000D01*
X80257143Y-57849000D02*
X80228571Y-57820428D01*
D10*
%TO.C,USB1*%
X103161905Y-74462619D02*
X103161905Y-75272142D01*
X103161905Y-75272142D02*
X103209524Y-75367380D01*
X103209524Y-75367380D02*
X103257143Y-75415000D01*
X103257143Y-75415000D02*
X103352381Y-75462619D01*
X103352381Y-75462619D02*
X103542857Y-75462619D01*
X103542857Y-75462619D02*
X103638095Y-75415000D01*
X103638095Y-75415000D02*
X103685714Y-75367380D01*
X103685714Y-75367380D02*
X103733333Y-75272142D01*
X103733333Y-75272142D02*
X103733333Y-74462619D01*
X104161905Y-75415000D02*
X104304762Y-75462619D01*
X104304762Y-75462619D02*
X104542857Y-75462619D01*
X104542857Y-75462619D02*
X104638095Y-75415000D01*
X104638095Y-75415000D02*
X104685714Y-75367380D01*
X104685714Y-75367380D02*
X104733333Y-75272142D01*
X104733333Y-75272142D02*
X104733333Y-75176904D01*
X104733333Y-75176904D02*
X104685714Y-75081666D01*
X104685714Y-75081666D02*
X104638095Y-75034047D01*
X104638095Y-75034047D02*
X104542857Y-74986428D01*
X104542857Y-74986428D02*
X104352381Y-74938809D01*
X104352381Y-74938809D02*
X104257143Y-74891190D01*
X104257143Y-74891190D02*
X104209524Y-74843571D01*
X104209524Y-74843571D02*
X104161905Y-74748333D01*
X104161905Y-74748333D02*
X104161905Y-74653095D01*
X104161905Y-74653095D02*
X104209524Y-74557857D01*
X104209524Y-74557857D02*
X104257143Y-74510238D01*
X104257143Y-74510238D02*
X104352381Y-74462619D01*
X104352381Y-74462619D02*
X104590476Y-74462619D01*
X104590476Y-74462619D02*
X104733333Y-74510238D01*
X105495238Y-74938809D02*
X105638095Y-74986428D01*
X105638095Y-74986428D02*
X105685714Y-75034047D01*
X105685714Y-75034047D02*
X105733333Y-75129285D01*
X105733333Y-75129285D02*
X105733333Y-75272142D01*
X105733333Y-75272142D02*
X105685714Y-75367380D01*
X105685714Y-75367380D02*
X105638095Y-75415000D01*
X105638095Y-75415000D02*
X105542857Y-75462619D01*
X105542857Y-75462619D02*
X105161905Y-75462619D01*
X105161905Y-75462619D02*
X105161905Y-74462619D01*
X105161905Y-74462619D02*
X105495238Y-74462619D01*
X105495238Y-74462619D02*
X105590476Y-74510238D01*
X105590476Y-74510238D02*
X105638095Y-74557857D01*
X105638095Y-74557857D02*
X105685714Y-74653095D01*
X105685714Y-74653095D02*
X105685714Y-74748333D01*
X105685714Y-74748333D02*
X105638095Y-74843571D01*
X105638095Y-74843571D02*
X105590476Y-74891190D01*
X105590476Y-74891190D02*
X105495238Y-74938809D01*
X105495238Y-74938809D02*
X105161905Y-74938809D01*
X106685714Y-75462619D02*
X106114286Y-75462619D01*
X106400000Y-75462619D02*
X106400000Y-74462619D01*
X106400000Y-74462619D02*
X106304762Y-74605476D01*
X106304762Y-74605476D02*
X106209524Y-74700714D01*
X106209524Y-74700714D02*
X106114286Y-74748333D01*
D13*
%TO.C,R10*%
X81106785Y-77127571D02*
X80906785Y-76841857D01*
X80763928Y-77127571D02*
X80763928Y-76527571D01*
X80763928Y-76527571D02*
X80992499Y-76527571D01*
X80992499Y-76527571D02*
X81049642Y-76556142D01*
X81049642Y-76556142D02*
X81078213Y-76584714D01*
X81078213Y-76584714D02*
X81106785Y-76641857D01*
X81106785Y-76641857D02*
X81106785Y-76727571D01*
X81106785Y-76727571D02*
X81078213Y-76784714D01*
X81078213Y-76784714D02*
X81049642Y-76813285D01*
X81049642Y-76813285D02*
X80992499Y-76841857D01*
X80992499Y-76841857D02*
X80763928Y-76841857D01*
X81678213Y-77127571D02*
X81335356Y-77127571D01*
X81506785Y-77127571D02*
X81506785Y-76527571D01*
X81506785Y-76527571D02*
X81449642Y-76613285D01*
X81449642Y-76613285D02*
X81392499Y-76670428D01*
X81392499Y-76670428D02*
X81335356Y-76699000D01*
X82049642Y-76527571D02*
X82106785Y-76527571D01*
X82106785Y-76527571D02*
X82163928Y-76556142D01*
X82163928Y-76556142D02*
X82192500Y-76584714D01*
X82192500Y-76584714D02*
X82221071Y-76641857D01*
X82221071Y-76641857D02*
X82249642Y-76756142D01*
X82249642Y-76756142D02*
X82249642Y-76899000D01*
X82249642Y-76899000D02*
X82221071Y-77013285D01*
X82221071Y-77013285D02*
X82192500Y-77070428D01*
X82192500Y-77070428D02*
X82163928Y-77099000D01*
X82163928Y-77099000D02*
X82106785Y-77127571D01*
X82106785Y-77127571D02*
X82049642Y-77127571D01*
X82049642Y-77127571D02*
X81992500Y-77099000D01*
X81992500Y-77099000D02*
X81963928Y-77070428D01*
X81963928Y-77070428D02*
X81935357Y-77013285D01*
X81935357Y-77013285D02*
X81906785Y-76899000D01*
X81906785Y-76899000D02*
X81906785Y-76756142D01*
X81906785Y-76756142D02*
X81935357Y-76641857D01*
X81935357Y-76641857D02*
X81963928Y-76584714D01*
X81963928Y-76584714D02*
X81992500Y-76556142D01*
X81992500Y-76556142D02*
X82049642Y-76527571D01*
%TO.C,D4*%
X89054643Y-78175571D02*
X89054643Y-77575571D01*
X89054643Y-77575571D02*
X89197500Y-77575571D01*
X89197500Y-77575571D02*
X89283214Y-77604142D01*
X89283214Y-77604142D02*
X89340357Y-77661285D01*
X89340357Y-77661285D02*
X89368928Y-77718428D01*
X89368928Y-77718428D02*
X89397500Y-77832714D01*
X89397500Y-77832714D02*
X89397500Y-77918428D01*
X89397500Y-77918428D02*
X89368928Y-78032714D01*
X89368928Y-78032714D02*
X89340357Y-78089857D01*
X89340357Y-78089857D02*
X89283214Y-78147000D01*
X89283214Y-78147000D02*
X89197500Y-78175571D01*
X89197500Y-78175571D02*
X89054643Y-78175571D01*
X89911786Y-77775571D02*
X89911786Y-78175571D01*
X89768928Y-77547000D02*
X89626071Y-77975571D01*
X89626071Y-77975571D02*
X89997500Y-77975571D01*
%TO.C,C10*%
X72508428Y-47863714D02*
X72537000Y-47892286D01*
X72537000Y-47892286D02*
X72565571Y-47978000D01*
X72565571Y-47978000D02*
X72565571Y-48035143D01*
X72565571Y-48035143D02*
X72537000Y-48120857D01*
X72537000Y-48120857D02*
X72479857Y-48178000D01*
X72479857Y-48178000D02*
X72422714Y-48206571D01*
X72422714Y-48206571D02*
X72308428Y-48235143D01*
X72308428Y-48235143D02*
X72222714Y-48235143D01*
X72222714Y-48235143D02*
X72108428Y-48206571D01*
X72108428Y-48206571D02*
X72051285Y-48178000D01*
X72051285Y-48178000D02*
X71994142Y-48120857D01*
X71994142Y-48120857D02*
X71965571Y-48035143D01*
X71965571Y-48035143D02*
X71965571Y-47978000D01*
X71965571Y-47978000D02*
X71994142Y-47892286D01*
X71994142Y-47892286D02*
X72022714Y-47863714D01*
X72565571Y-47292286D02*
X72565571Y-47635143D01*
X72565571Y-47463714D02*
X71965571Y-47463714D01*
X71965571Y-47463714D02*
X72051285Y-47520857D01*
X72051285Y-47520857D02*
X72108428Y-47578000D01*
X72108428Y-47578000D02*
X72137000Y-47635143D01*
X71965571Y-46920857D02*
X71965571Y-46863714D01*
X71965571Y-46863714D02*
X71994142Y-46806571D01*
X71994142Y-46806571D02*
X72022714Y-46778000D01*
X72022714Y-46778000D02*
X72079857Y-46749428D01*
X72079857Y-46749428D02*
X72194142Y-46720857D01*
X72194142Y-46720857D02*
X72337000Y-46720857D01*
X72337000Y-46720857D02*
X72451285Y-46749428D01*
X72451285Y-46749428D02*
X72508428Y-46778000D01*
X72508428Y-46778000D02*
X72537000Y-46806571D01*
X72537000Y-46806571D02*
X72565571Y-46863714D01*
X72565571Y-46863714D02*
X72565571Y-46920857D01*
X72565571Y-46920857D02*
X72537000Y-46978000D01*
X72537000Y-46978000D02*
X72508428Y-47006571D01*
X72508428Y-47006571D02*
X72451285Y-47035142D01*
X72451285Y-47035142D02*
X72337000Y-47063714D01*
X72337000Y-47063714D02*
X72194142Y-47063714D01*
X72194142Y-47063714D02*
X72079857Y-47035142D01*
X72079857Y-47035142D02*
X72022714Y-47006571D01*
X72022714Y-47006571D02*
X71994142Y-46978000D01*
X71994142Y-46978000D02*
X71965571Y-46920857D01*
%TO.C,R4*%
X73200000Y-59977571D02*
X73000000Y-59691857D01*
X72857143Y-59977571D02*
X72857143Y-59377571D01*
X72857143Y-59377571D02*
X73085714Y-59377571D01*
X73085714Y-59377571D02*
X73142857Y-59406142D01*
X73142857Y-59406142D02*
X73171428Y-59434714D01*
X73171428Y-59434714D02*
X73200000Y-59491857D01*
X73200000Y-59491857D02*
X73200000Y-59577571D01*
X73200000Y-59577571D02*
X73171428Y-59634714D01*
X73171428Y-59634714D02*
X73142857Y-59663285D01*
X73142857Y-59663285D02*
X73085714Y-59691857D01*
X73085714Y-59691857D02*
X72857143Y-59691857D01*
X73714286Y-59577571D02*
X73714286Y-59977571D01*
X73571428Y-59349000D02*
X73428571Y-59777571D01*
X73428571Y-59777571D02*
X73800000Y-59777571D01*
D10*
%TO.C,C24*%
X99357142Y-66207380D02*
X99309523Y-66255000D01*
X99309523Y-66255000D02*
X99166666Y-66302619D01*
X99166666Y-66302619D02*
X99071428Y-66302619D01*
X99071428Y-66302619D02*
X98928571Y-66255000D01*
X98928571Y-66255000D02*
X98833333Y-66159761D01*
X98833333Y-66159761D02*
X98785714Y-66064523D01*
X98785714Y-66064523D02*
X98738095Y-65874047D01*
X98738095Y-65874047D02*
X98738095Y-65731190D01*
X98738095Y-65731190D02*
X98785714Y-65540714D01*
X98785714Y-65540714D02*
X98833333Y-65445476D01*
X98833333Y-65445476D02*
X98928571Y-65350238D01*
X98928571Y-65350238D02*
X99071428Y-65302619D01*
X99071428Y-65302619D02*
X99166666Y-65302619D01*
X99166666Y-65302619D02*
X99309523Y-65350238D01*
X99309523Y-65350238D02*
X99357142Y-65397857D01*
X99738095Y-65397857D02*
X99785714Y-65350238D01*
X99785714Y-65350238D02*
X99880952Y-65302619D01*
X99880952Y-65302619D02*
X100119047Y-65302619D01*
X100119047Y-65302619D02*
X100214285Y-65350238D01*
X100214285Y-65350238D02*
X100261904Y-65397857D01*
X100261904Y-65397857D02*
X100309523Y-65493095D01*
X100309523Y-65493095D02*
X100309523Y-65588333D01*
X100309523Y-65588333D02*
X100261904Y-65731190D01*
X100261904Y-65731190D02*
X99690476Y-66302619D01*
X99690476Y-66302619D02*
X100309523Y-66302619D01*
X101166666Y-65635952D02*
X101166666Y-66302619D01*
X100928571Y-65255000D02*
X100690476Y-65969285D01*
X100690476Y-65969285D02*
X101309523Y-65969285D01*
D13*
%TO.C,C2*%
X64600000Y-50440428D02*
X64571428Y-50469000D01*
X64571428Y-50469000D02*
X64485714Y-50497571D01*
X64485714Y-50497571D02*
X64428571Y-50497571D01*
X64428571Y-50497571D02*
X64342857Y-50469000D01*
X64342857Y-50469000D02*
X64285714Y-50411857D01*
X64285714Y-50411857D02*
X64257143Y-50354714D01*
X64257143Y-50354714D02*
X64228571Y-50240428D01*
X64228571Y-50240428D02*
X64228571Y-50154714D01*
X64228571Y-50154714D02*
X64257143Y-50040428D01*
X64257143Y-50040428D02*
X64285714Y-49983285D01*
X64285714Y-49983285D02*
X64342857Y-49926142D01*
X64342857Y-49926142D02*
X64428571Y-49897571D01*
X64428571Y-49897571D02*
X64485714Y-49897571D01*
X64485714Y-49897571D02*
X64571428Y-49926142D01*
X64571428Y-49926142D02*
X64600000Y-49954714D01*
X64828571Y-49954714D02*
X64857143Y-49926142D01*
X64857143Y-49926142D02*
X64914286Y-49897571D01*
X64914286Y-49897571D02*
X65057143Y-49897571D01*
X65057143Y-49897571D02*
X65114286Y-49926142D01*
X65114286Y-49926142D02*
X65142857Y-49954714D01*
X65142857Y-49954714D02*
X65171428Y-50011857D01*
X65171428Y-50011857D02*
X65171428Y-50069000D01*
X65171428Y-50069000D02*
X65142857Y-50154714D01*
X65142857Y-50154714D02*
X64800000Y-50497571D01*
X64800000Y-50497571D02*
X65171428Y-50497571D01*
%TO.C,R9*%
X90792500Y-77127571D02*
X90592500Y-76841857D01*
X90449643Y-77127571D02*
X90449643Y-76527571D01*
X90449643Y-76527571D02*
X90678214Y-76527571D01*
X90678214Y-76527571D02*
X90735357Y-76556142D01*
X90735357Y-76556142D02*
X90763928Y-76584714D01*
X90763928Y-76584714D02*
X90792500Y-76641857D01*
X90792500Y-76641857D02*
X90792500Y-76727571D01*
X90792500Y-76727571D02*
X90763928Y-76784714D01*
X90763928Y-76784714D02*
X90735357Y-76813285D01*
X90735357Y-76813285D02*
X90678214Y-76841857D01*
X90678214Y-76841857D02*
X90449643Y-76841857D01*
X91078214Y-77127571D02*
X91192500Y-77127571D01*
X91192500Y-77127571D02*
X91249643Y-77099000D01*
X91249643Y-77099000D02*
X91278214Y-77070428D01*
X91278214Y-77070428D02*
X91335357Y-76984714D01*
X91335357Y-76984714D02*
X91363928Y-76870428D01*
X91363928Y-76870428D02*
X91363928Y-76641857D01*
X91363928Y-76641857D02*
X91335357Y-76584714D01*
X91335357Y-76584714D02*
X91306786Y-76556142D01*
X91306786Y-76556142D02*
X91249643Y-76527571D01*
X91249643Y-76527571D02*
X91135357Y-76527571D01*
X91135357Y-76527571D02*
X91078214Y-76556142D01*
X91078214Y-76556142D02*
X91049643Y-76584714D01*
X91049643Y-76584714D02*
X91021071Y-76641857D01*
X91021071Y-76641857D02*
X91021071Y-76784714D01*
X91021071Y-76784714D02*
X91049643Y-76841857D01*
X91049643Y-76841857D02*
X91078214Y-76870428D01*
X91078214Y-76870428D02*
X91135357Y-76899000D01*
X91135357Y-76899000D02*
X91249643Y-76899000D01*
X91249643Y-76899000D02*
X91306786Y-76870428D01*
X91306786Y-76870428D02*
X91335357Y-76841857D01*
X91335357Y-76841857D02*
X91363928Y-76784714D01*
%TO.C,C8*%
X68887499Y-47028628D02*
X68858927Y-47057200D01*
X68858927Y-47057200D02*
X68773213Y-47085771D01*
X68773213Y-47085771D02*
X68716070Y-47085771D01*
X68716070Y-47085771D02*
X68630356Y-47057200D01*
X68630356Y-47057200D02*
X68573213Y-47000057D01*
X68573213Y-47000057D02*
X68544642Y-46942914D01*
X68544642Y-46942914D02*
X68516070Y-46828628D01*
X68516070Y-46828628D02*
X68516070Y-46742914D01*
X68516070Y-46742914D02*
X68544642Y-46628628D01*
X68544642Y-46628628D02*
X68573213Y-46571485D01*
X68573213Y-46571485D02*
X68630356Y-46514342D01*
X68630356Y-46514342D02*
X68716070Y-46485771D01*
X68716070Y-46485771D02*
X68773213Y-46485771D01*
X68773213Y-46485771D02*
X68858927Y-46514342D01*
X68858927Y-46514342D02*
X68887499Y-46542914D01*
X69230356Y-46742914D02*
X69173213Y-46714342D01*
X69173213Y-46714342D02*
X69144642Y-46685771D01*
X69144642Y-46685771D02*
X69116070Y-46628628D01*
X69116070Y-46628628D02*
X69116070Y-46600057D01*
X69116070Y-46600057D02*
X69144642Y-46542914D01*
X69144642Y-46542914D02*
X69173213Y-46514342D01*
X69173213Y-46514342D02*
X69230356Y-46485771D01*
X69230356Y-46485771D02*
X69344642Y-46485771D01*
X69344642Y-46485771D02*
X69401785Y-46514342D01*
X69401785Y-46514342D02*
X69430356Y-46542914D01*
X69430356Y-46542914D02*
X69458927Y-46600057D01*
X69458927Y-46600057D02*
X69458927Y-46628628D01*
X69458927Y-46628628D02*
X69430356Y-46685771D01*
X69430356Y-46685771D02*
X69401785Y-46714342D01*
X69401785Y-46714342D02*
X69344642Y-46742914D01*
X69344642Y-46742914D02*
X69230356Y-46742914D01*
X69230356Y-46742914D02*
X69173213Y-46771485D01*
X69173213Y-46771485D02*
X69144642Y-46800057D01*
X69144642Y-46800057D02*
X69116070Y-46857200D01*
X69116070Y-46857200D02*
X69116070Y-46971485D01*
X69116070Y-46971485D02*
X69144642Y-47028628D01*
X69144642Y-47028628D02*
X69173213Y-47057200D01*
X69173213Y-47057200D02*
X69230356Y-47085771D01*
X69230356Y-47085771D02*
X69344642Y-47085771D01*
X69344642Y-47085771D02*
X69401785Y-47057200D01*
X69401785Y-47057200D02*
X69430356Y-47028628D01*
X69430356Y-47028628D02*
X69458927Y-46971485D01*
X69458927Y-46971485D02*
X69458927Y-46857200D01*
X69458927Y-46857200D02*
X69430356Y-46800057D01*
X69430356Y-46800057D02*
X69401785Y-46771485D01*
X69401785Y-46771485D02*
X69344642Y-46742914D01*
%TO.C,C14*%
X64014285Y-52320428D02*
X63985713Y-52349000D01*
X63985713Y-52349000D02*
X63899999Y-52377571D01*
X63899999Y-52377571D02*
X63842856Y-52377571D01*
X63842856Y-52377571D02*
X63757142Y-52349000D01*
X63757142Y-52349000D02*
X63699999Y-52291857D01*
X63699999Y-52291857D02*
X63671428Y-52234714D01*
X63671428Y-52234714D02*
X63642856Y-52120428D01*
X63642856Y-52120428D02*
X63642856Y-52034714D01*
X63642856Y-52034714D02*
X63671428Y-51920428D01*
X63671428Y-51920428D02*
X63699999Y-51863285D01*
X63699999Y-51863285D02*
X63757142Y-51806142D01*
X63757142Y-51806142D02*
X63842856Y-51777571D01*
X63842856Y-51777571D02*
X63899999Y-51777571D01*
X63899999Y-51777571D02*
X63985713Y-51806142D01*
X63985713Y-51806142D02*
X64014285Y-51834714D01*
X64585713Y-52377571D02*
X64242856Y-52377571D01*
X64414285Y-52377571D02*
X64414285Y-51777571D01*
X64414285Y-51777571D02*
X64357142Y-51863285D01*
X64357142Y-51863285D02*
X64299999Y-51920428D01*
X64299999Y-51920428D02*
X64242856Y-51949000D01*
X65100000Y-51977571D02*
X65100000Y-52377571D01*
X64957142Y-51749000D02*
X64814285Y-52177571D01*
X64814285Y-52177571D02*
X65185714Y-52177571D01*
%TO.C,D1*%
X82954643Y-78177571D02*
X82954643Y-77577571D01*
X82954643Y-77577571D02*
X83097500Y-77577571D01*
X83097500Y-77577571D02*
X83183214Y-77606142D01*
X83183214Y-77606142D02*
X83240357Y-77663285D01*
X83240357Y-77663285D02*
X83268928Y-77720428D01*
X83268928Y-77720428D02*
X83297500Y-77834714D01*
X83297500Y-77834714D02*
X83297500Y-77920428D01*
X83297500Y-77920428D02*
X83268928Y-78034714D01*
X83268928Y-78034714D02*
X83240357Y-78091857D01*
X83240357Y-78091857D02*
X83183214Y-78149000D01*
X83183214Y-78149000D02*
X83097500Y-78177571D01*
X83097500Y-78177571D02*
X82954643Y-78177571D01*
X83868928Y-78177571D02*
X83526071Y-78177571D01*
X83697500Y-78177571D02*
X83697500Y-77577571D01*
X83697500Y-77577571D02*
X83640357Y-77663285D01*
X83640357Y-77663285D02*
X83583214Y-77720428D01*
X83583214Y-77720428D02*
X83526071Y-77749000D01*
%TO.C,C9*%
X74500000Y-55820428D02*
X74471428Y-55849000D01*
X74471428Y-55849000D02*
X74385714Y-55877571D01*
X74385714Y-55877571D02*
X74328571Y-55877571D01*
X74328571Y-55877571D02*
X74242857Y-55849000D01*
X74242857Y-55849000D02*
X74185714Y-55791857D01*
X74185714Y-55791857D02*
X74157143Y-55734714D01*
X74157143Y-55734714D02*
X74128571Y-55620428D01*
X74128571Y-55620428D02*
X74128571Y-55534714D01*
X74128571Y-55534714D02*
X74157143Y-55420428D01*
X74157143Y-55420428D02*
X74185714Y-55363285D01*
X74185714Y-55363285D02*
X74242857Y-55306142D01*
X74242857Y-55306142D02*
X74328571Y-55277571D01*
X74328571Y-55277571D02*
X74385714Y-55277571D01*
X74385714Y-55277571D02*
X74471428Y-55306142D01*
X74471428Y-55306142D02*
X74500000Y-55334714D01*
X74785714Y-55877571D02*
X74900000Y-55877571D01*
X74900000Y-55877571D02*
X74957143Y-55849000D01*
X74957143Y-55849000D02*
X74985714Y-55820428D01*
X74985714Y-55820428D02*
X75042857Y-55734714D01*
X75042857Y-55734714D02*
X75071428Y-55620428D01*
X75071428Y-55620428D02*
X75071428Y-55391857D01*
X75071428Y-55391857D02*
X75042857Y-55334714D01*
X75042857Y-55334714D02*
X75014286Y-55306142D01*
X75014286Y-55306142D02*
X74957143Y-55277571D01*
X74957143Y-55277571D02*
X74842857Y-55277571D01*
X74842857Y-55277571D02*
X74785714Y-55306142D01*
X74785714Y-55306142D02*
X74757143Y-55334714D01*
X74757143Y-55334714D02*
X74728571Y-55391857D01*
X74728571Y-55391857D02*
X74728571Y-55534714D01*
X74728571Y-55534714D02*
X74757143Y-55591857D01*
X74757143Y-55591857D02*
X74785714Y-55620428D01*
X74785714Y-55620428D02*
X74842857Y-55649000D01*
X74842857Y-55649000D02*
X74957143Y-55649000D01*
X74957143Y-55649000D02*
X75014286Y-55620428D01*
X75014286Y-55620428D02*
X75042857Y-55591857D01*
X75042857Y-55591857D02*
X75071428Y-55534714D01*
%TO.C,D2*%
X85954643Y-78177571D02*
X85954643Y-77577571D01*
X85954643Y-77577571D02*
X86097500Y-77577571D01*
X86097500Y-77577571D02*
X86183214Y-77606142D01*
X86183214Y-77606142D02*
X86240357Y-77663285D01*
X86240357Y-77663285D02*
X86268928Y-77720428D01*
X86268928Y-77720428D02*
X86297500Y-77834714D01*
X86297500Y-77834714D02*
X86297500Y-77920428D01*
X86297500Y-77920428D02*
X86268928Y-78034714D01*
X86268928Y-78034714D02*
X86240357Y-78091857D01*
X86240357Y-78091857D02*
X86183214Y-78149000D01*
X86183214Y-78149000D02*
X86097500Y-78177571D01*
X86097500Y-78177571D02*
X85954643Y-78177571D01*
X86526071Y-77634714D02*
X86554643Y-77606142D01*
X86554643Y-77606142D02*
X86611786Y-77577571D01*
X86611786Y-77577571D02*
X86754643Y-77577571D01*
X86754643Y-77577571D02*
X86811786Y-77606142D01*
X86811786Y-77606142D02*
X86840357Y-77634714D01*
X86840357Y-77634714D02*
X86868928Y-77691857D01*
X86868928Y-77691857D02*
X86868928Y-77749000D01*
X86868928Y-77749000D02*
X86840357Y-77834714D01*
X86840357Y-77834714D02*
X86497500Y-78177571D01*
X86497500Y-78177571D02*
X86868928Y-78177571D01*
%TO.C,U1*%
X75242857Y-52277571D02*
X75242857Y-52763285D01*
X75242857Y-52763285D02*
X75271428Y-52820428D01*
X75271428Y-52820428D02*
X75300000Y-52849000D01*
X75300000Y-52849000D02*
X75357142Y-52877571D01*
X75357142Y-52877571D02*
X75471428Y-52877571D01*
X75471428Y-52877571D02*
X75528571Y-52849000D01*
X75528571Y-52849000D02*
X75557142Y-52820428D01*
X75557142Y-52820428D02*
X75585714Y-52763285D01*
X75585714Y-52763285D02*
X75585714Y-52277571D01*
X76185713Y-52877571D02*
X75842856Y-52877571D01*
X76014285Y-52877571D02*
X76014285Y-52277571D01*
X76014285Y-52277571D02*
X75957142Y-52363285D01*
X75957142Y-52363285D02*
X75899999Y-52420428D01*
X75899999Y-52420428D02*
X75842856Y-52449000D01*
D10*
%TO.C,J1*%
X67166666Y-37562619D02*
X67166666Y-38276904D01*
X67166666Y-38276904D02*
X67119047Y-38419761D01*
X67119047Y-38419761D02*
X67023809Y-38515000D01*
X67023809Y-38515000D02*
X66880952Y-38562619D01*
X66880952Y-38562619D02*
X66785714Y-38562619D01*
X68166666Y-38562619D02*
X67595238Y-38562619D01*
X67880952Y-38562619D02*
X67880952Y-37562619D01*
X67880952Y-37562619D02*
X67785714Y-37705476D01*
X67785714Y-37705476D02*
X67690476Y-37800714D01*
X67690476Y-37800714D02*
X67595238Y-37848333D01*
%TO.C,U5*%
X93838095Y-50362619D02*
X93838095Y-51172142D01*
X93838095Y-51172142D02*
X93885714Y-51267380D01*
X93885714Y-51267380D02*
X93933333Y-51315000D01*
X93933333Y-51315000D02*
X94028571Y-51362619D01*
X94028571Y-51362619D02*
X94219047Y-51362619D01*
X94219047Y-51362619D02*
X94314285Y-51315000D01*
X94314285Y-51315000D02*
X94361904Y-51267380D01*
X94361904Y-51267380D02*
X94409523Y-51172142D01*
X94409523Y-51172142D02*
X94409523Y-50362619D01*
X95361904Y-50362619D02*
X94885714Y-50362619D01*
X94885714Y-50362619D02*
X94838095Y-50838809D01*
X94838095Y-50838809D02*
X94885714Y-50791190D01*
X94885714Y-50791190D02*
X94980952Y-50743571D01*
X94980952Y-50743571D02*
X95219047Y-50743571D01*
X95219047Y-50743571D02*
X95314285Y-50791190D01*
X95314285Y-50791190D02*
X95361904Y-50838809D01*
X95361904Y-50838809D02*
X95409523Y-50934047D01*
X95409523Y-50934047D02*
X95409523Y-51172142D01*
X95409523Y-51172142D02*
X95361904Y-51267380D01*
X95361904Y-51267380D02*
X95314285Y-51315000D01*
X95314285Y-51315000D02*
X95219047Y-51362619D01*
X95219047Y-51362619D02*
X94980952Y-51362619D01*
X94980952Y-51362619D02*
X94885714Y-51315000D01*
X94885714Y-51315000D02*
X94838095Y-51267380D01*
D13*
%TO.C,C4*%
X71360000Y-54950428D02*
X71331428Y-54979000D01*
X71331428Y-54979000D02*
X71245714Y-55007571D01*
X71245714Y-55007571D02*
X71188571Y-55007571D01*
X71188571Y-55007571D02*
X71102857Y-54979000D01*
X71102857Y-54979000D02*
X71045714Y-54921857D01*
X71045714Y-54921857D02*
X71017143Y-54864714D01*
X71017143Y-54864714D02*
X70988571Y-54750428D01*
X70988571Y-54750428D02*
X70988571Y-54664714D01*
X70988571Y-54664714D02*
X71017143Y-54550428D01*
X71017143Y-54550428D02*
X71045714Y-54493285D01*
X71045714Y-54493285D02*
X71102857Y-54436142D01*
X71102857Y-54436142D02*
X71188571Y-54407571D01*
X71188571Y-54407571D02*
X71245714Y-54407571D01*
X71245714Y-54407571D02*
X71331428Y-54436142D01*
X71331428Y-54436142D02*
X71360000Y-54464714D01*
X71874286Y-54607571D02*
X71874286Y-55007571D01*
X71731428Y-54379000D02*
X71588571Y-54807571D01*
X71588571Y-54807571D02*
X71960000Y-54807571D01*
%TO.C,C12*%
X68414285Y-52920428D02*
X68385713Y-52949000D01*
X68385713Y-52949000D02*
X68299999Y-52977571D01*
X68299999Y-52977571D02*
X68242856Y-52977571D01*
X68242856Y-52977571D02*
X68157142Y-52949000D01*
X68157142Y-52949000D02*
X68099999Y-52891857D01*
X68099999Y-52891857D02*
X68071428Y-52834714D01*
X68071428Y-52834714D02*
X68042856Y-52720428D01*
X68042856Y-52720428D02*
X68042856Y-52634714D01*
X68042856Y-52634714D02*
X68071428Y-52520428D01*
X68071428Y-52520428D02*
X68099999Y-52463285D01*
X68099999Y-52463285D02*
X68157142Y-52406142D01*
X68157142Y-52406142D02*
X68242856Y-52377571D01*
X68242856Y-52377571D02*
X68299999Y-52377571D01*
X68299999Y-52377571D02*
X68385713Y-52406142D01*
X68385713Y-52406142D02*
X68414285Y-52434714D01*
X68985713Y-52977571D02*
X68642856Y-52977571D01*
X68814285Y-52977571D02*
X68814285Y-52377571D01*
X68814285Y-52377571D02*
X68757142Y-52463285D01*
X68757142Y-52463285D02*
X68699999Y-52520428D01*
X68699999Y-52520428D02*
X68642856Y-52549000D01*
X69214285Y-52434714D02*
X69242857Y-52406142D01*
X69242857Y-52406142D02*
X69300000Y-52377571D01*
X69300000Y-52377571D02*
X69442857Y-52377571D01*
X69442857Y-52377571D02*
X69500000Y-52406142D01*
X69500000Y-52406142D02*
X69528571Y-52434714D01*
X69528571Y-52434714D02*
X69557142Y-52491857D01*
X69557142Y-52491857D02*
X69557142Y-52549000D01*
X69557142Y-52549000D02*
X69528571Y-52634714D01*
X69528571Y-52634714D02*
X69185714Y-52977571D01*
X69185714Y-52977571D02*
X69557142Y-52977571D01*
%TO.C,J3*%
X100001999Y-41256571D02*
X100001999Y-41685142D01*
X100001999Y-41685142D02*
X99973428Y-41770857D01*
X99973428Y-41770857D02*
X99916285Y-41828000D01*
X99916285Y-41828000D02*
X99830571Y-41856571D01*
X99830571Y-41856571D02*
X99773428Y-41856571D01*
X100230571Y-41256571D02*
X100601999Y-41256571D01*
X100601999Y-41256571D02*
X100401999Y-41485142D01*
X100401999Y-41485142D02*
X100487714Y-41485142D01*
X100487714Y-41485142D02*
X100544857Y-41513714D01*
X100544857Y-41513714D02*
X100573428Y-41542285D01*
X100573428Y-41542285D02*
X100601999Y-41599428D01*
X100601999Y-41599428D02*
X100601999Y-41742285D01*
X100601999Y-41742285D02*
X100573428Y-41799428D01*
X100573428Y-41799428D02*
X100544857Y-41828000D01*
X100544857Y-41828000D02*
X100487714Y-41856571D01*
X100487714Y-41856571D02*
X100316285Y-41856571D01*
X100316285Y-41856571D02*
X100259142Y-41828000D01*
X100259142Y-41828000D02*
X100230571Y-41799428D01*
%TO.C,C13*%
X66314285Y-52920428D02*
X66285713Y-52949000D01*
X66285713Y-52949000D02*
X66199999Y-52977571D01*
X66199999Y-52977571D02*
X66142856Y-52977571D01*
X66142856Y-52977571D02*
X66057142Y-52949000D01*
X66057142Y-52949000D02*
X65999999Y-52891857D01*
X65999999Y-52891857D02*
X65971428Y-52834714D01*
X65971428Y-52834714D02*
X65942856Y-52720428D01*
X65942856Y-52720428D02*
X65942856Y-52634714D01*
X65942856Y-52634714D02*
X65971428Y-52520428D01*
X65971428Y-52520428D02*
X65999999Y-52463285D01*
X65999999Y-52463285D02*
X66057142Y-52406142D01*
X66057142Y-52406142D02*
X66142856Y-52377571D01*
X66142856Y-52377571D02*
X66199999Y-52377571D01*
X66199999Y-52377571D02*
X66285713Y-52406142D01*
X66285713Y-52406142D02*
X66314285Y-52434714D01*
X66885713Y-52977571D02*
X66542856Y-52977571D01*
X66714285Y-52977571D02*
X66714285Y-52377571D01*
X66714285Y-52377571D02*
X66657142Y-52463285D01*
X66657142Y-52463285D02*
X66599999Y-52520428D01*
X66599999Y-52520428D02*
X66542856Y-52549000D01*
X67085714Y-52377571D02*
X67457142Y-52377571D01*
X67457142Y-52377571D02*
X67257142Y-52606142D01*
X67257142Y-52606142D02*
X67342857Y-52606142D01*
X67342857Y-52606142D02*
X67400000Y-52634714D01*
X67400000Y-52634714D02*
X67428571Y-52663285D01*
X67428571Y-52663285D02*
X67457142Y-52720428D01*
X67457142Y-52720428D02*
X67457142Y-52863285D01*
X67457142Y-52863285D02*
X67428571Y-52920428D01*
X67428571Y-52920428D02*
X67400000Y-52949000D01*
X67400000Y-52949000D02*
X67342857Y-52977571D01*
X67342857Y-52977571D02*
X67171428Y-52977571D01*
X67171428Y-52977571D02*
X67114285Y-52949000D01*
X67114285Y-52949000D02*
X67085714Y-52920428D01*
%TO.C,R7*%
X74300000Y-57877571D02*
X74100000Y-57591857D01*
X73957143Y-57877571D02*
X73957143Y-57277571D01*
X73957143Y-57277571D02*
X74185714Y-57277571D01*
X74185714Y-57277571D02*
X74242857Y-57306142D01*
X74242857Y-57306142D02*
X74271428Y-57334714D01*
X74271428Y-57334714D02*
X74300000Y-57391857D01*
X74300000Y-57391857D02*
X74300000Y-57477571D01*
X74300000Y-57477571D02*
X74271428Y-57534714D01*
X74271428Y-57534714D02*
X74242857Y-57563285D01*
X74242857Y-57563285D02*
X74185714Y-57591857D01*
X74185714Y-57591857D02*
X73957143Y-57591857D01*
X74500000Y-57277571D02*
X74900000Y-57277571D01*
X74900000Y-57277571D02*
X74642857Y-57877571D01*
%TO.C,U4*%
X91542857Y-69477571D02*
X91542857Y-69963285D01*
X91542857Y-69963285D02*
X91571428Y-70020428D01*
X91571428Y-70020428D02*
X91600000Y-70049000D01*
X91600000Y-70049000D02*
X91657142Y-70077571D01*
X91657142Y-70077571D02*
X91771428Y-70077571D01*
X91771428Y-70077571D02*
X91828571Y-70049000D01*
X91828571Y-70049000D02*
X91857142Y-70020428D01*
X91857142Y-70020428D02*
X91885714Y-69963285D01*
X91885714Y-69963285D02*
X91885714Y-69477571D01*
X92428571Y-69677571D02*
X92428571Y-70077571D01*
X92285713Y-69449000D02*
X92142856Y-69877571D01*
X92142856Y-69877571D02*
X92514285Y-69877571D01*
D10*
%TO.C,C22*%
X97757142Y-50067380D02*
X97709523Y-50115000D01*
X97709523Y-50115000D02*
X97566666Y-50162619D01*
X97566666Y-50162619D02*
X97471428Y-50162619D01*
X97471428Y-50162619D02*
X97328571Y-50115000D01*
X97328571Y-50115000D02*
X97233333Y-50019761D01*
X97233333Y-50019761D02*
X97185714Y-49924523D01*
X97185714Y-49924523D02*
X97138095Y-49734047D01*
X97138095Y-49734047D02*
X97138095Y-49591190D01*
X97138095Y-49591190D02*
X97185714Y-49400714D01*
X97185714Y-49400714D02*
X97233333Y-49305476D01*
X97233333Y-49305476D02*
X97328571Y-49210238D01*
X97328571Y-49210238D02*
X97471428Y-49162619D01*
X97471428Y-49162619D02*
X97566666Y-49162619D01*
X97566666Y-49162619D02*
X97709523Y-49210238D01*
X97709523Y-49210238D02*
X97757142Y-49257857D01*
X98138095Y-49257857D02*
X98185714Y-49210238D01*
X98185714Y-49210238D02*
X98280952Y-49162619D01*
X98280952Y-49162619D02*
X98519047Y-49162619D01*
X98519047Y-49162619D02*
X98614285Y-49210238D01*
X98614285Y-49210238D02*
X98661904Y-49257857D01*
X98661904Y-49257857D02*
X98709523Y-49353095D01*
X98709523Y-49353095D02*
X98709523Y-49448333D01*
X98709523Y-49448333D02*
X98661904Y-49591190D01*
X98661904Y-49591190D02*
X98090476Y-50162619D01*
X98090476Y-50162619D02*
X98709523Y-50162619D01*
X99090476Y-49257857D02*
X99138095Y-49210238D01*
X99138095Y-49210238D02*
X99233333Y-49162619D01*
X99233333Y-49162619D02*
X99471428Y-49162619D01*
X99471428Y-49162619D02*
X99566666Y-49210238D01*
X99566666Y-49210238D02*
X99614285Y-49257857D01*
X99614285Y-49257857D02*
X99661904Y-49353095D01*
X99661904Y-49353095D02*
X99661904Y-49448333D01*
X99661904Y-49448333D02*
X99614285Y-49591190D01*
X99614285Y-49591190D02*
X99042857Y-50162619D01*
X99042857Y-50162619D02*
X99661904Y-50162619D01*
D14*
%TO.C,R3*%
X87663859Y-77420000D02*
X87971141Y-77420000D01*
X87663859Y-78180000D02*
X87971141Y-78180000D01*
%TO.C,R6*%
X77580000Y-57456359D02*
X77580000Y-57763641D01*
X76820000Y-57456359D02*
X76820000Y-57763641D01*
%TO.C,C11*%
X67867836Y-53860000D02*
X67652164Y-53860000D01*
X67867836Y-53140000D02*
X67652164Y-53140000D01*
%TO.C,D5*%
X79742500Y-78375000D02*
X79742500Y-79845000D01*
X79742500Y-79845000D02*
X82027500Y-79845000D01*
X82027500Y-78375000D02*
X79742500Y-78375000D01*
%TO.C,C1*%
X65017499Y-48226036D02*
X65017499Y-48010364D01*
X65737499Y-48226036D02*
X65737499Y-48010364D01*
%TO.C,X1*%
X67120342Y-48907900D02*
X67279658Y-48907900D01*
X67279658Y-46952100D02*
X67120342Y-46952100D01*
%TO.C,C21*%
X95688748Y-46565000D02*
X96211252Y-46565000D01*
X95688748Y-48035000D02*
X96211252Y-48035000D01*
%TO.C,C23*%
X93240000Y-49507836D02*
X93240000Y-49292164D01*
X93960000Y-49507836D02*
X93960000Y-49292164D01*
%TO.C,C19*%
X92240000Y-72087836D02*
X92240000Y-71872164D01*
X92960000Y-72087836D02*
X92960000Y-71872164D01*
%TO.C,C3*%
X62440580Y-58640000D02*
X62159420Y-58640000D01*
X62440580Y-57620000D02*
X62159420Y-57620000D01*
%TO.C,C20*%
X87160000Y-72792164D02*
X87160000Y-73007836D01*
X86440000Y-72792164D02*
X86440000Y-73007836D01*
%TO.C,C6*%
X67867836Y-54830000D02*
X67652164Y-54830000D01*
X67867836Y-54110000D02*
X67652164Y-54110000D01*
%TO.C,C7*%
X68094000Y-50122164D02*
X68094000Y-50337836D01*
X67374000Y-50122164D02*
X67374000Y-50337836D01*
%TO.C,R2*%
X84753859Y-77420000D02*
X85061141Y-77420000D01*
X84753859Y-78180000D02*
X85061141Y-78180000D01*
%TO.C,R1*%
X74013641Y-48334000D02*
X73706359Y-48334000D01*
X74013641Y-47574000D02*
X73706359Y-47574000D01*
%TO.C,C5*%
X67094000Y-50112164D02*
X67094000Y-50327836D01*
X66374000Y-50112164D02*
X66374000Y-50327836D01*
%TO.C,R5*%
X79380000Y-57456359D02*
X79380000Y-57763641D01*
X78620000Y-57456359D02*
X78620000Y-57763641D01*
D12*
%TO.C,USB1*%
X98350000Y-72900000D02*
X98350000Y-76189000D01*
X98350000Y-80100000D02*
X111450000Y-80100000D01*
X111450000Y-72900000D02*
X111450000Y-76189000D01*
X101339770Y-67595000D02*
G75*
G03*
X101339770Y-67595000I-36770J0D01*
G01*
D14*
%TO.C,R10*%
X81328859Y-77420000D02*
X81636141Y-77420000D01*
X81328859Y-78180000D02*
X81636141Y-78180000D01*
%TO.C,D4*%
X89125000Y-78365000D02*
X89125000Y-79835000D01*
X89125000Y-79835000D02*
X91410000Y-79835000D01*
X91410000Y-78365000D02*
X89125000Y-78365000D01*
%TO.C,C10*%
X71720000Y-47192164D02*
X71720000Y-47407836D01*
X71000000Y-47192164D02*
X71000000Y-47407836D01*
%TO.C,R4*%
X73056359Y-58420000D02*
X73363641Y-58420000D01*
X73056359Y-59180000D02*
X73363641Y-59180000D01*
%TO.C,C24*%
X99892164Y-66640000D02*
X100107836Y-66640000D01*
X99892164Y-67360000D02*
X100107836Y-67360000D01*
%TO.C,C2*%
X66094000Y-50112164D02*
X66094000Y-50327836D01*
X65374000Y-50112164D02*
X65374000Y-50327836D01*
%TO.C,R9*%
X90843859Y-77370000D02*
X91151141Y-77370000D01*
X90843859Y-78130000D02*
X91151141Y-78130000D01*
%TO.C,C8*%
X69377499Y-48010364D02*
X69377499Y-48226036D01*
X68657499Y-48010364D02*
X68657499Y-48226036D01*
%TO.C,C14*%
X65374000Y-52187836D02*
X65374000Y-51972164D01*
X66094000Y-52187836D02*
X66094000Y-51972164D01*
%TO.C,D1*%
X82875000Y-78365000D02*
X82875000Y-79835000D01*
X82875000Y-79835000D02*
X85160000Y-79835000D01*
X85160000Y-78365000D02*
X82875000Y-78365000D01*
%TO.C,C9*%
X74817836Y-55060000D02*
X74602164Y-55060000D01*
X74817836Y-54340000D02*
X74602164Y-54340000D01*
%TO.C,D2*%
X86025000Y-78365000D02*
X86025000Y-79835000D01*
X86025000Y-79835000D02*
X88310000Y-79835000D01*
X88310000Y-78365000D02*
X86025000Y-78365000D01*
%TO.C,U1*%
X75016000Y-53994000D02*
X75016000Y-53544000D01*
X75016000Y-48694000D02*
X75016000Y-49144000D01*
X74566000Y-53994000D02*
X75016000Y-53994000D01*
X74566000Y-48694000D02*
X75016000Y-48694000D01*
X70166000Y-53994000D02*
X69716000Y-53994000D01*
X70166000Y-48694000D02*
X69716000Y-48694000D01*
X69716000Y-53994000D02*
X69716000Y-53544000D01*
X69716000Y-48694000D02*
X69716000Y-49144000D01*
D13*
%TO.C,MP3*%
X79200000Y-53080000D02*
X79200000Y-55780000D01*
X77600000Y-53080000D02*
X79200000Y-53080000D01*
X79200000Y-55780000D02*
X77600000Y-55780000D01*
X77600000Y-55780000D02*
X77600000Y-53080000D01*
%TO.C,MP2*%
X62600000Y-49580000D02*
X62600000Y-46880000D01*
X64200000Y-49580000D02*
X62600000Y-49580000D01*
X62600000Y-46880000D02*
X64200000Y-46880000D01*
X64200000Y-46880000D02*
X64200000Y-49580000D01*
D15*
%TO.C,U5*%
X94300000Y-50000000D02*
X94530000Y-50000000D01*
X94300000Y-50000000D02*
X94300000Y-49770000D01*
X95700000Y-50000000D02*
X95470000Y-50000000D01*
X95700000Y-50000000D02*
X95700000Y-49770000D01*
X94300000Y-48600000D02*
X94300000Y-48830000D01*
X94300000Y-48600000D02*
X94530000Y-48600000D01*
X95700000Y-48600000D02*
X95700000Y-48830000D01*
X95700000Y-48600000D02*
X95470000Y-48600000D01*
D13*
X95450000Y-50140000D02*
G75*
G03*
X95450000Y-50140000I-50000J0D01*
G01*
%TO.C,MP4*%
X66650000Y-57130000D02*
X63950000Y-57130000D01*
X66650000Y-55530000D02*
X66650000Y-57130000D01*
X63950000Y-57130000D02*
X63950000Y-55530000D01*
X63950000Y-55530000D02*
X66650000Y-55530000D01*
D14*
%TO.C,C4*%
X69792164Y-54340000D02*
X70007836Y-54340000D01*
X69792164Y-55060000D02*
X70007836Y-55060000D01*
%TO.C,C12*%
X67374000Y-52187836D02*
X67374000Y-51972164D01*
X68094000Y-52187836D02*
X68094000Y-51972164D01*
%TO.C,J3*%
X109870000Y-44870000D02*
X109870000Y-42800000D01*
X109870000Y-44870000D02*
X109000000Y-44870000D01*
X109870000Y-40400000D02*
X109870000Y-40150000D01*
X105000000Y-45400000D02*
X104400000Y-45400000D01*
X104700000Y-45100000D02*
X105000000Y-45400000D01*
X104700000Y-45100000D02*
X104400000Y-45400000D01*
X103000000Y-44870000D02*
X102130000Y-44870000D01*
X102130000Y-44870000D02*
X102130000Y-42800000D01*
X102130000Y-40400000D02*
X102130000Y-40150000D01*
%TO.C,C13*%
X66374000Y-52187836D02*
X66374000Y-51972164D01*
X67094000Y-52187836D02*
X67094000Y-51972164D01*
D13*
%TO.C,MP1*%
X77850000Y-47130000D02*
X75150000Y-47130000D01*
X77850000Y-45530000D02*
X77850000Y-47130000D01*
X75150000Y-47130000D02*
X75150000Y-45530000D01*
X75150000Y-45530000D02*
X77850000Y-45530000D01*
D14*
%TO.C,R7*%
X75880000Y-57456359D02*
X75880000Y-57763641D01*
X75120000Y-57456359D02*
X75120000Y-57763641D01*
D13*
%TO.C,U4*%
X91100000Y-69750000D02*
X91100000Y-70085000D01*
X90100000Y-69750000D02*
X91100000Y-69750000D01*
X89100000Y-69750000D02*
X89100000Y-69750000D01*
X88100000Y-69750000D02*
X89100000Y-69750000D01*
X88100000Y-70085000D02*
X88100000Y-69750000D01*
X91800000Y-70500000D02*
X91800000Y-70500000D01*
X91700000Y-70500000D02*
X91700000Y-70500000D01*
X91100000Y-73915000D02*
X91100000Y-74250000D01*
X88100000Y-74000000D02*
X88100000Y-74250000D01*
X91100000Y-74250000D02*
X90100000Y-74250000D01*
X88100000Y-74250000D02*
X89100000Y-74250000D01*
X91700000Y-70500000D02*
G75*
G03*
X91800000Y-70500000I50000J0D01*
G01*
X91800000Y-70500000D02*
G75*
G03*
X91700000Y-70500000I-50000J0D01*
G01*
D14*
%TO.C,C22*%
X96760000Y-49592164D02*
X96760000Y-49807836D01*
X96040000Y-49592164D02*
X96040000Y-49807836D01*
%TD*%
%LPC*%
D16*
%TO.C,R3*%
X87307500Y-77800000D03*
X88327500Y-77800000D03*
%TD*%
D17*
%TO.C,R6*%
X77200000Y-57100000D03*
X77200000Y-58120000D03*
%TD*%
D18*
%TO.C,C11*%
X68240000Y-53500000D03*
X67280000Y-53500000D03*
%TD*%
D19*
%TO.C,D5*%
X80440000Y-79110000D03*
X82015000Y-79110000D03*
%TD*%
D20*
%TO.C,H2*%
X111500000Y-52000000D03*
%TD*%
D21*
%TO.C,C1*%
X65377499Y-48598200D03*
X65377499Y-47638200D03*
%TD*%
D22*
%TO.C,X1*%
X66562501Y-48361800D03*
X67837499Y-48361800D03*
X67837499Y-47498200D03*
X66562501Y-47498200D03*
%TD*%
D23*
%TO.C,C21*%
X95000000Y-47300000D03*
X96900000Y-47300000D03*
%TD*%
D21*
%TO.C,C23*%
X93600000Y-49880000D03*
X93600000Y-48920000D03*
%TD*%
D24*
%TO.C,FB1*%
X67315000Y-55500000D03*
X68285000Y-55500000D03*
%TD*%
D21*
%TO.C,C19*%
X92600000Y-72460000D03*
X92600000Y-71500000D03*
%TD*%
D25*
%TO.C,C3*%
X63075000Y-58130000D03*
X61525000Y-58130000D03*
%TD*%
D26*
%TO.C,C20*%
X86800000Y-72420000D03*
X86800000Y-73380000D03*
%TD*%
D18*
%TO.C,C6*%
X68240000Y-54470000D03*
X67280000Y-54470000D03*
%TD*%
D26*
%TO.C,C7*%
X67734000Y-49750000D03*
X67734000Y-50710000D03*
%TD*%
D16*
%TO.C,R2*%
X84397500Y-77800000D03*
X85417500Y-77800000D03*
%TD*%
D27*
%TO.C,R1*%
X74370000Y-47954000D03*
X73350000Y-47954000D03*
%TD*%
D26*
%TO.C,C5*%
X66734000Y-49740000D03*
X66734000Y-50700000D03*
%TD*%
D17*
%TO.C,R5*%
X79000000Y-57100000D03*
X79000000Y-58120000D03*
%TD*%
D20*
%TO.C,H4*%
X63500000Y-76500000D03*
%TD*%
D28*
%TO.C,USB1*%
X102450000Y-72200000D03*
X107350000Y-72200000D03*
D29*
X101400000Y-69400000D03*
X103900000Y-69400000D03*
X105900000Y-69400000D03*
X108400000Y-69400000D03*
D30*
X112525000Y-71500000D03*
X112525000Y-77600000D03*
X97275000Y-77600000D03*
X97275000Y-71500000D03*
%TD*%
D16*
%TO.C,R10*%
X80972500Y-77800000D03*
X81992500Y-77800000D03*
%TD*%
D19*
%TO.C,D4*%
X89822500Y-79100000D03*
X91397500Y-79100000D03*
%TD*%
D31*
%TO.C,C10*%
X71360000Y-46820000D03*
X71360000Y-47780000D03*
%TD*%
D16*
%TO.C,R4*%
X72700000Y-58800000D03*
X73720000Y-58800000D03*
%TD*%
D32*
%TO.C,C24*%
X99520000Y-67000000D03*
X100480000Y-67000000D03*
%TD*%
D26*
%TO.C,C2*%
X65734000Y-49740000D03*
X65734000Y-50700000D03*
%TD*%
D16*
%TO.C,R9*%
X90487500Y-77750000D03*
X91507500Y-77750000D03*
%TD*%
D26*
%TO.C,C8*%
X69017499Y-47638200D03*
X69017499Y-48598200D03*
%TD*%
D21*
%TO.C,C14*%
X65734000Y-52560000D03*
X65734000Y-51600000D03*
%TD*%
D19*
%TO.C,D1*%
X83572500Y-79100000D03*
X85147500Y-79100000D03*
%TD*%
D18*
%TO.C,C9*%
X75190000Y-54700000D03*
X74230000Y-54700000D03*
%TD*%
D19*
%TO.C,D2*%
X86722500Y-79100000D03*
X88297500Y-79100000D03*
%TD*%
D20*
%TO.C,H1*%
X63500000Y-43500000D03*
%TD*%
D33*
%TO.C,U1*%
X74666000Y-53144000D03*
X74666000Y-52744000D03*
X74666000Y-52344000D03*
X74666000Y-51944000D03*
X74666000Y-51544000D03*
X74666000Y-51144000D03*
X74666000Y-50744000D03*
X74666000Y-50344000D03*
X74666000Y-49944000D03*
X74666000Y-49544000D03*
D34*
X74166000Y-49044000D03*
X73766000Y-49044000D03*
X73366000Y-49044000D03*
X72966000Y-49044000D03*
X72566000Y-49044000D03*
X72166000Y-49044000D03*
X71766000Y-49044000D03*
X71366000Y-49044000D03*
X70966000Y-49044000D03*
X70566000Y-49044000D03*
D33*
X70066000Y-49544000D03*
X70066000Y-49944000D03*
X70066000Y-50344000D03*
X70066000Y-50744000D03*
X70066000Y-51144000D03*
X70066000Y-51544000D03*
X70066000Y-51944000D03*
X70066000Y-52344000D03*
X70066000Y-52744000D03*
X70066000Y-53144000D03*
D34*
X70566000Y-53644000D03*
X70966000Y-53644000D03*
X71366000Y-53644000D03*
X71766000Y-53644000D03*
X72166000Y-53644000D03*
X72566000Y-53644000D03*
X72966000Y-53644000D03*
X73366000Y-53644000D03*
X73766000Y-53644000D03*
X74166000Y-53644000D03*
%TD*%
D35*
%TO.C,MP3*%
X78400000Y-54430000D03*
%TD*%
%TO.C,MP2*%
X63400000Y-48230000D03*
%TD*%
D36*
%TO.C,J1*%
X67110000Y-34100000D03*
X71350000Y-34100000D03*
X75590000Y-34100000D03*
%TD*%
D37*
%TO.C,U5*%
X95400000Y-49700000D03*
X95000000Y-49700000D03*
X94600000Y-49700000D03*
X95400000Y-49300000D03*
X95000000Y-49300000D03*
X94600000Y-49300000D03*
X95400000Y-48900000D03*
X95000000Y-48900000D03*
X94600000Y-48900000D03*
%TD*%
D20*
%TO.C,H3*%
X111500000Y-66000000D03*
%TD*%
D38*
%TO.C,MP4*%
X65300000Y-56330000D03*
%TD*%
D32*
%TO.C,C4*%
X69420000Y-54700000D03*
X70380000Y-54700000D03*
%TD*%
D21*
%TO.C,C12*%
X67734000Y-52560000D03*
X67734000Y-51600000D03*
%TD*%
D39*
%TO.C,J3*%
X104700000Y-44275000D03*
X105350000Y-44275000D03*
X106000000Y-44275000D03*
X106650000Y-44275000D03*
X107300000Y-44275000D03*
D40*
X110175000Y-41600000D03*
D41*
X109737500Y-41600000D03*
D42*
X108225000Y-44600000D03*
D43*
X106000000Y-41600000D03*
D42*
X103775000Y-44600000D03*
D41*
X102262500Y-41600000D03*
D40*
X101825000Y-41600000D03*
%TD*%
D21*
%TO.C,C13*%
X66734000Y-52560000D03*
X66734000Y-51600000D03*
%TD*%
D38*
%TO.C,MP1*%
X76500000Y-46330000D03*
%TD*%
D17*
%TO.C,R7*%
X75500000Y-57100000D03*
X75500000Y-58120000D03*
%TD*%
D44*
%TO.C,U4*%
X90765000Y-70500000D03*
X90765000Y-71000000D03*
X90765000Y-71500000D03*
X90765000Y-72000000D03*
X90765000Y-72500000D03*
X90765000Y-73000000D03*
X90765000Y-73500000D03*
D45*
X89600000Y-73915000D03*
D44*
X88435000Y-73500000D03*
X88435000Y-73000000D03*
X88435000Y-72500000D03*
X88435000Y-72000000D03*
X88435000Y-71500000D03*
X88435000Y-71000000D03*
X88435000Y-70500000D03*
D45*
X89600000Y-70085000D03*
%TD*%
D26*
%TO.C,C22*%
X96400000Y-49220000D03*
X96400000Y-50180000D03*
%TD*%
M02*
