M48
; DRILL file {KiCad 7.0.1} date Fri Oct 27 08:58:36 2023
; FORMAT={-:-/ absolute / inch / decimal}
; #@! TF.CreationDate,2023-10-27T08:58:36+02:00
; #@! TF.GenerationSoftware,Kicad,Pcbnew,7.0.1
; #@! TF.FileFunction,Plated,1,4,PTH
FMAT,2
INCH
; #@! TA.AperFunction,Plated,PTH,ViaDrill
T1C0.0098
; #@! TA.AperFunction,Plated,PTH,ComponentDrill
T2C0.0236
; #@! TA.AperFunction,Plated,PTH,ComponentDrill
T3C0.0256
%
G90
G05
T1
X2.4016Y-2.126
X2.4409Y-1.811
X2.4409Y-1.8898
X2.4409Y-1.9685
X2.4409Y-2.0472
X2.4409Y-2.4409
X2.4803Y-2.2047
X2.5154Y-2.0236
X2.5193Y-2.126
X2.5197Y-1.811
X2.5197Y-2.3622
X2.5197Y-2.4409
X2.598Y-1.6535
X2.598Y-1.7323
X2.598Y-2.2835
X2.598Y-2.3622
X2.5984Y-1.5748
X2.5984Y-1.811
X2.5984Y-2.4409
X2.6079Y-2.0146
X2.6102Y-1.248
X2.6102Y-1.2717
X2.6102Y-1.2953
X2.6102Y-1.3189
X2.6102Y-1.3425
X2.6102Y-1.3661
X2.6102Y-1.3898
X2.6102Y-1.4134
X2.6102Y-1.437
X2.6177Y-2.122
X2.6339Y-1.248
X2.6339Y-1.2717
X2.6339Y-1.2953
X2.6339Y-1.3189
X2.6339Y-1.3425
X2.6339Y-1.3661
X2.6339Y-1.3898
X2.6339Y-1.4134
X2.6339Y-1.437
X2.6472Y-2.0146
X2.6575Y-1.248
X2.6575Y-1.2717
X2.6575Y-1.2953
X2.6575Y-1.3189
X2.6575Y-1.3425
X2.6575Y-1.3661
X2.6575Y-1.3898
X2.6575Y-1.4134
X2.6575Y-1.437
X2.6768Y-1.6535
X2.6768Y-1.7323
X2.6768Y-2.2835
X2.6768Y-2.3622
X2.6772Y-1.5748
X2.6772Y-1.811
X2.6772Y-2.4409
X2.6811Y-1.248
X2.6811Y-1.2717
X2.6811Y-1.2953
X2.6811Y-1.3189
X2.6811Y-1.3425
X2.6811Y-1.3661
X2.6811Y-1.3898
X2.6811Y-1.4134
X2.6811Y-1.437
X2.752Y-2.2205
X2.7559Y-2.2835
X2.7559Y-2.3622
X2.7559Y-2.4409
X2.7583Y-1.8189
X2.7583Y-1.8425
X2.7583Y-1.8661
X2.7583Y-1.8898
X2.7587Y-1.4882
X2.7587Y-1.5118
X2.7587Y-1.5354
X2.7587Y-1.5591
X2.7587Y-1.5827
X2.7587Y-1.6063
X2.7587Y-1.6299
X2.7587Y-1.6535
X2.7587Y-1.6772
X2.7587Y-1.7008
X2.7587Y-1.7244
X2.7587Y-1.748
X2.7587Y-1.7717
X2.7587Y-1.7953
X2.7811Y-1.8071
X2.7811Y-1.8307
X2.7811Y-1.8543
X2.7811Y-1.878
X2.7811Y-1.9016
X2.7815Y-1.4764
X2.7815Y-1.5
X2.7815Y-1.5236
X2.7815Y-1.5472
X2.7815Y-1.5709
X2.7815Y-1.5945
X2.7815Y-1.6181
X2.7815Y-1.6417
X2.7815Y-1.6654
X2.7815Y-1.689
X2.7815Y-1.7126
X2.7815Y-1.7362
X2.7815Y-1.7598
X2.7815Y-1.7835
X2.7949Y-2.0472
X2.7949Y-2.0827
X2.811Y-2.3071
X2.8303Y-2.0472
X2.8303Y-2.0827
X2.8346Y-2.3622
X2.8346Y-2.4409
X2.8382Y-1.8071
X2.8382Y-1.8307
X2.8382Y-1.8543
X2.8382Y-1.878
X2.8382Y-1.9016
X2.8386Y-1.4764
X2.8386Y-1.5
X2.8386Y-1.5236
X2.8386Y-1.5472
X2.8386Y-1.5709
X2.8386Y-1.5945
X2.8386Y-1.6181
X2.8386Y-1.6417
X2.8386Y-1.6654
X2.8386Y-1.689
X2.8386Y-1.7126
X2.8386Y-1.7362
X2.8386Y-1.7598
X2.8386Y-1.7835
X2.8622Y-1.8189
X2.8622Y-1.8425
X2.8622Y-1.8661
X2.8622Y-1.8898
X2.8622Y-2.2598
X2.8626Y-1.4882
X2.8626Y-1.5118
X2.8626Y-1.5354
X2.8626Y-1.5591
X2.8626Y-1.5827
X2.8626Y-1.6063
X2.8626Y-1.6299
X2.8626Y-1.6535
X2.8626Y-1.6772
X2.8626Y-1.7008
X2.8626Y-1.7244
X2.8626Y-1.748
X2.8626Y-1.7717
X2.8626Y-1.7953
X2.8657Y-2.0472
X2.8657Y-2.0827
X2.8815Y-2.1535
X2.8819Y-2.2323
X2.9012Y-2.0472
X2.9012Y-2.0827
X2.913Y-1.811
X2.9134Y-1.5748
X2.9134Y-1.6535
X2.9134Y-1.7323
X2.9134Y-2.4409
X2.9134Y-2.5197
X2.9331Y-2.2244
X2.9409Y-1.248
X2.9409Y-1.2717
X2.9409Y-1.2953
X2.9409Y-1.3189
X2.9409Y-1.3425
X2.9409Y-1.3661
X2.9409Y-1.3898
X2.9409Y-1.4134
X2.9409Y-1.437
X2.9543Y-1.8878
X2.9646Y-1.248
X2.9646Y-1.2717
X2.9646Y-1.2953
X2.9646Y-1.3189
X2.9646Y-1.3425
X2.9646Y-1.3661
X2.9646Y-1.3898
X2.9646Y-1.4134
X2.9646Y-1.437
X2.9882Y-1.248
X2.9882Y-1.2717
X2.9882Y-1.2953
X2.9882Y-1.3189
X2.9882Y-1.3425
X2.9882Y-1.3661
X2.9882Y-1.3898
X2.9882Y-1.4134
X2.9882Y-1.437
X2.9882Y-2.1535
X2.9917Y-1.6535
X2.9917Y-1.7323
X2.9917Y-1.8898
X2.9921Y-1.5748
X2.9921Y-1.9685
X2.9921Y-2.0472
X2.9921Y-2.4409
X2.9921Y-2.5197
X2.9921Y-2.5984
X3.0039Y-2.2677
X3.0118Y-1.248
X3.0118Y-1.2717
X3.0118Y-1.2953
X3.0118Y-1.3189
X3.0118Y-1.3425
X3.0118Y-1.3661
X3.0118Y-1.3898
X3.0118Y-1.4134
X3.0118Y-1.437
X3.0197Y-2.126
X3.0315Y-2.2126
X3.0705Y-1.6535
X3.0705Y-1.7323
X3.0705Y-1.8898
X3.0705Y-1.9685
X3.0709Y-2.0472
X3.0709Y-2.5984
X3.0709Y-2.6772
X3.0709Y-2.7559
X3.0709Y-2.8346
X3.0709Y-2.9134
X3.0709Y-2.9921
X3.0709Y-3.0709
X3.1252Y-3.1138
X3.1492Y-1.6535
X3.1492Y-1.7323
X3.1492Y-1.811
X3.1496Y-1.8898
X3.1496Y-1.9685
X3.1496Y-2.0472
X3.1496Y-2.126
X3.1496Y-2.2047
X3.1496Y-2.5984
X3.1496Y-2.6772
X3.1496Y-2.7559
X3.1496Y-2.8346
X3.1496Y-2.9134
X3.1496Y-2.9921
X3.1887Y-3.0295
X3.1929Y-2.3425
X3.228Y-1.6535
X3.228Y-1.7323
X3.228Y-1.811
X3.2283Y-1.8898
X3.2283Y-1.9685
X3.2283Y-2.0472
X3.2283Y-2.126
X3.2677Y-2.3976
X3.276Y-3.0634
X3.2953Y-2.5512
X3.3071Y-1.6535
X3.3071Y-1.7323
X3.3071Y-1.811
X3.3071Y-1.8898
X3.3071Y-1.9685
X3.3071Y-2.0472
X3.3071Y-2.126
X3.3071Y-2.8346
X3.3071Y-2.9921
X3.3465Y-2.3661
X3.3858Y-1.6535
X3.3858Y-1.7323
X3.3858Y-1.811
X3.3858Y-1.8898
X3.3858Y-1.9685
X3.3858Y-2.0472
X3.3858Y-2.126
X3.3858Y-2.5984
X3.3858Y-2.6772
X3.3937Y-2.185
X3.3973Y-3.065
X3.4094Y-2.935
X3.4133Y-2.74
X3.4133Y-2.7912
X3.4291Y-2.3661
X3.4646Y-1.6535
X3.4646Y-1.7323
X3.4646Y-1.811
X3.4646Y-1.8898
X3.4646Y-1.9685
X3.4646Y-2.0472
X3.4646Y-2.126
X3.4646Y-2.5984
X3.4646Y-2.6772
X3.5039Y-2.7087
X3.5039Y-2.3622
X3.5039Y-2.9528
X3.5214Y-3.065
X3.5433Y-1.6535
X3.5433Y-1.7323
X3.5433Y-1.811
X3.5433Y-1.8898
X3.5433Y-1.9685
X3.5433Y-2.0472
X3.5433Y-2.5984
X3.5433Y-2.6772
X3.5669Y-2.185
X3.5826Y-2.7164
X3.5827Y-2.3937
X3.622Y-1.6535
X3.622Y-1.7323
X3.622Y-1.9685
X3.622Y-2.0472
X3.622Y-2.126
X3.622Y-2.5984
X3.6772Y-2.9646
X3.685Y-1.8937
X3.689Y-2.752
X3.689Y-2.815
X3.7008Y-1.6535
X3.7008Y-1.7323
X3.7008Y-2.0472
X3.7008Y-2.126
X3.7008Y-2.5984
X3.7008Y-2.6772
X3.7008Y-3.0709
X3.7402Y-2.1654
X3.7402Y-2.3622
X3.7598Y-2.1142
X3.7638Y-1.9921
X3.7795Y-1.6535
X3.7795Y-1.7323
X3.7795Y-2.9134
X3.7795Y-2.9803
X3.7953Y-2.0079
X3.7953Y-2.3819
X3.8386Y-2.3622
X3.8386Y-2.5157
X3.8425Y-2.4291
X3.8425Y-2.6378
X3.8583Y-1.6535
X3.8583Y-1.7323
X3.8583Y-1.8622
X3.8583Y-1.9685
X3.8583Y-2.0472
X3.8583Y-2.126
X3.8583Y-2.2047
X3.8583Y-2.2835
X3.8583Y-2.6772
X3.8583Y-2.9134
X3.8583Y-2.9803
X3.8898Y-2.6378
X3.937Y-1.6535
X3.937Y-1.7323
X3.937Y-1.8898
X3.937Y-1.9685
X3.937Y-2.0472
X3.937Y-2.126
X3.937Y-2.2047
X3.937Y-2.2835
X3.937Y-2.3622
X3.937Y-2.4409
X3.937Y-2.5197
X3.937Y-2.5984
X3.937Y-2.6772
X3.937Y-2.7559
X3.937Y-2.8346
X3.937Y-2.9134
X3.937Y-2.9921
X3.937Y-3.0709
X4.0157Y-1.7323
X4.0157Y-1.811
X4.0157Y-2.9134
X4.0157Y-2.9921
X4.0157Y-3.0709
X4.0787Y-1.6378
X4.0945Y-1.8898
X4.0945Y-1.9685
X4.0945Y-2.0472
X4.0945Y-2.126
X4.0945Y-2.2047
X4.0945Y-2.2835
X4.0945Y-2.3622
X4.0945Y-2.4409
X4.0945Y-2.5197
X4.0945Y-2.5984
X4.0945Y-2.8346
X4.0945Y-2.9134
X4.0945Y-2.9921
X4.0945Y-3.0709
X4.1732Y-2.8346
X4.1732Y-2.9134
X4.1732Y-2.9921
X4.1732Y-3.0709
X4.252Y-1.811
X4.252Y-1.8898
X4.252Y-1.9685
X4.252Y-2.0472
X4.252Y-2.126
X4.252Y-2.2047
X4.252Y-2.2835
X4.252Y-2.3622
X4.252Y-2.4409
X4.252Y-2.5197
X4.252Y-2.5984
X4.252Y-2.9134
X4.252Y-2.9921
X4.252Y-3.0709
X4.2677Y-1.6378
X4.3307Y-1.7323
X4.3307Y-1.811
X4.3307Y-1.8898
X4.3307Y-1.9685
X4.3307Y-2.126
X4.3307Y-2.2047
X4.3307Y-2.2835
X4.3307Y-2.3622
X4.3307Y-2.4409
X4.3307Y-2.5197
X4.3307Y-2.6772
X4.3307Y-2.7559
X4.3307Y-2.8346
X4.3307Y-2.9134
X4.3307Y-2.9921
X4.3307Y-3.0709
X4.4094Y-1.6535
X4.4094Y-1.7323
X4.4094Y-1.811
X4.4094Y-1.8898
X4.4094Y-2.2047
X4.4094Y-2.2835
X4.4094Y-2.3622
X4.4094Y-2.4409
X4.4094Y-2.9134
X4.4882Y-1.7323
X4.4882Y-1.811
X4.4882Y-1.8898
X4.4882Y-1.9685
X4.4882Y-2.0472
X4.4882Y-2.126
X4.4882Y-2.2047
X4.4882Y-2.2835
X4.4882Y-2.3622
X4.4882Y-2.4409
X4.4882Y-2.5197
X4.4882Y-2.5984
X4.4882Y-2.6772
T2
G00X4.0089Y-1.6516
M15
G01X4.0089Y-1.624
M16
G05
G00X4.3376Y-1.6516
M15
G01X4.3376Y-1.624
M16
G05
T3
G00X4.0856Y-1.7598
M15
G01X4.0856Y-1.752
M16
G05
G00X4.2608Y-1.7598
M15
G01X4.2608Y-1.752
M16
G05
T0
M30
