%TF.GenerationSoftware,KiCad,Pcbnew,7.0.1*%
%TF.CreationDate,2024-02-15T14:31:57+01:00*%
%TF.ProjectId,pi4-sensorleap-v1,7069342d-7365-46e7-936f-726c6561702d,rev?*%
%TF.SameCoordinates,Original*%
%TF.FileFunction,Copper,L4,Bot*%
%TF.FilePolarity,Positive*%
%FSLAX46Y46*%
G04 Gerber Fmt 4.6, Leading zero omitted, Abs format (unit mm)*
G04 Created by KiCad (PCBNEW 7.0.1) date 2024-02-15 14:31:57*
%MOMM*%
%LPD*%
G01*
G04 APERTURE LIST*
G04 Aperture macros list*
%AMRoundRect*
0 Rectangle with rounded corners*
0 $1 Rounding radius*
0 $2 $3 $4 $5 $6 $7 $8 $9 X,Y pos of 4 corners*
0 Add a 4 corners polygon primitive as box body*
4,1,4,$2,$3,$4,$5,$6,$7,$8,$9,$2,$3,0*
0 Add four circle primitives for the rounded corners*
1,1,$1+$1,$2,$3*
1,1,$1+$1,$4,$5*
1,1,$1+$1,$6,$7*
1,1,$1+$1,$8,$9*
0 Add four rect primitives between the rounded corners*
20,1,$1+$1,$2,$3,$4,$5,0*
20,1,$1+$1,$4,$5,$6,$7,0*
20,1,$1+$1,$6,$7,$8,$9,0*
20,1,$1+$1,$8,$9,$2,$3,0*%
G04 Aperture macros list end*
%TA.AperFunction,SMDPad,CuDef*%
%ADD10R,1.500000X4.000000*%
%TD*%
%TA.AperFunction,SMDPad,CuDef*%
%ADD11RoundRect,0.133333X-0.466667X-0.966667X0.466667X-0.966667X0.466667X0.966667X-0.466667X0.966667X0*%
%TD*%
%TA.AperFunction,ViaPad*%
%ADD12C,0.500000*%
%TD*%
%TA.AperFunction,Conductor*%
%ADD13C,0.250000*%
%TD*%
%TA.AperFunction,Conductor*%
%ADD14C,0.200000*%
%TD*%
%TA.AperFunction,Conductor*%
%ADD15C,0.400000*%
%TD*%
G04 APERTURE END LIST*
D10*
%TO.P,J1,4,4*%
%TO.N,GND*%
X68600000Y-42000000D03*
%TO.P,J1,5,5*%
X74200000Y-42000000D03*
%TD*%
D11*
%TO.P,J2,1,GPIO00(SDA0\u002CI2C)*%
%TO.N,SDA*%
X96380000Y-62500000D03*
%TO.P,J2,2,GPIO07(SCL0\u002C_I2C)*%
%TO.N,SCL*%
X96370000Y-57500000D03*
%TO.P,J2,3,GND*%
%TO.N,GND*%
X93840000Y-62500000D03*
%TO.P,J2,4,GPIO07(SPI_CE1)*%
%TO.N,unconnected-(J2-GPIO07(SPI_CE1)-Pad4)*%
X93830000Y-57500000D03*
%TO.P,J2,5,GPIO11(SPI_CLK)*%
%TO.N,SPI_CLK*%
X91300000Y-62500000D03*
%TO.P,J2,6,GPIO08(SPI_CE0)*%
%TO.N,SPI_CE0*%
X91290000Y-57500000D03*
%TO.P,J2,7,GPIO09(SPI_MISO)*%
%TO.N,SPI_MISO*%
X88760000Y-62500000D03*
%TO.P,J2,8,GPIO25*%
%TO.N,IRQ_MM350*%
X88750000Y-57500000D03*
%TO.P,J2,9,GPIO10(SPI_MOSI)*%
%TO.N,SPI_MOSI*%
X86220000Y-62500000D03*
%TO.P,J2,10,GND*%
%TO.N,GND*%
X86210000Y-57500000D03*
%TO.P,J2,11,3.3_DC_Power*%
%TO.N,+3V3*%
X83680000Y-62500000D03*
%TO.P,J2,12,GPIO24*%
%TO.N,IRQ_DW*%
X83670000Y-57500000D03*
%TO.P,J2,13,GPIO22*%
%TO.N,IRQ_ACCEL*%
X81140000Y-62500000D03*
%TO.P,J2,14,GPIO23*%
%TO.N,RST_DW*%
X81130000Y-57500000D03*
%TO.P,J2,15,GPIO27*%
%TO.N,IRQ_GYRO*%
X78600000Y-62500000D03*
%TO.P,J2,16,GND*%
%TO.N,GND*%
X78590000Y-57500000D03*
%TD*%
D12*
%TO.N,IRQ_GYRO*%
X86698000Y-70896000D03*
%TO.N,IRQ_ACCEL*%
X88998000Y-68800000D03*
%TO.N,SPI_MOSI*%
X85000000Y-60100000D03*
%TO.N,SPI_MISO*%
X87100000Y-60100000D03*
%TO.N,SPI_CE0*%
X81100000Y-59500000D03*
%TO.N,SPI_CLK*%
X91000000Y-60800000D03*
%TO.N,SCL*%
X97600000Y-67000000D03*
X95000000Y-55000000D03*
%TO.N,SDA*%
X96400000Y-60500000D03*
X93400000Y-75300000D03*
%TO.N,IRQ_DW*%
X76700000Y-54000000D03*
%TO.N,Net-(U1-SPICSn)*%
X73190000Y-54700000D03*
X73200000Y-56700000D03*
%TO.N,GND*%
X98000000Y-74000000D03*
X74500000Y-42100000D03*
X100000000Y-58000000D03*
X96000000Y-42000000D03*
X72090000Y-47100000D03*
X98000000Y-75700000D03*
X70630000Y-44700000D03*
X71890000Y-52000000D03*
X97600000Y-61700000D03*
X72090000Y-44700000D03*
X95000000Y-60000000D03*
X100000000Y-68000000D03*
X73900000Y-40300000D03*
X68300000Y-43900000D03*
X74500000Y-40300000D03*
X81990000Y-46000000D03*
X67240000Y-51170000D03*
X80000000Y-54000000D03*
X73690000Y-52000000D03*
X69500000Y-43900000D03*
X74500000Y-41500000D03*
X84000000Y-46000000D03*
X72090000Y-45300000D03*
X71890000Y-52900000D03*
X100000000Y-62000000D03*
X72700000Y-46200000D03*
X90000000Y-66000000D03*
X70630000Y-47700000D03*
X68300000Y-42700000D03*
X89000000Y-60000000D03*
X80000000Y-56000000D03*
X70050000Y-46800000D03*
X100000000Y-60000000D03*
X72700000Y-57400000D03*
X75040000Y-47950000D03*
X65990000Y-60000000D03*
X73300000Y-42100000D03*
X98000000Y-52000000D03*
X98000000Y-44000000D03*
X68300000Y-40300000D03*
X88000000Y-66000000D03*
X62000000Y-62000000D03*
X93700000Y-71500000D03*
X67700000Y-40300000D03*
X69500000Y-40900000D03*
X93600000Y-48100000D03*
X74500000Y-40900000D03*
X86000000Y-68000000D03*
X73300000Y-42700000D03*
X67700000Y-43300000D03*
X70050000Y-47400000D03*
X68900000Y-41500000D03*
X66490000Y-53900000D03*
X68900000Y-40900000D03*
X70050000Y-46200000D03*
X70000000Y-60000000D03*
X66000000Y-62000000D03*
X86200000Y-55500000D03*
X74500000Y-56500000D03*
X65990000Y-58000000D03*
X73990000Y-46000000D03*
X95500000Y-53700000D03*
X68900000Y-43900000D03*
X68900000Y-42100000D03*
X70630000Y-45900000D03*
X63990000Y-54000000D03*
X73900000Y-42700000D03*
X69500000Y-43300000D03*
X68900000Y-43300000D03*
X100000000Y-50000000D03*
X74000000Y-62000000D03*
X100000000Y-70000000D03*
X72090000Y-48300000D03*
X90600000Y-55500000D03*
X77000000Y-56200000D03*
X70060000Y-44400000D03*
X88000000Y-46000000D03*
X75100000Y-42700000D03*
X90000000Y-48000000D03*
X86000000Y-54000000D03*
X72090000Y-46500000D03*
X70000000Y-62000000D03*
X62000000Y-46000000D03*
X77990000Y-48000000D03*
X67700000Y-42100000D03*
X75100000Y-43300000D03*
X81990000Y-42000000D03*
X73300000Y-40900000D03*
X98000000Y-54000000D03*
X75100000Y-43900000D03*
X94000000Y-42000000D03*
X100000000Y-54000000D03*
X69500000Y-40300000D03*
X100000000Y-66000000D03*
X68900000Y-40300000D03*
X66000000Y-46000000D03*
X98000000Y-56000000D03*
X69900000Y-56400000D03*
X72090000Y-47700000D03*
X70630000Y-46500000D03*
X85100000Y-52100000D03*
X72700000Y-47400000D03*
X96000000Y-75700000D03*
X90000000Y-68000000D03*
X74500000Y-42700000D03*
X69500000Y-42700000D03*
X73900000Y-42100000D03*
X70520000Y-48290000D03*
X94000000Y-44000000D03*
X73300000Y-41500000D03*
X92000000Y-52000000D03*
X88000000Y-54000000D03*
X98000000Y-58000000D03*
X73300000Y-40300000D03*
X90000000Y-44000000D03*
X72700000Y-45000000D03*
X93700000Y-69900000D03*
X68300000Y-42100000D03*
X100000000Y-56000000D03*
X81990000Y-44000000D03*
X90998000Y-68996000D03*
X72090000Y-45900000D03*
X64000000Y-46000000D03*
X73300000Y-43300000D03*
X70000000Y-58000000D03*
X75100000Y-41500000D03*
X100000000Y-52000000D03*
X70630000Y-45300000D03*
X70990000Y-52900000D03*
X86600000Y-74550000D03*
X90000000Y-52000000D03*
X86000000Y-66000000D03*
X76000000Y-52000000D03*
X84000000Y-72000000D03*
X88000000Y-44000000D03*
X79990000Y-42000000D03*
X70630000Y-47100000D03*
X73300000Y-43900000D03*
X86698000Y-69596000D03*
X66240000Y-51170000D03*
X68900000Y-42700000D03*
X86000000Y-46000000D03*
X72000000Y-62000000D03*
X77990000Y-44000000D03*
X72790000Y-52900000D03*
X97500000Y-63900000D03*
X84000000Y-44000000D03*
X73900000Y-40900000D03*
X70990000Y-52000000D03*
X76300000Y-57600000D03*
X84000000Y-54000000D03*
X90000000Y-46000000D03*
X62000000Y-48000000D03*
X80000000Y-66000000D03*
X67700000Y-43900000D03*
X72700000Y-46800000D03*
X90000000Y-50000000D03*
X86000000Y-44000000D03*
X94000000Y-66000000D03*
X64000000Y-62000000D03*
X100000000Y-74000000D03*
X67700000Y-42700000D03*
X67700000Y-41500000D03*
X100000000Y-48000000D03*
X85100000Y-47900000D03*
X88000000Y-42000000D03*
X98000000Y-42000000D03*
X79990000Y-46000000D03*
X98000000Y-68000000D03*
X73900000Y-41500000D03*
X98000000Y-50000000D03*
X69500000Y-42100000D03*
X73900000Y-43900000D03*
X74500000Y-43900000D03*
X75900000Y-54700000D03*
X62000000Y-50000000D03*
X62000000Y-52000000D03*
X67990000Y-58000000D03*
X73690000Y-52900000D03*
X92000000Y-42000000D03*
X70060000Y-45600000D03*
X67990000Y-60000000D03*
X75100000Y-42100000D03*
X67700000Y-40900000D03*
X90000000Y-42000000D03*
X75990000Y-48000000D03*
X68000000Y-62000000D03*
X72710000Y-45600000D03*
X77990000Y-42000000D03*
X70050000Y-45000000D03*
X74500000Y-43300000D03*
X92000000Y-54000000D03*
X68300000Y-40900000D03*
X92000000Y-44000000D03*
X98000000Y-47300000D03*
X68300000Y-43300000D03*
X100000000Y-64000000D03*
X96000000Y-44000000D03*
X72710000Y-44400000D03*
X75100000Y-40900000D03*
X63500000Y-57000000D03*
X100000000Y-72000000D03*
X88000000Y-68000000D03*
X89000000Y-75000000D03*
X76000000Y-50000000D03*
X69500000Y-41500000D03*
X84000000Y-42000000D03*
X68000000Y-46000000D03*
X82000000Y-54000000D03*
X72790000Y-52000000D03*
X79990000Y-44000000D03*
X97500000Y-60000000D03*
X63890000Y-51400000D03*
X86000000Y-42000000D03*
X72000000Y-60000000D03*
X73900000Y-43300000D03*
X75100000Y-40300000D03*
X96400000Y-51000000D03*
X68300000Y-41500000D03*
X94000000Y-68000000D03*
%TO.N,+3V3*%
X83000000Y-60900000D03*
X83700000Y-64800000D03*
%TO.N,RST_DW*%
X71400000Y-58600000D03*
%TO.N,IRQ_MM350*%
X95600000Y-50600000D03*
%TD*%
D13*
%TO.N,IRQ_GYRO*%
X78600000Y-62800000D02*
X86696000Y-70896000D01*
X78600000Y-62500000D02*
X78600000Y-62800000D01*
X86696000Y-70896000D02*
X86698000Y-70896000D01*
%TO.N,IRQ_ACCEL*%
X88998000Y-68800000D02*
X85847405Y-68800000D01*
X81178000Y-64130595D02*
X81178000Y-62496000D01*
X85847405Y-68800000D02*
X81178000Y-64130595D01*
%TO.N,SPI_MOSI*%
X85000000Y-60100000D02*
X86220000Y-61320000D01*
X86220000Y-61320000D02*
X86220000Y-62500000D01*
%TO.N,SPI_MISO*%
X87100000Y-60100000D02*
X88760000Y-61760000D01*
X88760000Y-61760000D02*
X88760000Y-62500000D01*
%TO.N,SPI_CE0*%
X91290000Y-58600000D02*
X91290000Y-57500000D01*
X81500000Y-59100000D02*
X90790000Y-59100000D01*
X81100000Y-59500000D02*
X81500000Y-59100000D01*
X90790000Y-59100000D02*
X91290000Y-58600000D01*
%TO.N,SPI_CLK*%
X91300000Y-61100000D02*
X91000000Y-60800000D01*
X91300000Y-62500000D02*
X91300000Y-61100000D01*
D14*
%TO.N,SCL*%
X95700000Y-55000000D02*
X95000000Y-55000000D01*
X96370000Y-55670000D02*
X96370000Y-57500000D01*
D13*
X96370000Y-57500000D02*
X98475000Y-59605000D01*
D14*
X95700000Y-55000000D02*
X96370000Y-55670000D01*
D13*
X98475000Y-66125000D02*
X97600000Y-67000000D01*
X98475000Y-59605000D02*
X98475000Y-66125000D01*
D14*
%TO.N,SDA*%
X96400000Y-62480000D02*
X96380000Y-62500000D01*
X96400000Y-60500000D02*
X96400000Y-62480000D01*
D13*
X93400000Y-75300000D02*
X96380000Y-72320000D01*
X96380000Y-72320000D02*
X96380000Y-62500000D01*
D14*
%TO.N,IRQ_DW*%
X81470000Y-55300000D02*
X83670000Y-57500000D01*
X76700000Y-54000000D02*
X78000000Y-55300000D01*
X78000000Y-55300000D02*
X81470000Y-55300000D01*
%TO.N,Net-(U1-SPICSn)*%
X73190000Y-54700000D02*
X73190000Y-56690000D01*
X73190000Y-56690000D02*
X73200000Y-56700000D01*
D13*
%TO.N,GND*%
X93840000Y-62500000D02*
X93840000Y-65840000D01*
D14*
X86210000Y-55510000D02*
X86200000Y-55500000D01*
D13*
X93840000Y-65840000D02*
X94000000Y-66000000D01*
D14*
X86210000Y-57500000D02*
X86210000Y-55510000D01*
D15*
%TO.N,+3V3*%
X83680000Y-64800000D02*
X83680000Y-62500000D01*
X83680000Y-61180000D02*
X83680000Y-62500000D01*
X83400000Y-60900000D02*
X83680000Y-61180000D01*
X83000000Y-60900000D02*
X83400000Y-60900000D01*
D13*
%TO.N,RST_DW*%
X71800000Y-59000000D02*
X71400000Y-58600000D01*
X81130000Y-57500000D02*
X79630000Y-59000000D01*
X79630000Y-59000000D02*
X71800000Y-59000000D01*
D14*
%TO.N,IRQ_MM350*%
X94200000Y-53200000D02*
X95400000Y-52000000D01*
X88750000Y-57500000D02*
X88750000Y-55150000D01*
X88750000Y-55150000D02*
X90700000Y-53200000D01*
X95600000Y-51800000D02*
X95600000Y-50600000D01*
X90700000Y-53200000D02*
X94200000Y-53200000D01*
X95400000Y-52000000D02*
X95600000Y-51800000D01*
%TD*%
%TA.AperFunction,Conductor*%
%TO.N,GND*%
G36*
X97503032Y-40000649D02*
G01*
X97507384Y-40000862D01*
X97652450Y-40007989D01*
X97843670Y-40018010D01*
X97855324Y-40019177D01*
X98021254Y-40043791D01*
X98022225Y-40043940D01*
X98194897Y-40071289D01*
X98205570Y-40073465D01*
X98371374Y-40114997D01*
X98373014Y-40115422D01*
X98538880Y-40159866D01*
X98548544Y-40162884D01*
X98652693Y-40200150D01*
X98710526Y-40220843D01*
X98713188Y-40221830D01*
X98746726Y-40234704D01*
X98872097Y-40282829D01*
X98880623Y-40286475D01*
X99036869Y-40360374D01*
X99040055Y-40361939D01*
X99182487Y-40434511D01*
X99191094Y-40438897D01*
X99198547Y-40443023D01*
X99347075Y-40532047D01*
X99350824Y-40534387D01*
X99492670Y-40626503D01*
X99498977Y-40630884D01*
X99638210Y-40734147D01*
X99642365Y-40737367D01*
X99773635Y-40843667D01*
X99778872Y-40848155D01*
X99907389Y-40964636D01*
X99911797Y-40968833D01*
X100031165Y-41088201D01*
X100035362Y-41092609D01*
X100151843Y-41221126D01*
X100156331Y-41226363D01*
X100262620Y-41357619D01*
X100265851Y-41361788D01*
X100369114Y-41501021D01*
X100373512Y-41507353D01*
X100465599Y-41649155D01*
X100467963Y-41652942D01*
X100556975Y-41801451D01*
X100561101Y-41808904D01*
X100638037Y-41959898D01*
X100639647Y-41963176D01*
X100713510Y-42119345D01*
X100717179Y-42127925D01*
X100778168Y-42286810D01*
X100779155Y-42289472D01*
X100837111Y-42451447D01*
X100840135Y-42461128D01*
X100884535Y-42626827D01*
X100885044Y-42628792D01*
X100926526Y-42794398D01*
X100928715Y-42805130D01*
X100956041Y-42977665D01*
X100956226Y-42978867D01*
X100980818Y-43144649D01*
X100981990Y-43156355D01*
X100991989Y-43347157D01*
X100991886Y-43347162D01*
X100992011Y-43347561D01*
X100999351Y-43496967D01*
X100999500Y-43503052D01*
X100999500Y-76496948D01*
X100999351Y-76503033D01*
X100992014Y-76652369D01*
X100991993Y-76652774D01*
X100981990Y-76843644D01*
X100980818Y-76855349D01*
X100956226Y-77021131D01*
X100956041Y-77022333D01*
X100928715Y-77194868D01*
X100926526Y-77205600D01*
X100885044Y-77371206D01*
X100884535Y-77373171D01*
X100840135Y-77538870D01*
X100837111Y-77548551D01*
X100779155Y-77710526D01*
X100778168Y-77713188D01*
X100717179Y-77872073D01*
X100713510Y-77880653D01*
X100639647Y-78036822D01*
X100638037Y-78040100D01*
X100561101Y-78191094D01*
X100556975Y-78198547D01*
X100467963Y-78347056D01*
X100465599Y-78350843D01*
X100373512Y-78492645D01*
X100369114Y-78498977D01*
X100265851Y-78638210D01*
X100262620Y-78642379D01*
X100156331Y-78773635D01*
X100151843Y-78778872D01*
X100035362Y-78907389D01*
X100031165Y-78911797D01*
X99911797Y-79031165D01*
X99907389Y-79035362D01*
X99778872Y-79151843D01*
X99773635Y-79156331D01*
X99642379Y-79262620D01*
X99638210Y-79265851D01*
X99498977Y-79369114D01*
X99492645Y-79373512D01*
X99350843Y-79465599D01*
X99347056Y-79467963D01*
X99198547Y-79556975D01*
X99191094Y-79561101D01*
X99040100Y-79638037D01*
X99036822Y-79639647D01*
X98880653Y-79713510D01*
X98872073Y-79717179D01*
X98713188Y-79778168D01*
X98710526Y-79779155D01*
X98548551Y-79837111D01*
X98538870Y-79840135D01*
X98373171Y-79884535D01*
X98371206Y-79885044D01*
X98205600Y-79926526D01*
X98194868Y-79928715D01*
X98022333Y-79956041D01*
X98021131Y-79956226D01*
X97855349Y-79980818D01*
X97843644Y-79981990D01*
X97652774Y-79991993D01*
X97652369Y-79992014D01*
X97503033Y-79999351D01*
X97496948Y-79999500D01*
X64503052Y-79999500D01*
X64496967Y-79999351D01*
X64347629Y-79992014D01*
X64347224Y-79991993D01*
X64156354Y-79981990D01*
X64144649Y-79980818D01*
X63978867Y-79956226D01*
X63977665Y-79956041D01*
X63805130Y-79928715D01*
X63794398Y-79926526D01*
X63628792Y-79885044D01*
X63626827Y-79884535D01*
X63461128Y-79840135D01*
X63451447Y-79837111D01*
X63289472Y-79779155D01*
X63286810Y-79778168D01*
X63127925Y-79717179D01*
X63119351Y-79713512D01*
X62963176Y-79639647D01*
X62959898Y-79638037D01*
X62808904Y-79561101D01*
X62801451Y-79556975D01*
X62652942Y-79467963D01*
X62649155Y-79465599D01*
X62601996Y-79434973D01*
X62507343Y-79373505D01*
X62501021Y-79369114D01*
X62361788Y-79265851D01*
X62357619Y-79262620D01*
X62226363Y-79156331D01*
X62221126Y-79151843D01*
X62092609Y-79035362D01*
X62088201Y-79031165D01*
X61968833Y-78911797D01*
X61964636Y-78907389D01*
X61848155Y-78778872D01*
X61843667Y-78773635D01*
X61737378Y-78642379D01*
X61734147Y-78638210D01*
X61630884Y-78498977D01*
X61626503Y-78492670D01*
X61534387Y-78350824D01*
X61532035Y-78347056D01*
X61443023Y-78198547D01*
X61438897Y-78191094D01*
X61434511Y-78182487D01*
X61361939Y-78040055D01*
X61360374Y-78036869D01*
X61286475Y-77880623D01*
X61282829Y-77872097D01*
X61221830Y-77713188D01*
X61220843Y-77710526D01*
X61162887Y-77548551D01*
X61159863Y-77538870D01*
X61115422Y-77373014D01*
X61114997Y-77371374D01*
X61073465Y-77205570D01*
X61071289Y-77194897D01*
X61043940Y-77022225D01*
X61043791Y-77021254D01*
X61019177Y-76855324D01*
X61018010Y-76843670D01*
X61007985Y-76652369D01*
X61000649Y-76503032D01*
X61000500Y-76496949D01*
X61000500Y-75300000D01*
X92894353Y-75300000D01*
X92914834Y-75442457D01*
X92974623Y-75573374D01*
X93068870Y-75682141D01*
X93068872Y-75682143D01*
X93189947Y-75759953D01*
X93328039Y-75800500D01*
X93471961Y-75800500D01*
X93610053Y-75759953D01*
X93731128Y-75682143D01*
X93825377Y-75573373D01*
X93885165Y-75442457D01*
X93895510Y-75370501D01*
X93907363Y-75332646D01*
X93930563Y-75300472D01*
X96608889Y-72622146D01*
X96628741Y-72606025D01*
X96637836Y-72600084D01*
X96657273Y-72575110D01*
X96667453Y-72563583D01*
X96667519Y-72563518D01*
X96679624Y-72546561D01*
X96682627Y-72542534D01*
X96714809Y-72501189D01*
X96714810Y-72501185D01*
X96719666Y-72494947D01*
X96719753Y-72494779D01*
X96722010Y-72487199D01*
X96736955Y-72436997D01*
X96738486Y-72432218D01*
X96755500Y-72382660D01*
X96755500Y-72382658D01*
X96758060Y-72375201D01*
X96758093Y-72374970D01*
X96757767Y-72367091D01*
X96757768Y-72367089D01*
X96755605Y-72314807D01*
X96755500Y-72309685D01*
X96755500Y-63974499D01*
X96772113Y-63912499D01*
X96817500Y-63867112D01*
X96874216Y-63851914D01*
X96874199Y-63851794D01*
X96875224Y-63851644D01*
X96879500Y-63850499D01*
X96883088Y-63850499D01*
X96883090Y-63850499D01*
X96957703Y-63839629D01*
X97072787Y-63783368D01*
X97163368Y-63692787D01*
X97219629Y-63577703D01*
X97230500Y-63503091D01*
X97230499Y-61496910D01*
X97219629Y-61422297D01*
X97163368Y-61307213D01*
X97163367Y-61307212D01*
X97163367Y-61307211D01*
X97072788Y-61216632D01*
X96984299Y-61173373D01*
X96957703Y-61160371D01*
X96957701Y-61160370D01*
X96957700Y-61160370D01*
X96883094Y-61149500D01*
X96883091Y-61149500D01*
X96874500Y-61149500D01*
X96812500Y-61132887D01*
X96767113Y-61087500D01*
X96750500Y-61025500D01*
X96750500Y-60906036D01*
X96758318Y-60862703D01*
X96780787Y-60824834D01*
X96825376Y-60773374D01*
X96825375Y-60773374D01*
X96825377Y-60773373D01*
X96885165Y-60642457D01*
X96905647Y-60500000D01*
X96885165Y-60357543D01*
X96858657Y-60299500D01*
X96825376Y-60226625D01*
X96731129Y-60117858D01*
X96731128Y-60117857D01*
X96610053Y-60040047D01*
X96471961Y-59999500D01*
X96328039Y-59999500D01*
X96189947Y-60040047D01*
X96068870Y-60117858D01*
X95974623Y-60226625D01*
X95914834Y-60357542D01*
X95894353Y-60499999D01*
X95914834Y-60642457D01*
X95974623Y-60773374D01*
X96019213Y-60824834D01*
X96041682Y-60862703D01*
X96049500Y-60906036D01*
X96049500Y-61025501D01*
X96032887Y-61087501D01*
X95987500Y-61132888D01*
X95925500Y-61149501D01*
X95876910Y-61149501D01*
X95827167Y-61156747D01*
X95802296Y-61160371D01*
X95687211Y-61216632D01*
X95596632Y-61307211D01*
X95540370Y-61422299D01*
X95529500Y-61496905D01*
X95529500Y-63503087D01*
X95540371Y-63577703D01*
X95596632Y-63692788D01*
X95687211Y-63783367D01*
X95687212Y-63783367D01*
X95687213Y-63783368D01*
X95802297Y-63839629D01*
X95832141Y-63843977D01*
X95876906Y-63850500D01*
X95876909Y-63850500D01*
X95880500Y-63850500D01*
X95884783Y-63851647D01*
X95885801Y-63851796D01*
X95885783Y-63851915D01*
X95942500Y-63867113D01*
X95987887Y-63912500D01*
X96004500Y-63974500D01*
X96004500Y-72113100D01*
X95995061Y-72160553D01*
X95968181Y-72200781D01*
X93405781Y-74763181D01*
X93365553Y-74790061D01*
X93345047Y-74794139D01*
X93345146Y-74794477D01*
X93189947Y-74840047D01*
X93068870Y-74917858D01*
X92974623Y-75026625D01*
X92914834Y-75157542D01*
X92894353Y-75300000D01*
X61000500Y-75300000D01*
X61000500Y-63503087D01*
X77749500Y-63503087D01*
X77760371Y-63577703D01*
X77816632Y-63692788D01*
X77907211Y-63783367D01*
X77907212Y-63783367D01*
X77907213Y-63783368D01*
X78022297Y-63839629D01*
X78096909Y-63850500D01*
X79068100Y-63850499D01*
X79115553Y-63859938D01*
X79155781Y-63886818D01*
X86167768Y-70898806D01*
X86190971Y-70930982D01*
X86202825Y-70968840D01*
X86212834Y-71038457D01*
X86272623Y-71169374D01*
X86366870Y-71278141D01*
X86366872Y-71278143D01*
X86487947Y-71355953D01*
X86626039Y-71396500D01*
X86769961Y-71396500D01*
X86908053Y-71355953D01*
X87029128Y-71278143D01*
X87123377Y-71169373D01*
X87183165Y-71038457D01*
X87203647Y-70896000D01*
X87183165Y-70753543D01*
X87123377Y-70622627D01*
X87123376Y-70622626D01*
X87123376Y-70622625D01*
X87029129Y-70513858D01*
X87029128Y-70513857D01*
X86908053Y-70436047D01*
X86863034Y-70422828D01*
X86753289Y-70390604D01*
X86730446Y-70386061D01*
X86690218Y-70359181D01*
X85720276Y-69389238D01*
X85690347Y-69340848D01*
X85685180Y-69284185D01*
X85705863Y-69231180D01*
X85748042Y-69192993D01*
X85802832Y-69177663D01*
X85847572Y-69175813D01*
X85852600Y-69175606D01*
X85857721Y-69175500D01*
X88620126Y-69175500D01*
X88687163Y-69195183D01*
X88787947Y-69259953D01*
X88926039Y-69300500D01*
X89069961Y-69300500D01*
X89208053Y-69259953D01*
X89329128Y-69182143D01*
X89423377Y-69073373D01*
X89483165Y-68942457D01*
X89503647Y-68800000D01*
X89483165Y-68657543D01*
X89423377Y-68526627D01*
X89423376Y-68526626D01*
X89423376Y-68526625D01*
X89329129Y-68417858D01*
X89329128Y-68417857D01*
X89208053Y-68340047D01*
X89069961Y-68299500D01*
X88926039Y-68299500D01*
X88787947Y-68340046D01*
X88720281Y-68383533D01*
X88687163Y-68404816D01*
X88620126Y-68424500D01*
X86054304Y-68424500D01*
X86006851Y-68415061D01*
X85966623Y-68388181D01*
X81630929Y-64052486D01*
X81597947Y-63993377D01*
X81600919Y-63925754D01*
X81638961Y-63869768D01*
X81700733Y-63842101D01*
X81717703Y-63839629D01*
X81832787Y-63783368D01*
X81923368Y-63692787D01*
X81979629Y-63577703D01*
X81990500Y-63503091D01*
X81990499Y-61496910D01*
X81979629Y-61422297D01*
X81923368Y-61307213D01*
X81923367Y-61307212D01*
X81923367Y-61307211D01*
X81832788Y-61216632D01*
X81744299Y-61173373D01*
X81717703Y-61160371D01*
X81717701Y-61160370D01*
X81717700Y-61160370D01*
X81643094Y-61149500D01*
X80636912Y-61149500D01*
X80562296Y-61160371D01*
X80447211Y-61216632D01*
X80356632Y-61307211D01*
X80300370Y-61422299D01*
X80289500Y-61496905D01*
X80289500Y-63503087D01*
X80300371Y-63577703D01*
X80348582Y-63676321D01*
X80360465Y-63744083D01*
X80335892Y-63804106D01*
X80395917Y-63779533D01*
X80463677Y-63791416D01*
X80562297Y-63839629D01*
X80592141Y-63843977D01*
X80636906Y-63850500D01*
X80636909Y-63850500D01*
X80678500Y-63850500D01*
X80740500Y-63867113D01*
X80785887Y-63912500D01*
X80802500Y-63974500D01*
X80802500Y-64078790D01*
X80799861Y-64104236D01*
X80797633Y-64114861D01*
X80801548Y-64146272D01*
X80802500Y-64161609D01*
X80802500Y-64171983D01*
X80799100Y-64171983D01*
X80795384Y-64213589D01*
X80760846Y-64264853D01*
X80705851Y-64293074D01*
X80644065Y-64291239D01*
X80590842Y-64259804D01*
X80321537Y-63990499D01*
X80288294Y-63930268D01*
X80292274Y-63861587D01*
X80326876Y-63813122D01*
X80278412Y-63847726D01*
X80209731Y-63851705D01*
X80149500Y-63818462D01*
X79486818Y-63155780D01*
X79459938Y-63115552D01*
X79450499Y-63068099D01*
X79450499Y-61496912D01*
X79450499Y-61496909D01*
X79439629Y-61422297D01*
X79383368Y-61307213D01*
X79383367Y-61307212D01*
X79383367Y-61307211D01*
X79292788Y-61216632D01*
X79204299Y-61173373D01*
X79177703Y-61160371D01*
X79177701Y-61160370D01*
X79177700Y-61160370D01*
X79103094Y-61149500D01*
X78096912Y-61149500D01*
X78022296Y-61160371D01*
X77907211Y-61216632D01*
X77816632Y-61307211D01*
X77760370Y-61422299D01*
X77749500Y-61496905D01*
X77749500Y-63503087D01*
X61000500Y-63503087D01*
X61000500Y-60899999D01*
X82494353Y-60899999D01*
X82514834Y-61042457D01*
X82574623Y-61173374D01*
X82668870Y-61282141D01*
X82668872Y-61282143D01*
X82777180Y-61351748D01*
X82811193Y-61384199D01*
X82830682Y-61426979D01*
X82832846Y-61473939D01*
X82829500Y-61496908D01*
X82829500Y-63503087D01*
X82840371Y-63577703D01*
X82896632Y-63692788D01*
X82987211Y-63783367D01*
X82987212Y-63783367D01*
X82987213Y-63783368D01*
X83102297Y-63839629D01*
X83110166Y-63840775D01*
X83123378Y-63842701D01*
X83177553Y-63864488D01*
X83215751Y-63908654D01*
X83229500Y-63965405D01*
X83229500Y-64598457D01*
X83218293Y-64649971D01*
X83214834Y-64657542D01*
X83194353Y-64799999D01*
X83214834Y-64942457D01*
X83274623Y-65073374D01*
X83368870Y-65182141D01*
X83368872Y-65182143D01*
X83489947Y-65259953D01*
X83628039Y-65300500D01*
X83771961Y-65300500D01*
X83910053Y-65259953D01*
X84031128Y-65182143D01*
X84125377Y-65073373D01*
X84185165Y-64942457D01*
X84205647Y-64800000D01*
X84185165Y-64657543D01*
X84141706Y-64562382D01*
X84130500Y-64510870D01*
X84130500Y-63965405D01*
X84144249Y-63908654D01*
X84182447Y-63864488D01*
X84236622Y-63842701D01*
X84250330Y-63840702D01*
X84257703Y-63839629D01*
X84372787Y-63783368D01*
X84463368Y-63692787D01*
X84519629Y-63577703D01*
X84530500Y-63503091D01*
X84530499Y-61496910D01*
X84519629Y-61422297D01*
X84463368Y-61307213D01*
X84463367Y-61307212D01*
X84463367Y-61307211D01*
X84372788Y-61216632D01*
X84257700Y-61160369D01*
X84220847Y-61155000D01*
X84171790Y-61136678D01*
X84134671Y-61099739D01*
X84116110Y-61050772D01*
X84115569Y-61047182D01*
X84115348Y-61045713D01*
X84115346Y-61045710D01*
X84114448Y-61039748D01*
X84112839Y-61034856D01*
X84107895Y-61025501D01*
X84083294Y-60978956D01*
X84081215Y-60974835D01*
X84053815Y-60917937D01*
X84050820Y-60913717D01*
X84006164Y-60869061D01*
X84002946Y-60865721D01*
X83970481Y-60830732D01*
X83964055Y-60823806D01*
X83964053Y-60823805D01*
X83959958Y-60819391D01*
X83945067Y-60807964D01*
X83741368Y-60604265D01*
X83732102Y-60593897D01*
X83709879Y-60566030D01*
X83662608Y-60533800D01*
X83658870Y-60531148D01*
X83652744Y-60526627D01*
X83640862Y-60517857D01*
X83608035Y-60493629D01*
X83603424Y-60491302D01*
X83573724Y-60482141D01*
X83543045Y-60472677D01*
X83538644Y-60471230D01*
X83479023Y-60450368D01*
X83473914Y-60449500D01*
X83467902Y-60449500D01*
X83410738Y-60449500D01*
X83406101Y-60449413D01*
X83342970Y-60447050D01*
X83324365Y-60449500D01*
X83260074Y-60449500D01*
X83225139Y-60444477D01*
X83210054Y-60440047D01*
X83210053Y-60440047D01*
X83071961Y-60399500D01*
X82928039Y-60399500D01*
X82789947Y-60440047D01*
X82668870Y-60517858D01*
X82574623Y-60626625D01*
X82514834Y-60757542D01*
X82494353Y-60899999D01*
X61000500Y-60899999D01*
X61000500Y-58600000D01*
X70894353Y-58600000D01*
X70914834Y-58742457D01*
X70974623Y-58873374D01*
X71059179Y-58970957D01*
X71068872Y-58982143D01*
X71189947Y-59059953D01*
X71328039Y-59100500D01*
X71345146Y-59105523D01*
X71345047Y-59105859D01*
X71365554Y-59109939D01*
X71405782Y-59136819D01*
X71497850Y-59228887D01*
X71513977Y-59248746D01*
X71519916Y-59257836D01*
X71544894Y-59277277D01*
X71556412Y-59287449D01*
X71556481Y-59287518D01*
X71573389Y-59299590D01*
X71577494Y-59302650D01*
X71617761Y-59333992D01*
X71625044Y-59339660D01*
X71625233Y-59339757D01*
X71632801Y-59342010D01*
X71682959Y-59356943D01*
X71687819Y-59358499D01*
X71737340Y-59375500D01*
X71737342Y-59375500D01*
X71744796Y-59378059D01*
X71745029Y-59378093D01*
X71752908Y-59377767D01*
X71752911Y-59377768D01*
X71805192Y-59375605D01*
X71810315Y-59375500D01*
X79578195Y-59375500D01*
X79603641Y-59378139D01*
X79607440Y-59378935D01*
X79614268Y-59380367D01*
X79645139Y-59376519D01*
X79645677Y-59376452D01*
X79661014Y-59375500D01*
X79661111Y-59375500D01*
X79661114Y-59375500D01*
X79681643Y-59372073D01*
X79686659Y-59371342D01*
X79738626Y-59364866D01*
X79738628Y-59364864D01*
X79746457Y-59363889D01*
X79746666Y-59363822D01*
X79753607Y-59360065D01*
X79753610Y-59360065D01*
X79799666Y-59335140D01*
X79804144Y-59332835D01*
X79851211Y-59309826D01*
X79851212Y-59309824D01*
X79858308Y-59306356D01*
X79858476Y-59306230D01*
X79863824Y-59300419D01*
X79863826Y-59300419D01*
X79899294Y-59261889D01*
X79902795Y-59258240D01*
X80334618Y-58826418D01*
X80377222Y-58798584D01*
X80427421Y-58790207D01*
X80476757Y-58802700D01*
X80552297Y-58839629D01*
X80626909Y-58850500D01*
X80762583Y-58850499D01*
X80823556Y-58866526D01*
X80868769Y-58910465D01*
X80886531Y-58970957D01*
X80872252Y-59032365D01*
X80829622Y-59078814D01*
X80768871Y-59117856D01*
X80674623Y-59226625D01*
X80614834Y-59357542D01*
X80594353Y-59499999D01*
X80614834Y-59642457D01*
X80674623Y-59773374D01*
X80720767Y-59826627D01*
X80768872Y-59882143D01*
X80889947Y-59959953D01*
X81028039Y-60000500D01*
X81171961Y-60000500D01*
X81310053Y-59959953D01*
X81431128Y-59882143D01*
X81525377Y-59773373D01*
X81585165Y-59642457D01*
X81593877Y-59581854D01*
X81615608Y-59527574D01*
X81659796Y-59489285D01*
X81716616Y-59475500D01*
X84623681Y-59475500D01*
X84684656Y-59491528D01*
X84729868Y-59535467D01*
X84747630Y-59595959D01*
X84733351Y-59657367D01*
X84690720Y-59703816D01*
X84668870Y-59717857D01*
X84574623Y-59826625D01*
X84514834Y-59957542D01*
X84494353Y-60100000D01*
X84514834Y-60242457D01*
X84574623Y-60373374D01*
X84659416Y-60471230D01*
X84668872Y-60482143D01*
X84789947Y-60559953D01*
X84928039Y-60600500D01*
X84945146Y-60605523D01*
X84945047Y-60605859D01*
X84965554Y-60609939D01*
X85005782Y-60636819D01*
X85468722Y-61099759D01*
X85500816Y-61155346D01*
X85500816Y-61219533D01*
X85468723Y-61275120D01*
X85436633Y-61307210D01*
X85380370Y-61422299D01*
X85369500Y-61496905D01*
X85369500Y-63503087D01*
X85380371Y-63577703D01*
X85436632Y-63692788D01*
X85527211Y-63783367D01*
X85527212Y-63783367D01*
X85527213Y-63783368D01*
X85642297Y-63839629D01*
X85716909Y-63850500D01*
X86723090Y-63850499D01*
X86797703Y-63839629D01*
X86912787Y-63783368D01*
X87003368Y-63692787D01*
X87059629Y-63577703D01*
X87070500Y-63503091D01*
X87070499Y-61496910D01*
X87059629Y-61422297D01*
X87003368Y-61307213D01*
X87003367Y-61307212D01*
X87003367Y-61307211D01*
X86912788Y-61216632D01*
X86824299Y-61173373D01*
X86797703Y-61160371D01*
X86797701Y-61160370D01*
X86797700Y-61160370D01*
X86723094Y-61149500D01*
X86723091Y-61149500D01*
X86631899Y-61149500D01*
X86584446Y-61140061D01*
X86544218Y-61113181D01*
X86536978Y-61105941D01*
X86526225Y-61091519D01*
X86510112Y-61076686D01*
X86481892Y-61050707D01*
X86478219Y-61047182D01*
X85530566Y-60099528D01*
X85507363Y-60067351D01*
X85495509Y-60029492D01*
X85485165Y-59957542D01*
X85425376Y-59826625D01*
X85331129Y-59717857D01*
X85309280Y-59703816D01*
X85266649Y-59657367D01*
X85252370Y-59595959D01*
X85270132Y-59535467D01*
X85315344Y-59491528D01*
X85376319Y-59475500D01*
X86723681Y-59475500D01*
X86784656Y-59491528D01*
X86829868Y-59535467D01*
X86847630Y-59595959D01*
X86833351Y-59657367D01*
X86790720Y-59703816D01*
X86768870Y-59717857D01*
X86674623Y-59826625D01*
X86614834Y-59957542D01*
X86594353Y-60100000D01*
X86614834Y-60242457D01*
X86674623Y-60373374D01*
X86759416Y-60471230D01*
X86768872Y-60482143D01*
X86889947Y-60559953D01*
X87028039Y-60600500D01*
X87045146Y-60605523D01*
X87045047Y-60605859D01*
X87065554Y-60609939D01*
X87105782Y-60636819D01*
X87873181Y-61404218D01*
X87900061Y-61444446D01*
X87909500Y-61491899D01*
X87909500Y-63503087D01*
X87920371Y-63577703D01*
X87976632Y-63692788D01*
X88067211Y-63783367D01*
X88067212Y-63783367D01*
X88067213Y-63783368D01*
X88182297Y-63839629D01*
X88256909Y-63850500D01*
X89263090Y-63850499D01*
X89337703Y-63839629D01*
X89452787Y-63783368D01*
X89543368Y-63692787D01*
X89599629Y-63577703D01*
X89610500Y-63503091D01*
X89610500Y-63503087D01*
X90449500Y-63503087D01*
X90460371Y-63577703D01*
X90516632Y-63692788D01*
X90607211Y-63783367D01*
X90607212Y-63783367D01*
X90607213Y-63783368D01*
X90722297Y-63839629D01*
X90796909Y-63850500D01*
X91803090Y-63850499D01*
X91877703Y-63839629D01*
X91992787Y-63783368D01*
X92083368Y-63692787D01*
X92139629Y-63577703D01*
X92150500Y-63503091D01*
X92150499Y-61496910D01*
X92139629Y-61422297D01*
X92083368Y-61307213D01*
X92083367Y-61307212D01*
X92083367Y-61307211D01*
X91992788Y-61216632D01*
X91904299Y-61173373D01*
X91877703Y-61160371D01*
X91877701Y-61160370D01*
X91877700Y-61160370D01*
X91803094Y-61149500D01*
X91803091Y-61149500D01*
X91794079Y-61149500D01*
X91736569Y-61135357D01*
X91692178Y-61096155D01*
X91671031Y-61040836D01*
X91663891Y-60983550D01*
X91663821Y-60983332D01*
X91660065Y-60976392D01*
X91660065Y-60976390D01*
X91635148Y-60930348D01*
X91632828Y-60925840D01*
X91609826Y-60878789D01*
X91609825Y-60878788D01*
X91606360Y-60871700D01*
X91606225Y-60871519D01*
X91599927Y-60865721D01*
X91561893Y-60830708D01*
X91558220Y-60827183D01*
X91530566Y-60799529D01*
X91507363Y-60767352D01*
X91495509Y-60729493D01*
X91485165Y-60657542D01*
X91425376Y-60526625D01*
X91331129Y-60417858D01*
X91331128Y-60417857D01*
X91210053Y-60340047D01*
X91071961Y-60299500D01*
X90928039Y-60299500D01*
X90789947Y-60340047D01*
X90668870Y-60417858D01*
X90574623Y-60526625D01*
X90514834Y-60657542D01*
X90494353Y-60800000D01*
X90514834Y-60942457D01*
X90564301Y-61050772D01*
X90574623Y-61073373D01*
X90577494Y-61076686D01*
X90580656Y-61080335D01*
X90608109Y-61135179D01*
X90605920Y-61196472D01*
X90574625Y-61249219D01*
X90516632Y-61307212D01*
X90460370Y-61422299D01*
X90449500Y-61496905D01*
X90449500Y-63503087D01*
X89610500Y-63503087D01*
X89610499Y-61496910D01*
X89599629Y-61422297D01*
X89543368Y-61307213D01*
X89543367Y-61307212D01*
X89543367Y-61307211D01*
X89452788Y-61216632D01*
X89364299Y-61173373D01*
X89337703Y-61160371D01*
X89337701Y-61160370D01*
X89337700Y-61160370D01*
X89263094Y-61149500D01*
X89263091Y-61149500D01*
X88731899Y-61149500D01*
X88684446Y-61140061D01*
X88644218Y-61113181D01*
X87630566Y-60099528D01*
X87607363Y-60067351D01*
X87595509Y-60029492D01*
X87585165Y-59957542D01*
X87525376Y-59826625D01*
X87431129Y-59717857D01*
X87409280Y-59703816D01*
X87366649Y-59657367D01*
X87352370Y-59595959D01*
X87370132Y-59535467D01*
X87415344Y-59491528D01*
X87476319Y-59475500D01*
X90738195Y-59475500D01*
X90763641Y-59478139D01*
X90767440Y-59478935D01*
X90774268Y-59480367D01*
X90804138Y-59476643D01*
X90805677Y-59476452D01*
X90821014Y-59475500D01*
X90821111Y-59475500D01*
X90821114Y-59475500D01*
X90841643Y-59472073D01*
X90846659Y-59471342D01*
X90898626Y-59464866D01*
X90898628Y-59464864D01*
X90906457Y-59463889D01*
X90906666Y-59463822D01*
X90913607Y-59460065D01*
X90913610Y-59460065D01*
X90959666Y-59435140D01*
X90964144Y-59432835D01*
X91011211Y-59409826D01*
X91011212Y-59409824D01*
X91018308Y-59406356D01*
X91018476Y-59406230D01*
X91023824Y-59400419D01*
X91023826Y-59400419D01*
X91059293Y-59361890D01*
X91062794Y-59358241D01*
X91518892Y-58902144D01*
X91538751Y-58886019D01*
X91562219Y-58870688D01*
X91594657Y-58855653D01*
X91630036Y-58850499D01*
X91793088Y-58850499D01*
X91793090Y-58850499D01*
X91867703Y-58839629D01*
X91982787Y-58783368D01*
X92073368Y-58692787D01*
X92129629Y-58577703D01*
X92140500Y-58503091D01*
X92140500Y-58503087D01*
X92979500Y-58503087D01*
X92990371Y-58577703D01*
X93046632Y-58692788D01*
X93137211Y-58783367D01*
X93137212Y-58783367D01*
X93137213Y-58783368D01*
X93252297Y-58839629D01*
X93326909Y-58850500D01*
X94333090Y-58850499D01*
X94407703Y-58839629D01*
X94522787Y-58783368D01*
X94613368Y-58692787D01*
X94669629Y-58577703D01*
X94680500Y-58503091D01*
X94680499Y-56496910D01*
X94669629Y-56422297D01*
X94613368Y-56307213D01*
X94613367Y-56307212D01*
X94613367Y-56307211D01*
X94522788Y-56216632D01*
X94458467Y-56185188D01*
X94407703Y-56160371D01*
X94407701Y-56160370D01*
X94407700Y-56160370D01*
X94333094Y-56149500D01*
X93326912Y-56149500D01*
X93252296Y-56160371D01*
X93137211Y-56216632D01*
X93046632Y-56307211D01*
X92990370Y-56422299D01*
X92979500Y-56496905D01*
X92979500Y-58503087D01*
X92140500Y-58503087D01*
X92140499Y-56496910D01*
X92129629Y-56422297D01*
X92073368Y-56307213D01*
X92073367Y-56307212D01*
X92073367Y-56307211D01*
X91982788Y-56216632D01*
X91918467Y-56185188D01*
X91867703Y-56160371D01*
X91867701Y-56160370D01*
X91867700Y-56160370D01*
X91793094Y-56149500D01*
X90786912Y-56149500D01*
X90712296Y-56160371D01*
X90597211Y-56216632D01*
X90506632Y-56307211D01*
X90450370Y-56422299D01*
X90439500Y-56496905D01*
X90439500Y-58503088D01*
X90451088Y-58582624D01*
X90447409Y-58635268D01*
X90422172Y-58681615D01*
X90379947Y-58713270D01*
X90328383Y-58724500D01*
X89711617Y-58724500D01*
X89660053Y-58713270D01*
X89617828Y-58681615D01*
X89592591Y-58635267D01*
X89588913Y-58582622D01*
X89598306Y-58518146D01*
X89600500Y-58503091D01*
X89600499Y-56496910D01*
X89589629Y-56422297D01*
X89533368Y-56307213D01*
X89533367Y-56307212D01*
X89533367Y-56307211D01*
X89442788Y-56216632D01*
X89378467Y-56185188D01*
X89327703Y-56160371D01*
X89327701Y-56160370D01*
X89327700Y-56160370D01*
X89253094Y-56149500D01*
X89253091Y-56149500D01*
X89224500Y-56149500D01*
X89162500Y-56132887D01*
X89117113Y-56087500D01*
X89100500Y-56025500D01*
X89100500Y-55346544D01*
X89109939Y-55299091D01*
X89136819Y-55258863D01*
X89395682Y-55000000D01*
X94494353Y-55000000D01*
X94514834Y-55142457D01*
X94574623Y-55273374D01*
X94641453Y-55350500D01*
X94668872Y-55382143D01*
X94789947Y-55459953D01*
X94928039Y-55500500D01*
X95071961Y-55500500D01*
X95210053Y-55459953D01*
X95331128Y-55382143D01*
X95331127Y-55382143D01*
X95346127Y-55372504D01*
X95347137Y-55374076D01*
X95363660Y-55361707D01*
X95415176Y-55350500D01*
X95503456Y-55350500D01*
X95550909Y-55359939D01*
X95591137Y-55386819D01*
X95983181Y-55778863D01*
X96010061Y-55819091D01*
X96019500Y-55866544D01*
X96019500Y-56025501D01*
X96002887Y-56087501D01*
X95957500Y-56132888D01*
X95895500Y-56149501D01*
X95866910Y-56149501D01*
X95817167Y-56156747D01*
X95792296Y-56160371D01*
X95677211Y-56216632D01*
X95586632Y-56307211D01*
X95530370Y-56422299D01*
X95519500Y-56496905D01*
X95519500Y-58503087D01*
X95530371Y-58577703D01*
X95586632Y-58692788D01*
X95677211Y-58783367D01*
X95677212Y-58783367D01*
X95677213Y-58783368D01*
X95792297Y-58839629D01*
X95866909Y-58850500D01*
X96873090Y-58850499D01*
X96947703Y-58839629D01*
X96947704Y-58839628D01*
X96947706Y-58839628D01*
X97023242Y-58802701D01*
X97072578Y-58790207D01*
X97122777Y-58798584D01*
X97165383Y-58826420D01*
X98063181Y-59724218D01*
X98090061Y-59764446D01*
X98099500Y-59811899D01*
X98099500Y-65918101D01*
X98090061Y-65965554D01*
X98063181Y-66005782D01*
X97605781Y-66463181D01*
X97565553Y-66490061D01*
X97545047Y-66494139D01*
X97545146Y-66494477D01*
X97389947Y-66540047D01*
X97268870Y-66617858D01*
X97174623Y-66726625D01*
X97114834Y-66857542D01*
X97094353Y-66999999D01*
X97094353Y-67000000D01*
X97096927Y-67017906D01*
X97114834Y-67142457D01*
X97174623Y-67273374D01*
X97268870Y-67382141D01*
X97268872Y-67382143D01*
X97389947Y-67459953D01*
X97528039Y-67500500D01*
X97671961Y-67500500D01*
X97810053Y-67459953D01*
X97931128Y-67382143D01*
X98025377Y-67273373D01*
X98085165Y-67142457D01*
X98095510Y-67070501D01*
X98107363Y-67032646D01*
X98130563Y-67000472D01*
X98703892Y-66427144D01*
X98723743Y-66411024D01*
X98732836Y-66405084D01*
X98752280Y-66380101D01*
X98762453Y-66368584D01*
X98762520Y-66368518D01*
X98774619Y-66351570D01*
X98777641Y-66347515D01*
X98809809Y-66306189D01*
X98809810Y-66306185D01*
X98814666Y-66299947D01*
X98814753Y-66299778D01*
X98817008Y-66292200D01*
X98817010Y-66292199D01*
X98831951Y-66242009D01*
X98833479Y-66237238D01*
X98850500Y-66187660D01*
X98850500Y-66187656D01*
X98853060Y-66180199D01*
X98853093Y-66179969D01*
X98852767Y-66172090D01*
X98852768Y-66172088D01*
X98850605Y-66119806D01*
X98850500Y-66114684D01*
X98850500Y-59656804D01*
X98853139Y-59631358D01*
X98853177Y-59631175D01*
X98855367Y-59620732D01*
X98851452Y-59589323D01*
X98850500Y-59573986D01*
X98850500Y-59573889D01*
X98850500Y-59573886D01*
X98847074Y-59553357D01*
X98846342Y-59548334D01*
X98839866Y-59496375D01*
X98839864Y-59496371D01*
X98838889Y-59488547D01*
X98838819Y-59488327D01*
X98834511Y-59480366D01*
X98810159Y-59435369D01*
X98807822Y-59430829D01*
X98795858Y-59406356D01*
X98784826Y-59383789D01*
X98784825Y-59383788D01*
X98781360Y-59376700D01*
X98781225Y-59376519D01*
X98775419Y-59371174D01*
X98736892Y-59335707D01*
X98733219Y-59332182D01*
X97256818Y-57855780D01*
X97229938Y-57815552D01*
X97220499Y-57768099D01*
X97220499Y-56496912D01*
X97219144Y-56487611D01*
X97209629Y-56422297D01*
X97153368Y-56307213D01*
X97153367Y-56307212D01*
X97153367Y-56307211D01*
X97062788Y-56216632D01*
X96998467Y-56185188D01*
X96947703Y-56160371D01*
X96947701Y-56160370D01*
X96947700Y-56160370D01*
X96873094Y-56149500D01*
X96873091Y-56149500D01*
X96844500Y-56149500D01*
X96782500Y-56132887D01*
X96737113Y-56087500D01*
X96720500Y-56025500D01*
X96720500Y-55719207D01*
X96723139Y-55693761D01*
X96723173Y-55693594D01*
X96725042Y-55684685D01*
X96721452Y-55655884D01*
X96720540Y-55641205D01*
X96720500Y-55640965D01*
X96720500Y-55640960D01*
X96717331Y-55621972D01*
X96716594Y-55616915D01*
X96716046Y-55612517D01*
X96710573Y-55568607D01*
X96710572Y-55568605D01*
X96709648Y-55561191D01*
X96706092Y-55554620D01*
X96706092Y-55554619D01*
X96682925Y-55511811D01*
X96680581Y-55507256D01*
X96655918Y-55456805D01*
X96650418Y-55451742D01*
X96614587Y-55418757D01*
X96610914Y-55415232D01*
X95982638Y-54786956D01*
X95966509Y-54767094D01*
X95961437Y-54759330D01*
X95938533Y-54741504D01*
X95927508Y-54731768D01*
X95911653Y-54720448D01*
X95907544Y-54717384D01*
X95863229Y-54682892D01*
X95809409Y-54666869D01*
X95804531Y-54665306D01*
X95751421Y-54647074D01*
X95695332Y-54649394D01*
X95690208Y-54649500D01*
X95415176Y-54649500D01*
X95363660Y-54638293D01*
X95347137Y-54625923D01*
X95346127Y-54627496D01*
X95237277Y-54557543D01*
X95210053Y-54540047D01*
X95071961Y-54499500D01*
X94928039Y-54499500D01*
X94789947Y-54540047D01*
X94668870Y-54617858D01*
X94574623Y-54726625D01*
X94514834Y-54857542D01*
X94494353Y-55000000D01*
X89395682Y-55000000D01*
X90808863Y-53586819D01*
X90849091Y-53559939D01*
X90896544Y-53550500D01*
X94150788Y-53550500D01*
X94176234Y-53553139D01*
X94177556Y-53553416D01*
X94185315Y-53555043D01*
X94211364Y-53551795D01*
X94214123Y-53551452D01*
X94228795Y-53550541D01*
X94248013Y-53547334D01*
X94253069Y-53546596D01*
X94301393Y-53540573D01*
X94301394Y-53540572D01*
X94308808Y-53539648D01*
X94315378Y-53536092D01*
X94315381Y-53536092D01*
X94358201Y-53512918D01*
X94362747Y-53510577D01*
X94406484Y-53489198D01*
X94406486Y-53489195D01*
X94413195Y-53485916D01*
X94418254Y-53480419D01*
X94418258Y-53480418D01*
X94451254Y-53444572D01*
X94454756Y-53440924D01*
X95668375Y-52227307D01*
X95813048Y-52082632D01*
X95832905Y-52066508D01*
X95840669Y-52061437D01*
X95858496Y-52038531D01*
X95868228Y-52027511D01*
X95868370Y-52027311D01*
X95868376Y-52027306D01*
X95879586Y-52011603D01*
X95882600Y-52007561D01*
X95912517Y-51969126D01*
X95912517Y-51969124D01*
X95917107Y-51963228D01*
X95919238Y-51956067D01*
X95919240Y-51956066D01*
X95933129Y-51909412D01*
X95934679Y-51904569D01*
X95950500Y-51858488D01*
X95950500Y-51858484D01*
X95952925Y-51851420D01*
X95952616Y-51843955D01*
X95952617Y-51843954D01*
X95950606Y-51795321D01*
X95950500Y-51790198D01*
X95950500Y-51006036D01*
X95958318Y-50962703D01*
X95980787Y-50924834D01*
X96025376Y-50873374D01*
X96025375Y-50873374D01*
X96025377Y-50873373D01*
X96085165Y-50742457D01*
X96105647Y-50600000D01*
X96085165Y-50457543D01*
X96025377Y-50326627D01*
X96025376Y-50326626D01*
X96025376Y-50326625D01*
X95931129Y-50217858D01*
X95931128Y-50217857D01*
X95810053Y-50140047D01*
X95671961Y-50099500D01*
X95528039Y-50099500D01*
X95389947Y-50140047D01*
X95268870Y-50217858D01*
X95174623Y-50326625D01*
X95114834Y-50457542D01*
X95094353Y-50600000D01*
X95114834Y-50742457D01*
X95174623Y-50873374D01*
X95219213Y-50924834D01*
X95241682Y-50962703D01*
X95249500Y-51006036D01*
X95249500Y-51603455D01*
X95240061Y-51650909D01*
X95213180Y-51691137D01*
X95176077Y-51728238D01*
X95176073Y-51728244D01*
X94091137Y-52813181D01*
X94050909Y-52840061D01*
X94003456Y-52849500D01*
X90749207Y-52849500D01*
X90723761Y-52846861D01*
X90714685Y-52844958D01*
X90685884Y-52848548D01*
X90671203Y-52849459D01*
X90651986Y-52852665D01*
X90646924Y-52853402D01*
X90591192Y-52860350D01*
X90541813Y-52887072D01*
X90537261Y-52889415D01*
X90486804Y-52914082D01*
X90448780Y-52955387D01*
X90445233Y-52959083D01*
X88536955Y-54867361D01*
X88517104Y-54883483D01*
X88509332Y-54888561D01*
X88491500Y-54911471D01*
X88481765Y-54922496D01*
X88470441Y-54938357D01*
X88467392Y-54942445D01*
X88461902Y-54949500D01*
X88432891Y-54986773D01*
X88416871Y-55040582D01*
X88415309Y-55045458D01*
X88397074Y-55098577D01*
X88399394Y-55154668D01*
X88399500Y-55159792D01*
X88399500Y-56025501D01*
X88382887Y-56087501D01*
X88337500Y-56132888D01*
X88275500Y-56149501D01*
X88246910Y-56149501D01*
X88197167Y-56156747D01*
X88172296Y-56160371D01*
X88057211Y-56216632D01*
X87966632Y-56307211D01*
X87910370Y-56422299D01*
X87899500Y-56496905D01*
X87899500Y-58503088D01*
X87911088Y-58582624D01*
X87907409Y-58635268D01*
X87882172Y-58681615D01*
X87839947Y-58713270D01*
X87788383Y-58724500D01*
X84631617Y-58724500D01*
X84580053Y-58713270D01*
X84537828Y-58681615D01*
X84512591Y-58635267D01*
X84508913Y-58582622D01*
X84518306Y-58518146D01*
X84520500Y-58503091D01*
X84520499Y-56496910D01*
X84509629Y-56422297D01*
X84453368Y-56307213D01*
X84453367Y-56307212D01*
X84453367Y-56307211D01*
X84362788Y-56216632D01*
X84298467Y-56185188D01*
X84247703Y-56160371D01*
X84247701Y-56160370D01*
X84247700Y-56160370D01*
X84173094Y-56149500D01*
X83166912Y-56149500D01*
X83092294Y-56160371D01*
X82993010Y-56208908D01*
X82943675Y-56221401D01*
X82893476Y-56213024D01*
X82850870Y-56185188D01*
X81752638Y-55086956D01*
X81736509Y-55067094D01*
X81731437Y-55059330D01*
X81708533Y-55041504D01*
X81697508Y-55031768D01*
X81681653Y-55020448D01*
X81677544Y-55017384D01*
X81633229Y-54982892D01*
X81579409Y-54966869D01*
X81574531Y-54965306D01*
X81521421Y-54947074D01*
X81465332Y-54949394D01*
X81460208Y-54949500D01*
X78196543Y-54949500D01*
X78149090Y-54940061D01*
X78108862Y-54913181D01*
X77236504Y-54040822D01*
X77213301Y-54008645D01*
X77201447Y-53970788D01*
X77185165Y-53857542D01*
X77125376Y-53726625D01*
X77031129Y-53617858D01*
X77031128Y-53617857D01*
X76910053Y-53540047D01*
X76771961Y-53499500D01*
X76628039Y-53499500D01*
X76489947Y-53540047D01*
X76368870Y-53617858D01*
X76274623Y-53726625D01*
X76214834Y-53857542D01*
X76194353Y-53999999D01*
X76214834Y-54142457D01*
X76274623Y-54273374D01*
X76313168Y-54317857D01*
X76368872Y-54382143D01*
X76489947Y-54459953D01*
X76628039Y-54500500D01*
X76653456Y-54500500D01*
X76700909Y-54509939D01*
X76741137Y-54536819D01*
X77717361Y-55513043D01*
X77733489Y-55532903D01*
X77738563Y-55540669D01*
X77761473Y-55558500D01*
X77772496Y-55568235D01*
X77788355Y-55579558D01*
X77792464Y-55582622D01*
X77836771Y-55617107D01*
X77843932Y-55619239D01*
X77843934Y-55619240D01*
X77890614Y-55633137D01*
X77895455Y-55634688D01*
X77941512Y-55650500D01*
X77941514Y-55650500D01*
X77948578Y-55652925D01*
X77956044Y-55652616D01*
X77956047Y-55652617D01*
X78004678Y-55650606D01*
X78009802Y-55650500D01*
X81273456Y-55650500D01*
X81320909Y-55659939D01*
X81361137Y-55686819D01*
X81612137Y-55937819D01*
X81642387Y-55987182D01*
X81646929Y-56044898D01*
X81624774Y-56098385D01*
X81580751Y-56135985D01*
X81524456Y-56149500D01*
X80626912Y-56149500D01*
X80552296Y-56160371D01*
X80437211Y-56216632D01*
X80346632Y-56307211D01*
X80290370Y-56422299D01*
X80279500Y-56496906D01*
X80279500Y-57768099D01*
X80270061Y-57815552D01*
X80243181Y-57855780D01*
X79510781Y-58588181D01*
X79470553Y-58615061D01*
X79423100Y-58624500D01*
X72016616Y-58624500D01*
X71959796Y-58610715D01*
X71915608Y-58572426D01*
X71893878Y-58518146D01*
X71885165Y-58457542D01*
X71825376Y-58326625D01*
X71731129Y-58217858D01*
X71731128Y-58217857D01*
X71610053Y-58140047D01*
X71471961Y-58099500D01*
X71328039Y-58099500D01*
X71189947Y-58140047D01*
X71068870Y-58217858D01*
X70974623Y-58326625D01*
X70914834Y-58457542D01*
X70894353Y-58600000D01*
X61000500Y-58600000D01*
X61000500Y-54699999D01*
X72684353Y-54699999D01*
X72704834Y-54842457D01*
X72764623Y-54973374D01*
X72809213Y-55024834D01*
X72831682Y-55062703D01*
X72839500Y-55106036D01*
X72839500Y-56305505D01*
X72831682Y-56348838D01*
X72809213Y-56386707D01*
X72774623Y-56426625D01*
X72714834Y-56557542D01*
X72694353Y-56700000D01*
X72714834Y-56842457D01*
X72774623Y-56973374D01*
X72868870Y-57082141D01*
X72868872Y-57082143D01*
X72989947Y-57159953D01*
X73128039Y-57200500D01*
X73271961Y-57200500D01*
X73410053Y-57159953D01*
X73531128Y-57082143D01*
X73625377Y-56973373D01*
X73685165Y-56842457D01*
X73705647Y-56700000D01*
X73685165Y-56557543D01*
X73681376Y-56549247D01*
X73625377Y-56426628D01*
X73625377Y-56426627D01*
X73570785Y-56363624D01*
X73548318Y-56325758D01*
X73540500Y-56282424D01*
X73540500Y-55106036D01*
X73548318Y-55062703D01*
X73570787Y-55024834D01*
X73615376Y-54973374D01*
X73615375Y-54973374D01*
X73615377Y-54973373D01*
X73675165Y-54842457D01*
X73695647Y-54700000D01*
X73675165Y-54557543D01*
X73648657Y-54499500D01*
X73615376Y-54426625D01*
X73521129Y-54317858D01*
X73521128Y-54317857D01*
X73400053Y-54240047D01*
X73261961Y-54199500D01*
X73118039Y-54199500D01*
X72979947Y-54240047D01*
X72858870Y-54317858D01*
X72764623Y-54426625D01*
X72704834Y-54557542D01*
X72684353Y-54699999D01*
X61000500Y-54699999D01*
X61000500Y-43503051D01*
X61000649Y-43496967D01*
X61007998Y-43347372D01*
X61018010Y-43156327D01*
X61019176Y-43144679D01*
X61043801Y-42978671D01*
X61043929Y-42977842D01*
X61071290Y-42805093D01*
X61073463Y-42794438D01*
X61115016Y-42628551D01*
X61115406Y-42627043D01*
X61159870Y-42461105D01*
X61162880Y-42451469D01*
X61220867Y-42289405D01*
X61221830Y-42286810D01*
X61282836Y-42127883D01*
X61286466Y-42119395D01*
X61360400Y-41963076D01*
X61361912Y-41959997D01*
X61438909Y-41808881D01*
X61443010Y-41801474D01*
X61532078Y-41652873D01*
X61534354Y-41649225D01*
X61626523Y-41507298D01*
X61630860Y-41501055D01*
X61734170Y-41361757D01*
X61737331Y-41357679D01*
X61843698Y-41226325D01*
X61848123Y-41221162D01*
X61964674Y-41092568D01*
X61968793Y-41088242D01*
X62088242Y-40968793D01*
X62092568Y-40964674D01*
X62221162Y-40848123D01*
X62226325Y-40843698D01*
X62357679Y-40737331D01*
X62361757Y-40734170D01*
X62501055Y-40630860D01*
X62507298Y-40626523D01*
X62649225Y-40534354D01*
X62652873Y-40532078D01*
X62801474Y-40443010D01*
X62808881Y-40438909D01*
X62959997Y-40361912D01*
X62963076Y-40360400D01*
X63119395Y-40286466D01*
X63127883Y-40282836D01*
X63286847Y-40221816D01*
X63289405Y-40220867D01*
X63451469Y-40162880D01*
X63461105Y-40159870D01*
X63627043Y-40115406D01*
X63628551Y-40115016D01*
X63794438Y-40073463D01*
X63805093Y-40071290D01*
X63977842Y-40043929D01*
X63978671Y-40043801D01*
X64144679Y-40019176D01*
X64156325Y-40018010D01*
X64347402Y-40007996D01*
X64493747Y-40000807D01*
X64496968Y-40000649D01*
X64503051Y-40000500D01*
X97496949Y-40000500D01*
X97503032Y-40000649D01*
G37*
%TD.AperFunction*%
%TD*%
M02*
