%TF.GenerationSoftware,KiCad,Pcbnew,7.0.1*%
%TF.CreationDate,2024-02-15T14:31:57+01:00*%
%TF.ProjectId,pi4-sensorleap-v1,7069342d-7365-46e7-936f-726c6561702d,rev?*%
%TF.SameCoordinates,Original*%
%TF.FileFunction,Copper,L3,Inr*%
%TF.FilePolarity,Positive*%
%FSLAX46Y46*%
G04 Gerber Fmt 4.6, Leading zero omitted, Abs format (unit mm)*
G04 Created by KiCad (PCBNEW 7.0.1) date 2024-02-15 14:31:57*
%MOMM*%
%LPD*%
G01*
G04 APERTURE LIST*
%TA.AperFunction,ViaPad*%
%ADD10C,0.500000*%
%TD*%
G04 APERTURE END LIST*
D10*
%TO.N,IRQ_GYRO*%
X86698000Y-70896000D03*
%TO.N,IRQ_ACCEL*%
X88998000Y-68800000D03*
%TO.N,SPI_MOSI*%
X85000000Y-60100000D03*
%TO.N,SPI_MISO*%
X87100000Y-60100000D03*
%TO.N,SPI_CE0*%
X81100000Y-59500000D03*
%TO.N,SPI_CLK*%
X91000000Y-60800000D03*
%TO.N,SCL*%
X97600000Y-67000000D03*
X95000000Y-55000000D03*
%TO.N,SDA*%
X96400000Y-60500000D03*
X93400000Y-75300000D03*
%TO.N,IRQ_DW*%
X76700000Y-54000000D03*
%TO.N,Net-(U1-SPICSn)*%
X73190000Y-54700000D03*
X73200000Y-56700000D03*
%TO.N,GND*%
X98000000Y-74000000D03*
X74500000Y-42100000D03*
X100000000Y-58000000D03*
X96000000Y-42000000D03*
X72090000Y-47100000D03*
X98000000Y-75700000D03*
X70630000Y-44700000D03*
X71890000Y-52000000D03*
X97600000Y-61700000D03*
X72090000Y-44700000D03*
X95000000Y-60000000D03*
X100000000Y-68000000D03*
X73900000Y-40300000D03*
X68300000Y-43900000D03*
X74500000Y-40300000D03*
X81990000Y-46000000D03*
X67240000Y-51170000D03*
X80000000Y-54000000D03*
X73690000Y-52000000D03*
X69500000Y-43900000D03*
X74500000Y-41500000D03*
X84000000Y-46000000D03*
X72090000Y-45300000D03*
X71890000Y-52900000D03*
X100000000Y-62000000D03*
X72700000Y-46200000D03*
X90000000Y-66000000D03*
X70630000Y-47700000D03*
X68300000Y-42700000D03*
X89000000Y-60000000D03*
X80000000Y-56000000D03*
X70050000Y-46800000D03*
X100000000Y-60000000D03*
X72700000Y-57400000D03*
X75040000Y-47950000D03*
X65990000Y-60000000D03*
X73300000Y-42100000D03*
X98000000Y-52000000D03*
X98000000Y-44000000D03*
X68300000Y-40300000D03*
X88000000Y-66000000D03*
X62000000Y-62000000D03*
X93700000Y-71500000D03*
X67700000Y-40300000D03*
X69500000Y-40900000D03*
X93600000Y-48100000D03*
X74500000Y-40900000D03*
X86000000Y-68000000D03*
X73300000Y-42700000D03*
X67700000Y-43300000D03*
X70050000Y-47400000D03*
X68900000Y-41500000D03*
X66490000Y-53900000D03*
X68900000Y-40900000D03*
X70050000Y-46200000D03*
X70000000Y-60000000D03*
X66000000Y-62000000D03*
X86200000Y-55500000D03*
X74500000Y-56500000D03*
X65990000Y-58000000D03*
X73990000Y-46000000D03*
X95500000Y-53700000D03*
X68900000Y-43900000D03*
X68900000Y-42100000D03*
X70630000Y-45900000D03*
X63990000Y-54000000D03*
X73900000Y-42700000D03*
X69500000Y-43300000D03*
X68900000Y-43300000D03*
X100000000Y-50000000D03*
X74000000Y-62000000D03*
X100000000Y-70000000D03*
X72090000Y-48300000D03*
X90600000Y-55500000D03*
X77000000Y-56200000D03*
X70060000Y-44400000D03*
X88000000Y-46000000D03*
X75100000Y-42700000D03*
X90000000Y-48000000D03*
X86000000Y-54000000D03*
X72090000Y-46500000D03*
X70000000Y-62000000D03*
X62000000Y-46000000D03*
X77990000Y-48000000D03*
X67700000Y-42100000D03*
X75100000Y-43300000D03*
X81990000Y-42000000D03*
X73300000Y-40900000D03*
X98000000Y-54000000D03*
X75100000Y-43900000D03*
X94000000Y-42000000D03*
X100000000Y-54000000D03*
X69500000Y-40300000D03*
X100000000Y-66000000D03*
X68900000Y-40300000D03*
X66000000Y-46000000D03*
X98000000Y-56000000D03*
X69900000Y-56400000D03*
X72090000Y-47700000D03*
X70630000Y-46500000D03*
X85100000Y-52100000D03*
X72700000Y-47400000D03*
X96000000Y-75700000D03*
X90000000Y-68000000D03*
X74500000Y-42700000D03*
X69500000Y-42700000D03*
X73900000Y-42100000D03*
X70520000Y-48290000D03*
X94000000Y-44000000D03*
X73300000Y-41500000D03*
X92000000Y-52000000D03*
X88000000Y-54000000D03*
X98000000Y-58000000D03*
X73300000Y-40300000D03*
X90000000Y-44000000D03*
X72700000Y-45000000D03*
X93700000Y-69900000D03*
X68300000Y-42100000D03*
X100000000Y-56000000D03*
X81990000Y-44000000D03*
X90998000Y-68996000D03*
X72090000Y-45900000D03*
X64000000Y-46000000D03*
X73300000Y-43300000D03*
X70000000Y-58000000D03*
X75100000Y-41500000D03*
X100000000Y-52000000D03*
X70630000Y-45300000D03*
X70990000Y-52900000D03*
X86600000Y-74550000D03*
X90000000Y-52000000D03*
X86000000Y-66000000D03*
X76000000Y-52000000D03*
X84000000Y-72000000D03*
X88000000Y-44000000D03*
X79990000Y-42000000D03*
X70630000Y-47100000D03*
X73300000Y-43900000D03*
X86698000Y-69596000D03*
X66240000Y-51170000D03*
X68900000Y-42700000D03*
X86000000Y-46000000D03*
X72000000Y-62000000D03*
X77990000Y-44000000D03*
X72790000Y-52900000D03*
X97500000Y-63900000D03*
X84000000Y-44000000D03*
X73900000Y-40900000D03*
X70990000Y-52000000D03*
X76300000Y-57600000D03*
X84000000Y-54000000D03*
X90000000Y-46000000D03*
X62000000Y-48000000D03*
X80000000Y-66000000D03*
X67700000Y-43900000D03*
X72700000Y-46800000D03*
X90000000Y-50000000D03*
X86000000Y-44000000D03*
X94000000Y-66000000D03*
X64000000Y-62000000D03*
X100000000Y-74000000D03*
X67700000Y-42700000D03*
X67700000Y-41500000D03*
X100000000Y-48000000D03*
X85100000Y-47900000D03*
X88000000Y-42000000D03*
X98000000Y-42000000D03*
X79990000Y-46000000D03*
X98000000Y-68000000D03*
X73900000Y-41500000D03*
X98000000Y-50000000D03*
X69500000Y-42100000D03*
X73900000Y-43900000D03*
X74500000Y-43900000D03*
X75900000Y-54700000D03*
X62000000Y-50000000D03*
X62000000Y-52000000D03*
X67990000Y-58000000D03*
X73690000Y-52900000D03*
X92000000Y-42000000D03*
X70060000Y-45600000D03*
X67990000Y-60000000D03*
X75100000Y-42100000D03*
X67700000Y-40900000D03*
X90000000Y-42000000D03*
X75990000Y-48000000D03*
X68000000Y-62000000D03*
X72710000Y-45600000D03*
X77990000Y-42000000D03*
X70050000Y-45000000D03*
X74500000Y-43300000D03*
X92000000Y-54000000D03*
X68300000Y-40900000D03*
X92000000Y-44000000D03*
X98000000Y-47300000D03*
X68300000Y-43300000D03*
X100000000Y-64000000D03*
X96000000Y-44000000D03*
X72710000Y-44400000D03*
X75100000Y-40900000D03*
X63500000Y-57000000D03*
X100000000Y-72000000D03*
X88000000Y-68000000D03*
X89000000Y-75000000D03*
X76000000Y-50000000D03*
X69500000Y-41500000D03*
X84000000Y-42000000D03*
X68000000Y-46000000D03*
X82000000Y-54000000D03*
X72790000Y-52000000D03*
X79990000Y-44000000D03*
X97500000Y-60000000D03*
X63890000Y-51400000D03*
X86000000Y-42000000D03*
X72000000Y-60000000D03*
X73900000Y-43300000D03*
X75100000Y-40300000D03*
X96400000Y-51000000D03*
X68300000Y-41500000D03*
X94000000Y-68000000D03*
%TO.N,+3V3*%
X83000000Y-60900000D03*
X83700000Y-64800000D03*
%TO.N,RST_DW*%
X71400000Y-58600000D03*
%TO.N,IRQ_MM350*%
X95600000Y-50600000D03*
%TD*%
%TA.AperFunction,Conductor*%
%TO.N,GND*%
G36*
X97503032Y-40000649D02*
G01*
X97507384Y-40000862D01*
X97652450Y-40007989D01*
X97843670Y-40018010D01*
X97855324Y-40019177D01*
X98021254Y-40043791D01*
X98022225Y-40043940D01*
X98194897Y-40071289D01*
X98205570Y-40073465D01*
X98371374Y-40114997D01*
X98373014Y-40115422D01*
X98538880Y-40159866D01*
X98548544Y-40162884D01*
X98652693Y-40200150D01*
X98710526Y-40220843D01*
X98713188Y-40221830D01*
X98746726Y-40234704D01*
X98872097Y-40282829D01*
X98880623Y-40286475D01*
X99036869Y-40360374D01*
X99040055Y-40361939D01*
X99182487Y-40434511D01*
X99191094Y-40438897D01*
X99198547Y-40443023D01*
X99347075Y-40532047D01*
X99350824Y-40534387D01*
X99492670Y-40626503D01*
X99498977Y-40630884D01*
X99638210Y-40734147D01*
X99642365Y-40737367D01*
X99773635Y-40843667D01*
X99778872Y-40848155D01*
X99907389Y-40964636D01*
X99911797Y-40968833D01*
X100031165Y-41088201D01*
X100035362Y-41092609D01*
X100151843Y-41221126D01*
X100156331Y-41226363D01*
X100262620Y-41357619D01*
X100265851Y-41361788D01*
X100369114Y-41501021D01*
X100373512Y-41507353D01*
X100465599Y-41649155D01*
X100467963Y-41652942D01*
X100556975Y-41801451D01*
X100561101Y-41808904D01*
X100638037Y-41959898D01*
X100639647Y-41963176D01*
X100713510Y-42119345D01*
X100717179Y-42127925D01*
X100778168Y-42286810D01*
X100779155Y-42289472D01*
X100837111Y-42451447D01*
X100840135Y-42461128D01*
X100884535Y-42626827D01*
X100885044Y-42628792D01*
X100926526Y-42794398D01*
X100928715Y-42805130D01*
X100956041Y-42977665D01*
X100956226Y-42978867D01*
X100980818Y-43144649D01*
X100981990Y-43156354D01*
X100989830Y-43305941D01*
X100990000Y-43312431D01*
X100990000Y-76687569D01*
X100989830Y-76694059D01*
X100981990Y-76843644D01*
X100980818Y-76855349D01*
X100956226Y-77021131D01*
X100956041Y-77022333D01*
X100928715Y-77194868D01*
X100926526Y-77205600D01*
X100885044Y-77371206D01*
X100884535Y-77373171D01*
X100840135Y-77538870D01*
X100837111Y-77548551D01*
X100779155Y-77710526D01*
X100778168Y-77713188D01*
X100717179Y-77872073D01*
X100713510Y-77880653D01*
X100639647Y-78036822D01*
X100638037Y-78040100D01*
X100561101Y-78191094D01*
X100556975Y-78198547D01*
X100467963Y-78347056D01*
X100465599Y-78350843D01*
X100373512Y-78492645D01*
X100369114Y-78498977D01*
X100265851Y-78638210D01*
X100262620Y-78642379D01*
X100156331Y-78773635D01*
X100151843Y-78778872D01*
X100035362Y-78907389D01*
X100031165Y-78911797D01*
X99911797Y-79031165D01*
X99907389Y-79035362D01*
X99778872Y-79151843D01*
X99773635Y-79156331D01*
X99642379Y-79262620D01*
X99638210Y-79265851D01*
X99498977Y-79369114D01*
X99492645Y-79373512D01*
X99350843Y-79465599D01*
X99347056Y-79467963D01*
X99198547Y-79556975D01*
X99191094Y-79561101D01*
X99040100Y-79638037D01*
X99036822Y-79639647D01*
X98880653Y-79713510D01*
X98872073Y-79717179D01*
X98713188Y-79778168D01*
X98710526Y-79779155D01*
X98548551Y-79837111D01*
X98538870Y-79840135D01*
X98373171Y-79884535D01*
X98371206Y-79885044D01*
X98205600Y-79926526D01*
X98194868Y-79928715D01*
X98022333Y-79956041D01*
X98021131Y-79956226D01*
X97855349Y-79980818D01*
X97843644Y-79981990D01*
X97652774Y-79991993D01*
X97652369Y-79992014D01*
X97503033Y-79999351D01*
X97496948Y-79999500D01*
X64503052Y-79999500D01*
X64496967Y-79999351D01*
X64347629Y-79992014D01*
X64347224Y-79991993D01*
X64156354Y-79981990D01*
X64144649Y-79980818D01*
X63978867Y-79956226D01*
X63977665Y-79956041D01*
X63805130Y-79928715D01*
X63794398Y-79926526D01*
X63628792Y-79885044D01*
X63626827Y-79884535D01*
X63461128Y-79840135D01*
X63451447Y-79837111D01*
X63289472Y-79779155D01*
X63286810Y-79778168D01*
X63127925Y-79717179D01*
X63119351Y-79713512D01*
X62963176Y-79639647D01*
X62959898Y-79638037D01*
X62808904Y-79561101D01*
X62801451Y-79556975D01*
X62652942Y-79467963D01*
X62649155Y-79465599D01*
X62601996Y-79434973D01*
X62507343Y-79373505D01*
X62501021Y-79369114D01*
X62361788Y-79265851D01*
X62357619Y-79262620D01*
X62226363Y-79156331D01*
X62221126Y-79151843D01*
X62092609Y-79035362D01*
X62088201Y-79031165D01*
X61968833Y-78911797D01*
X61964636Y-78907389D01*
X61848155Y-78778872D01*
X61843667Y-78773635D01*
X61737378Y-78642379D01*
X61734147Y-78638210D01*
X61630884Y-78498977D01*
X61626503Y-78492670D01*
X61534387Y-78350824D01*
X61532035Y-78347056D01*
X61443023Y-78198547D01*
X61438897Y-78191094D01*
X61434511Y-78182487D01*
X61361939Y-78040055D01*
X61360374Y-78036869D01*
X61286475Y-77880623D01*
X61282829Y-77872097D01*
X61221830Y-77713188D01*
X61220843Y-77710526D01*
X61162887Y-77548551D01*
X61159863Y-77538870D01*
X61115422Y-77373014D01*
X61114997Y-77371374D01*
X61073465Y-77205570D01*
X61071289Y-77194897D01*
X61043940Y-77022225D01*
X61043791Y-77021254D01*
X61019177Y-76855324D01*
X61018010Y-76843670D01*
X61007989Y-76652450D01*
X61000649Y-76503032D01*
X61000500Y-76496949D01*
X61000500Y-75300000D01*
X92894353Y-75300000D01*
X92914834Y-75442457D01*
X92974623Y-75573374D01*
X93068870Y-75682141D01*
X93068872Y-75682143D01*
X93189947Y-75759953D01*
X93328039Y-75800500D01*
X93471961Y-75800500D01*
X93610053Y-75759953D01*
X93731128Y-75682143D01*
X93825377Y-75573373D01*
X93885165Y-75442457D01*
X93905647Y-75300000D01*
X93885165Y-75157543D01*
X93825377Y-75026627D01*
X93825376Y-75026626D01*
X93825376Y-75026625D01*
X93731129Y-74917858D01*
X93731128Y-74917857D01*
X93610053Y-74840047D01*
X93471961Y-74799500D01*
X93328039Y-74799500D01*
X93189947Y-74840047D01*
X93068870Y-74917858D01*
X92974623Y-75026625D01*
X92914834Y-75157542D01*
X92894353Y-75300000D01*
X61000500Y-75300000D01*
X61000500Y-70896000D01*
X86192353Y-70896000D01*
X86212834Y-71038457D01*
X86272623Y-71169374D01*
X86366870Y-71278141D01*
X86366872Y-71278143D01*
X86487947Y-71355953D01*
X86626039Y-71396500D01*
X86769961Y-71396500D01*
X86908053Y-71355953D01*
X87029128Y-71278143D01*
X87123377Y-71169373D01*
X87183165Y-71038457D01*
X87203647Y-70896000D01*
X87183165Y-70753543D01*
X87123377Y-70622627D01*
X87123376Y-70622626D01*
X87123376Y-70622625D01*
X87029129Y-70513858D01*
X87029128Y-70513857D01*
X86908053Y-70436047D01*
X86769961Y-70395500D01*
X86626039Y-70395500D01*
X86487947Y-70436047D01*
X86366870Y-70513858D01*
X86272623Y-70622625D01*
X86212834Y-70753542D01*
X86192353Y-70896000D01*
X61000500Y-70896000D01*
X61000500Y-68800000D01*
X88492353Y-68800000D01*
X88512834Y-68942457D01*
X88572623Y-69073374D01*
X88666870Y-69182141D01*
X88666872Y-69182143D01*
X88787947Y-69259953D01*
X88926039Y-69300500D01*
X89069961Y-69300500D01*
X89208053Y-69259953D01*
X89329128Y-69182143D01*
X89423377Y-69073373D01*
X89483165Y-68942457D01*
X89503647Y-68800000D01*
X89483165Y-68657543D01*
X89423377Y-68526627D01*
X89423376Y-68526626D01*
X89423376Y-68526625D01*
X89329129Y-68417858D01*
X89329128Y-68417857D01*
X89208053Y-68340047D01*
X89069961Y-68299500D01*
X88926039Y-68299500D01*
X88787947Y-68340047D01*
X88666870Y-68417858D01*
X88572623Y-68526625D01*
X88512834Y-68657542D01*
X88492353Y-68800000D01*
X61000500Y-68800000D01*
X61000500Y-66999999D01*
X97094353Y-66999999D01*
X97114834Y-67142457D01*
X97174623Y-67273374D01*
X97268870Y-67382141D01*
X97268872Y-67382143D01*
X97389947Y-67459953D01*
X97528039Y-67500500D01*
X97671961Y-67500500D01*
X97810053Y-67459953D01*
X97931128Y-67382143D01*
X98025377Y-67273373D01*
X98085165Y-67142457D01*
X98105647Y-67000000D01*
X98085165Y-66857543D01*
X98025377Y-66726627D01*
X98025376Y-66726626D01*
X98025376Y-66726625D01*
X97931129Y-66617858D01*
X97931128Y-66617857D01*
X97810053Y-66540047D01*
X97671961Y-66499500D01*
X97528039Y-66499500D01*
X97389947Y-66540047D01*
X97268870Y-66617858D01*
X97174623Y-66726625D01*
X97114834Y-66857542D01*
X97094353Y-66999999D01*
X61000500Y-66999999D01*
X61000500Y-64799999D01*
X83194353Y-64799999D01*
X83214834Y-64942457D01*
X83274623Y-65073374D01*
X83368870Y-65182141D01*
X83368872Y-65182143D01*
X83489947Y-65259953D01*
X83628039Y-65300500D01*
X83771961Y-65300500D01*
X83910053Y-65259953D01*
X84031128Y-65182143D01*
X84125377Y-65073373D01*
X84185165Y-64942457D01*
X84205647Y-64800000D01*
X84185165Y-64657543D01*
X84125377Y-64526627D01*
X84125376Y-64526626D01*
X84125376Y-64526625D01*
X84031129Y-64417858D01*
X84031128Y-64417857D01*
X83910053Y-64340047D01*
X83771961Y-64299500D01*
X83628039Y-64299500D01*
X83489947Y-64340047D01*
X83368870Y-64417858D01*
X83274623Y-64526625D01*
X83214834Y-64657542D01*
X83194353Y-64799999D01*
X61000500Y-64799999D01*
X61000500Y-60899999D01*
X82494353Y-60899999D01*
X82514834Y-61042457D01*
X82574623Y-61173374D01*
X82649644Y-61259953D01*
X82668872Y-61282143D01*
X82789947Y-61359953D01*
X82928039Y-61400500D01*
X83071961Y-61400500D01*
X83210053Y-61359953D01*
X83331128Y-61282143D01*
X83425377Y-61173373D01*
X83485165Y-61042457D01*
X83505647Y-60900000D01*
X83491269Y-60800000D01*
X90494353Y-60800000D01*
X90514834Y-60942457D01*
X90574623Y-61073374D01*
X90668870Y-61182141D01*
X90668872Y-61182143D01*
X90789947Y-61259953D01*
X90928039Y-61300500D01*
X91071961Y-61300500D01*
X91210053Y-61259953D01*
X91331128Y-61182143D01*
X91425377Y-61073373D01*
X91485165Y-60942457D01*
X91505647Y-60800000D01*
X91485165Y-60657543D01*
X91478275Y-60642457D01*
X91425376Y-60526625D01*
X91402304Y-60499999D01*
X95894353Y-60499999D01*
X95914834Y-60642457D01*
X95974623Y-60773374D01*
X95997695Y-60800000D01*
X96068872Y-60882143D01*
X96189947Y-60959953D01*
X96328039Y-61000500D01*
X96471961Y-61000500D01*
X96610053Y-60959953D01*
X96731128Y-60882143D01*
X96825377Y-60773373D01*
X96885165Y-60642457D01*
X96905647Y-60500000D01*
X96885165Y-60357543D01*
X96858657Y-60299500D01*
X96825376Y-60226625D01*
X96731129Y-60117858D01*
X96731128Y-60117857D01*
X96610053Y-60040047D01*
X96471961Y-59999500D01*
X96328039Y-59999500D01*
X96189947Y-60040047D01*
X96068870Y-60117858D01*
X95974623Y-60226625D01*
X95914834Y-60357542D01*
X95894353Y-60499999D01*
X91402304Y-60499999D01*
X91331129Y-60417858D01*
X91331128Y-60417857D01*
X91210053Y-60340047D01*
X91071961Y-60299500D01*
X90928039Y-60299500D01*
X90789947Y-60340047D01*
X90668870Y-60417858D01*
X90574623Y-60526625D01*
X90514834Y-60657542D01*
X90494353Y-60800000D01*
X83491269Y-60800000D01*
X83485165Y-60757543D01*
X83425377Y-60626627D01*
X83425376Y-60626626D01*
X83425376Y-60626625D01*
X83331129Y-60517858D01*
X83331128Y-60517857D01*
X83210053Y-60440047D01*
X83071961Y-60399500D01*
X82928039Y-60399500D01*
X82789947Y-60440047D01*
X82668870Y-60517858D01*
X82574623Y-60626625D01*
X82514834Y-60757542D01*
X82494353Y-60899999D01*
X61000500Y-60899999D01*
X61000500Y-60100000D01*
X84494353Y-60100000D01*
X84514834Y-60242457D01*
X84574623Y-60373374D01*
X84668870Y-60482141D01*
X84668872Y-60482143D01*
X84789947Y-60559953D01*
X84928039Y-60600500D01*
X85071961Y-60600500D01*
X85210053Y-60559953D01*
X85331128Y-60482143D01*
X85425377Y-60373373D01*
X85485165Y-60242457D01*
X85505647Y-60100000D01*
X86594353Y-60100000D01*
X86614834Y-60242457D01*
X86674623Y-60373374D01*
X86768870Y-60482141D01*
X86768872Y-60482143D01*
X86889947Y-60559953D01*
X87028039Y-60600500D01*
X87171961Y-60600500D01*
X87310053Y-60559953D01*
X87431128Y-60482143D01*
X87525377Y-60373373D01*
X87585165Y-60242457D01*
X87605647Y-60100000D01*
X87585165Y-59957543D01*
X87525377Y-59826627D01*
X87525376Y-59826626D01*
X87525376Y-59826625D01*
X87431129Y-59717858D01*
X87431128Y-59717857D01*
X87310053Y-59640047D01*
X87171961Y-59599500D01*
X87028039Y-59599500D01*
X86889947Y-59640047D01*
X86768870Y-59717858D01*
X86674623Y-59826625D01*
X86614834Y-59957542D01*
X86594353Y-60100000D01*
X85505647Y-60100000D01*
X85485165Y-59957543D01*
X85425377Y-59826627D01*
X85425376Y-59826626D01*
X85425376Y-59826625D01*
X85331129Y-59717858D01*
X85331128Y-59717857D01*
X85210053Y-59640047D01*
X85071961Y-59599500D01*
X84928039Y-59599500D01*
X84789947Y-59640047D01*
X84668870Y-59717858D01*
X84574623Y-59826625D01*
X84514834Y-59957542D01*
X84494353Y-60100000D01*
X61000500Y-60100000D01*
X61000500Y-59499999D01*
X80594353Y-59499999D01*
X80614834Y-59642457D01*
X80674623Y-59773374D01*
X80720767Y-59826627D01*
X80768872Y-59882143D01*
X80889947Y-59959953D01*
X81028039Y-60000500D01*
X81171961Y-60000500D01*
X81310053Y-59959953D01*
X81431128Y-59882143D01*
X81525377Y-59773373D01*
X81585165Y-59642457D01*
X81605647Y-59500000D01*
X81585165Y-59357543D01*
X81525377Y-59226627D01*
X81525376Y-59226626D01*
X81525376Y-59226625D01*
X81431129Y-59117858D01*
X81431128Y-59117857D01*
X81310053Y-59040047D01*
X81171961Y-58999500D01*
X81028039Y-58999500D01*
X80889947Y-59040047D01*
X80768870Y-59117858D01*
X80674623Y-59226625D01*
X80614834Y-59357542D01*
X80594353Y-59499999D01*
X61000500Y-59499999D01*
X61000500Y-58600000D01*
X70894353Y-58600000D01*
X70914834Y-58742457D01*
X70974623Y-58873374D01*
X71068870Y-58982141D01*
X71068872Y-58982143D01*
X71189947Y-59059953D01*
X71328039Y-59100500D01*
X71471961Y-59100500D01*
X71610053Y-59059953D01*
X71731128Y-58982143D01*
X71825377Y-58873373D01*
X71885165Y-58742457D01*
X71905647Y-58600000D01*
X71885165Y-58457543D01*
X71825377Y-58326627D01*
X71825376Y-58326626D01*
X71825376Y-58326625D01*
X71731129Y-58217858D01*
X71731128Y-58217857D01*
X71610053Y-58140047D01*
X71471961Y-58099500D01*
X71328039Y-58099500D01*
X71189947Y-58140047D01*
X71068870Y-58217858D01*
X70974623Y-58326625D01*
X70914834Y-58457542D01*
X70894353Y-58600000D01*
X61000500Y-58600000D01*
X61000500Y-56700000D01*
X72694353Y-56700000D01*
X72714834Y-56842457D01*
X72774623Y-56973374D01*
X72868870Y-57082141D01*
X72868872Y-57082143D01*
X72989947Y-57159953D01*
X73128039Y-57200500D01*
X73271961Y-57200500D01*
X73410053Y-57159953D01*
X73531128Y-57082143D01*
X73625377Y-56973373D01*
X73685165Y-56842457D01*
X73705647Y-56700000D01*
X73685165Y-56557543D01*
X73625377Y-56426627D01*
X73625376Y-56426626D01*
X73625376Y-56426625D01*
X73531129Y-56317858D01*
X73531128Y-56317857D01*
X73410053Y-56240047D01*
X73271961Y-56199500D01*
X73128039Y-56199500D01*
X72989947Y-56240047D01*
X72868870Y-56317858D01*
X72774623Y-56426625D01*
X72714834Y-56557542D01*
X72694353Y-56700000D01*
X61000500Y-56700000D01*
X61000500Y-54699999D01*
X72684353Y-54699999D01*
X72704834Y-54842457D01*
X72764623Y-54973374D01*
X72787695Y-55000000D01*
X72858872Y-55082143D01*
X72979947Y-55159953D01*
X73118039Y-55200500D01*
X73261961Y-55200500D01*
X73400053Y-55159953D01*
X73521128Y-55082143D01*
X73592305Y-55000000D01*
X94494353Y-55000000D01*
X94514834Y-55142457D01*
X94574623Y-55273374D01*
X94668870Y-55382141D01*
X94668872Y-55382143D01*
X94789947Y-55459953D01*
X94928039Y-55500500D01*
X95071961Y-55500500D01*
X95210053Y-55459953D01*
X95331128Y-55382143D01*
X95425377Y-55273373D01*
X95485165Y-55142457D01*
X95505647Y-55000000D01*
X95485165Y-54857543D01*
X95478275Y-54842457D01*
X95425376Y-54726625D01*
X95331129Y-54617858D01*
X95331128Y-54617857D01*
X95210053Y-54540047D01*
X95071961Y-54499500D01*
X94928039Y-54499500D01*
X94789947Y-54540047D01*
X94668870Y-54617858D01*
X94574623Y-54726625D01*
X94514834Y-54857542D01*
X94494353Y-55000000D01*
X73592305Y-55000000D01*
X73615377Y-54973373D01*
X73675165Y-54842457D01*
X73695647Y-54700000D01*
X73675165Y-54557543D01*
X73648657Y-54499500D01*
X73615376Y-54426625D01*
X73521129Y-54317858D01*
X73521128Y-54317857D01*
X73400053Y-54240047D01*
X73261961Y-54199500D01*
X73118039Y-54199500D01*
X72979947Y-54240047D01*
X72858870Y-54317858D01*
X72764623Y-54426625D01*
X72704834Y-54557542D01*
X72684353Y-54699999D01*
X61000500Y-54699999D01*
X61000500Y-53999999D01*
X76194353Y-53999999D01*
X76214834Y-54142457D01*
X76274623Y-54273374D01*
X76313168Y-54317857D01*
X76368872Y-54382143D01*
X76489947Y-54459953D01*
X76628039Y-54500500D01*
X76771961Y-54500500D01*
X76910053Y-54459953D01*
X77031128Y-54382143D01*
X77125377Y-54273373D01*
X77185165Y-54142457D01*
X77205647Y-54000000D01*
X77185165Y-53857543D01*
X77125377Y-53726627D01*
X77125376Y-53726626D01*
X77125376Y-53726625D01*
X77031129Y-53617858D01*
X77031128Y-53617857D01*
X76910053Y-53540047D01*
X76771961Y-53499500D01*
X76628039Y-53499500D01*
X76489947Y-53540047D01*
X76368870Y-53617858D01*
X76274623Y-53726625D01*
X76214834Y-53857542D01*
X76194353Y-53999999D01*
X61000500Y-53999999D01*
X61000500Y-50600000D01*
X95094353Y-50600000D01*
X95114834Y-50742457D01*
X95174623Y-50873374D01*
X95268870Y-50982141D01*
X95268872Y-50982143D01*
X95389947Y-51059953D01*
X95528039Y-51100500D01*
X95671961Y-51100500D01*
X95810053Y-51059953D01*
X95931128Y-50982143D01*
X96025377Y-50873373D01*
X96085165Y-50742457D01*
X96105647Y-50600000D01*
X96085165Y-50457543D01*
X96025377Y-50326627D01*
X96025376Y-50326626D01*
X96025376Y-50326625D01*
X95931129Y-50217858D01*
X95931128Y-50217857D01*
X95810053Y-50140047D01*
X95671961Y-50099500D01*
X95528039Y-50099500D01*
X95389947Y-50140047D01*
X95268870Y-50217858D01*
X95174623Y-50326625D01*
X95114834Y-50457542D01*
X95094353Y-50600000D01*
X61000500Y-50600000D01*
X61000500Y-43503051D01*
X61000649Y-43496967D01*
X61007998Y-43347372D01*
X61018010Y-43156327D01*
X61019176Y-43144679D01*
X61043801Y-42978671D01*
X61043929Y-42977842D01*
X61071290Y-42805093D01*
X61073463Y-42794438D01*
X61115016Y-42628551D01*
X61115406Y-42627043D01*
X61159870Y-42461105D01*
X61162880Y-42451469D01*
X61220867Y-42289405D01*
X61221830Y-42286810D01*
X61282836Y-42127883D01*
X61286466Y-42119395D01*
X61360400Y-41963076D01*
X61361912Y-41959997D01*
X61438909Y-41808881D01*
X61443010Y-41801474D01*
X61532078Y-41652873D01*
X61534354Y-41649225D01*
X61626523Y-41507298D01*
X61630860Y-41501055D01*
X61734170Y-41361757D01*
X61737331Y-41357679D01*
X61843698Y-41226325D01*
X61848123Y-41221162D01*
X61964674Y-41092568D01*
X61968793Y-41088242D01*
X62088242Y-40968793D01*
X62092568Y-40964674D01*
X62221162Y-40848123D01*
X62226325Y-40843698D01*
X62357679Y-40737331D01*
X62361757Y-40734170D01*
X62501055Y-40630860D01*
X62507298Y-40626523D01*
X62649225Y-40534354D01*
X62652873Y-40532078D01*
X62801474Y-40443010D01*
X62808881Y-40438909D01*
X62959997Y-40361912D01*
X62963076Y-40360400D01*
X63119395Y-40286466D01*
X63127883Y-40282836D01*
X63286847Y-40221816D01*
X63289405Y-40220867D01*
X63451469Y-40162880D01*
X63461105Y-40159870D01*
X63627043Y-40115406D01*
X63628551Y-40115016D01*
X63794438Y-40073463D01*
X63805093Y-40071290D01*
X63977842Y-40043929D01*
X63978671Y-40043801D01*
X64144679Y-40019176D01*
X64156325Y-40018010D01*
X64347402Y-40007996D01*
X64493747Y-40000807D01*
X64496968Y-40000649D01*
X64503051Y-40000500D01*
X97496949Y-40000500D01*
X97503032Y-40000649D01*
G37*
%TD.AperFunction*%
%TD*%
M02*
