%TF.GenerationSoftware,KiCad,Pcbnew,7.0.1*%
%TF.CreationDate,2024-02-15T14:31:57+01:00*%
%TF.ProjectId,pi4-sensorleap-v1,7069342d-7365-46e7-936f-726c6561702d,rev?*%
%TF.SameCoordinates,Original*%
%TF.FileFunction,Copper,L2,Inr*%
%TF.FilePolarity,Positive*%
%FSLAX46Y46*%
G04 Gerber Fmt 4.6, Leading zero omitted, Abs format (unit mm)*
G04 Created by KiCad (PCBNEW 7.0.1) date 2024-02-15 14:31:57*
%MOMM*%
%LPD*%
G01*
G04 APERTURE LIST*
%TA.AperFunction,ViaPad*%
%ADD10C,0.500000*%
%TD*%
G04 APERTURE END LIST*
D10*
%TO.N,IRQ_GYRO*%
X86698000Y-70896000D03*
%TO.N,IRQ_ACCEL*%
X88998000Y-68800000D03*
%TO.N,SPI_MOSI*%
X85000000Y-60100000D03*
%TO.N,SPI_MISO*%
X87100000Y-60100000D03*
%TO.N,SPI_CE0*%
X81100000Y-59500000D03*
%TO.N,SPI_CLK*%
X91000000Y-60800000D03*
%TO.N,SCL*%
X97600000Y-67000000D03*
X95000000Y-55000000D03*
%TO.N,SDA*%
X96400000Y-60500000D03*
X93400000Y-75300000D03*
%TO.N,IRQ_DW*%
X76700000Y-54000000D03*
%TO.N,Net-(U1-SPICSn)*%
X73190000Y-54700000D03*
X73200000Y-56700000D03*
%TO.N,GND*%
X98000000Y-74000000D03*
X74500000Y-42100000D03*
X100000000Y-58000000D03*
X96000000Y-42000000D03*
X72090000Y-47100000D03*
X98000000Y-75700000D03*
X70630000Y-44700000D03*
X71890000Y-52000000D03*
X97600000Y-61700000D03*
X72090000Y-44700000D03*
X95000000Y-60000000D03*
X100000000Y-68000000D03*
X73900000Y-40300000D03*
X68300000Y-43900000D03*
X74500000Y-40300000D03*
X81990000Y-46000000D03*
X67240000Y-51170000D03*
X80000000Y-54000000D03*
X73690000Y-52000000D03*
X69500000Y-43900000D03*
X74500000Y-41500000D03*
X84000000Y-46000000D03*
X72090000Y-45300000D03*
X71890000Y-52900000D03*
X100000000Y-62000000D03*
X72700000Y-46200000D03*
X90000000Y-66000000D03*
X70630000Y-47700000D03*
X68300000Y-42700000D03*
X89000000Y-60000000D03*
X80000000Y-56000000D03*
X70050000Y-46800000D03*
X100000000Y-60000000D03*
X72700000Y-57400000D03*
X75040000Y-47950000D03*
X65990000Y-60000000D03*
X73300000Y-42100000D03*
X98000000Y-52000000D03*
X98000000Y-44000000D03*
X68300000Y-40300000D03*
X88000000Y-66000000D03*
X62000000Y-62000000D03*
X93700000Y-71500000D03*
X67700000Y-40300000D03*
X69500000Y-40900000D03*
X93600000Y-48100000D03*
X74500000Y-40900000D03*
X86000000Y-68000000D03*
X73300000Y-42700000D03*
X67700000Y-43300000D03*
X70050000Y-47400000D03*
X68900000Y-41500000D03*
X66490000Y-53900000D03*
X68900000Y-40900000D03*
X70050000Y-46200000D03*
X70000000Y-60000000D03*
X66000000Y-62000000D03*
X86200000Y-55500000D03*
X74500000Y-56500000D03*
X65990000Y-58000000D03*
X73990000Y-46000000D03*
X95500000Y-53700000D03*
X68900000Y-43900000D03*
X68900000Y-42100000D03*
X70630000Y-45900000D03*
X63990000Y-54000000D03*
X73900000Y-42700000D03*
X69500000Y-43300000D03*
X68900000Y-43300000D03*
X100000000Y-50000000D03*
X74000000Y-62000000D03*
X100000000Y-70000000D03*
X72090000Y-48300000D03*
X90600000Y-55500000D03*
X77000000Y-56200000D03*
X70060000Y-44400000D03*
X88000000Y-46000000D03*
X75100000Y-42700000D03*
X90000000Y-48000000D03*
X86000000Y-54000000D03*
X72090000Y-46500000D03*
X70000000Y-62000000D03*
X62000000Y-46000000D03*
X77990000Y-48000000D03*
X67700000Y-42100000D03*
X75100000Y-43300000D03*
X81990000Y-42000000D03*
X73300000Y-40900000D03*
X98000000Y-54000000D03*
X75100000Y-43900000D03*
X94000000Y-42000000D03*
X100000000Y-54000000D03*
X69500000Y-40300000D03*
X100000000Y-66000000D03*
X68900000Y-40300000D03*
X66000000Y-46000000D03*
X98000000Y-56000000D03*
X69900000Y-56400000D03*
X72090000Y-47700000D03*
X70630000Y-46500000D03*
X85100000Y-52100000D03*
X72700000Y-47400000D03*
X96000000Y-75700000D03*
X90000000Y-68000000D03*
X74500000Y-42700000D03*
X69500000Y-42700000D03*
X73900000Y-42100000D03*
X70520000Y-48290000D03*
X94000000Y-44000000D03*
X73300000Y-41500000D03*
X92000000Y-52000000D03*
X88000000Y-54000000D03*
X98000000Y-58000000D03*
X73300000Y-40300000D03*
X90000000Y-44000000D03*
X72700000Y-45000000D03*
X93700000Y-69900000D03*
X68300000Y-42100000D03*
X100000000Y-56000000D03*
X81990000Y-44000000D03*
X90998000Y-68996000D03*
X72090000Y-45900000D03*
X64000000Y-46000000D03*
X73300000Y-43300000D03*
X70000000Y-58000000D03*
X75100000Y-41500000D03*
X100000000Y-52000000D03*
X70630000Y-45300000D03*
X70990000Y-52900000D03*
X86600000Y-74550000D03*
X90000000Y-52000000D03*
X86000000Y-66000000D03*
X76000000Y-52000000D03*
X84000000Y-72000000D03*
X88000000Y-44000000D03*
X79990000Y-42000000D03*
X70630000Y-47100000D03*
X73300000Y-43900000D03*
X86698000Y-69596000D03*
X66240000Y-51170000D03*
X68900000Y-42700000D03*
X86000000Y-46000000D03*
X72000000Y-62000000D03*
X77990000Y-44000000D03*
X72790000Y-52900000D03*
X97500000Y-63900000D03*
X84000000Y-44000000D03*
X73900000Y-40900000D03*
X70990000Y-52000000D03*
X76300000Y-57600000D03*
X84000000Y-54000000D03*
X90000000Y-46000000D03*
X62000000Y-48000000D03*
X80000000Y-66000000D03*
X67700000Y-43900000D03*
X72700000Y-46800000D03*
X90000000Y-50000000D03*
X86000000Y-44000000D03*
X94000000Y-66000000D03*
X64000000Y-62000000D03*
X100000000Y-74000000D03*
X67700000Y-42700000D03*
X67700000Y-41500000D03*
X100000000Y-48000000D03*
X85100000Y-47900000D03*
X88000000Y-42000000D03*
X98000000Y-42000000D03*
X79990000Y-46000000D03*
X98000000Y-68000000D03*
X73900000Y-41500000D03*
X98000000Y-50000000D03*
X69500000Y-42100000D03*
X73900000Y-43900000D03*
X74500000Y-43900000D03*
X75900000Y-54700000D03*
X62000000Y-50000000D03*
X62000000Y-52000000D03*
X67990000Y-58000000D03*
X73690000Y-52900000D03*
X92000000Y-42000000D03*
X70060000Y-45600000D03*
X67990000Y-60000000D03*
X75100000Y-42100000D03*
X67700000Y-40900000D03*
X90000000Y-42000000D03*
X75990000Y-48000000D03*
X68000000Y-62000000D03*
X72710000Y-45600000D03*
X77990000Y-42000000D03*
X70050000Y-45000000D03*
X74500000Y-43300000D03*
X92000000Y-54000000D03*
X68300000Y-40900000D03*
X92000000Y-44000000D03*
X98000000Y-47300000D03*
X68300000Y-43300000D03*
X100000000Y-64000000D03*
X96000000Y-44000000D03*
X72710000Y-44400000D03*
X75100000Y-40900000D03*
X63500000Y-57000000D03*
X100000000Y-72000000D03*
X88000000Y-68000000D03*
X89000000Y-75000000D03*
X76000000Y-50000000D03*
X69500000Y-41500000D03*
X84000000Y-42000000D03*
X68000000Y-46000000D03*
X82000000Y-54000000D03*
X72790000Y-52000000D03*
X79990000Y-44000000D03*
X97500000Y-60000000D03*
X63890000Y-51400000D03*
X86000000Y-42000000D03*
X72000000Y-60000000D03*
X73900000Y-43300000D03*
X75100000Y-40300000D03*
X96400000Y-51000000D03*
X68300000Y-41500000D03*
X94000000Y-68000000D03*
%TO.N,+3V3*%
X83000000Y-60900000D03*
X83700000Y-64800000D03*
%TO.N,RST_DW*%
X71400000Y-58600000D03*
%TO.N,IRQ_MM350*%
X95600000Y-50600000D03*
%TD*%
%TA.AperFunction,Conductor*%
%TO.N,GND*%
G36*
X97503032Y-40000649D02*
G01*
X97507384Y-40000862D01*
X97652450Y-40007989D01*
X97843670Y-40018010D01*
X97855324Y-40019177D01*
X98021254Y-40043791D01*
X98022225Y-40043940D01*
X98194897Y-40071289D01*
X98205570Y-40073465D01*
X98371374Y-40114997D01*
X98373014Y-40115422D01*
X98538880Y-40159866D01*
X98548544Y-40162884D01*
X98652693Y-40200150D01*
X98710526Y-40220843D01*
X98713188Y-40221830D01*
X98746726Y-40234704D01*
X98872097Y-40282829D01*
X98880623Y-40286475D01*
X99036869Y-40360374D01*
X99040055Y-40361939D01*
X99182487Y-40434511D01*
X99191094Y-40438897D01*
X99198547Y-40443023D01*
X99347075Y-40532047D01*
X99350824Y-40534387D01*
X99492670Y-40626503D01*
X99498977Y-40630884D01*
X99638210Y-40734147D01*
X99642365Y-40737367D01*
X99773635Y-40843667D01*
X99778872Y-40848155D01*
X99907389Y-40964636D01*
X99911797Y-40968833D01*
X100031165Y-41088201D01*
X100035362Y-41092609D01*
X100151843Y-41221126D01*
X100156331Y-41226363D01*
X100262620Y-41357619D01*
X100265851Y-41361788D01*
X100369114Y-41501021D01*
X100373512Y-41507353D01*
X100465599Y-41649155D01*
X100467963Y-41652942D01*
X100556975Y-41801451D01*
X100561101Y-41808904D01*
X100638037Y-41959898D01*
X100639647Y-41963176D01*
X100713510Y-42119345D01*
X100717179Y-42127925D01*
X100778168Y-42286810D01*
X100779155Y-42289472D01*
X100837111Y-42451447D01*
X100840135Y-42461128D01*
X100884535Y-42626827D01*
X100885044Y-42628792D01*
X100926526Y-42794398D01*
X100928715Y-42805130D01*
X100956041Y-42977665D01*
X100956226Y-42978867D01*
X100980818Y-43144649D01*
X100981990Y-43156355D01*
X100991989Y-43347157D01*
X100991886Y-43347162D01*
X100992011Y-43347561D01*
X100999351Y-43496967D01*
X100999500Y-43503052D01*
X100999500Y-76496948D01*
X100999351Y-76503033D01*
X100992014Y-76652369D01*
X100991993Y-76652774D01*
X100981990Y-76843644D01*
X100980818Y-76855349D01*
X100956226Y-77021131D01*
X100956041Y-77022333D01*
X100928715Y-77194868D01*
X100926526Y-77205600D01*
X100885044Y-77371206D01*
X100884535Y-77373171D01*
X100840135Y-77538870D01*
X100837111Y-77548551D01*
X100779155Y-77710526D01*
X100778168Y-77713188D01*
X100717179Y-77872073D01*
X100713510Y-77880653D01*
X100639647Y-78036822D01*
X100638037Y-78040100D01*
X100561101Y-78191094D01*
X100556975Y-78198547D01*
X100467963Y-78347056D01*
X100465599Y-78350843D01*
X100373512Y-78492645D01*
X100369114Y-78498977D01*
X100265851Y-78638210D01*
X100262620Y-78642379D01*
X100156331Y-78773635D01*
X100151843Y-78778872D01*
X100035362Y-78907389D01*
X100031165Y-78911797D01*
X99911797Y-79031165D01*
X99907389Y-79035362D01*
X99778872Y-79151843D01*
X99773635Y-79156331D01*
X99642379Y-79262620D01*
X99638210Y-79265851D01*
X99498977Y-79369114D01*
X99492645Y-79373512D01*
X99350843Y-79465599D01*
X99347056Y-79467963D01*
X99198547Y-79556975D01*
X99191094Y-79561101D01*
X99040100Y-79638037D01*
X99036822Y-79639647D01*
X98880653Y-79713510D01*
X98872073Y-79717179D01*
X98713188Y-79778168D01*
X98710526Y-79779155D01*
X98548551Y-79837111D01*
X98538870Y-79840135D01*
X98373171Y-79884535D01*
X98371206Y-79885044D01*
X98205600Y-79926526D01*
X98194868Y-79928715D01*
X98022333Y-79956041D01*
X98021131Y-79956226D01*
X97855349Y-79980818D01*
X97843644Y-79981990D01*
X97652774Y-79991993D01*
X97652369Y-79992014D01*
X97503033Y-79999351D01*
X97496948Y-79999500D01*
X64503052Y-79999500D01*
X64496967Y-79999351D01*
X64347629Y-79992014D01*
X64347224Y-79991993D01*
X64156354Y-79981990D01*
X64144649Y-79980818D01*
X63978867Y-79956226D01*
X63977665Y-79956041D01*
X63805130Y-79928715D01*
X63794398Y-79926526D01*
X63628792Y-79885044D01*
X63626827Y-79884535D01*
X63461128Y-79840135D01*
X63451447Y-79837111D01*
X63289472Y-79779155D01*
X63286810Y-79778168D01*
X63127925Y-79717179D01*
X63119351Y-79713512D01*
X62963176Y-79639647D01*
X62959898Y-79638037D01*
X62808904Y-79561101D01*
X62801451Y-79556975D01*
X62652942Y-79467963D01*
X62649155Y-79465599D01*
X62601996Y-79434973D01*
X62507343Y-79373505D01*
X62501021Y-79369114D01*
X62361788Y-79265851D01*
X62357619Y-79262620D01*
X62226363Y-79156331D01*
X62221126Y-79151843D01*
X62092609Y-79035362D01*
X62088201Y-79031165D01*
X61968833Y-78911797D01*
X61964636Y-78907389D01*
X61848155Y-78778872D01*
X61843667Y-78773635D01*
X61737378Y-78642379D01*
X61734147Y-78638210D01*
X61630884Y-78498977D01*
X61626503Y-78492670D01*
X61534387Y-78350824D01*
X61532035Y-78347056D01*
X61443023Y-78198547D01*
X61438897Y-78191094D01*
X61434511Y-78182487D01*
X61361939Y-78040055D01*
X61360374Y-78036869D01*
X61286475Y-77880623D01*
X61282829Y-77872097D01*
X61221830Y-77713188D01*
X61220843Y-77710526D01*
X61162887Y-77548551D01*
X61159863Y-77538870D01*
X61115422Y-77373014D01*
X61114997Y-77371374D01*
X61073465Y-77205570D01*
X61071289Y-77194897D01*
X61043940Y-77022225D01*
X61043791Y-77021254D01*
X61019177Y-76855324D01*
X61018010Y-76843670D01*
X61007985Y-76652369D01*
X61000649Y-76503032D01*
X61000500Y-76496949D01*
X61000500Y-75299999D01*
X93045130Y-75299999D01*
X93062499Y-75409660D01*
X93112904Y-75508587D01*
X93191412Y-75587095D01*
X93290338Y-75637499D01*
X93290339Y-75637500D01*
X93400000Y-75654869D01*
X93509661Y-75637500D01*
X93608587Y-75587095D01*
X93687095Y-75508587D01*
X93737500Y-75409661D01*
X93754869Y-75300000D01*
X93737500Y-75190339D01*
X93737499Y-75190338D01*
X93687095Y-75091412D01*
X93608587Y-75012904D01*
X93509660Y-74962499D01*
X93400000Y-74945130D01*
X93290339Y-74962499D01*
X93191412Y-75012904D01*
X93112904Y-75091412D01*
X93062499Y-75190339D01*
X93045130Y-75299999D01*
X61000500Y-75299999D01*
X61000500Y-70895999D01*
X86343130Y-70895999D01*
X86360499Y-71005660D01*
X86410904Y-71104587D01*
X86489412Y-71183095D01*
X86588339Y-71233500D01*
X86698000Y-71250869D01*
X86807661Y-71233500D01*
X86906587Y-71183095D01*
X86985095Y-71104587D01*
X87035500Y-71005661D01*
X87052869Y-70896000D01*
X87035500Y-70786339D01*
X87035499Y-70786338D01*
X86985095Y-70687412D01*
X86906587Y-70608904D01*
X86807660Y-70558499D01*
X86698000Y-70541130D01*
X86588339Y-70558499D01*
X86489412Y-70608904D01*
X86410904Y-70687412D01*
X86360499Y-70786339D01*
X86343130Y-70895999D01*
X61000500Y-70895999D01*
X61000500Y-68799999D01*
X88643130Y-68799999D01*
X88660499Y-68909660D01*
X88710904Y-69008587D01*
X88789412Y-69087095D01*
X88888339Y-69137500D01*
X88998000Y-69154869D01*
X89107661Y-69137500D01*
X89206587Y-69087095D01*
X89285095Y-69008587D01*
X89335500Y-68909661D01*
X89352869Y-68800000D01*
X89335500Y-68690339D01*
X89285095Y-68591412D01*
X89206587Y-68512904D01*
X89107660Y-68462499D01*
X88997999Y-68445130D01*
X88888339Y-68462499D01*
X88789412Y-68512904D01*
X88710904Y-68591412D01*
X88660499Y-68690339D01*
X88643130Y-68799999D01*
X61000500Y-68799999D01*
X61000500Y-67000000D01*
X97245130Y-67000000D01*
X97262499Y-67109660D01*
X97312904Y-67208587D01*
X97391412Y-67287095D01*
X97490339Y-67337500D01*
X97599999Y-67354869D01*
X97599999Y-67354868D01*
X97600000Y-67354869D01*
X97709661Y-67337500D01*
X97808587Y-67287095D01*
X97887095Y-67208587D01*
X97937500Y-67109661D01*
X97954869Y-67000000D01*
X97937500Y-66890339D01*
X97937499Y-66890338D01*
X97887095Y-66791412D01*
X97808587Y-66712904D01*
X97709660Y-66662499D01*
X97600000Y-66645130D01*
X97490339Y-66662499D01*
X97391412Y-66712904D01*
X97312904Y-66791412D01*
X97262499Y-66890339D01*
X97245130Y-67000000D01*
X61000500Y-67000000D01*
X61000500Y-64800000D01*
X83345130Y-64800000D01*
X83362499Y-64909660D01*
X83412904Y-65008587D01*
X83491412Y-65087095D01*
X83590338Y-65137499D01*
X83590339Y-65137500D01*
X83700000Y-65154869D01*
X83809661Y-65137500D01*
X83908587Y-65087095D01*
X83987095Y-65008587D01*
X84037500Y-64909661D01*
X84054869Y-64800000D01*
X84037500Y-64690339D01*
X83987095Y-64591412D01*
X83908587Y-64512904D01*
X83809660Y-64462499D01*
X83700000Y-64445130D01*
X83590339Y-64462499D01*
X83491412Y-64512904D01*
X83412904Y-64591412D01*
X83362499Y-64690339D01*
X83345130Y-64800000D01*
X61000500Y-64800000D01*
X61000500Y-60899999D01*
X82645130Y-60899999D01*
X82662499Y-61009660D01*
X82712904Y-61108587D01*
X82791412Y-61187095D01*
X82890338Y-61237499D01*
X82890339Y-61237500D01*
X83000000Y-61254869D01*
X83109661Y-61237500D01*
X83208587Y-61187095D01*
X83287095Y-61108587D01*
X83337500Y-61009661D01*
X83354869Y-60900000D01*
X83339030Y-60800000D01*
X90645130Y-60800000D01*
X90662499Y-60909660D01*
X90712904Y-61008587D01*
X90791412Y-61087095D01*
X90890339Y-61137500D01*
X91000000Y-61154869D01*
X91109661Y-61137500D01*
X91208587Y-61087095D01*
X91287095Y-61008587D01*
X91337500Y-60909661D01*
X91354869Y-60800000D01*
X91337500Y-60690339D01*
X91298046Y-60612905D01*
X91287095Y-60591412D01*
X91208587Y-60512904D01*
X91183261Y-60500000D01*
X96045130Y-60500000D01*
X96062499Y-60609660D01*
X96112904Y-60708587D01*
X96191412Y-60787095D01*
X96290338Y-60837499D01*
X96290339Y-60837500D01*
X96400000Y-60854869D01*
X96509661Y-60837500D01*
X96608587Y-60787095D01*
X96687095Y-60708587D01*
X96737500Y-60609661D01*
X96754869Y-60500000D01*
X96737500Y-60390339D01*
X96695846Y-60308587D01*
X96687095Y-60291412D01*
X96608587Y-60212904D01*
X96509660Y-60162499D01*
X96400000Y-60145130D01*
X96290339Y-60162499D01*
X96191412Y-60212904D01*
X96112904Y-60291412D01*
X96062499Y-60390339D01*
X96045130Y-60500000D01*
X91183261Y-60500000D01*
X91109660Y-60462499D01*
X91000000Y-60445130D01*
X90890339Y-60462499D01*
X90791412Y-60512904D01*
X90712904Y-60591412D01*
X90662499Y-60690339D01*
X90645130Y-60800000D01*
X83339030Y-60800000D01*
X83337500Y-60790339D01*
X83295846Y-60708587D01*
X83287095Y-60691412D01*
X83208587Y-60612904D01*
X83109660Y-60562499D01*
X83000000Y-60545130D01*
X82890339Y-60562499D01*
X82791412Y-60612904D01*
X82712904Y-60691412D01*
X82662499Y-60790339D01*
X82645130Y-60899999D01*
X61000500Y-60899999D01*
X61000500Y-60099999D01*
X84645130Y-60099999D01*
X84662499Y-60209660D01*
X84712904Y-60308587D01*
X84791412Y-60387095D01*
X84890339Y-60437500D01*
X85000000Y-60454869D01*
X85109661Y-60437500D01*
X85208587Y-60387095D01*
X85287095Y-60308587D01*
X85337500Y-60209661D01*
X85354869Y-60100000D01*
X85354869Y-60099999D01*
X86745130Y-60099999D01*
X86762499Y-60209660D01*
X86812904Y-60308587D01*
X86891412Y-60387095D01*
X86990339Y-60437500D01*
X87100000Y-60454869D01*
X87209661Y-60437500D01*
X87308587Y-60387095D01*
X87387095Y-60308587D01*
X87437500Y-60209661D01*
X87454869Y-60100000D01*
X87437500Y-59990339D01*
X87437499Y-59990338D01*
X87387095Y-59891412D01*
X87308587Y-59812904D01*
X87209660Y-59762499D01*
X87100000Y-59745130D01*
X86990339Y-59762499D01*
X86891412Y-59812904D01*
X86812904Y-59891412D01*
X86762499Y-59990339D01*
X86745130Y-60099999D01*
X85354869Y-60099999D01*
X85337500Y-59990339D01*
X85337499Y-59990338D01*
X85287095Y-59891412D01*
X85208587Y-59812904D01*
X85109660Y-59762499D01*
X85000000Y-59745130D01*
X84890339Y-59762499D01*
X84791412Y-59812904D01*
X84712904Y-59891412D01*
X84662499Y-59990339D01*
X84645130Y-60099999D01*
X61000500Y-60099999D01*
X61000500Y-59500000D01*
X80745130Y-59500000D01*
X80762499Y-59609660D01*
X80812904Y-59708587D01*
X80891412Y-59787095D01*
X80942066Y-59812904D01*
X80990339Y-59837500D01*
X81100000Y-59854869D01*
X81209661Y-59837500D01*
X81308587Y-59787095D01*
X81387095Y-59708587D01*
X81437500Y-59609661D01*
X81454869Y-59500000D01*
X81437500Y-59390339D01*
X81387095Y-59291412D01*
X81308587Y-59212904D01*
X81209660Y-59162499D01*
X81100000Y-59145130D01*
X80990339Y-59162499D01*
X80891412Y-59212904D01*
X80812904Y-59291412D01*
X80762499Y-59390339D01*
X80745130Y-59500000D01*
X61000500Y-59500000D01*
X61000500Y-58599999D01*
X71045130Y-58599999D01*
X71062499Y-58709660D01*
X71112904Y-58808587D01*
X71191412Y-58887095D01*
X71290339Y-58937500D01*
X71400000Y-58954869D01*
X71509661Y-58937500D01*
X71608587Y-58887095D01*
X71687095Y-58808587D01*
X71737500Y-58709661D01*
X71754869Y-58600000D01*
X71737500Y-58490339D01*
X71687095Y-58391412D01*
X71608587Y-58312904D01*
X71509660Y-58262499D01*
X71400000Y-58245130D01*
X71290339Y-58262499D01*
X71191412Y-58312904D01*
X71112904Y-58391412D01*
X71062499Y-58490339D01*
X71045130Y-58599999D01*
X61000500Y-58599999D01*
X61000500Y-56699999D01*
X72845130Y-56699999D01*
X72862499Y-56809660D01*
X72912904Y-56908587D01*
X72991412Y-56987095D01*
X73090339Y-57037500D01*
X73200000Y-57054869D01*
X73309661Y-57037500D01*
X73408587Y-56987095D01*
X73487095Y-56908587D01*
X73537500Y-56809661D01*
X73554869Y-56700000D01*
X73537500Y-56590339D01*
X73487095Y-56491412D01*
X73408587Y-56412904D01*
X73309660Y-56362499D01*
X73200000Y-56345130D01*
X73090339Y-56362499D01*
X72991412Y-56412904D01*
X72912904Y-56491412D01*
X72862499Y-56590339D01*
X72845130Y-56699999D01*
X61000500Y-56699999D01*
X61000500Y-54700000D01*
X72835130Y-54700000D01*
X72852499Y-54809660D01*
X72902904Y-54908587D01*
X72981412Y-54987095D01*
X73080338Y-55037499D01*
X73080339Y-55037500D01*
X73190000Y-55054869D01*
X73299661Y-55037500D01*
X73373261Y-54999999D01*
X94645130Y-54999999D01*
X94662499Y-55109660D01*
X94712904Y-55208587D01*
X94791412Y-55287095D01*
X94890339Y-55337500D01*
X95000000Y-55354869D01*
X95109661Y-55337500D01*
X95208587Y-55287095D01*
X95287095Y-55208587D01*
X95337500Y-55109661D01*
X95354869Y-55000000D01*
X95337500Y-54890339D01*
X95296393Y-54809661D01*
X95287095Y-54791412D01*
X95208587Y-54712904D01*
X95109660Y-54662499D01*
X95000000Y-54645130D01*
X94890339Y-54662499D01*
X94791412Y-54712904D01*
X94712904Y-54791412D01*
X94662499Y-54890339D01*
X94645130Y-54999999D01*
X73373261Y-54999999D01*
X73398587Y-54987095D01*
X73477095Y-54908587D01*
X73527500Y-54809661D01*
X73544869Y-54700000D01*
X73527500Y-54590339D01*
X73527499Y-54590338D01*
X73477095Y-54491412D01*
X73398587Y-54412904D01*
X73299660Y-54362499D01*
X73190000Y-54345130D01*
X73080339Y-54362499D01*
X72981412Y-54412904D01*
X72902904Y-54491412D01*
X72852499Y-54590339D01*
X72835130Y-54700000D01*
X61000500Y-54700000D01*
X61000500Y-54000000D01*
X76345130Y-54000000D01*
X76362499Y-54109660D01*
X76412904Y-54208587D01*
X76491412Y-54287095D01*
X76590339Y-54337500D01*
X76700000Y-54354869D01*
X76809661Y-54337500D01*
X76908587Y-54287095D01*
X76987095Y-54208587D01*
X77037500Y-54109661D01*
X77054869Y-54000000D01*
X77037500Y-53890339D01*
X76987095Y-53791412D01*
X76908587Y-53712904D01*
X76809660Y-53662499D01*
X76700000Y-53645130D01*
X76590339Y-53662499D01*
X76491412Y-53712904D01*
X76412904Y-53791412D01*
X76362499Y-53890339D01*
X76345130Y-54000000D01*
X61000500Y-54000000D01*
X61000500Y-49100000D01*
X70150000Y-49100000D01*
X70150000Y-51300000D01*
X74600000Y-51300000D01*
X74600000Y-50599999D01*
X95245130Y-50599999D01*
X95262499Y-50709660D01*
X95312904Y-50808587D01*
X95391412Y-50887095D01*
X95490339Y-50937500D01*
X95600000Y-50954869D01*
X95709661Y-50937500D01*
X95808587Y-50887095D01*
X95887095Y-50808587D01*
X95937500Y-50709661D01*
X95954869Y-50600000D01*
X95937500Y-50490339D01*
X95887095Y-50391412D01*
X95808587Y-50312904D01*
X95709660Y-50262499D01*
X95600000Y-50245130D01*
X95490339Y-50262499D01*
X95391412Y-50312904D01*
X95312904Y-50391412D01*
X95262499Y-50490339D01*
X95245130Y-50599999D01*
X74600000Y-50599999D01*
X74600000Y-49100000D01*
X70150000Y-49100000D01*
X61000500Y-49100000D01*
X61000500Y-43503051D01*
X61000649Y-43496967D01*
X61007998Y-43347372D01*
X61018010Y-43156327D01*
X61019176Y-43144679D01*
X61043801Y-42978671D01*
X61043929Y-42977842D01*
X61071290Y-42805093D01*
X61073463Y-42794438D01*
X61115016Y-42628551D01*
X61115406Y-42627043D01*
X61159870Y-42461105D01*
X61162880Y-42451469D01*
X61220867Y-42289405D01*
X61221830Y-42286810D01*
X61282836Y-42127883D01*
X61286466Y-42119395D01*
X61360400Y-41963076D01*
X61361912Y-41959997D01*
X61438909Y-41808881D01*
X61443010Y-41801474D01*
X61532078Y-41652873D01*
X61534354Y-41649225D01*
X61626523Y-41507298D01*
X61630860Y-41501055D01*
X61734170Y-41361757D01*
X61737331Y-41357679D01*
X61843698Y-41226325D01*
X61848123Y-41221162D01*
X61964674Y-41092568D01*
X61968793Y-41088242D01*
X62088242Y-40968793D01*
X62092568Y-40964674D01*
X62221162Y-40848123D01*
X62226325Y-40843698D01*
X62357679Y-40737331D01*
X62361757Y-40734170D01*
X62501055Y-40630860D01*
X62507298Y-40626523D01*
X62649225Y-40534354D01*
X62652873Y-40532078D01*
X62801474Y-40443010D01*
X62808881Y-40438909D01*
X62959997Y-40361912D01*
X62963076Y-40360400D01*
X63119395Y-40286466D01*
X63127883Y-40282836D01*
X63286847Y-40221816D01*
X63289405Y-40220867D01*
X63451469Y-40162880D01*
X63461105Y-40159870D01*
X63627043Y-40115406D01*
X63628551Y-40115016D01*
X63794438Y-40073463D01*
X63805093Y-40071290D01*
X63977842Y-40043929D01*
X63978671Y-40043801D01*
X64144679Y-40019176D01*
X64156325Y-40018010D01*
X64347402Y-40007996D01*
X64493747Y-40000807D01*
X64496968Y-40000649D01*
X64503051Y-40000500D01*
X97496949Y-40000500D01*
X97503032Y-40000649D01*
G37*
%TD.AperFunction*%
%TD*%
M02*
