%TF.GenerationSoftware,KiCad,Pcbnew,7.0.1*%
%TF.CreationDate,2024-02-15T14:31:57+01:00*%
%TF.ProjectId,pi4-sensorleap-v1,7069342d-7365-46e7-936f-726c6561702d,rev?*%
%TF.SameCoordinates,Original*%
%TF.FileFunction,Paste,Top*%
%TF.FilePolarity,Positive*%
%FSLAX46Y46*%
G04 Gerber Fmt 4.6, Leading zero omitted, Abs format (unit mm)*
G04 Created by KiCad (PCBNEW 7.0.1) date 2024-02-15 14:31:57*
%MOMM*%
%LPD*%
G01*
G04 APERTURE LIST*
G04 Aperture macros list*
%AMRoundRect*
0 Rectangle with rounded corners*
0 $1 Rounding radius*
0 $2 $3 $4 $5 $6 $7 $8 $9 X,Y pos of 4 corners*
0 Add a 4 corners polygon primitive as box body*
4,1,4,$2,$3,$4,$5,$6,$7,$8,$9,$2,$3,0*
0 Add four circle primitives for the rounded corners*
1,1,$1+$1,$2,$3*
1,1,$1+$1,$4,$5*
1,1,$1+$1,$6,$7*
1,1,$1+$1,$8,$9*
0 Add four rect primitives between the rounded corners*
20,1,$1+$1,$2,$3,$4,$5,0*
20,1,$1+$1,$4,$5,$6,$7,0*
20,1,$1+$1,$6,$7,$8,$9,0*
20,1,$1+$1,$8,$9,$2,$3,0*%
G04 Aperture macros list end*
%ADD10RoundRect,0.135000X-0.135000X-0.185000X0.135000X-0.185000X0.135000X0.185000X-0.135000X0.185000X0*%
%ADD11RoundRect,0.135000X-0.185000X0.135000X-0.185000X-0.135000X0.185000X-0.135000X0.185000X0.135000X0*%
%ADD12RoundRect,0.140000X0.140000X0.170000X-0.140000X0.170000X-0.140000X-0.170000X0.140000X-0.170000X0*%
%ADD13RoundRect,0.140000X0.170000X-0.140000X0.170000X0.140000X-0.170000X0.140000X-0.170000X-0.140000X0*%
%ADD14R,0.685800X0.584200*%
%ADD15RoundRect,0.250000X-0.250000X-0.475000X0.250000X-0.475000X0.250000X0.475000X-0.250000X0.475000X0*%
%ADD16RoundRect,0.147500X-0.147500X-0.172500X0.147500X-0.172500X0.147500X0.172500X-0.147500X0.172500X0*%
%ADD17RoundRect,0.225000X0.225000X0.250000X-0.225000X0.250000X-0.225000X-0.250000X0.225000X-0.250000X0*%
%ADD18RoundRect,0.140000X-0.170000X0.140000X-0.170000X-0.140000X0.170000X-0.140000X0.170000X0.140000X0*%
%ADD19RoundRect,0.135000X0.135000X0.185000X-0.135000X0.185000X-0.135000X-0.185000X0.135000X-0.185000X0*%
%ADD20RoundRect,0.218750X-0.218750X-0.256250X0.218750X-0.256250X0.218750X0.256250X-0.218750X0.256250X0*%
%ADD21RoundRect,0.087250X-0.087250X0.192750X-0.087250X-0.192750X0.087250X-0.192750X0.087250X0.192750X0*%
%ADD22RoundRect,0.218750X0.218750X0.256250X-0.218750X0.256250X-0.218750X-0.256250X0.218750X-0.256250X0*%
%ADD23R,0.400000X0.200000*%
%ADD24R,0.200000X0.400000*%
%ADD25R,1.200000X2.300000*%
%ADD26R,1.500000X4.000000*%
%ADD27R,1.300000X4.000000*%
%ADD28C,0.269000*%
%ADD29R,2.300000X1.200000*%
%ADD30RoundRect,0.140000X-0.140000X-0.170000X0.140000X-0.170000X0.140000X0.170000X-0.140000X0.170000X0*%
%ADD31R,0.675000X0.250000*%
%ADD32R,0.250000X0.675000*%
G04 APERTURE END LIST*
D10*
%TO.C,R3*%
X80490000Y-49100000D03*
X81510000Y-49100000D03*
%TD*%
D11*
%TO.C,R6*%
X77200000Y-57100000D03*
X77200000Y-58120000D03*
%TD*%
D12*
%TO.C,C11*%
X68240000Y-53500000D03*
X67280000Y-53500000D03*
%TD*%
D13*
%TO.C,C1*%
X65377499Y-48598200D03*
X65377499Y-47638200D03*
%TD*%
D14*
%TO.C,X1*%
X66562501Y-48361800D03*
X67837499Y-48361800D03*
X67837499Y-47498200D03*
X66562501Y-47498200D03*
%TD*%
D15*
%TO.C,C21*%
X95000000Y-47300000D03*
X96900000Y-47300000D03*
%TD*%
D13*
%TO.C,C23*%
X93600000Y-49880000D03*
X93600000Y-48920000D03*
%TD*%
D16*
%TO.C,FB1*%
X67315000Y-55500000D03*
X68285000Y-55500000D03*
%TD*%
D13*
%TO.C,C19*%
X92600000Y-72460000D03*
X92600000Y-71500000D03*
%TD*%
D17*
%TO.C,C3*%
X63900000Y-58700000D03*
X62350000Y-58700000D03*
%TD*%
D18*
%TO.C,C20*%
X86800000Y-72420000D03*
X86800000Y-73380000D03*
%TD*%
D12*
%TO.C,C6*%
X68240000Y-54470000D03*
X67280000Y-54470000D03*
%TD*%
D18*
%TO.C,C7*%
X67734000Y-49750000D03*
X67734000Y-50710000D03*
%TD*%
D10*
%TO.C,R2*%
X80480000Y-50900000D03*
X81500000Y-50900000D03*
%TD*%
D19*
%TO.C,R1*%
X74370000Y-47954000D03*
X73350000Y-47954000D03*
%TD*%
D18*
%TO.C,C5*%
X66734000Y-49740000D03*
X66734000Y-50700000D03*
%TD*%
D11*
%TO.C,R5*%
X79000000Y-57100000D03*
X79000000Y-58120000D03*
%TD*%
D20*
%TO.C,D4*%
X71812500Y-63900000D03*
X73387500Y-63900000D03*
%TD*%
D21*
%TO.C,C10*%
X71360000Y-46820000D03*
X71360000Y-47780000D03*
%TD*%
D10*
%TO.C,R4*%
X72700000Y-58800000D03*
X73720000Y-58800000D03*
%TD*%
D18*
%TO.C,C2*%
X65734000Y-49740000D03*
X65734000Y-50700000D03*
%TD*%
D19*
%TO.C,R9*%
X76110000Y-63900000D03*
X75090000Y-63900000D03*
%TD*%
D18*
%TO.C,C8*%
X69017499Y-47638200D03*
X69017499Y-48598200D03*
%TD*%
D13*
%TO.C,C14*%
X65734000Y-52560000D03*
X65734000Y-51600000D03*
%TD*%
D22*
%TO.C,D1*%
X85100000Y-50900000D03*
X83525000Y-50900000D03*
%TD*%
D12*
%TO.C,C9*%
X75190000Y-54700000D03*
X74230000Y-54700000D03*
%TD*%
D22*
%TO.C,D2*%
X85087500Y-49100000D03*
X83512500Y-49100000D03*
%TD*%
D23*
%TO.C,U1*%
X74666000Y-53144000D03*
X74666000Y-52744000D03*
X74666000Y-52344000D03*
X74666000Y-51944000D03*
X74666000Y-51544000D03*
X74666000Y-51144000D03*
X74666000Y-50744000D03*
X74666000Y-50344000D03*
X74666000Y-49944000D03*
X74666000Y-49544000D03*
D24*
X74166000Y-49044000D03*
X73766000Y-49044000D03*
X73366000Y-49044000D03*
X72966000Y-49044000D03*
X72566000Y-49044000D03*
X72166000Y-49044000D03*
X71766000Y-49044000D03*
X71366000Y-49044000D03*
X70966000Y-49044000D03*
X70566000Y-49044000D03*
D23*
X70066000Y-49544000D03*
X70066000Y-49944000D03*
X70066000Y-50344000D03*
X70066000Y-50744000D03*
X70066000Y-51144000D03*
X70066000Y-51544000D03*
X70066000Y-51944000D03*
X70066000Y-52344000D03*
X70066000Y-52744000D03*
X70066000Y-53144000D03*
D24*
X70566000Y-53644000D03*
X70966000Y-53644000D03*
X71366000Y-53644000D03*
X71766000Y-53644000D03*
X72166000Y-53644000D03*
X72566000Y-53644000D03*
X72966000Y-53644000D03*
X73366000Y-53644000D03*
X73766000Y-53644000D03*
X74166000Y-53644000D03*
%TD*%
D25*
%TO.C,MP3*%
X78400000Y-54430000D03*
%TD*%
%TO.C,MP2*%
X63400000Y-48230000D03*
%TD*%
D26*
%TO.C,J1*%
X68600000Y-42000000D03*
D27*
X71360000Y-42000000D03*
D26*
X74200000Y-42000000D03*
%TD*%
D28*
%TO.C,U5*%
X95400000Y-49700000D03*
X95000000Y-49700000D03*
X94600000Y-49700000D03*
X95400000Y-49300000D03*
X95000000Y-49300000D03*
X94600000Y-49300000D03*
X95400000Y-48900000D03*
X95000000Y-48900000D03*
X94600000Y-48900000D03*
%TD*%
D29*
%TO.C,MP4*%
X65300000Y-56330000D03*
%TD*%
D30*
%TO.C,C4*%
X69420000Y-54700000D03*
X70380000Y-54700000D03*
%TD*%
D13*
%TO.C,C12*%
X67734000Y-52560000D03*
X67734000Y-51600000D03*
%TD*%
%TO.C,C13*%
X66734000Y-52560000D03*
X66734000Y-51600000D03*
%TD*%
D29*
%TO.C,MP1*%
X76500000Y-46330000D03*
%TD*%
D11*
%TO.C,R7*%
X75500000Y-57100000D03*
X75500000Y-58120000D03*
%TD*%
D31*
%TO.C,U4*%
X90765000Y-70500000D03*
X90765000Y-71000000D03*
X90765000Y-71500000D03*
X90765000Y-72000000D03*
X90765000Y-72500000D03*
X90765000Y-73000000D03*
X90765000Y-73500000D03*
D32*
X89600000Y-73915000D03*
D31*
X88435000Y-73500000D03*
X88435000Y-73000000D03*
X88435000Y-72500000D03*
X88435000Y-72000000D03*
X88435000Y-71500000D03*
X88435000Y-71000000D03*
X88435000Y-70500000D03*
D32*
X89600000Y-70085000D03*
%TD*%
D18*
%TO.C,C22*%
X96400000Y-49220000D03*
X96400000Y-50180000D03*
%TD*%
M02*
