%TF.GenerationSoftware,KiCad,Pcbnew,7.0.1*%
%TF.CreationDate,2024-02-15T14:31:57+01:00*%
%TF.ProjectId,pi4-sensorleap-v1,7069342d-7365-46e7-936f-726c6561702d,rev?*%
%TF.SameCoordinates,Original*%
%TF.FileFunction,Legend,Top*%
%TF.FilePolarity,Positive*%
%FSLAX46Y46*%
G04 Gerber Fmt 4.6, Leading zero omitted, Abs format (unit mm)*
G04 Created by KiCad (PCBNEW 7.0.1) date 2024-02-15 14:31:57*
%MOMM*%
%LPD*%
G01*
G04 APERTURE LIST*
G04 Aperture macros list*
%AMRoundRect*
0 Rectangle with rounded corners*
0 $1 Rounding radius*
0 $2 $3 $4 $5 $6 $7 $8 $9 X,Y pos of 4 corners*
0 Add a 4 corners polygon primitive as box body*
4,1,4,$2,$3,$4,$5,$6,$7,$8,$9,$2,$3,0*
0 Add four circle primitives for the rounded corners*
1,1,$1+$1,$2,$3*
1,1,$1+$1,$4,$5*
1,1,$1+$1,$6,$7*
1,1,$1+$1,$8,$9*
0 Add four rect primitives between the rounded corners*
20,1,$1+$1,$2,$3,$4,$5,0*
20,1,$1+$1,$4,$5,$6,$7,0*
20,1,$1+$1,$6,$7,$8,$9,0*
20,1,$1+$1,$8,$9,$2,$3,0*%
G04 Aperture macros list end*
%ADD10C,0.150000*%
%ADD11C,0.000000*%
%ADD12C,0.200000*%
%ADD13C,0.120000*%
%ADD14C,0.100000*%
%ADD15C,0.050000*%
%ADD16RoundRect,0.135000X-0.135000X-0.185000X0.135000X-0.185000X0.135000X0.185000X-0.135000X0.185000X0*%
%ADD17RoundRect,0.135000X-0.185000X0.135000X-0.185000X-0.135000X0.185000X-0.135000X0.185000X0.135000X0*%
%ADD18RoundRect,0.140000X0.140000X0.170000X-0.140000X0.170000X-0.140000X-0.170000X0.140000X-0.170000X0*%
%ADD19RoundRect,0.140000X0.170000X-0.140000X0.170000X0.140000X-0.170000X0.140000X-0.170000X-0.140000X0*%
%ADD20R,0.685800X0.584200*%
%ADD21RoundRect,0.250000X-0.250000X-0.475000X0.250000X-0.475000X0.250000X0.475000X-0.250000X0.475000X0*%
%ADD22RoundRect,0.147500X-0.147500X-0.172500X0.147500X-0.172500X0.147500X0.172500X-0.147500X0.172500X0*%
%ADD23RoundRect,0.225000X0.225000X0.250000X-0.225000X0.250000X-0.225000X-0.250000X0.225000X-0.250000X0*%
%ADD24RoundRect,0.140000X-0.170000X0.140000X-0.170000X-0.140000X0.170000X-0.140000X0.170000X0.140000X0*%
%ADD25RoundRect,0.135000X0.135000X0.185000X-0.135000X0.185000X-0.135000X-0.185000X0.135000X-0.185000X0*%
%ADD26RoundRect,0.218750X-0.218750X-0.256250X0.218750X-0.256250X0.218750X0.256250X-0.218750X0.256250X0*%
%ADD27RoundRect,0.087250X-0.087250X0.192750X-0.087250X-0.192750X0.087250X-0.192750X0.087250X0.192750X0*%
%ADD28RoundRect,0.218750X0.218750X0.256250X-0.218750X0.256250X-0.218750X-0.256250X0.218750X-0.256250X0*%
%ADD29R,0.400000X0.200000*%
%ADD30R,0.200000X0.400000*%
%ADD31R,1.200000X2.300000*%
%ADD32R,1.500000X4.000000*%
%ADD33R,1.300000X4.000000*%
%ADD34C,0.269000*%
%ADD35R,2.300000X1.200000*%
%ADD36RoundRect,0.140000X-0.140000X-0.170000X0.140000X-0.170000X0.140000X0.170000X-0.140000X0.170000X0*%
%ADD37R,0.675000X0.250000*%
%ADD38R,0.250000X0.675000*%
G04 APERTURE END LIST*
D10*
X75495711Y-53154290D02*
G75*
G03*
X75495711Y-53154290I-70711J0D01*
G01*
D11*
G36*
X73417706Y-74297454D02*
G01*
X73836612Y-74297454D01*
X73837141Y-74297984D01*
X73836808Y-74296793D01*
X73836612Y-74297454D01*
X73417706Y-74297454D01*
X73143403Y-73500529D01*
X73613832Y-73500529D01*
X73836808Y-74296793D01*
X74072091Y-73500000D01*
X74544107Y-73500000D01*
X73967845Y-75151000D01*
X73942974Y-75211325D01*
X73935102Y-75228221D01*
X73926864Y-75244582D01*
X73918259Y-75260405D01*
X73909288Y-75275693D01*
X73899952Y-75290444D01*
X73890248Y-75304659D01*
X73880179Y-75318337D01*
X73869742Y-75331479D01*
X73858940Y-75344084D01*
X73847770Y-75356153D01*
X73836234Y-75367686D01*
X73824330Y-75378682D01*
X73812060Y-75389142D01*
X73799422Y-75399065D01*
X73786417Y-75408452D01*
X73773045Y-75417303D01*
X73759306Y-75425617D01*
X73745199Y-75433395D01*
X73730724Y-75440636D01*
X73715882Y-75447341D01*
X73700672Y-75453510D01*
X73685094Y-75459142D01*
X73669148Y-75464238D01*
X73652834Y-75468797D01*
X73636151Y-75472820D01*
X73619101Y-75476307D01*
X73601682Y-75479257D01*
X73583894Y-75481671D01*
X73565738Y-75483548D01*
X73547214Y-75484889D01*
X73509058Y-75485962D01*
X73487303Y-75485564D01*
X73465294Y-75484366D01*
X73443025Y-75482362D01*
X73420489Y-75479546D01*
X73397680Y-75475911D01*
X73374592Y-75471452D01*
X73351218Y-75466161D01*
X73327554Y-75460033D01*
X73327554Y-75146238D01*
X73385233Y-75146238D01*
X73407757Y-75145816D01*
X73418499Y-75145289D01*
X73428897Y-75144551D01*
X73438951Y-75143602D01*
X73448661Y-75142442D01*
X73458029Y-75141072D01*
X73467055Y-75139491D01*
X73475740Y-75137698D01*
X73484084Y-75135695D01*
X73492089Y-75133482D01*
X73499756Y-75131057D01*
X73507084Y-75128421D01*
X73514075Y-75125575D01*
X73520730Y-75122518D01*
X73527049Y-75119250D01*
X73533095Y-75115715D01*
X73538932Y-75111856D01*
X73544562Y-75107671D01*
X73549985Y-75103160D01*
X73555204Y-75098320D01*
X73560219Y-75093149D01*
X73565033Y-75087647D01*
X73569647Y-75081811D01*
X73574063Y-75075641D01*
X73578281Y-75069134D01*
X73582305Y-75062289D01*
X73586134Y-75055105D01*
X73589771Y-75047579D01*
X73593218Y-75039712D01*
X73596475Y-75031499D01*
X73599545Y-75022942D01*
X73634999Y-74928750D01*
X73417706Y-74297454D01*
G37*
G36*
X76969430Y-72136122D02*
G01*
X76985351Y-72137059D01*
X77001153Y-72138609D01*
X77016821Y-72140760D01*
X77032340Y-72143504D01*
X77047696Y-72146830D01*
X77062873Y-72150728D01*
X77077857Y-72155188D01*
X77092634Y-72160200D01*
X77107188Y-72165754D01*
X77121505Y-72171840D01*
X77135569Y-72178447D01*
X77149368Y-72185566D01*
X77162885Y-72193186D01*
X77176105Y-72201298D01*
X77189015Y-72209891D01*
X77201600Y-72218956D01*
X77213844Y-72228481D01*
X77225733Y-72238458D01*
X77237252Y-72248876D01*
X77248387Y-72259725D01*
X77259123Y-72270994D01*
X77269444Y-72282675D01*
X77279337Y-72294756D01*
X77288787Y-72307228D01*
X77297779Y-72320081D01*
X77306297Y-72333304D01*
X77314329Y-72346887D01*
X77321857Y-72360821D01*
X77328869Y-72375095D01*
X77335349Y-72389700D01*
X77341283Y-72404624D01*
X78425547Y-75296520D01*
X78430438Y-75308080D01*
X78436152Y-75319124D01*
X78442645Y-75329622D01*
X78449871Y-75339540D01*
X78457786Y-75348847D01*
X78466343Y-75357512D01*
X78475500Y-75365502D01*
X78485209Y-75372786D01*
X78495428Y-75379332D01*
X78506109Y-75385109D01*
X78517210Y-75390084D01*
X78528684Y-75394226D01*
X78540486Y-75397502D01*
X78552572Y-75399882D01*
X78564897Y-75401333D01*
X78577416Y-75401824D01*
X78786966Y-75401824D01*
X78795299Y-75401613D01*
X78803522Y-75400988D01*
X78811626Y-75399958D01*
X78819600Y-75398534D01*
X78827434Y-75396726D01*
X78835118Y-75394544D01*
X78842641Y-75391999D01*
X78849995Y-75389099D01*
X78857167Y-75385857D01*
X78864149Y-75382281D01*
X78870930Y-75378382D01*
X78877500Y-75374170D01*
X78883849Y-75369656D01*
X78889966Y-75364849D01*
X78895841Y-75359759D01*
X78901464Y-75354398D01*
X78906826Y-75348774D01*
X78911915Y-75342899D01*
X78916722Y-75336782D01*
X78921237Y-75330433D01*
X78925449Y-75323864D01*
X78929348Y-75317083D01*
X78932924Y-75310101D01*
X78936166Y-75302928D01*
X78939065Y-75295575D01*
X78941611Y-75288051D01*
X78943793Y-75280367D01*
X78945601Y-75272533D01*
X78947025Y-75264559D01*
X78948055Y-75256455D01*
X78948680Y-75248232D01*
X78948891Y-75239899D01*
X78948891Y-72298262D01*
X78949102Y-72289930D01*
X78949727Y-72281706D01*
X78950757Y-72273603D01*
X78952181Y-72265629D01*
X78953989Y-72257795D01*
X78956171Y-72250111D01*
X78958717Y-72242587D01*
X78961616Y-72235234D01*
X78964859Y-72228061D01*
X78968434Y-72221079D01*
X78972333Y-72214298D01*
X78976545Y-72207728D01*
X78981060Y-72201380D01*
X78985867Y-72195263D01*
X78990956Y-72189387D01*
X78996318Y-72183764D01*
X79001941Y-72178402D01*
X79007817Y-72173313D01*
X79013934Y-72168506D01*
X79020282Y-72163991D01*
X79026852Y-72159780D01*
X79033633Y-72155881D01*
X79040615Y-72152305D01*
X79047787Y-72149062D01*
X79055141Y-72146163D01*
X79062664Y-72143617D01*
X79070348Y-72141435D01*
X79078182Y-72139627D01*
X79086156Y-72138203D01*
X79094260Y-72137173D01*
X79102483Y-72136548D01*
X79110816Y-72136337D01*
X79119148Y-72136548D01*
X79127372Y-72137173D01*
X79135475Y-72138203D01*
X79143449Y-72139627D01*
X79151283Y-72141435D01*
X79158967Y-72143617D01*
X79166491Y-72146163D01*
X79173844Y-72149062D01*
X79181017Y-72152305D01*
X79187999Y-72155881D01*
X79194780Y-72159780D01*
X79201349Y-72163991D01*
X79207698Y-72168506D01*
X79213815Y-72173313D01*
X79219690Y-72178402D01*
X79225314Y-72183764D01*
X79230675Y-72189387D01*
X79235765Y-72195263D01*
X79240572Y-72201380D01*
X79245086Y-72207728D01*
X79249298Y-72214298D01*
X79253197Y-72221079D01*
X79256773Y-72228061D01*
X79260016Y-72235234D01*
X79262915Y-72242587D01*
X79265461Y-72250111D01*
X79267643Y-72257795D01*
X79269451Y-72265629D01*
X79270875Y-72273603D01*
X79271905Y-72281706D01*
X79272530Y-72289930D01*
X79272741Y-72298262D01*
X79272741Y-75239370D01*
X79272107Y-75264321D01*
X79270227Y-75288950D01*
X79267131Y-75313226D01*
X79262850Y-75337119D01*
X79257414Y-75360596D01*
X79250856Y-75383628D01*
X79243205Y-75406184D01*
X79234492Y-75428232D01*
X79224748Y-75449743D01*
X79214004Y-75470685D01*
X79202291Y-75491027D01*
X79189639Y-75510739D01*
X79176079Y-75529790D01*
X79161643Y-75548148D01*
X79146360Y-75565784D01*
X79130263Y-75582666D01*
X79113381Y-75598764D01*
X79095745Y-75614047D01*
X79077386Y-75628483D01*
X79058335Y-75642043D01*
X79038624Y-75654694D01*
X79018281Y-75666408D01*
X78997340Y-75677152D01*
X78975829Y-75686896D01*
X78953780Y-75695609D01*
X78931225Y-75703260D01*
X78908193Y-75709818D01*
X78884715Y-75715254D01*
X78860823Y-75719535D01*
X78836547Y-75722631D01*
X78811918Y-75724511D01*
X78786966Y-75725145D01*
X78577416Y-75725145D01*
X78558573Y-75724774D01*
X78539860Y-75723672D01*
X78521291Y-75721850D01*
X78502885Y-75719320D01*
X78484659Y-75716093D01*
X78466629Y-75712183D01*
X78448812Y-75707600D01*
X78431226Y-75702357D01*
X78413887Y-75696467D01*
X78396812Y-75689940D01*
X78380018Y-75682789D01*
X78363523Y-75675027D01*
X78347342Y-75666664D01*
X78331494Y-75657714D01*
X78315995Y-75648187D01*
X78300861Y-75638097D01*
X78286111Y-75627454D01*
X78271760Y-75616272D01*
X78257826Y-75604562D01*
X78244326Y-75592336D01*
X78231277Y-75579606D01*
X78218695Y-75566385D01*
X78206598Y-75552683D01*
X78195003Y-75538514D01*
X78183926Y-75523889D01*
X78173385Y-75508820D01*
X78163396Y-75493320D01*
X78153977Y-75477400D01*
X78145144Y-75461072D01*
X78136914Y-75444348D01*
X78129305Y-75427240D01*
X78122333Y-75409761D01*
X77038071Y-72518395D01*
X77035353Y-72511980D01*
X77032176Y-72505844D01*
X77028565Y-72500006D01*
X77024544Y-72494483D01*
X77020139Y-72489296D01*
X77015375Y-72484462D01*
X77010275Y-72480001D01*
X77004866Y-72475930D01*
X76999171Y-72472268D01*
X76993216Y-72469034D01*
X76987025Y-72466246D01*
X76980623Y-72463924D01*
X76974035Y-72462085D01*
X76967286Y-72460749D01*
X76960401Y-72459934D01*
X76953404Y-72459658D01*
X76949893Y-72459727D01*
X76946407Y-72459934D01*
X76942949Y-72460275D01*
X76939521Y-72460749D01*
X76936128Y-72461353D01*
X76932772Y-72462085D01*
X76929457Y-72462943D01*
X76926185Y-72463924D01*
X76922959Y-72465026D01*
X76919783Y-72466246D01*
X76916660Y-72467583D01*
X76913592Y-72469034D01*
X76910584Y-72470596D01*
X76907637Y-72472268D01*
X76904755Y-72474046D01*
X76901942Y-72475930D01*
X76899200Y-72477915D01*
X76896533Y-72480001D01*
X76893943Y-72482184D01*
X76891433Y-72484462D01*
X76889007Y-72486834D01*
X76886669Y-72489296D01*
X76884420Y-72491847D01*
X76882264Y-72494483D01*
X76880204Y-72497204D01*
X76878243Y-72500006D01*
X76876385Y-72502886D01*
X76874632Y-72505844D01*
X76872988Y-72508876D01*
X76871455Y-72511980D01*
X76870037Y-72515154D01*
X76868737Y-72518395D01*
X75705629Y-75620370D01*
X75700633Y-75632279D01*
X75694806Y-75643582D01*
X75688197Y-75654257D01*
X75680857Y-75664282D01*
X75672835Y-75673635D01*
X75664181Y-75682292D01*
X75654943Y-75690231D01*
X75645172Y-75697430D01*
X75634917Y-75703866D01*
X75624229Y-75709517D01*
X75613155Y-75714360D01*
X75601747Y-75718373D01*
X75590054Y-75721534D01*
X75578125Y-75723819D01*
X75566010Y-75725206D01*
X75553759Y-75725674D01*
X75550274Y-75725631D01*
X75546768Y-75725501D01*
X75543243Y-75725287D01*
X75539702Y-75724988D01*
X75536150Y-75724605D01*
X75532588Y-75724139D01*
X75529019Y-75723591D01*
X75525448Y-75722962D01*
X75521876Y-75722252D01*
X75518308Y-75721462D01*
X75514746Y-75720594D01*
X75511193Y-75719647D01*
X75507653Y-75718622D01*
X75504128Y-75717521D01*
X75500622Y-75716343D01*
X75497137Y-75715091D01*
X75489421Y-75711983D01*
X75481952Y-75708523D01*
X75474737Y-75704723D01*
X75467782Y-75700598D01*
X75461092Y-75696159D01*
X75454674Y-75691421D01*
X75448533Y-75686397D01*
X75442675Y-75681100D01*
X75437106Y-75675543D01*
X75431832Y-75669740D01*
X75426859Y-75663704D01*
X75422193Y-75657448D01*
X75417840Y-75650985D01*
X75413806Y-75644329D01*
X75410096Y-75637493D01*
X75406716Y-75630490D01*
X75403673Y-75623334D01*
X75400973Y-75616038D01*
X75398620Y-75608614D01*
X75396622Y-75601077D01*
X75394984Y-75593440D01*
X75393711Y-75585715D01*
X75392811Y-75577917D01*
X75392288Y-75570058D01*
X75392149Y-75562152D01*
X75392400Y-75554211D01*
X75393046Y-75546250D01*
X75394094Y-75538282D01*
X75395549Y-75530319D01*
X75397417Y-75522376D01*
X75399704Y-75514465D01*
X75402417Y-75506599D01*
X76565525Y-72404624D01*
X76577938Y-72375095D01*
X76592479Y-72346887D01*
X76609029Y-72320081D01*
X76627470Y-72294756D01*
X76647685Y-72270994D01*
X76669555Y-72248876D01*
X76692964Y-72228481D01*
X76717792Y-72209891D01*
X76743923Y-72193186D01*
X76771238Y-72178447D01*
X76799620Y-72165754D01*
X76828950Y-72155188D01*
X76859112Y-72146830D01*
X76889986Y-72140760D01*
X76921456Y-72137059D01*
X76953404Y-72135808D01*
X76969430Y-72136122D01*
G37*
G36*
X72365000Y-73365591D02*
G01*
X71550612Y-73365591D01*
X71550612Y-73803212D01*
X72290387Y-73803212D01*
X72290387Y-74156695D01*
X71550612Y-74156695D01*
X71550612Y-74914991D01*
X71091825Y-74914991D01*
X71091825Y-73011579D01*
X72365000Y-73011579D01*
X72365000Y-73365591D01*
G37*
D10*
X78400000Y-56330000D02*
X78400000Y-56030000D01*
D11*
G36*
X64667741Y-71285437D02*
G01*
X80542740Y-71285437D01*
X80542740Y-76577104D01*
X64667741Y-76577104D01*
X64667741Y-76418354D01*
X64667741Y-71444187D01*
X64826491Y-71444187D01*
X64826491Y-76418354D01*
X80383991Y-76418354D01*
X80383991Y-71444187D01*
X64826491Y-71444187D01*
X64667741Y-71444187D01*
X64667741Y-71285437D01*
G37*
G36*
X69831014Y-74297454D02*
G01*
X70249920Y-74297454D01*
X70250449Y-74297984D01*
X70250115Y-74296793D01*
X70249920Y-74297454D01*
X69831014Y-74297454D01*
X69556712Y-73500529D01*
X70027140Y-73500529D01*
X70250115Y-74296793D01*
X70485399Y-73500000D01*
X70957416Y-73500000D01*
X70381153Y-75151000D01*
X70356282Y-75211325D01*
X70348410Y-75228221D01*
X70340172Y-75244582D01*
X70331567Y-75260405D01*
X70322597Y-75275693D01*
X70313260Y-75290444D01*
X70303556Y-75304659D01*
X70293487Y-75318337D01*
X70283051Y-75331479D01*
X70272248Y-75344084D01*
X70261078Y-75356153D01*
X70249542Y-75367686D01*
X70237638Y-75378682D01*
X70225368Y-75389142D01*
X70212730Y-75399065D01*
X70199726Y-75408452D01*
X70186354Y-75417303D01*
X70172614Y-75425617D01*
X70158507Y-75433395D01*
X70144033Y-75440636D01*
X70129190Y-75447341D01*
X70113980Y-75453510D01*
X70098402Y-75459142D01*
X70082456Y-75464238D01*
X70066142Y-75468797D01*
X70049460Y-75472820D01*
X70032409Y-75476307D01*
X70014990Y-75479257D01*
X69997203Y-75481671D01*
X69979047Y-75483548D01*
X69960522Y-75484889D01*
X69922366Y-75485962D01*
X69900611Y-75485564D01*
X69878602Y-75484366D01*
X69856333Y-75482362D01*
X69833797Y-75479546D01*
X69810987Y-75475911D01*
X69787899Y-75471452D01*
X69764526Y-75466161D01*
X69740861Y-75460033D01*
X69740861Y-75146238D01*
X69798540Y-75146238D01*
X69821064Y-75145816D01*
X69831807Y-75145289D01*
X69842205Y-75144551D01*
X69852259Y-75143602D01*
X69861969Y-75142442D01*
X69871337Y-75141072D01*
X69880363Y-75139491D01*
X69889048Y-75137698D01*
X69897392Y-75135695D01*
X69905397Y-75133482D01*
X69913064Y-75131057D01*
X69920392Y-75128421D01*
X69927383Y-75125575D01*
X69934038Y-75122518D01*
X69940357Y-75119250D01*
X69946404Y-75115715D01*
X69952241Y-75111856D01*
X69957870Y-75107671D01*
X69963293Y-75103160D01*
X69968512Y-75098320D01*
X69973527Y-75093149D01*
X69978341Y-75087647D01*
X69982955Y-75081811D01*
X69987371Y-75075641D01*
X69991589Y-75069134D01*
X69995613Y-75062289D01*
X69999442Y-75055105D01*
X70003079Y-75047579D01*
X70006526Y-75039712D01*
X70009783Y-75031499D01*
X70012853Y-75022942D01*
X70048307Y-74928750D01*
X69831014Y-74297454D01*
G37*
D10*
X63400000Y-46330000D02*
X63400000Y-46630000D01*
D11*
G36*
X66965383Y-74335554D02*
G01*
X67388716Y-73011579D01*
X67992495Y-73011579D01*
X67992495Y-74914462D01*
X67532650Y-74914462D01*
X67532650Y-74469962D01*
X67577100Y-73560325D01*
X67117254Y-74914462D01*
X66814041Y-74914462D01*
X66352608Y-73559266D01*
X66397058Y-74470491D01*
X66397058Y-74914991D01*
X65938270Y-74914991D01*
X65938270Y-73011579D01*
X66540462Y-73011579D01*
X66965383Y-74335554D01*
G37*
D10*
X78400000Y-56330000D02*
X66800000Y-56330000D01*
D11*
G36*
X73000000Y-74914462D02*
G01*
X72558145Y-74914462D01*
X72558145Y-72906804D01*
X73000000Y-72906804D01*
X73000000Y-74914462D01*
G37*
D10*
X78400000Y-46330000D02*
X78100000Y-46330000D01*
X63400000Y-56300000D02*
X63400000Y-49830000D01*
X63400000Y-56330000D02*
X63700000Y-56330000D01*
X63400000Y-46330000D02*
X74900000Y-46330000D01*
D11*
G36*
X76970084Y-73902072D02*
G01*
X76987068Y-73903364D01*
X77003805Y-73905490D01*
X77020274Y-73908432D01*
X77036454Y-73912166D01*
X77052325Y-73916673D01*
X77067864Y-73921930D01*
X77083051Y-73927918D01*
X77097865Y-73934616D01*
X77112285Y-73942001D01*
X77126290Y-73950054D01*
X77139859Y-73958753D01*
X77152971Y-73968077D01*
X77165605Y-73978005D01*
X77177740Y-73988517D01*
X77189355Y-73999590D01*
X77200428Y-74011205D01*
X77210940Y-74023340D01*
X77220868Y-74035974D01*
X77230192Y-74049086D01*
X77238891Y-74062655D01*
X77246944Y-74076660D01*
X77254329Y-74091080D01*
X77261027Y-74105894D01*
X77267015Y-74121081D01*
X77272273Y-74136620D01*
X77276779Y-74152490D01*
X77280514Y-74168670D01*
X77283455Y-74185139D01*
X77285581Y-74201877D01*
X77286873Y-74218861D01*
X77287308Y-74236070D01*
X77286873Y-74253280D01*
X77285581Y-74270264D01*
X77283455Y-74287001D01*
X77280514Y-74303470D01*
X77276779Y-74319651D01*
X77272273Y-74335521D01*
X77267015Y-74351060D01*
X77261027Y-74366247D01*
X77254329Y-74381061D01*
X77246944Y-74395481D01*
X77238891Y-74409486D01*
X77230192Y-74423055D01*
X77220868Y-74436167D01*
X77210940Y-74448801D01*
X77200428Y-74460936D01*
X77189355Y-74472550D01*
X77177740Y-74483624D01*
X77165605Y-74494135D01*
X77152971Y-74504064D01*
X77139859Y-74513388D01*
X77126290Y-74522087D01*
X77112285Y-74530139D01*
X77097865Y-74537525D01*
X77083051Y-74544222D01*
X77067864Y-74550210D01*
X77052325Y-74555468D01*
X77036454Y-74559975D01*
X77020274Y-74563709D01*
X77003805Y-74566650D01*
X76987068Y-74568777D01*
X76970084Y-74570068D01*
X76952874Y-74570504D01*
X76935664Y-74570068D01*
X76918680Y-74568777D01*
X76901943Y-74566650D01*
X76885474Y-74563709D01*
X76869294Y-74559975D01*
X76853424Y-74555468D01*
X76837885Y-74550210D01*
X76822698Y-74544222D01*
X76807884Y-74537525D01*
X76793464Y-74530139D01*
X76779458Y-74522087D01*
X76765889Y-74513388D01*
X76752777Y-74504064D01*
X76740144Y-74494135D01*
X76728009Y-74483624D01*
X76716394Y-74472550D01*
X76705321Y-74460936D01*
X76694809Y-74448801D01*
X76684881Y-74436167D01*
X76675557Y-74423055D01*
X76666858Y-74409486D01*
X76658805Y-74395481D01*
X76651419Y-74381061D01*
X76644722Y-74366247D01*
X76638734Y-74351060D01*
X76633476Y-74335521D01*
X76628969Y-74319651D01*
X76625235Y-74303470D01*
X76622294Y-74287001D01*
X76620167Y-74270264D01*
X76618876Y-74253280D01*
X76618441Y-74236070D01*
X76618876Y-74218861D01*
X76620167Y-74201877D01*
X76622294Y-74185139D01*
X76625235Y-74168670D01*
X76628969Y-74152490D01*
X76633476Y-74136620D01*
X76638734Y-74121081D01*
X76644722Y-74105894D01*
X76651419Y-74091080D01*
X76658805Y-74076660D01*
X76666858Y-74062655D01*
X76675557Y-74049086D01*
X76684881Y-74035974D01*
X76694809Y-74023340D01*
X76705321Y-74011205D01*
X76716394Y-73999590D01*
X76728009Y-73988517D01*
X76740144Y-73978005D01*
X76752777Y-73968077D01*
X76765889Y-73958753D01*
X76779458Y-73950054D01*
X76793464Y-73942001D01*
X76807884Y-73934616D01*
X76822698Y-73927918D01*
X76837885Y-73921930D01*
X76853424Y-73916673D01*
X76869294Y-73912166D01*
X76885474Y-73908432D01*
X76901943Y-73905490D01*
X76918680Y-73903364D01*
X76935664Y-73902072D01*
X76952874Y-73901637D01*
X76970084Y-73902072D01*
G37*
G36*
X68199945Y-74492187D02*
G01*
X68640725Y-74492187D01*
X68640886Y-74499635D01*
X68641369Y-74506898D01*
X68642173Y-74513976D01*
X68643296Y-74520870D01*
X68644740Y-74527581D01*
X68646501Y-74534110D01*
X68648581Y-74540458D01*
X68650978Y-74546625D01*
X68653690Y-74552613D01*
X68656719Y-74558421D01*
X68660062Y-74564051D01*
X68663719Y-74569504D01*
X68667689Y-74574779D01*
X68671971Y-74579879D01*
X68676566Y-74584804D01*
X68681470Y-74589554D01*
X68686617Y-74594069D01*
X68691938Y-74598287D01*
X68697432Y-74602208D01*
X68703100Y-74605834D01*
X68708942Y-74609166D01*
X68714957Y-74612204D01*
X68721146Y-74614949D01*
X68727508Y-74617402D01*
X68734044Y-74619563D01*
X68740754Y-74621434D01*
X68747637Y-74623014D01*
X68754694Y-74624306D01*
X68761925Y-74625309D01*
X68769329Y-74626024D01*
X68776907Y-74626453D01*
X68784658Y-74626596D01*
X68784658Y-74627125D01*
X68794865Y-74626988D01*
X68804849Y-74626578D01*
X68814610Y-74625893D01*
X68824147Y-74624934D01*
X68833461Y-74623698D01*
X68842552Y-74622186D01*
X68851420Y-74620396D01*
X68860064Y-74618327D01*
X68868486Y-74615980D01*
X68876683Y-74613353D01*
X68884658Y-74610445D01*
X68892410Y-74607256D01*
X68899938Y-74603785D01*
X68907243Y-74600031D01*
X68914324Y-74595993D01*
X68921183Y-74591671D01*
X68927812Y-74587262D01*
X68934205Y-74582768D01*
X68940363Y-74578190D01*
X68946285Y-74573530D01*
X68951972Y-74568790D01*
X68957423Y-74563970D01*
X68962638Y-74559073D01*
X68967617Y-74554100D01*
X68972361Y-74549052D01*
X68976870Y-74543932D01*
X68981142Y-74538740D01*
X68985179Y-74533479D01*
X68988981Y-74528149D01*
X68992546Y-74522753D01*
X68995876Y-74517292D01*
X68998971Y-74511767D01*
X68998971Y-74285812D01*
X68870913Y-74285812D01*
X68843038Y-74286618D01*
X68816962Y-74289037D01*
X68804599Y-74290851D01*
X68792685Y-74293068D01*
X68781220Y-74295688D01*
X68770205Y-74298711D01*
X68759640Y-74302137D01*
X68749525Y-74305966D01*
X68739858Y-74310198D01*
X68730642Y-74314834D01*
X68721875Y-74319872D01*
X68713558Y-74325314D01*
X68705690Y-74331158D01*
X68698272Y-74337406D01*
X68691303Y-74344057D01*
X68684784Y-74351111D01*
X68678715Y-74358568D01*
X68673095Y-74366428D01*
X68667925Y-74374691D01*
X68663204Y-74383357D01*
X68658933Y-74392426D01*
X68655112Y-74401898D01*
X68651740Y-74411774D01*
X68648817Y-74422052D01*
X68646345Y-74432734D01*
X68644322Y-74443818D01*
X68642748Y-74455306D01*
X68641624Y-74467197D01*
X68640950Y-74479491D01*
X68640725Y-74492187D01*
X68199945Y-74492187D01*
X68200063Y-74487137D01*
X68202054Y-74459685D01*
X68205372Y-74433113D01*
X68210016Y-74407421D01*
X68215988Y-74382610D01*
X68223287Y-74358680D01*
X68231913Y-74335630D01*
X68241866Y-74313461D01*
X68253145Y-74292173D01*
X68265752Y-74271765D01*
X68279686Y-74252237D01*
X68294948Y-74233590D01*
X68311536Y-74215824D01*
X68329451Y-74198938D01*
X68348693Y-74182933D01*
X68369262Y-74167808D01*
X68391097Y-74153583D01*
X68414135Y-74140275D01*
X68438378Y-74127885D01*
X68463826Y-74116413D01*
X68490480Y-74105858D01*
X68518342Y-74096222D01*
X68547410Y-74087503D01*
X68577688Y-74079702D01*
X68609174Y-74072818D01*
X68641871Y-74066853D01*
X68675778Y-74061805D01*
X68710897Y-74057675D01*
X68747229Y-74054463D01*
X68784773Y-74052169D01*
X68823531Y-74050792D01*
X68863504Y-74050333D01*
X68999500Y-74050333D01*
X68999500Y-73975721D01*
X68998842Y-73951982D01*
X68996870Y-73929781D01*
X68993580Y-73909116D01*
X68991442Y-73899360D01*
X68988974Y-73889987D01*
X68986177Y-73880998D01*
X68983051Y-73872393D01*
X68979594Y-73864171D01*
X68975808Y-73856332D01*
X68971692Y-73848877D01*
X68967247Y-73841805D01*
X68962471Y-73835116D01*
X68957365Y-73828811D01*
X68951929Y-73822888D01*
X68946162Y-73817348D01*
X68940066Y-73812190D01*
X68933638Y-73807415D01*
X68926880Y-73803023D01*
X68919792Y-73799014D01*
X68912372Y-73795386D01*
X68904622Y-73792141D01*
X68896541Y-73789278D01*
X68888128Y-73786797D01*
X68879385Y-73784698D01*
X68870310Y-73782981D01*
X68860904Y-73781645D01*
X68851166Y-73780692D01*
X68841097Y-73780119D01*
X68830696Y-73779929D01*
X68821028Y-73780081D01*
X68811670Y-73780536D01*
X68802622Y-73781296D01*
X68793883Y-73782359D01*
X68785454Y-73783725D01*
X68777334Y-73785395D01*
X68769522Y-73787368D01*
X68762020Y-73789644D01*
X68754826Y-73792223D01*
X68747940Y-73795105D01*
X68741362Y-73798291D01*
X68735092Y-73801779D01*
X68729130Y-73805569D01*
X68723476Y-73809662D01*
X68718128Y-73814058D01*
X68713088Y-73818756D01*
X68708355Y-73823757D01*
X68703929Y-73829059D01*
X68699809Y-73834664D01*
X68695996Y-73840571D01*
X68692489Y-73846780D01*
X68689287Y-73853290D01*
X68686392Y-73860103D01*
X68683802Y-73867216D01*
X68681518Y-73874632D01*
X68679539Y-73882349D01*
X68677865Y-73890367D01*
X68676495Y-73898686D01*
X68675431Y-73907307D01*
X68674670Y-73916229D01*
X68674214Y-73925451D01*
X68674062Y-73934975D01*
X68233796Y-73934975D01*
X68234478Y-73909674D01*
X68236524Y-73884969D01*
X68239935Y-73860862D01*
X68244710Y-73837352D01*
X68250849Y-73814440D01*
X68258352Y-73792128D01*
X68267220Y-73770415D01*
X68277452Y-73749303D01*
X68289048Y-73728793D01*
X68302009Y-73708885D01*
X68316333Y-73689580D01*
X68332022Y-73670879D01*
X68349076Y-73652783D01*
X68367493Y-73635292D01*
X68387275Y-73618407D01*
X68408421Y-73602129D01*
X68430621Y-73586651D01*
X68453566Y-73572166D01*
X68477257Y-73558674D01*
X68501695Y-73546178D01*
X68526879Y-73534676D01*
X68552812Y-73524171D01*
X68579493Y-73514662D01*
X68606924Y-73506151D01*
X68635106Y-73498639D01*
X68664038Y-73492125D01*
X68693723Y-73486612D01*
X68724159Y-73482099D01*
X68755350Y-73478588D01*
X68787295Y-73476079D01*
X68819994Y-73474573D01*
X68853450Y-73474071D01*
X68886837Y-73474585D01*
X68919332Y-73476129D01*
X68950936Y-73478703D01*
X68981649Y-73482306D01*
X69011472Y-73486938D01*
X69040406Y-73492600D01*
X69068451Y-73499291D01*
X69095610Y-73507011D01*
X69121881Y-73515761D01*
X69147266Y-73525540D01*
X69171767Y-73536349D01*
X69195382Y-73548187D01*
X69218114Y-73561055D01*
X69239964Y-73574951D01*
X69260931Y-73589878D01*
X69281016Y-73605833D01*
X69300060Y-73622688D01*
X69317902Y-73640312D01*
X69334542Y-73658704D01*
X69349982Y-73677866D01*
X69364221Y-73697797D01*
X69377262Y-73718496D01*
X69389104Y-73739964D01*
X69399748Y-73762202D01*
X69409196Y-73785208D01*
X69417447Y-73808983D01*
X69424504Y-73833528D01*
X69430365Y-73858841D01*
X69435033Y-73884923D01*
X69438509Y-73911774D01*
X69440792Y-73939394D01*
X69441883Y-73967783D01*
X69441883Y-74593787D01*
X69443347Y-74640990D01*
X69444729Y-74663528D01*
X69446546Y-74685358D01*
X69448797Y-74706477D01*
X69451483Y-74726886D01*
X69454602Y-74746583D01*
X69458155Y-74765568D01*
X69462142Y-74783840D01*
X69466564Y-74801397D01*
X69471419Y-74818240D01*
X69476709Y-74834368D01*
X69482433Y-74849779D01*
X69488591Y-74864474D01*
X69495182Y-74878450D01*
X69502208Y-74891708D01*
X69502208Y-74913933D01*
X69061941Y-74913933D01*
X69060354Y-74914462D01*
X69057402Y-74908943D01*
X69054499Y-74903102D01*
X69051644Y-74896938D01*
X69048836Y-74890451D01*
X69046075Y-74883642D01*
X69043359Y-74876511D01*
X69040689Y-74869057D01*
X69038063Y-74861281D01*
X69032939Y-74844761D01*
X69027984Y-74826951D01*
X69023189Y-74807852D01*
X69018549Y-74787462D01*
X69002991Y-74806010D01*
X68986675Y-74823356D01*
X68969604Y-74839500D01*
X68951775Y-74854443D01*
X68933190Y-74868186D01*
X68913849Y-74880731D01*
X68893751Y-74892077D01*
X68872896Y-74902225D01*
X68851285Y-74911177D01*
X68828918Y-74918932D01*
X68805794Y-74925492D01*
X68781913Y-74930858D01*
X68757276Y-74935030D01*
X68731882Y-74938009D01*
X68705731Y-74939796D01*
X68678825Y-74940391D01*
X68654057Y-74939920D01*
X68629761Y-74938505D01*
X68605936Y-74936146D01*
X68582583Y-74932842D01*
X68559700Y-74928593D01*
X68537289Y-74923397D01*
X68515349Y-74917254D01*
X68493881Y-74910163D01*
X68472884Y-74902123D01*
X68452358Y-74893133D01*
X68432303Y-74883193D01*
X68412720Y-74872302D01*
X68393608Y-74860460D01*
X68374967Y-74847664D01*
X68356798Y-74833915D01*
X68339100Y-74819212D01*
X68322183Y-74803883D01*
X68306358Y-74788059D01*
X68291624Y-74771743D01*
X68277981Y-74754935D01*
X68265430Y-74737637D01*
X68253970Y-74719851D01*
X68243602Y-74701578D01*
X68234325Y-74682819D01*
X68226139Y-74663577D01*
X68219045Y-74643853D01*
X68213042Y-74623649D01*
X68208131Y-74602965D01*
X68204311Y-74581804D01*
X68201583Y-74560166D01*
X68199946Y-74538055D01*
X68199400Y-74515470D01*
X68199945Y-74492187D01*
G37*
D10*
X78400000Y-52830000D02*
X78400000Y-46330000D01*
X86295238Y-48577619D02*
X86866666Y-48577619D01*
X86580952Y-49577619D02*
X86580952Y-48577619D01*
X87104762Y-48577619D02*
X87771428Y-49577619D01*
X87771428Y-48577619D02*
X87104762Y-49577619D01*
D12*
X64938095Y-70384423D02*
X64938095Y-69384423D01*
X64938095Y-69384423D02*
X65319047Y-69384423D01*
X65319047Y-69384423D02*
X65414285Y-69432042D01*
X65414285Y-69432042D02*
X65461904Y-69479661D01*
X65461904Y-69479661D02*
X65509523Y-69574899D01*
X65509523Y-69574899D02*
X65509523Y-69717756D01*
X65509523Y-69717756D02*
X65461904Y-69812994D01*
X65461904Y-69812994D02*
X65414285Y-69860613D01*
X65414285Y-69860613D02*
X65319047Y-69908232D01*
X65319047Y-69908232D02*
X64938095Y-69908232D01*
X65938095Y-70384423D02*
X65938095Y-69384423D01*
X66842856Y-69717756D02*
X66842856Y-70384423D01*
X66604761Y-69336804D02*
X66366666Y-70051089D01*
X66366666Y-70051089D02*
X66985713Y-70051089D01*
X68080952Y-70336804D02*
X68223809Y-70384423D01*
X68223809Y-70384423D02*
X68461904Y-70384423D01*
X68461904Y-70384423D02*
X68557142Y-70336804D01*
X68557142Y-70336804D02*
X68604761Y-70289184D01*
X68604761Y-70289184D02*
X68652380Y-70193946D01*
X68652380Y-70193946D02*
X68652380Y-70098708D01*
X68652380Y-70098708D02*
X68604761Y-70003470D01*
X68604761Y-70003470D02*
X68557142Y-69955851D01*
X68557142Y-69955851D02*
X68461904Y-69908232D01*
X68461904Y-69908232D02*
X68271428Y-69860613D01*
X68271428Y-69860613D02*
X68176190Y-69812994D01*
X68176190Y-69812994D02*
X68128571Y-69765375D01*
X68128571Y-69765375D02*
X68080952Y-69670137D01*
X68080952Y-69670137D02*
X68080952Y-69574899D01*
X68080952Y-69574899D02*
X68128571Y-69479661D01*
X68128571Y-69479661D02*
X68176190Y-69432042D01*
X68176190Y-69432042D02*
X68271428Y-69384423D01*
X68271428Y-69384423D02*
X68509523Y-69384423D01*
X68509523Y-69384423D02*
X68652380Y-69432042D01*
X69461904Y-70336804D02*
X69366666Y-70384423D01*
X69366666Y-70384423D02*
X69176190Y-70384423D01*
X69176190Y-70384423D02*
X69080952Y-70336804D01*
X69080952Y-70336804D02*
X69033333Y-70241565D01*
X69033333Y-70241565D02*
X69033333Y-69860613D01*
X69033333Y-69860613D02*
X69080952Y-69765375D01*
X69080952Y-69765375D02*
X69176190Y-69717756D01*
X69176190Y-69717756D02*
X69366666Y-69717756D01*
X69366666Y-69717756D02*
X69461904Y-69765375D01*
X69461904Y-69765375D02*
X69509523Y-69860613D01*
X69509523Y-69860613D02*
X69509523Y-69955851D01*
X69509523Y-69955851D02*
X69033333Y-70051089D01*
X69938095Y-69717756D02*
X69938095Y-70384423D01*
X69938095Y-69812994D02*
X69985714Y-69765375D01*
X69985714Y-69765375D02*
X70080952Y-69717756D01*
X70080952Y-69717756D02*
X70223809Y-69717756D01*
X70223809Y-69717756D02*
X70319047Y-69765375D01*
X70319047Y-69765375D02*
X70366666Y-69860613D01*
X70366666Y-69860613D02*
X70366666Y-70384423D01*
X70795238Y-70336804D02*
X70890476Y-70384423D01*
X70890476Y-70384423D02*
X71080952Y-70384423D01*
X71080952Y-70384423D02*
X71176190Y-70336804D01*
X71176190Y-70336804D02*
X71223809Y-70241565D01*
X71223809Y-70241565D02*
X71223809Y-70193946D01*
X71223809Y-70193946D02*
X71176190Y-70098708D01*
X71176190Y-70098708D02*
X71080952Y-70051089D01*
X71080952Y-70051089D02*
X70938095Y-70051089D01*
X70938095Y-70051089D02*
X70842857Y-70003470D01*
X70842857Y-70003470D02*
X70795238Y-69908232D01*
X70795238Y-69908232D02*
X70795238Y-69860613D01*
X70795238Y-69860613D02*
X70842857Y-69765375D01*
X70842857Y-69765375D02*
X70938095Y-69717756D01*
X70938095Y-69717756D02*
X71080952Y-69717756D01*
X71080952Y-69717756D02*
X71176190Y-69765375D01*
X71795238Y-70384423D02*
X71700000Y-70336804D01*
X71700000Y-70336804D02*
X71652381Y-70289184D01*
X71652381Y-70289184D02*
X71604762Y-70193946D01*
X71604762Y-70193946D02*
X71604762Y-69908232D01*
X71604762Y-69908232D02*
X71652381Y-69812994D01*
X71652381Y-69812994D02*
X71700000Y-69765375D01*
X71700000Y-69765375D02*
X71795238Y-69717756D01*
X71795238Y-69717756D02*
X71938095Y-69717756D01*
X71938095Y-69717756D02*
X72033333Y-69765375D01*
X72033333Y-69765375D02*
X72080952Y-69812994D01*
X72080952Y-69812994D02*
X72128571Y-69908232D01*
X72128571Y-69908232D02*
X72128571Y-70193946D01*
X72128571Y-70193946D02*
X72080952Y-70289184D01*
X72080952Y-70289184D02*
X72033333Y-70336804D01*
X72033333Y-70336804D02*
X71938095Y-70384423D01*
X71938095Y-70384423D02*
X71795238Y-70384423D01*
X72557143Y-70384423D02*
X72557143Y-69717756D01*
X72557143Y-69908232D02*
X72604762Y-69812994D01*
X72604762Y-69812994D02*
X72652381Y-69765375D01*
X72652381Y-69765375D02*
X72747619Y-69717756D01*
X72747619Y-69717756D02*
X72842857Y-69717756D01*
X73652381Y-70384423D02*
X73176191Y-70384423D01*
X73176191Y-70384423D02*
X73176191Y-69384423D01*
X74366667Y-70336804D02*
X74271429Y-70384423D01*
X74271429Y-70384423D02*
X74080953Y-70384423D01*
X74080953Y-70384423D02*
X73985715Y-70336804D01*
X73985715Y-70336804D02*
X73938096Y-70241565D01*
X73938096Y-70241565D02*
X73938096Y-69860613D01*
X73938096Y-69860613D02*
X73985715Y-69765375D01*
X73985715Y-69765375D02*
X74080953Y-69717756D01*
X74080953Y-69717756D02*
X74271429Y-69717756D01*
X74271429Y-69717756D02*
X74366667Y-69765375D01*
X74366667Y-69765375D02*
X74414286Y-69860613D01*
X74414286Y-69860613D02*
X74414286Y-69955851D01*
X74414286Y-69955851D02*
X73938096Y-70051089D01*
X75271429Y-70384423D02*
X75271429Y-69860613D01*
X75271429Y-69860613D02*
X75223810Y-69765375D01*
X75223810Y-69765375D02*
X75128572Y-69717756D01*
X75128572Y-69717756D02*
X74938096Y-69717756D01*
X74938096Y-69717756D02*
X74842858Y-69765375D01*
X75271429Y-70336804D02*
X75176191Y-70384423D01*
X75176191Y-70384423D02*
X74938096Y-70384423D01*
X74938096Y-70384423D02*
X74842858Y-70336804D01*
X74842858Y-70336804D02*
X74795239Y-70241565D01*
X74795239Y-70241565D02*
X74795239Y-70146327D01*
X74795239Y-70146327D02*
X74842858Y-70051089D01*
X74842858Y-70051089D02*
X74938096Y-70003470D01*
X74938096Y-70003470D02*
X75176191Y-70003470D01*
X75176191Y-70003470D02*
X75271429Y-69955851D01*
X75747620Y-69717756D02*
X75747620Y-70717756D01*
X75747620Y-69765375D02*
X75842858Y-69717756D01*
X75842858Y-69717756D02*
X76033334Y-69717756D01*
X76033334Y-69717756D02*
X76128572Y-69765375D01*
X76128572Y-69765375D02*
X76176191Y-69812994D01*
X76176191Y-69812994D02*
X76223810Y-69908232D01*
X76223810Y-69908232D02*
X76223810Y-70193946D01*
X76223810Y-70193946D02*
X76176191Y-70289184D01*
X76176191Y-70289184D02*
X76128572Y-70336804D01*
X76128572Y-70336804D02*
X76033334Y-70384423D01*
X76033334Y-70384423D02*
X75842858Y-70384423D01*
X75842858Y-70384423D02*
X75747620Y-70336804D01*
X77271430Y-69384423D02*
X77604763Y-70384423D01*
X77604763Y-70384423D02*
X77938096Y-69384423D01*
X78795239Y-70384423D02*
X78223811Y-70384423D01*
X78509525Y-70384423D02*
X78509525Y-69384423D01*
X78509525Y-69384423D02*
X78414287Y-69527280D01*
X78414287Y-69527280D02*
X78319049Y-69622518D01*
X78319049Y-69622518D02*
X78223811Y-69670137D01*
X79223811Y-70289184D02*
X79271430Y-70336804D01*
X79271430Y-70336804D02*
X79223811Y-70384423D01*
X79223811Y-70384423D02*
X79176192Y-70336804D01*
X79176192Y-70336804D02*
X79223811Y-70289184D01*
X79223811Y-70289184D02*
X79223811Y-70384423D01*
X79890477Y-69384423D02*
X79985715Y-69384423D01*
X79985715Y-69384423D02*
X80080953Y-69432042D01*
X80080953Y-69432042D02*
X80128572Y-69479661D01*
X80128572Y-69479661D02*
X80176191Y-69574899D01*
X80176191Y-69574899D02*
X80223810Y-69765375D01*
X80223810Y-69765375D02*
X80223810Y-70003470D01*
X80223810Y-70003470D02*
X80176191Y-70193946D01*
X80176191Y-70193946D02*
X80128572Y-70289184D01*
X80128572Y-70289184D02*
X80080953Y-70336804D01*
X80080953Y-70336804D02*
X79985715Y-70384423D01*
X79985715Y-70384423D02*
X79890477Y-70384423D01*
X79890477Y-70384423D02*
X79795239Y-70336804D01*
X79795239Y-70336804D02*
X79747620Y-70289184D01*
X79747620Y-70289184D02*
X79700001Y-70193946D01*
X79700001Y-70193946D02*
X79652382Y-70003470D01*
X79652382Y-70003470D02*
X79652382Y-69765375D01*
X79652382Y-69765375D02*
X79700001Y-69574899D01*
X79700001Y-69574899D02*
X79747620Y-69479661D01*
X79747620Y-69479661D02*
X79795239Y-69432042D01*
X79795239Y-69432042D02*
X79890477Y-69384423D01*
D10*
X67738095Y-64377619D02*
X67738095Y-63377619D01*
X67738095Y-63377619D02*
X68119047Y-63377619D01*
X68119047Y-63377619D02*
X68214285Y-63425238D01*
X68214285Y-63425238D02*
X68261904Y-63472857D01*
X68261904Y-63472857D02*
X68309523Y-63568095D01*
X68309523Y-63568095D02*
X68309523Y-63710952D01*
X68309523Y-63710952D02*
X68261904Y-63806190D01*
X68261904Y-63806190D02*
X68214285Y-63853809D01*
X68214285Y-63853809D02*
X68119047Y-63901428D01*
X68119047Y-63901428D02*
X67738095Y-63901428D01*
X68642857Y-63377619D02*
X68880952Y-64377619D01*
X68880952Y-64377619D02*
X69071428Y-63663333D01*
X69071428Y-63663333D02*
X69261904Y-64377619D01*
X69261904Y-64377619D02*
X69500000Y-63377619D01*
X70452380Y-64377619D02*
X70119047Y-63901428D01*
X69880952Y-64377619D02*
X69880952Y-63377619D01*
X69880952Y-63377619D02*
X70261904Y-63377619D01*
X70261904Y-63377619D02*
X70357142Y-63425238D01*
X70357142Y-63425238D02*
X70404761Y-63472857D01*
X70404761Y-63472857D02*
X70452380Y-63568095D01*
X70452380Y-63568095D02*
X70452380Y-63710952D01*
X70452380Y-63710952D02*
X70404761Y-63806190D01*
X70404761Y-63806190D02*
X70357142Y-63853809D01*
X70357142Y-63853809D02*
X70261904Y-63901428D01*
X70261904Y-63901428D02*
X69880952Y-63901428D01*
X86909523Y-51377619D02*
X86576190Y-50901428D01*
X86338095Y-51377619D02*
X86338095Y-50377619D01*
X86338095Y-50377619D02*
X86719047Y-50377619D01*
X86719047Y-50377619D02*
X86814285Y-50425238D01*
X86814285Y-50425238D02*
X86861904Y-50472857D01*
X86861904Y-50472857D02*
X86909523Y-50568095D01*
X86909523Y-50568095D02*
X86909523Y-50710952D01*
X86909523Y-50710952D02*
X86861904Y-50806190D01*
X86861904Y-50806190D02*
X86814285Y-50853809D01*
X86814285Y-50853809D02*
X86719047Y-50901428D01*
X86719047Y-50901428D02*
X86338095Y-50901428D01*
X87242857Y-50377619D02*
X87909523Y-51377619D01*
X87909523Y-50377619D02*
X87242857Y-51377619D01*
D13*
%TO.C,R3*%
X80846359Y-48720000D02*
X81153641Y-48720000D01*
X80846359Y-49480000D02*
X81153641Y-49480000D01*
%TO.C,R6*%
X77580000Y-57456359D02*
X77580000Y-57763641D01*
X76820000Y-57456359D02*
X76820000Y-57763641D01*
%TO.C,C11*%
X67867836Y-53860000D02*
X67652164Y-53860000D01*
X67867836Y-53140000D02*
X67652164Y-53140000D01*
%TO.C,C1*%
X65017499Y-48226036D02*
X65017499Y-48010364D01*
X65737499Y-48226036D02*
X65737499Y-48010364D01*
%TO.C,X1*%
X67120342Y-48907900D02*
X67279658Y-48907900D01*
X67279658Y-46952100D02*
X67120342Y-46952100D01*
%TO.C,C21*%
X95688748Y-46565000D02*
X96211252Y-46565000D01*
X95688748Y-48035000D02*
X96211252Y-48035000D01*
%TO.C,C23*%
X93240000Y-49507836D02*
X93240000Y-49292164D01*
X93960000Y-49507836D02*
X93960000Y-49292164D01*
%TO.C,C19*%
X92240000Y-72087836D02*
X92240000Y-71872164D01*
X92960000Y-72087836D02*
X92960000Y-71872164D01*
%TO.C,C3*%
X63265580Y-59210000D02*
X62984420Y-59210000D01*
X63265580Y-58190000D02*
X62984420Y-58190000D01*
%TO.C,C20*%
X87160000Y-72792164D02*
X87160000Y-73007836D01*
X86440000Y-72792164D02*
X86440000Y-73007836D01*
%TO.C,C6*%
X67867836Y-54830000D02*
X67652164Y-54830000D01*
X67867836Y-54110000D02*
X67652164Y-54110000D01*
%TO.C,C7*%
X68094000Y-50122164D02*
X68094000Y-50337836D01*
X67374000Y-50122164D02*
X67374000Y-50337836D01*
%TO.C,R2*%
X80836359Y-50520000D02*
X81143641Y-50520000D01*
X80836359Y-51280000D02*
X81143641Y-51280000D01*
%TO.C,R1*%
X74013641Y-48334000D02*
X73706359Y-48334000D01*
X74013641Y-47574000D02*
X73706359Y-47574000D01*
%TO.C,C5*%
X67094000Y-50112164D02*
X67094000Y-50327836D01*
X66374000Y-50112164D02*
X66374000Y-50327836D01*
%TO.C,R5*%
X79380000Y-57456359D02*
X79380000Y-57763641D01*
X78620000Y-57456359D02*
X78620000Y-57763641D01*
%TO.C,D4*%
X71115000Y-63165000D02*
X71115000Y-64635000D01*
X71115000Y-64635000D02*
X73400000Y-64635000D01*
X73400000Y-63165000D02*
X71115000Y-63165000D01*
%TO.C,C10*%
X71720000Y-47192164D02*
X71720000Y-47407836D01*
X71000000Y-47192164D02*
X71000000Y-47407836D01*
%TO.C,R4*%
X73056359Y-58420000D02*
X73363641Y-58420000D01*
X73056359Y-59180000D02*
X73363641Y-59180000D01*
%TO.C,C2*%
X66094000Y-50112164D02*
X66094000Y-50327836D01*
X65374000Y-50112164D02*
X65374000Y-50327836D01*
%TO.C,R9*%
X75753641Y-64280000D02*
X75446359Y-64280000D01*
X75753641Y-63520000D02*
X75446359Y-63520000D01*
%TO.C,C8*%
X69377499Y-48010364D02*
X69377499Y-48226036D01*
X68657499Y-48010364D02*
X68657499Y-48226036D01*
%TO.C,C14*%
X65374000Y-52187836D02*
X65374000Y-51972164D01*
X66094000Y-52187836D02*
X66094000Y-51972164D01*
%TO.C,D1*%
X85797500Y-51635000D02*
X85797500Y-50165000D01*
X85797500Y-50165000D02*
X83512500Y-50165000D01*
X83512500Y-51635000D02*
X85797500Y-51635000D01*
%TO.C,C9*%
X74817836Y-55060000D02*
X74602164Y-55060000D01*
X74817836Y-54340000D02*
X74602164Y-54340000D01*
%TO.C,D2*%
X85785000Y-49835000D02*
X85785000Y-48365000D01*
X85785000Y-48365000D02*
X83500000Y-48365000D01*
X83500000Y-49835000D02*
X85785000Y-49835000D01*
%TO.C,U1*%
X75016000Y-53994000D02*
X75016000Y-53544000D01*
X75016000Y-48694000D02*
X75016000Y-49144000D01*
X74566000Y-53994000D02*
X75016000Y-53994000D01*
X74566000Y-48694000D02*
X75016000Y-48694000D01*
X70166000Y-53994000D02*
X69716000Y-53994000D01*
X70166000Y-48694000D02*
X69716000Y-48694000D01*
X69716000Y-53994000D02*
X69716000Y-53544000D01*
X69716000Y-48694000D02*
X69716000Y-49144000D01*
D14*
%TO.C,MP3*%
X79200000Y-53080000D02*
X79200000Y-55780000D01*
X77600000Y-53080000D02*
X79200000Y-53080000D01*
X79200000Y-55780000D02*
X77600000Y-55780000D01*
X77600000Y-55780000D02*
X77600000Y-53080000D01*
%TO.C,MP2*%
X62600000Y-49580000D02*
X62600000Y-46880000D01*
X64200000Y-49580000D02*
X62600000Y-49580000D01*
X62600000Y-46880000D02*
X64200000Y-46880000D01*
X64200000Y-46880000D02*
X64200000Y-49580000D01*
D15*
%TO.C,U5*%
X94300000Y-50000000D02*
X94530000Y-50000000D01*
X94300000Y-50000000D02*
X94300000Y-49770000D01*
X95700000Y-50000000D02*
X95470000Y-50000000D01*
X95700000Y-50000000D02*
X95700000Y-49770000D01*
X94300000Y-48600000D02*
X94300000Y-48830000D01*
X94300000Y-48600000D02*
X94530000Y-48600000D01*
X95700000Y-48600000D02*
X95700000Y-48830000D01*
X95700000Y-48600000D02*
X95470000Y-48600000D01*
D14*
X95450000Y-50140000D02*
G75*
G03*
X95450000Y-50140000I-50000J0D01*
G01*
%TO.C,MP4*%
X66650000Y-57130000D02*
X63950000Y-57130000D01*
X66650000Y-55530000D02*
X66650000Y-57130000D01*
X63950000Y-57130000D02*
X63950000Y-55530000D01*
X63950000Y-55530000D02*
X66650000Y-55530000D01*
D13*
%TO.C,C4*%
X69792164Y-54340000D02*
X70007836Y-54340000D01*
X69792164Y-55060000D02*
X70007836Y-55060000D01*
%TO.C,C12*%
X67374000Y-52187836D02*
X67374000Y-51972164D01*
X68094000Y-52187836D02*
X68094000Y-51972164D01*
%TO.C,C13*%
X66374000Y-52187836D02*
X66374000Y-51972164D01*
X67094000Y-52187836D02*
X67094000Y-51972164D01*
D14*
%TO.C,MP1*%
X77850000Y-47130000D02*
X75150000Y-47130000D01*
X77850000Y-45530000D02*
X77850000Y-47130000D01*
X75150000Y-47130000D02*
X75150000Y-45530000D01*
X75150000Y-45530000D02*
X77850000Y-45530000D01*
D13*
%TO.C,R7*%
X75880000Y-57456359D02*
X75880000Y-57763641D01*
X75120000Y-57456359D02*
X75120000Y-57763641D01*
D14*
%TO.C,U4*%
X91100000Y-69750000D02*
X91100000Y-70085000D01*
X90100000Y-69750000D02*
X91100000Y-69750000D01*
X89100000Y-69750000D02*
X89100000Y-69750000D01*
X88100000Y-69750000D02*
X89100000Y-69750000D01*
X88100000Y-70085000D02*
X88100000Y-69750000D01*
X91800000Y-70500000D02*
X91800000Y-70500000D01*
X91700000Y-70500000D02*
X91700000Y-70500000D01*
X91100000Y-73915000D02*
X91100000Y-74250000D01*
X88100000Y-74000000D02*
X88100000Y-74250000D01*
X91100000Y-74250000D02*
X90100000Y-74250000D01*
X88100000Y-74250000D02*
X89100000Y-74250000D01*
X91700000Y-70500000D02*
G75*
G03*
X91800000Y-70500000I50000J0D01*
G01*
X91800000Y-70500000D02*
G75*
G03*
X91700000Y-70500000I-50000J0D01*
G01*
D13*
%TO.C,C22*%
X96760000Y-49592164D02*
X96760000Y-49807836D01*
X96040000Y-49592164D02*
X96040000Y-49807836D01*
%TD*%
%LPC*%
D16*
%TO.C,R3*%
X80490000Y-49100000D03*
X81510000Y-49100000D03*
%TD*%
D17*
%TO.C,R6*%
X77200000Y-57100000D03*
X77200000Y-58120000D03*
%TD*%
D18*
%TO.C,C11*%
X68240000Y-53500000D03*
X67280000Y-53500000D03*
%TD*%
D19*
%TO.C,C1*%
X65377499Y-48598200D03*
X65377499Y-47638200D03*
%TD*%
D20*
%TO.C,X1*%
X66562501Y-48361800D03*
X67837499Y-48361800D03*
X67837499Y-47498200D03*
X66562501Y-47498200D03*
%TD*%
D21*
%TO.C,C21*%
X95000000Y-47300000D03*
X96900000Y-47300000D03*
%TD*%
D19*
%TO.C,C23*%
X93600000Y-49880000D03*
X93600000Y-48920000D03*
%TD*%
D22*
%TO.C,FB1*%
X67315000Y-55500000D03*
X68285000Y-55500000D03*
%TD*%
D19*
%TO.C,C19*%
X92600000Y-72460000D03*
X92600000Y-71500000D03*
%TD*%
D23*
%TO.C,C3*%
X63900000Y-58700000D03*
X62350000Y-58700000D03*
%TD*%
D24*
%TO.C,C20*%
X86800000Y-72420000D03*
X86800000Y-73380000D03*
%TD*%
D18*
%TO.C,C6*%
X68240000Y-54470000D03*
X67280000Y-54470000D03*
%TD*%
D24*
%TO.C,C7*%
X67734000Y-49750000D03*
X67734000Y-50710000D03*
%TD*%
D16*
%TO.C,R2*%
X80480000Y-50900000D03*
X81500000Y-50900000D03*
%TD*%
D25*
%TO.C,R1*%
X74370000Y-47954000D03*
X73350000Y-47954000D03*
%TD*%
D24*
%TO.C,C5*%
X66734000Y-49740000D03*
X66734000Y-50700000D03*
%TD*%
D17*
%TO.C,R5*%
X79000000Y-57100000D03*
X79000000Y-58120000D03*
%TD*%
D26*
%TO.C,D4*%
X71812500Y-63900000D03*
X73387500Y-63900000D03*
%TD*%
D27*
%TO.C,C10*%
X71360000Y-46820000D03*
X71360000Y-47780000D03*
%TD*%
D16*
%TO.C,R4*%
X72700000Y-58800000D03*
X73720000Y-58800000D03*
%TD*%
D24*
%TO.C,C2*%
X65734000Y-49740000D03*
X65734000Y-50700000D03*
%TD*%
D25*
%TO.C,R9*%
X76110000Y-63900000D03*
X75090000Y-63900000D03*
%TD*%
D24*
%TO.C,C8*%
X69017499Y-47638200D03*
X69017499Y-48598200D03*
%TD*%
D19*
%TO.C,C14*%
X65734000Y-52560000D03*
X65734000Y-51600000D03*
%TD*%
D28*
%TO.C,D1*%
X85100000Y-50900000D03*
X83525000Y-50900000D03*
%TD*%
D18*
%TO.C,C9*%
X75190000Y-54700000D03*
X74230000Y-54700000D03*
%TD*%
D28*
%TO.C,D2*%
X85087500Y-49100000D03*
X83512500Y-49100000D03*
%TD*%
D29*
%TO.C,U1*%
X74666000Y-53144000D03*
X74666000Y-52744000D03*
X74666000Y-52344000D03*
X74666000Y-51944000D03*
X74666000Y-51544000D03*
X74666000Y-51144000D03*
X74666000Y-50744000D03*
X74666000Y-50344000D03*
X74666000Y-49944000D03*
X74666000Y-49544000D03*
D30*
X74166000Y-49044000D03*
X73766000Y-49044000D03*
X73366000Y-49044000D03*
X72966000Y-49044000D03*
X72566000Y-49044000D03*
X72166000Y-49044000D03*
X71766000Y-49044000D03*
X71366000Y-49044000D03*
X70966000Y-49044000D03*
X70566000Y-49044000D03*
D29*
X70066000Y-49544000D03*
X70066000Y-49944000D03*
X70066000Y-50344000D03*
X70066000Y-50744000D03*
X70066000Y-51144000D03*
X70066000Y-51544000D03*
X70066000Y-51944000D03*
X70066000Y-52344000D03*
X70066000Y-52744000D03*
X70066000Y-53144000D03*
D30*
X70566000Y-53644000D03*
X70966000Y-53644000D03*
X71366000Y-53644000D03*
X71766000Y-53644000D03*
X72166000Y-53644000D03*
X72566000Y-53644000D03*
X72966000Y-53644000D03*
X73366000Y-53644000D03*
X73766000Y-53644000D03*
X74166000Y-53644000D03*
%TD*%
D31*
%TO.C,MP3*%
X78400000Y-54430000D03*
%TD*%
%TO.C,MP2*%
X63400000Y-48230000D03*
%TD*%
D32*
%TO.C,J1*%
X68600000Y-42000000D03*
D33*
X71360000Y-42000000D03*
D32*
X74200000Y-42000000D03*
%TD*%
D34*
%TO.C,U5*%
X95400000Y-49700000D03*
X95000000Y-49700000D03*
X94600000Y-49700000D03*
X95400000Y-49300000D03*
X95000000Y-49300000D03*
X94600000Y-49300000D03*
X95400000Y-48900000D03*
X95000000Y-48900000D03*
X94600000Y-48900000D03*
%TD*%
D35*
%TO.C,MP4*%
X65300000Y-56330000D03*
%TD*%
D36*
%TO.C,C4*%
X69420000Y-54700000D03*
X70380000Y-54700000D03*
%TD*%
D19*
%TO.C,C12*%
X67734000Y-52560000D03*
X67734000Y-51600000D03*
%TD*%
%TO.C,C13*%
X66734000Y-52560000D03*
X66734000Y-51600000D03*
%TD*%
D35*
%TO.C,MP1*%
X76500000Y-46330000D03*
%TD*%
D17*
%TO.C,R7*%
X75500000Y-57100000D03*
X75500000Y-58120000D03*
%TD*%
D37*
%TO.C,U4*%
X90765000Y-70500000D03*
X90765000Y-71000000D03*
X90765000Y-71500000D03*
X90765000Y-72000000D03*
X90765000Y-72500000D03*
X90765000Y-73000000D03*
X90765000Y-73500000D03*
D38*
X89600000Y-73915000D03*
D37*
X88435000Y-73500000D03*
X88435000Y-73000000D03*
X88435000Y-72500000D03*
X88435000Y-72000000D03*
X88435000Y-71500000D03*
X88435000Y-71000000D03*
X88435000Y-70500000D03*
D38*
X89600000Y-70085000D03*
%TD*%
D24*
%TO.C,C22*%
X96400000Y-49220000D03*
X96400000Y-50180000D03*
%TD*%
M02*
