%TF.GenerationSoftware,KiCad,Pcbnew,7.0.1*%
%TF.CreationDate,2024-02-15T14:31:57+01:00*%
%TF.ProjectId,pi4-sensorleap-v1,7069342d-7365-46e7-936f-726c6561702d,rev?*%
%TF.SameCoordinates,Original*%
%TF.FileFunction,Copper,L1,Top*%
%TF.FilePolarity,Positive*%
%FSLAX46Y46*%
G04 Gerber Fmt 4.6, Leading zero omitted, Abs format (unit mm)*
G04 Created by KiCad (PCBNEW 7.0.1) date 2024-02-15 14:31:57*
%MOMM*%
%LPD*%
G01*
G04 APERTURE LIST*
G04 Aperture macros list*
%AMRoundRect*
0 Rectangle with rounded corners*
0 $1 Rounding radius*
0 $2 $3 $4 $5 $6 $7 $8 $9 X,Y pos of 4 corners*
0 Add a 4 corners polygon primitive as box body*
4,1,4,$2,$3,$4,$5,$6,$7,$8,$9,$2,$3,0*
0 Add four circle primitives for the rounded corners*
1,1,$1+$1,$2,$3*
1,1,$1+$1,$4,$5*
1,1,$1+$1,$6,$7*
1,1,$1+$1,$8,$9*
0 Add four rect primitives between the rounded corners*
20,1,$1+$1,$2,$3,$4,$5,0*
20,1,$1+$1,$4,$5,$6,$7,0*
20,1,$1+$1,$6,$7,$8,$9,0*
20,1,$1+$1,$8,$9,$2,$3,0*%
G04 Aperture macros list end*
%TA.AperFunction,SMDPad,CuDef*%
%ADD10RoundRect,0.135000X-0.135000X-0.185000X0.135000X-0.185000X0.135000X0.185000X-0.135000X0.185000X0*%
%TD*%
%TA.AperFunction,SMDPad,CuDef*%
%ADD11RoundRect,0.135000X-0.185000X0.135000X-0.185000X-0.135000X0.185000X-0.135000X0.185000X0.135000X0*%
%TD*%
%TA.AperFunction,SMDPad,CuDef*%
%ADD12RoundRect,0.140000X0.140000X0.170000X-0.140000X0.170000X-0.140000X-0.170000X0.140000X-0.170000X0*%
%TD*%
%TA.AperFunction,SMDPad,CuDef*%
%ADD13RoundRect,0.140000X0.170000X-0.140000X0.170000X0.140000X-0.170000X0.140000X-0.170000X-0.140000X0*%
%TD*%
%TA.AperFunction,SMDPad,CuDef*%
%ADD14R,0.685800X0.584200*%
%TD*%
%TA.AperFunction,SMDPad,CuDef*%
%ADD15RoundRect,0.250000X-0.250000X-0.475000X0.250000X-0.475000X0.250000X0.475000X-0.250000X0.475000X0*%
%TD*%
%TA.AperFunction,SMDPad,CuDef*%
%ADD16RoundRect,0.147500X-0.147500X-0.172500X0.147500X-0.172500X0.147500X0.172500X-0.147500X0.172500X0*%
%TD*%
%TA.AperFunction,SMDPad,CuDef*%
%ADD17RoundRect,0.225000X0.225000X0.250000X-0.225000X0.250000X-0.225000X-0.250000X0.225000X-0.250000X0*%
%TD*%
%TA.AperFunction,SMDPad,CuDef*%
%ADD18RoundRect,0.140000X-0.170000X0.140000X-0.170000X-0.140000X0.170000X-0.140000X0.170000X0.140000X0*%
%TD*%
%TA.AperFunction,SMDPad,CuDef*%
%ADD19RoundRect,0.135000X0.135000X0.185000X-0.135000X0.185000X-0.135000X-0.185000X0.135000X-0.185000X0*%
%TD*%
%TA.AperFunction,SMDPad,CuDef*%
%ADD20RoundRect,0.218750X-0.218750X-0.256250X0.218750X-0.256250X0.218750X0.256250X-0.218750X0.256250X0*%
%TD*%
%TA.AperFunction,SMDPad,CuDef*%
%ADD21RoundRect,0.087250X-0.087250X0.192750X-0.087250X-0.192750X0.087250X-0.192750X0.087250X0.192750X0*%
%TD*%
%TA.AperFunction,SMDPad,CuDef*%
%ADD22RoundRect,0.218750X0.218750X0.256250X-0.218750X0.256250X-0.218750X-0.256250X0.218750X-0.256250X0*%
%TD*%
%TA.AperFunction,SMDPad,CuDef*%
%ADD23R,0.400000X0.200000*%
%TD*%
%TA.AperFunction,SMDPad,CuDef*%
%ADD24R,0.200000X0.400000*%
%TD*%
%TA.AperFunction,SMDPad,CuDef*%
%ADD25R,1.200000X2.300000*%
%TD*%
%TA.AperFunction,SMDPad,CuDef*%
%ADD26R,1.500000X4.000000*%
%TD*%
%TA.AperFunction,SMDPad,CuDef*%
%ADD27R,1.300000X4.000000*%
%TD*%
%TA.AperFunction,SMDPad,CuDef*%
%ADD28C,0.269000*%
%TD*%
%TA.AperFunction,SMDPad,CuDef*%
%ADD29R,2.300000X1.200000*%
%TD*%
%TA.AperFunction,SMDPad,CuDef*%
%ADD30RoundRect,0.140000X-0.140000X-0.170000X0.140000X-0.170000X0.140000X0.170000X-0.140000X0.170000X0*%
%TD*%
%TA.AperFunction,SMDPad,CuDef*%
%ADD31R,0.675000X0.250000*%
%TD*%
%TA.AperFunction,SMDPad,CuDef*%
%ADD32R,0.250000X0.675000*%
%TD*%
%TA.AperFunction,ViaPad*%
%ADD33C,0.500000*%
%TD*%
%TA.AperFunction,Conductor*%
%ADD34C,0.250000*%
%TD*%
%TA.AperFunction,Conductor*%
%ADD35C,0.200000*%
%TD*%
%TA.AperFunction,Conductor*%
%ADD36C,0.349300*%
%TD*%
%TA.AperFunction,Conductor*%
%ADD37C,0.400000*%
%TD*%
G04 APERTURE END LIST*
D10*
%TO.P,R3,1*%
%TO.N,Net-(U1-GPIO3{slash}TXLED)*%
X80490000Y-49100000D03*
%TO.P,R3,2*%
%TO.N,Net-(D2-A)*%
X81510000Y-49100000D03*
%TD*%
D11*
%TO.P,R6,1*%
%TO.N,Net-(U1-SPIMOSI)*%
X77200000Y-57100000D03*
%TO.P,R6,2*%
%TO.N,SPI_MOSI*%
X77200000Y-58120000D03*
%TD*%
D12*
%TO.P,C11,1*%
%TO.N,Net-(U1-VTX_D)*%
X68240000Y-53500000D03*
%TO.P,C11,2*%
%TO.N,GND*%
X67280000Y-53500000D03*
%TD*%
D13*
%TO.P,C1,1*%
%TO.N,DW_XT0*%
X65377499Y-48598200D03*
%TO.P,C1,2*%
%TO.N,GND*%
X65377499Y-47638200D03*
%TD*%
D14*
%TO.P,X1,1,X1*%
%TO.N,DW_XT0*%
X66562501Y-48361800D03*
%TO.P,X1,2,GND*%
%TO.N,GND*%
X67837499Y-48361800D03*
%TO.P,X1,3,X2*%
%TO.N,DW_XT1*%
X67837499Y-47498200D03*
%TO.P,X1,4,GND*%
%TO.N,GND*%
X66562501Y-47498200D03*
%TD*%
D15*
%TO.P,C21,1*%
%TO.N,Net-(U5-CRST)*%
X95000000Y-47300000D03*
%TO.P,C21,2*%
%TO.N,GND*%
X96900000Y-47300000D03*
%TD*%
D13*
%TO.P,C23,1*%
%TO.N,+3V3*%
X93600000Y-49880000D03*
%TO.P,C23,2*%
%TO.N,GND*%
X93600000Y-48920000D03*
%TD*%
D16*
%TO.P,FB1,1*%
%TO.N,+3V3*%
X67315000Y-55500000D03*
%TO.P,FB1,2*%
%TO.N,Net-(#FLG01-pwr)*%
X68285000Y-55500000D03*
%TD*%
D13*
%TO.P,C19,1*%
%TO.N,GND*%
X92600000Y-72460000D03*
%TO.P,C19,2*%
%TO.N,+3V3*%
X92600000Y-71500000D03*
%TD*%
D17*
%TO.P,C3,1*%
%TO.N,GND*%
X63900000Y-58700000D03*
%TO.P,C3,2*%
%TO.N,+3V3*%
X62350000Y-58700000D03*
%TD*%
D18*
%TO.P,C20,1*%
%TO.N,+3V3*%
X86800000Y-72420000D03*
%TO.P,C20,2*%
%TO.N,GND*%
X86800000Y-73380000D03*
%TD*%
D12*
%TO.P,C6,1*%
%TO.N,Net-(#FLG01-pwr)*%
X68240000Y-54470000D03*
%TO.P,C6,2*%
%TO.N,GND*%
X67280000Y-54470000D03*
%TD*%
D18*
%TO.P,C7,1*%
%TO.N,+3V3*%
X67734000Y-49750000D03*
%TO.P,C7,2*%
%TO.N,GND*%
X67734000Y-50710000D03*
%TD*%
D10*
%TO.P,R2,1*%
%TO.N,Net-(U1-GPIO2{slash}RXLED)*%
X80480000Y-50900000D03*
%TO.P,R2,2*%
%TO.N,Net-(D1-A)*%
X81500000Y-50900000D03*
%TD*%
D19*
%TO.P,R1,1*%
%TO.N,GND*%
X74370000Y-47954000D03*
%TO.P,R1,2*%
%TO.N,Net-(U1-RF2)*%
X73350000Y-47954000D03*
%TD*%
D18*
%TO.P,C5,1*%
%TO.N,+3V3*%
X66734000Y-49740000D03*
%TO.P,C5,2*%
%TO.N,GND*%
X66734000Y-50700000D03*
%TD*%
D11*
%TO.P,R5,1*%
%TO.N,Net-(U1-SPIMISO)*%
X79000000Y-57100000D03*
%TO.P,R5,2*%
%TO.N,SPI_MISO*%
X79000000Y-58120000D03*
%TD*%
D20*
%TO.P,D4,1,K*%
%TO.N,GND*%
X71812500Y-63900000D03*
%TO.P,D4,2,A*%
%TO.N,Net-(D4-A)*%
X73387500Y-63900000D03*
%TD*%
D21*
%TO.P,C10,1*%
%TO.N,RF1*%
X71360000Y-46820000D03*
%TO.P,C10,2*%
%TO.N,Net-(U1-RF1)*%
X71360000Y-47780000D03*
%TD*%
D10*
%TO.P,R4,1*%
%TO.N,Net-(U1-SPICLK)*%
X72700000Y-58800000D03*
%TO.P,R4,2*%
%TO.N,SPI_CLK*%
X73720000Y-58800000D03*
%TD*%
D18*
%TO.P,C2,1*%
%TO.N,+3V3*%
X65734000Y-49740000D03*
%TO.P,C2,2*%
%TO.N,GND*%
X65734000Y-50700000D03*
%TD*%
D19*
%TO.P,R9,1*%
%TO.N,+3V3*%
X76110000Y-63900000D03*
%TO.P,R9,2*%
%TO.N,Net-(D4-A)*%
X75090000Y-63900000D03*
%TD*%
D18*
%TO.P,C8,1*%
%TO.N,DW_XT1*%
X69017499Y-47638200D03*
%TO.P,C8,2*%
%TO.N,GND*%
X69017499Y-48598200D03*
%TD*%
D13*
%TO.P,C14,1*%
%TO.N,+3V3*%
X65734000Y-52560000D03*
%TO.P,C14,2*%
%TO.N,GND*%
X65734000Y-51600000D03*
%TD*%
D22*
%TO.P,D1,1,K*%
%TO.N,GND*%
X85100000Y-50900000D03*
%TO.P,D1,2,A*%
%TO.N,Net-(D1-A)*%
X83525000Y-50900000D03*
%TD*%
D12*
%TO.P,C9,1*%
%TO.N,GND*%
X75190000Y-54700000D03*
%TO.P,C9,2*%
%TO.N,Net-(U1-VIO_D)*%
X74230000Y-54700000D03*
%TD*%
D22*
%TO.P,D2,1,K*%
%TO.N,GND*%
X85087500Y-49100000D03*
%TO.P,D2,2,A*%
%TO.N,Net-(D2-A)*%
X83512500Y-49100000D03*
%TD*%
D23*
%TO.P,U1,1,IRQ*%
%TO.N,IRQ_DW*%
X74666000Y-53144000D03*
%TO.P,U1,2,GPIO6/SPIPHA*%
%TO.N,unconnected-(U1-GPIO6{slash}SPIPHA-Pad2)*%
X74666000Y-52744000D03*
%TO.P,U1,3,GPIO0/RXOKLED*%
%TO.N,unconnected-(U1-GPIO0{slash}RXOKLED-Pad3)*%
X74666000Y-52344000D03*
%TO.P,U1,4,GPIO1/SFDLED*%
%TO.N,unconnected-(U1-GPIO1{slash}SFDLED-Pad4)*%
X74666000Y-51944000D03*
%TO.P,U1,5,GPIO5/SPIPOL*%
%TO.N,unconnected-(U1-GPIO5{slash}SPIPOL-Pad5)*%
X74666000Y-51544000D03*
%TO.P,U1,6,GPIO2/RXLED*%
%TO.N,Net-(U1-GPIO2{slash}RXLED)*%
X74666000Y-51144000D03*
%TO.P,U1,7,GPIO3/TXLED*%
%TO.N,Net-(U1-GPIO3{slash}TXLED)*%
X74666000Y-50744000D03*
%TO.P,U1,8,GPIO4/EXTPA*%
%TO.N,unconnected-(U1-GPIO4{slash}EXTPA-Pad8)*%
X74666000Y-50344000D03*
%TO.P,U1,9,GPIO07/SYNC*%
%TO.N,unconnected-(U1-GPIO07{slash}SYNC-Pad9)*%
X74666000Y-49944000D03*
%TO.P,U1,10,GND*%
%TO.N,GND*%
X74666000Y-49544000D03*
D24*
%TO.P,U1,11,GND*%
X74166000Y-49044000D03*
%TO.P,U1,12,GND*%
X73766000Y-49044000D03*
%TO.P,U1,13,RF2*%
%TO.N,Net-(U1-RF2)*%
X73366000Y-49044000D03*
%TO.P,U1,14,GND*%
%TO.N,GND*%
X72966000Y-49044000D03*
%TO.P,U1,15,GND*%
X72566000Y-49044000D03*
%TO.P,U1,16,GND*%
X72166000Y-49044000D03*
%TO.P,U1,17,GND*%
X71766000Y-49044000D03*
%TO.P,U1,18,RF1*%
%TO.N,Net-(U1-RF1)*%
X71366000Y-49044000D03*
%TO.P,U1,19,GND*%
%TO.N,GND*%
X70966000Y-49044000D03*
%TO.P,U1,20,GND*%
X70566000Y-49044000D03*
D23*
%TO.P,U1,21,XTI*%
%TO.N,DW_XT1*%
X70066000Y-49544000D03*
%TO.P,U1,22,XTO*%
%TO.N,DW_XT0*%
X70066000Y-49944000D03*
%TO.P,U1,23,VDD2b*%
%TO.N,+3V3*%
X70066000Y-50344000D03*
%TO.P,U1,24,VSS2*%
%TO.N,GND*%
X70066000Y-50744000D03*
%TO.P,U1,25,VSS3*%
X70066000Y-51144000D03*
%TO.P,U1,26,VDD3*%
%TO.N,+3V3*%
X70066000Y-51544000D03*
%TO.P,U1,27,VTX_D*%
%TO.N,Net-(U1-VTX_D)*%
X70066000Y-51944000D03*
%TO.P,U1,28,VDD2a*%
%TO.N,Net-(#FLG01-pwr)*%
X70066000Y-52344000D03*
%TO.P,U1,29,VDD1*%
%TO.N,+3V3*%
X70066000Y-52744000D03*
%TO.P,U1,30,VSS1*%
%TO.N,GND*%
X70066000Y-53144000D03*
D24*
%TO.P,U1,31,EXTON*%
%TO.N,unconnected-(U1-EXTON-Pad31)*%
X70566000Y-53644000D03*
%TO.P,U1,32,WAKEUP*%
%TO.N,unconnected-(U1-WAKEUP-Pad32)*%
X70966000Y-53644000D03*
%TO.P,U1,33,RSTn*%
%TO.N,RST_DW*%
X71366000Y-53644000D03*
%TO.P,U1,34,SPICLK*%
%TO.N,Net-(U1-SPICLK)*%
X71766000Y-53644000D03*
%TO.P,U1,35,SPIMOSI*%
%TO.N,Net-(U1-SPIMOSI)*%
X72166000Y-53644000D03*
%TO.P,U1,36,SPIMISO*%
%TO.N,Net-(U1-SPIMISO)*%
X72566000Y-53644000D03*
%TO.P,U1,37,SPICSn*%
%TO.N,Net-(U1-SPICSn)*%
X72966000Y-53644000D03*
%TO.P,U1,38,VIO_D*%
%TO.N,Net-(U1-VIO_D)*%
X73366000Y-53644000D03*
%TO.P,U1,39,VSS*%
%TO.N,GND*%
X73766000Y-53644000D03*
%TO.P,U1,40,VSS*%
X74166000Y-53644000D03*
%TD*%
D25*
%TO.P,MP3,1,1*%
%TO.N,GND*%
X78400000Y-54430000D03*
%TD*%
%TO.P,MP2,1,1*%
%TO.N,GND*%
X63400000Y-48230000D03*
%TD*%
D26*
%TO.P,J1,1,1*%
%TO.N,GND*%
X68600000Y-42000000D03*
D27*
%TO.P,J1,2,2*%
%TO.N,RF1*%
X71360000Y-42000000D03*
D26*
%TO.P,J1,3,3*%
%TO.N,GND*%
X74200000Y-42000000D03*
%TD*%
D28*
%TO.P,U5,A1,INT*%
%TO.N,IRQ_MM350*%
X95400000Y-49700000D03*
%TO.P,U5,A2,SDA*%
%TO.N,SDA*%
X95000000Y-49700000D03*
%TO.P,U5,A3,SCK*%
%TO.N,SCL*%
X94600000Y-49700000D03*
%TO.P,U5,B1,GND*%
%TO.N,GND*%
X95400000Y-49300000D03*
%TO.P,U5,B2,ADSEL*%
X95000000Y-49300000D03*
%TO.P,U5,B3,VDDIO*%
%TO.N,+3V3*%
X94600000Y-49300000D03*
%TO.P,U5,C1,VDD*%
X95400000Y-48900000D03*
%TO.P,U5,C2,CRST*%
%TO.N,Net-(U5-CRST)*%
X95000000Y-48900000D03*
%TO.P,U5,C3,BYPASS*%
%TO.N,GND*%
X94600000Y-48900000D03*
%TD*%
D29*
%TO.P,MP4,1,1*%
%TO.N,GND*%
X65300000Y-56330000D03*
%TD*%
D30*
%TO.P,C4,1*%
%TO.N,+3V3*%
X69420000Y-54700000D03*
%TO.P,C4,2*%
%TO.N,GND*%
X70380000Y-54700000D03*
%TD*%
D13*
%TO.P,C12,1*%
%TO.N,+3V3*%
X67734000Y-52560000D03*
%TO.P,C12,2*%
%TO.N,GND*%
X67734000Y-51600000D03*
%TD*%
%TO.P,C13,1*%
%TO.N,+3V3*%
X66734000Y-52560000D03*
%TO.P,C13,2*%
%TO.N,GND*%
X66734000Y-51600000D03*
%TD*%
D29*
%TO.P,MP1,1,1*%
%TO.N,GND*%
X76500000Y-46330000D03*
%TD*%
D11*
%TO.P,R7,1*%
%TO.N,Net-(U1-SPICSn)*%
X75500000Y-57100000D03*
%TO.P,R7,2*%
%TO.N,SPI_CE0*%
X75500000Y-58120000D03*
%TD*%
D31*
%TO.P,U4,1,INT2*%
%TO.N,Net-(U4-INT2)*%
X90765000Y-70500000D03*
%TO.P,U4,2,NC*%
%TO.N,GND*%
X90765000Y-71000000D03*
%TO.P,U4,3,VDD*%
%TO.N,+3V3*%
X90765000Y-71500000D03*
%TO.P,U4,4,GNDA*%
%TO.N,GND*%
X90765000Y-72000000D03*
%TO.P,U4,5,CSB2*%
%TO.N,unconnected-(U4-CSB2-Pad5)*%
X90765000Y-72500000D03*
%TO.P,U4,6,GNDIO*%
%TO.N,GND*%
X90765000Y-73000000D03*
%TO.P,U4,7,PS*%
%TO.N,+3V3*%
X90765000Y-73500000D03*
D32*
%TO.P,U4,8,SCL/SCK*%
%TO.N,SCL*%
X89600000Y-73915000D03*
D31*
%TO.P,U4,9,SDA/SDI*%
%TO.N,SDA*%
X88435000Y-73500000D03*
%TO.P,U4,10,SDO2*%
%TO.N,GND*%
X88435000Y-73000000D03*
%TO.P,U4,11,VDDIO*%
%TO.N,+3V3*%
X88435000Y-72500000D03*
%TO.P,U4,12,INT3*%
%TO.N,IRQ_GYRO*%
X88435000Y-72000000D03*
%TO.P,U4,13,INT4*%
%TO.N,Net-(U4-INT2)*%
X88435000Y-71500000D03*
%TO.P,U4,14,CSB1*%
%TO.N,unconnected-(U4-CSB1-Pad14)*%
X88435000Y-71000000D03*
%TO.P,U4,15,SDO1*%
%TO.N,GND*%
X88435000Y-70500000D03*
D32*
%TO.P,U4,16,INT1*%
%TO.N,IRQ_ACCEL*%
X89600000Y-70085000D03*
%TD*%
D18*
%TO.P,C22,1*%
%TO.N,+3V3*%
X96400000Y-49220000D03*
%TO.P,C22,2*%
%TO.N,GND*%
X96400000Y-50180000D03*
%TD*%
D33*
%TO.N,IRQ_GYRO*%
X86698000Y-70896000D03*
%TO.N,IRQ_ACCEL*%
X88998000Y-68800000D03*
%TO.N,SPI_MOSI*%
X85000000Y-60100000D03*
%TO.N,SPI_MISO*%
X87100000Y-60100000D03*
%TO.N,SPI_CE0*%
X81100000Y-59500000D03*
%TO.N,SPI_CLK*%
X91000000Y-60800000D03*
%TO.N,SCL*%
X97600000Y-67000000D03*
X95000000Y-55000000D03*
%TO.N,SDA*%
X96400000Y-60500000D03*
X93400000Y-75300000D03*
%TO.N,IRQ_DW*%
X76700000Y-54000000D03*
%TO.N,Net-(U1-SPICSn)*%
X73190000Y-54700000D03*
X73200000Y-56700000D03*
%TO.N,GND*%
X98000000Y-74000000D03*
X74500000Y-42100000D03*
X100000000Y-58000000D03*
X96000000Y-42000000D03*
X72090000Y-47100000D03*
X98000000Y-75700000D03*
X70630000Y-44700000D03*
X71890000Y-52000000D03*
X97600000Y-61700000D03*
X72090000Y-44700000D03*
X95000000Y-60000000D03*
X100000000Y-68000000D03*
X73900000Y-40300000D03*
X68300000Y-43900000D03*
X74500000Y-40300000D03*
X81990000Y-46000000D03*
X67240000Y-51170000D03*
X80000000Y-54000000D03*
X73690000Y-52000000D03*
X69500000Y-43900000D03*
X74500000Y-41500000D03*
X84000000Y-46000000D03*
X72090000Y-45300000D03*
X71890000Y-52900000D03*
X100000000Y-62000000D03*
X72700000Y-46200000D03*
X90000000Y-66000000D03*
X70630000Y-47700000D03*
X68300000Y-42700000D03*
X89000000Y-60000000D03*
X80000000Y-56000000D03*
X70050000Y-46800000D03*
X100000000Y-60000000D03*
X72700000Y-57400000D03*
X75040000Y-47950000D03*
X65990000Y-60000000D03*
X73300000Y-42100000D03*
X98000000Y-52000000D03*
X98000000Y-44000000D03*
X68300000Y-40300000D03*
X88000000Y-66000000D03*
X62000000Y-62000000D03*
X93700000Y-71500000D03*
X67700000Y-40300000D03*
X69500000Y-40900000D03*
X93600000Y-48100000D03*
X74500000Y-40900000D03*
X86000000Y-68000000D03*
X73300000Y-42700000D03*
X67700000Y-43300000D03*
X70050000Y-47400000D03*
X68900000Y-41500000D03*
X66490000Y-53900000D03*
X68900000Y-40900000D03*
X70050000Y-46200000D03*
X70000000Y-60000000D03*
X66000000Y-62000000D03*
X86200000Y-55500000D03*
X74500000Y-56500000D03*
X65990000Y-58000000D03*
X73990000Y-46000000D03*
X95500000Y-53700000D03*
X68900000Y-43900000D03*
X68900000Y-42100000D03*
X70630000Y-45900000D03*
X63990000Y-54000000D03*
X73900000Y-42700000D03*
X69500000Y-43300000D03*
X68900000Y-43300000D03*
X100000000Y-50000000D03*
X74000000Y-62000000D03*
X100000000Y-70000000D03*
X72090000Y-48300000D03*
X90600000Y-55500000D03*
X77000000Y-56200000D03*
X70060000Y-44400000D03*
X88000000Y-46000000D03*
X75100000Y-42700000D03*
X90000000Y-48000000D03*
X86000000Y-54000000D03*
X72090000Y-46500000D03*
X70000000Y-62000000D03*
X62000000Y-46000000D03*
X77990000Y-48000000D03*
X67700000Y-42100000D03*
X75100000Y-43300000D03*
X81990000Y-42000000D03*
X73300000Y-40900000D03*
X98000000Y-54000000D03*
X75100000Y-43900000D03*
X94000000Y-42000000D03*
X100000000Y-54000000D03*
X69500000Y-40300000D03*
X100000000Y-66000000D03*
X68900000Y-40300000D03*
X66000000Y-46000000D03*
X98000000Y-56000000D03*
X69900000Y-56400000D03*
X72090000Y-47700000D03*
X70630000Y-46500000D03*
X85100000Y-52100000D03*
X72700000Y-47400000D03*
X96000000Y-75700000D03*
X90000000Y-68000000D03*
X74500000Y-42700000D03*
X69500000Y-42700000D03*
X73900000Y-42100000D03*
X70520000Y-48290000D03*
X94000000Y-44000000D03*
X73300000Y-41500000D03*
X92000000Y-52000000D03*
X88000000Y-54000000D03*
X98000000Y-58000000D03*
X73300000Y-40300000D03*
X90000000Y-44000000D03*
X72700000Y-45000000D03*
X93700000Y-69900000D03*
X68300000Y-42100000D03*
X100000000Y-56000000D03*
X81990000Y-44000000D03*
X90998000Y-68996000D03*
X72090000Y-45900000D03*
X64000000Y-46000000D03*
X73300000Y-43300000D03*
X70000000Y-58000000D03*
X75100000Y-41500000D03*
X100000000Y-52000000D03*
X70630000Y-45300000D03*
X70990000Y-52900000D03*
X86600000Y-74550000D03*
X90000000Y-52000000D03*
X86000000Y-66000000D03*
X76000000Y-52000000D03*
X84000000Y-72000000D03*
X88000000Y-44000000D03*
X79990000Y-42000000D03*
X70630000Y-47100000D03*
X73300000Y-43900000D03*
X86698000Y-69596000D03*
X66240000Y-51170000D03*
X68900000Y-42700000D03*
X86000000Y-46000000D03*
X72000000Y-62000000D03*
X77990000Y-44000000D03*
X72790000Y-52900000D03*
X97500000Y-63900000D03*
X84000000Y-44000000D03*
X73900000Y-40900000D03*
X70990000Y-52000000D03*
X76300000Y-57600000D03*
X84000000Y-54000000D03*
X90000000Y-46000000D03*
X62000000Y-48000000D03*
X80000000Y-66000000D03*
X67700000Y-43900000D03*
X72700000Y-46800000D03*
X90000000Y-50000000D03*
X86000000Y-44000000D03*
X94000000Y-66000000D03*
X64000000Y-62000000D03*
X100000000Y-74000000D03*
X67700000Y-42700000D03*
X67700000Y-41500000D03*
X100000000Y-48000000D03*
X85100000Y-47900000D03*
X88000000Y-42000000D03*
X98000000Y-42000000D03*
X79990000Y-46000000D03*
X98000000Y-68000000D03*
X73900000Y-41500000D03*
X98000000Y-50000000D03*
X69500000Y-42100000D03*
X73900000Y-43900000D03*
X74500000Y-43900000D03*
X75900000Y-54700000D03*
X62000000Y-50000000D03*
X62000000Y-52000000D03*
X67990000Y-58000000D03*
X73690000Y-52900000D03*
X92000000Y-42000000D03*
X70060000Y-45600000D03*
X67990000Y-60000000D03*
X75100000Y-42100000D03*
X67700000Y-40900000D03*
X90000000Y-42000000D03*
X75990000Y-48000000D03*
X68000000Y-62000000D03*
X72710000Y-45600000D03*
X77990000Y-42000000D03*
X70050000Y-45000000D03*
X74500000Y-43300000D03*
X92000000Y-54000000D03*
X68300000Y-40900000D03*
X92000000Y-44000000D03*
X98000000Y-47300000D03*
X68300000Y-43300000D03*
X100000000Y-64000000D03*
X96000000Y-44000000D03*
X72710000Y-44400000D03*
X75100000Y-40900000D03*
X63500000Y-57000000D03*
X100000000Y-72000000D03*
X88000000Y-68000000D03*
X89000000Y-75000000D03*
X76000000Y-50000000D03*
X69500000Y-41500000D03*
X84000000Y-42000000D03*
X68000000Y-46000000D03*
X82000000Y-54000000D03*
X72790000Y-52000000D03*
X79990000Y-44000000D03*
X97500000Y-60000000D03*
X63890000Y-51400000D03*
X86000000Y-42000000D03*
X72000000Y-60000000D03*
X73900000Y-43300000D03*
X75100000Y-40300000D03*
X96400000Y-51000000D03*
X68300000Y-41500000D03*
X94000000Y-68000000D03*
%TO.N,+3V3*%
X83000000Y-60900000D03*
X83700000Y-64800000D03*
%TO.N,RST_DW*%
X71400000Y-58600000D03*
%TO.N,IRQ_MM350*%
X95600000Y-50600000D03*
%TD*%
D34*
%TO.N,IRQ_GYRO*%
X87798000Y-71996000D02*
X86698000Y-70896000D01*
X88398000Y-71996000D02*
X87798000Y-71996000D01*
%TO.N,IRQ_ACCEL*%
X89600000Y-70085000D02*
X89600000Y-69402000D01*
X89600000Y-69402000D02*
X88998000Y-68800000D01*
%TO.N,SPI_MOSI*%
X77200000Y-58320000D02*
X77680000Y-58800000D01*
X83700000Y-58800000D02*
X77680000Y-58800000D01*
X77200000Y-58120000D02*
X77200000Y-58320000D01*
X85000000Y-60100000D02*
X83700000Y-58800000D01*
%TO.N,SPI_MISO*%
X87100000Y-60100000D02*
X85120000Y-58120000D01*
X85120000Y-58120000D02*
X79000000Y-58120000D01*
%TO.N,SPI_CE0*%
X81100000Y-59500000D02*
X76880000Y-59500000D01*
X76880000Y-59500000D02*
X75500000Y-58120000D01*
%TO.N,SPI_CLK*%
X75120000Y-60200000D02*
X73720000Y-58800000D01*
X91000000Y-60800000D02*
X84500000Y-60800000D01*
X84500000Y-60800000D02*
X83900000Y-60200000D01*
X83900000Y-60200000D02*
X75120000Y-60200000D01*
%TO.N,Net-(U5-CRST)*%
X95000000Y-48900000D02*
X95000000Y-47300000D01*
D35*
%TO.N,Net-(#FLG01-pwr)*%
X68810000Y-53120000D02*
X68810000Y-53950000D01*
X70066000Y-52344000D02*
X69586000Y-52344000D01*
D34*
X68240000Y-54470000D02*
X68240000Y-55335000D01*
X68240000Y-55335000D02*
X68175000Y-55400000D01*
D35*
X69586000Y-52344000D02*
X68810000Y-53120000D01*
X68240000Y-54520000D02*
X68810000Y-53950000D01*
D34*
%TO.N,SCL*%
X94525000Y-70075000D02*
X97600000Y-67000000D01*
X89600000Y-74300000D02*
X89600000Y-73915000D01*
D35*
X94600000Y-49700000D02*
X94600000Y-54600000D01*
X94600000Y-54600000D02*
X95000000Y-55000000D01*
D34*
X90200000Y-74900000D02*
X89600000Y-74300000D01*
X94525000Y-72469000D02*
X94525000Y-70075000D01*
X92098000Y-74896000D02*
X90204000Y-74896000D01*
X90204000Y-74896000D02*
X90200000Y-74900000D01*
X94525000Y-72469000D02*
X92098000Y-74896000D01*
D35*
%TO.N,SDA*%
X96450000Y-60450000D02*
X96450000Y-53650000D01*
D34*
X87998000Y-75896000D02*
X92804000Y-75896000D01*
X87498000Y-74102000D02*
X88100000Y-73500000D01*
X87498000Y-75396000D02*
X87498000Y-74102000D01*
D35*
X95000000Y-52200000D02*
X95000000Y-49700000D01*
X96400000Y-60500000D02*
X96450000Y-60450000D01*
D34*
X88100000Y-73500000D02*
X88435000Y-73500000D01*
D35*
X96450000Y-53650000D02*
X95000000Y-52200000D01*
D34*
X92804000Y-75896000D02*
X93400000Y-75300000D01*
X87998000Y-75896000D02*
X87498000Y-75396000D01*
D35*
%TO.N,DW_XT0*%
X67300000Y-49130000D02*
X66562501Y-48392501D01*
X66562501Y-48392501D02*
X66562501Y-48361800D01*
X65613899Y-48361800D02*
X65377499Y-48598200D01*
X66562501Y-48361800D02*
X65613899Y-48361800D01*
X68500000Y-49130000D02*
X67300000Y-49130000D01*
X69314000Y-49944000D02*
X70066000Y-49944000D01*
X69314000Y-49944000D02*
X68500000Y-49130000D01*
%TO.N,DW_XT1*%
X67837499Y-47498200D02*
X68877499Y-47498200D01*
X70066000Y-49544000D02*
X70066000Y-48686701D01*
X68877499Y-47498200D02*
X69017499Y-47638200D01*
X70066000Y-48686701D02*
X69017499Y-47638200D01*
%TO.N,Net-(U1-VIO_D)*%
X73366000Y-53836000D02*
X74230000Y-54700000D01*
X73366000Y-53644000D02*
X73366000Y-53836000D01*
D36*
%TO.N,Net-(U1-RF1)*%
X71360000Y-47780000D02*
X71360000Y-48658000D01*
D35*
X71366000Y-49044000D02*
X71366000Y-48664000D01*
D36*
X71360000Y-48658000D02*
X71366000Y-48664000D01*
D35*
%TO.N,Net-(U1-VTX_D)*%
X68240000Y-52970000D02*
X69266000Y-51944000D01*
X69266000Y-51944000D02*
X70066000Y-51944000D01*
X68240000Y-53500000D02*
X68240000Y-52970000D01*
%TO.N,Net-(U1-RF2)*%
X73366000Y-48024000D02*
X73296000Y-47954000D01*
X73366000Y-49044000D02*
X73366000Y-48024000D01*
%TO.N,IRQ_DW*%
X75844000Y-53144000D02*
X74666000Y-53144000D01*
X76700000Y-54000000D02*
X75844000Y-53144000D01*
%TO.N,Net-(U1-SPICLK)*%
X71766000Y-57866000D02*
X72700000Y-58800000D01*
X71766000Y-53644000D02*
X71766000Y-57866000D01*
%TO.N,Net-(U1-SPIMISO)*%
X77150000Y-55450000D02*
X78800000Y-57100000D01*
X72992000Y-55450000D02*
X77150000Y-55450000D01*
X72566000Y-53644000D02*
X72566000Y-55024000D01*
X72566000Y-55024000D02*
X72992000Y-55450000D01*
X78800000Y-57100000D02*
X79000000Y-57100000D01*
%TO.N,Net-(U1-SPIMOSI)*%
X75800000Y-55900000D02*
X77000000Y-57100000D01*
X77000000Y-57100000D02*
X77200000Y-57100000D01*
X72166000Y-55284000D02*
X72782000Y-55900000D01*
X72166000Y-53644000D02*
X72166000Y-55284000D01*
X72782000Y-55900000D02*
X75800000Y-55900000D01*
%TO.N,Net-(U1-SPICSn)*%
X72966000Y-54476000D02*
X73190000Y-54700000D01*
X73200000Y-57000000D02*
X73300000Y-57100000D01*
X73200000Y-57000000D02*
X73200000Y-56700000D01*
X72966000Y-53644000D02*
X72966000Y-54476000D01*
X73300000Y-57100000D02*
X75500000Y-57100000D01*
%TO.N,Net-(U1-GPIO2{slash}RXLED)*%
X74666000Y-51144000D02*
X80236000Y-51144000D01*
X80236000Y-51144000D02*
X80480000Y-50900000D01*
%TO.N,Net-(U1-GPIO3{slash}TXLED)*%
X79200000Y-49100000D02*
X80490000Y-49100000D01*
X74666000Y-50744000D02*
X77556000Y-50744000D01*
X77556000Y-50744000D02*
X79200000Y-49100000D01*
%TO.N,GND*%
X67274000Y-51170000D02*
X67734000Y-50710000D01*
X70966000Y-49044000D02*
X70566000Y-49044000D01*
X67240000Y-51170000D02*
X67304000Y-51170000D01*
X67164000Y-51170000D02*
X66734000Y-51600000D01*
X90090500Y-72071000D02*
X90090500Y-72921000D01*
X66264000Y-51170000D02*
X66734000Y-50700000D01*
X85087500Y-47912500D02*
X85100000Y-47900000D01*
X67240000Y-51170000D02*
X67204000Y-51170000D01*
D34*
X91500000Y-71000000D02*
X91900000Y-70600000D01*
D35*
X90169500Y-73000000D02*
X90765000Y-73000000D01*
X94600000Y-48900000D02*
X93620000Y-48900000D01*
X66240000Y-51170000D02*
X66164000Y-51170000D01*
X91494000Y-73000000D02*
X92038000Y-72456000D01*
X74666000Y-49166000D02*
X74544000Y-49044000D01*
X66164000Y-51170000D02*
X65734000Y-51600000D01*
D34*
X91096000Y-68996000D02*
X90998000Y-68996000D01*
D35*
X72166000Y-48376000D02*
X72090000Y-48300000D01*
X68190000Y-51144000D02*
X70066000Y-51144000D01*
X85087500Y-49100000D02*
X85087500Y-47912500D01*
X74166000Y-53644000D02*
X74166000Y-53676000D01*
X70066000Y-50744000D02*
X67768000Y-50744000D01*
X66734000Y-50700000D02*
X65734000Y-50700000D01*
X67280000Y-54470000D02*
X67060000Y-54470000D01*
X95000000Y-49300000D02*
X95400000Y-49300000D01*
X90765000Y-73000000D02*
X91494000Y-73000000D01*
X90169500Y-72000000D02*
X90765000Y-72000000D01*
X67734000Y-51600000D02*
X68190000Y-51144000D01*
X67304000Y-51170000D02*
X67734000Y-51600000D01*
X74316000Y-47954000D02*
X75036000Y-47954000D01*
X67734000Y-50710000D02*
X66744000Y-50710000D01*
X74166000Y-49044000D02*
X74166000Y-48104000D01*
X69017499Y-48598200D02*
X68073899Y-48598200D01*
X72166000Y-49044000D02*
X72166000Y-48376000D01*
X67240000Y-51170000D02*
X67164000Y-51170000D01*
X90765000Y-72000000D02*
X91582000Y-72000000D01*
X90090500Y-72921000D02*
X90169500Y-73000000D01*
X74166000Y-48104000D02*
X74316000Y-47954000D01*
X72166000Y-49044000D02*
X72566000Y-49044000D01*
X67204000Y-51170000D02*
X66734000Y-50700000D01*
X74666000Y-49544000D02*
X75990000Y-48220000D01*
X67837499Y-48361800D02*
X67597501Y-48361800D01*
X93600000Y-48920000D02*
X93600000Y-48100000D01*
D34*
X91900000Y-70600000D02*
X91900000Y-69800000D01*
X92598000Y-72456000D02*
X92038000Y-72456000D01*
X87602000Y-70500000D02*
X86698000Y-69596000D01*
D35*
X75990000Y-48220000D02*
X75990000Y-48000000D01*
X85100000Y-50900000D02*
X85100000Y-52100000D01*
X90165500Y-71996000D02*
X90090500Y-72071000D01*
X66562501Y-47498200D02*
X65517499Y-47498200D01*
X67240000Y-51170000D02*
X67274000Y-51170000D01*
X95400000Y-49300000D02*
X95520000Y-49300000D01*
X67597501Y-48361800D02*
X66733901Y-47498200D01*
X90165500Y-71996000D02*
X90169500Y-72000000D01*
X67768000Y-50744000D02*
X67734000Y-50710000D01*
X67060000Y-54470000D02*
X66490000Y-53900000D01*
D36*
X96900000Y-47300000D02*
X98000000Y-47300000D01*
D35*
X66744000Y-51650000D02*
X66734000Y-51640000D01*
X72566000Y-49044000D02*
X72966000Y-49044000D01*
X66240000Y-51170000D02*
X66204000Y-51170000D01*
X75036000Y-47954000D02*
X75040000Y-47950000D01*
X67280000Y-53500000D02*
X66890000Y-53500000D01*
X91582000Y-72000000D02*
X92038000Y-72456000D01*
X66733901Y-47498200D02*
X66562501Y-47498200D01*
X68073899Y-48598200D02*
X67837499Y-48361800D01*
X96400000Y-50180000D02*
X96400000Y-51000000D01*
X66744000Y-50710000D02*
X66734000Y-50700000D01*
X70066000Y-54386000D02*
X70380000Y-54700000D01*
D34*
X88435000Y-73000000D02*
X87180000Y-73000000D01*
D35*
X95520000Y-49300000D02*
X96400000Y-50180000D01*
X66304000Y-51170000D02*
X66734000Y-51600000D01*
D34*
X88435000Y-70500000D02*
X87602000Y-70500000D01*
D35*
X74166000Y-53676000D02*
X75190000Y-54700000D01*
X93620000Y-48900000D02*
X93600000Y-48920000D01*
D34*
X87180000Y-73000000D02*
X86800000Y-73380000D01*
D35*
X70566000Y-48336000D02*
X70520000Y-48290000D01*
X71766000Y-49044000D02*
X72166000Y-49044000D01*
X65517499Y-47498200D02*
X65377499Y-47638200D01*
X67760000Y-50684000D02*
X67734000Y-50710000D01*
X70066000Y-53144000D02*
X70066000Y-54386000D01*
D34*
X90765000Y-71000000D02*
X91500000Y-71000000D01*
D35*
X66240000Y-51170000D02*
X66304000Y-51170000D01*
X70566000Y-49044000D02*
X70566000Y-48336000D01*
X74544000Y-49044000D02*
X74166000Y-49044000D01*
X66890000Y-53500000D02*
X66490000Y-53900000D01*
X74666000Y-49544000D02*
X74666000Y-49166000D01*
X65734000Y-51640000D02*
X65770000Y-51640000D01*
X74166000Y-53644000D02*
X73766000Y-53644000D01*
X66204000Y-51170000D02*
X65734000Y-50700000D01*
D34*
X91900000Y-69800000D02*
X91096000Y-68996000D01*
D35*
X66240000Y-51170000D02*
X66264000Y-51170000D01*
X74166000Y-49044000D02*
X73766000Y-49044000D01*
%TO.N,+3V3*%
X94600000Y-49300000D02*
X94180000Y-49300000D01*
D37*
X83690000Y-66890000D02*
X83680000Y-66900000D01*
X96400000Y-49220000D02*
X96420000Y-49200000D01*
X66000000Y-55000000D02*
X66815000Y-55000000D01*
D35*
X69420000Y-52990000D02*
X69420000Y-54700000D01*
D37*
X66815000Y-55000000D02*
X67315000Y-55500000D01*
X67724000Y-49740000D02*
X67734000Y-49750000D01*
X62350000Y-54240000D02*
X64030000Y-52560000D01*
X66734000Y-49740000D02*
X67724000Y-49740000D01*
X76100000Y-60900000D02*
X83000000Y-60900000D01*
D35*
X69004000Y-50344000D02*
X68410000Y-49750000D01*
X68410000Y-49750000D02*
X67734000Y-49750000D01*
X89690500Y-71905314D02*
X89690500Y-73088500D01*
D37*
X64790000Y-50040000D02*
X65090000Y-49740000D01*
D35*
X90102000Y-73500000D02*
X90765000Y-73500000D01*
D37*
X99000000Y-46300000D02*
X98400000Y-45700000D01*
D35*
X90099814Y-71496000D02*
X89690500Y-71905314D01*
X96080000Y-48900000D02*
X96400000Y-49220000D01*
D37*
X67315000Y-55715000D02*
X67800000Y-56200000D01*
D35*
X70066000Y-51544000D02*
X68750000Y-51544000D01*
D37*
X99000000Y-49100000D02*
X99000000Y-46300000D01*
X93400000Y-45700000D02*
X92600000Y-46500000D01*
D35*
X89690500Y-73088500D02*
X90102000Y-73500000D01*
D37*
X98900000Y-49200000D02*
X99000000Y-49100000D01*
X64030000Y-52560000D02*
X65734000Y-52560000D01*
X64790000Y-53790000D02*
X64790000Y-50040000D01*
X99000000Y-63900000D02*
X99000000Y-49100000D01*
X62350000Y-58700000D02*
X62350000Y-54240000D01*
X92980000Y-49880000D02*
X93600000Y-49880000D01*
D35*
X95400000Y-48900000D02*
X96080000Y-48900000D01*
D37*
X67315000Y-55500000D02*
X67315000Y-55715000D01*
X83680000Y-66900000D02*
X83680000Y-64800000D01*
X69420000Y-55380000D02*
X69420000Y-54700000D01*
X65734000Y-49740000D02*
X66734000Y-49740000D01*
X66000000Y-55000000D02*
X64790000Y-53790000D01*
X92500000Y-64800000D02*
X98100000Y-64800000D01*
D34*
X86878000Y-72496000D02*
X86798000Y-72416000D01*
D37*
X64122182Y-60900000D02*
X76100000Y-60900000D01*
X92600000Y-46500000D02*
X92600000Y-49500000D01*
X83700000Y-64800000D02*
X92500000Y-64800000D01*
D34*
X88435000Y-72500000D02*
X86880000Y-72500000D01*
D35*
X68750000Y-51544000D02*
X67734000Y-52560000D01*
X94180000Y-49300000D02*
X93600000Y-49880000D01*
D34*
X76110000Y-63900000D02*
X76110000Y-60910000D01*
D35*
X70066000Y-52744000D02*
X69666000Y-52744000D01*
D37*
X65734000Y-52560000D02*
X66734000Y-52560000D01*
D35*
X90765000Y-71500000D02*
X90103814Y-71500000D01*
D37*
X64122182Y-60900000D02*
X62350000Y-59127818D01*
D35*
X70066000Y-50344000D02*
X69004000Y-50344000D01*
D37*
X83680000Y-69300000D02*
X86800000Y-72420000D01*
D35*
X86876000Y-72496000D02*
X86800000Y-72420000D01*
D37*
X98400000Y-45700000D02*
X93400000Y-45700000D01*
X62350000Y-59127818D02*
X62350000Y-58700000D01*
X67800000Y-56200000D02*
X68600000Y-56200000D01*
D35*
X90765000Y-71500000D02*
X92600000Y-71500000D01*
D37*
X65090000Y-49740000D02*
X65734000Y-49740000D01*
X92598000Y-71496000D02*
X92598000Y-64898000D01*
D34*
X76110000Y-60910000D02*
X76100000Y-60900000D01*
D37*
X68600000Y-56200000D02*
X69420000Y-55380000D01*
X98100000Y-64800000D02*
X99000000Y-63900000D01*
X92598000Y-64898000D02*
X92500000Y-64800000D01*
X66734000Y-52560000D02*
X67734000Y-52560000D01*
D34*
X86880000Y-72500000D02*
X86800000Y-72420000D01*
D37*
X92600000Y-49500000D02*
X92980000Y-49880000D01*
D35*
X90103814Y-71500000D02*
X90099814Y-71496000D01*
D37*
X96420000Y-49200000D02*
X98900000Y-49200000D01*
X83680000Y-66900000D02*
X83680000Y-69300000D01*
D35*
X69666000Y-52744000D02*
X69420000Y-52990000D01*
D36*
%TO.N,RF1*%
X71360000Y-46820000D02*
X71360000Y-42595000D01*
D35*
%TO.N,Net-(D1-A)*%
X83525000Y-50900000D02*
X81500000Y-50900000D01*
%TO.N,Net-(D2-A)*%
X83512500Y-49100000D02*
X81510000Y-49100000D01*
%TO.N,RST_DW*%
X71366000Y-53644000D02*
X71366000Y-58566000D01*
X71366000Y-58566000D02*
X71400000Y-58600000D01*
D34*
%TO.N,Net-(U4-INT2)*%
X89352500Y-71500000D02*
X90352500Y-70500000D01*
X90352500Y-70500000D02*
X90765000Y-70500000D01*
X88435000Y-71500000D02*
X89352500Y-71500000D01*
%TO.N,Net-(D4-A)*%
X75090000Y-63900000D02*
X73387500Y-63900000D01*
D35*
%TO.N,IRQ_MM350*%
X95600000Y-50600000D02*
X95600000Y-49900000D01*
X95600000Y-49900000D02*
X95400000Y-49700000D01*
%TD*%
%TA.AperFunction,Conductor*%
%TO.N,GND*%
G36*
X72400000Y-48546460D02*
G01*
X72394681Y-48547077D01*
X72337309Y-48547076D01*
X72310791Y-48544000D01*
X72084151Y-48544001D01*
X72007206Y-48531814D01*
X71937792Y-48496447D01*
X71882705Y-48441360D01*
X71847337Y-48371946D01*
X71835150Y-48295001D01*
X71835150Y-47729230D01*
X71834999Y-47727123D01*
X71834999Y-47556735D01*
X71820619Y-47465934D01*
X71793670Y-47413044D01*
X71769596Y-47338951D01*
X71769596Y-47261046D01*
X71793668Y-47186956D01*
X71820619Y-47134065D01*
X71835000Y-47043265D01*
X71834999Y-46872907D01*
X71835150Y-46870808D01*
X71835150Y-44547772D01*
X71851450Y-44459163D01*
X71898215Y-44382155D01*
X71969322Y-44326829D01*
X72055464Y-44300430D01*
X72073004Y-44298395D01*
X72079991Y-44297585D01*
X72182765Y-44252206D01*
X72262206Y-44172765D01*
X72307585Y-44069991D01*
X72307778Y-44068322D01*
X72330956Y-43988613D01*
X72379050Y-43920948D01*
X72399998Y-43900000D01*
X72400000Y-43900000D01*
X72400000Y-48546460D01*
G37*
%TD.AperFunction*%
%TA.AperFunction,Conductor*%
G36*
X70343574Y-43943573D02*
G01*
X70391668Y-44011239D01*
X70401684Y-44045689D01*
X70457793Y-44172763D01*
X70457794Y-44172765D01*
X70537235Y-44252206D01*
X70640008Y-44297584D01*
X70640009Y-44297585D01*
X70664546Y-44300432D01*
X70750684Y-44326834D01*
X70821789Y-44382159D01*
X70868551Y-44459166D01*
X70884850Y-44547773D01*
X70884850Y-46870671D01*
X70885000Y-46872775D01*
X70885000Y-47043264D01*
X70899380Y-47134064D01*
X70926330Y-47186956D01*
X70950403Y-47261047D01*
X70950404Y-47338951D01*
X70926330Y-47413043D01*
X70899381Y-47465932D01*
X70885000Y-47556738D01*
X70885000Y-47727224D01*
X70884850Y-47729328D01*
X70884850Y-48295000D01*
X70865896Y-48390288D01*
X70811920Y-48471070D01*
X70731138Y-48525046D01*
X70635850Y-48544000D01*
X70592830Y-48544000D01*
X70528384Y-48535515D01*
X70468329Y-48510640D01*
X70416760Y-48471069D01*
X70304342Y-48358650D01*
X70304342Y-48358651D01*
X70300000Y-48354309D01*
X70300000Y-43900000D01*
X70300001Y-43900000D01*
X70343574Y-43943573D01*
G37*
%TD.AperFunction*%
%TD*%
%TA.AperFunction,Conductor*%
%TO.N,GND*%
G36*
X92085500Y-65267113D02*
G01*
X92130887Y-65312500D01*
X92147500Y-65374500D01*
X92147500Y-71025500D01*
X92130887Y-71087500D01*
X92085500Y-71132887D01*
X92023500Y-71149500D01*
X91253519Y-71149500D01*
X91217524Y-71144161D01*
X91211357Y-71141244D01*
X91127176Y-71124500D01*
X91127174Y-71124500D01*
X90558399Y-71124500D01*
X90502104Y-71110985D01*
X90458081Y-71073385D01*
X90435926Y-71019898D01*
X90440468Y-70962182D01*
X90470718Y-70912819D01*
X90471718Y-70911819D01*
X90511946Y-70884939D01*
X90559399Y-70875500D01*
X91127175Y-70875500D01*
X91173198Y-70866345D01*
X91200240Y-70860966D01*
X91283101Y-70805601D01*
X91338466Y-70722740D01*
X91353000Y-70649674D01*
X91353000Y-70350326D01*
X91338466Y-70277260D01*
X91283101Y-70194399D01*
X91200240Y-70139034D01*
X91200239Y-70139033D01*
X91200238Y-70139033D01*
X91127175Y-70124500D01*
X91127174Y-70124500D01*
X90827660Y-70124500D01*
X90404304Y-70124500D01*
X90378858Y-70121861D01*
X90368232Y-70119633D01*
X90336823Y-70123548D01*
X90321486Y-70124500D01*
X90321384Y-70124500D01*
X90300881Y-70127920D01*
X90295820Y-70128657D01*
X90236072Y-70136105D01*
X90235808Y-70136190D01*
X90182865Y-70164840D01*
X90178317Y-70167182D01*
X90160697Y-70175796D01*
X90153964Y-70179088D01*
X90093100Y-70191525D01*
X90033841Y-70172880D01*
X89991062Y-70127833D01*
X89975500Y-70067690D01*
X89975500Y-69453804D01*
X89978139Y-69428358D01*
X89978177Y-69428175D01*
X89980367Y-69417732D01*
X89976452Y-69386323D01*
X89975500Y-69370986D01*
X89975500Y-69370889D01*
X89975500Y-69370886D01*
X89972074Y-69350357D01*
X89971342Y-69345334D01*
X89964866Y-69293375D01*
X89964864Y-69293371D01*
X89963889Y-69285547D01*
X89963819Y-69285327D01*
X89950087Y-69259953D01*
X89935159Y-69232369D01*
X89932822Y-69227829D01*
X89906360Y-69173700D01*
X89906225Y-69173519D01*
X89880368Y-69149716D01*
X89861892Y-69132707D01*
X89858219Y-69129182D01*
X89528566Y-68799528D01*
X89505363Y-68767351D01*
X89493509Y-68729492D01*
X89483165Y-68657542D01*
X89423376Y-68526625D01*
X89329129Y-68417858D01*
X89329128Y-68417857D01*
X89208053Y-68340047D01*
X89069961Y-68299500D01*
X88926039Y-68299500D01*
X88787947Y-68340047D01*
X88666870Y-68417858D01*
X88572623Y-68526625D01*
X88512834Y-68657542D01*
X88492353Y-68800000D01*
X88512834Y-68942457D01*
X88572623Y-69073374D01*
X88666870Y-69182141D01*
X88666872Y-69182143D01*
X88787947Y-69259953D01*
X88926039Y-69300500D01*
X88943146Y-69305523D01*
X88943047Y-69305859D01*
X88963554Y-69309939D01*
X89003782Y-69336819D01*
X89188181Y-69521218D01*
X89215061Y-69561446D01*
X89224500Y-69608899D01*
X89224500Y-70447175D01*
X89239033Y-70520238D01*
X89239033Y-70520239D01*
X89239034Y-70520240D01*
X89294399Y-70603101D01*
X89377260Y-70658466D01*
X89388060Y-70660614D01*
X89447142Y-70690353D01*
X89482530Y-70746235D01*
X89484153Y-70812360D01*
X89451550Y-70869912D01*
X89234681Y-71086781D01*
X89185318Y-71117031D01*
X89127602Y-71121573D01*
X89074115Y-71099418D01*
X89036515Y-71055395D01*
X89023000Y-70999100D01*
X89023000Y-70850325D01*
X89008466Y-70777261D01*
X89008466Y-70777260D01*
X88953101Y-70694399D01*
X88870240Y-70639034D01*
X88870239Y-70639033D01*
X88870238Y-70639033D01*
X88797175Y-70624500D01*
X88797174Y-70624500D01*
X88072826Y-70624500D01*
X88072825Y-70624500D01*
X87999761Y-70639033D01*
X87916899Y-70694399D01*
X87861533Y-70777261D01*
X87847000Y-70850325D01*
X87847000Y-71149676D01*
X87857706Y-71203499D01*
X87854020Y-71266008D01*
X87820260Y-71318746D01*
X87765036Y-71348264D01*
X87702430Y-71347034D01*
X87648408Y-71315371D01*
X87502410Y-71169373D01*
X87228566Y-70895528D01*
X87205363Y-70863351D01*
X87193509Y-70825492D01*
X87190649Y-70805601D01*
X87183165Y-70753543D01*
X87123377Y-70622627D01*
X87123376Y-70622626D01*
X87123376Y-70622625D01*
X87029129Y-70513858D01*
X87029128Y-70513857D01*
X86908053Y-70436047D01*
X86769961Y-70395500D01*
X86626039Y-70395500D01*
X86487947Y-70436047D01*
X86366870Y-70513858D01*
X86272623Y-70622625D01*
X86212834Y-70753542D01*
X86192504Y-70894948D01*
X86164913Y-70956818D01*
X86108925Y-70994955D01*
X86041249Y-70997977D01*
X85982085Y-70964982D01*
X84166819Y-69149716D01*
X84139939Y-69109488D01*
X84130500Y-69062035D01*
X84130500Y-67016189D01*
X84137458Y-66975235D01*
X84137646Y-66974699D01*
X84142724Y-66838990D01*
X84134725Y-66809137D01*
X84130500Y-66777044D01*
X84130500Y-65374500D01*
X84147113Y-65312500D01*
X84192500Y-65267113D01*
X84254500Y-65250500D01*
X92023500Y-65250500D01*
X92085500Y-65267113D01*
G37*
%TD.AperFunction*%
%TA.AperFunction,Conductor*%
G36*
X94502721Y-46165668D02*
G01*
X94547609Y-46207460D01*
X94566978Y-46265654D01*
X94556088Y-46326011D01*
X94517605Y-46373767D01*
X94507671Y-46381203D01*
X94507669Y-46381204D01*
X94454545Y-46420973D01*
X94392453Y-46467454D01*
X94306204Y-46582668D01*
X94255909Y-46717516D01*
X94249500Y-46777130D01*
X94249500Y-47822869D01*
X94255909Y-47882484D01*
X94258377Y-47889100D01*
X94306204Y-48017331D01*
X94392454Y-48132546D01*
X94507669Y-48218796D01*
X94543834Y-48232284D01*
X94586070Y-48258723D01*
X94614488Y-48299653D01*
X94624500Y-48348466D01*
X94624500Y-48825500D01*
X94607887Y-48887500D01*
X94562500Y-48932887D01*
X94500500Y-48949500D01*
X94229212Y-48949500D01*
X94203766Y-48946861D01*
X94194685Y-48944957D01*
X94165877Y-48948548D01*
X94151201Y-48949458D01*
X94131961Y-48952668D01*
X94126903Y-48953405D01*
X94071189Y-48960351D01*
X94021813Y-48987072D01*
X94017261Y-48989415D01*
X93966804Y-49014082D01*
X93928780Y-49055387D01*
X93925233Y-49059083D01*
X93671135Y-49313181D01*
X93630907Y-49340061D01*
X93583455Y-49349500D01*
X93399262Y-49349500D01*
X93307823Y-49363982D01*
X93251138Y-49392865D01*
X93201334Y-49406210D01*
X93150407Y-49398144D01*
X93107164Y-49370061D01*
X93086819Y-49349716D01*
X93059939Y-49309488D01*
X93050500Y-49262035D01*
X93050500Y-46737966D01*
X93059939Y-46690513D01*
X93086819Y-46650285D01*
X93550284Y-46186819D01*
X93590512Y-46159939D01*
X93637965Y-46150500D01*
X94443294Y-46150500D01*
X94502721Y-46165668D01*
G37*
%TD.AperFunction*%
%TA.AperFunction,Conductor*%
G36*
X98209487Y-46159939D02*
G01*
X98249715Y-46186819D01*
X98513181Y-46450284D01*
X98540061Y-46490512D01*
X98549500Y-46537965D01*
X98549500Y-48625500D01*
X98532887Y-48687500D01*
X98487500Y-48732887D01*
X98425500Y-48749500D01*
X96811277Y-48749500D01*
X96754982Y-48735985D01*
X96734084Y-48725337D01*
X96692175Y-48703983D01*
X96692174Y-48703982D01*
X96692173Y-48703982D01*
X96600737Y-48689500D01*
X96600735Y-48689500D01*
X96422768Y-48689500D01*
X96382506Y-48682782D01*
X96346608Y-48663355D01*
X96318534Y-48641505D01*
X96307508Y-48631768D01*
X96291653Y-48620448D01*
X96287544Y-48617384D01*
X96243229Y-48582892D01*
X96189409Y-48566869D01*
X96184531Y-48565306D01*
X96131421Y-48547074D01*
X96075332Y-48549394D01*
X96070208Y-48549500D01*
X95499500Y-48549500D01*
X95437500Y-48532887D01*
X95392113Y-48487500D01*
X95375500Y-48425500D01*
X95375500Y-48348466D01*
X95385512Y-48299653D01*
X95413930Y-48258723D01*
X95456165Y-48232284D01*
X95492331Y-48218796D01*
X95607546Y-48132546D01*
X95693796Y-48017331D01*
X95744091Y-47882483D01*
X95750500Y-47822873D01*
X95750499Y-46777128D01*
X95744091Y-46717517D01*
X95693796Y-46582669D01*
X95607546Y-46467454D01*
X95492331Y-46381204D01*
X95492328Y-46381202D01*
X95482395Y-46373767D01*
X95443912Y-46326011D01*
X95433022Y-46265654D01*
X95452391Y-46207460D01*
X95497279Y-46165668D01*
X95556706Y-46150500D01*
X98162034Y-46150500D01*
X98209487Y-46159939D01*
G37*
%TD.AperFunction*%
%TA.AperFunction,Conductor*%
G36*
X70238000Y-40017113D02*
G01*
X70283387Y-40062500D01*
X70300000Y-40124500D01*
X70300000Y-48425019D01*
X69614317Y-47739336D01*
X69587437Y-47699108D01*
X69577998Y-47651655D01*
X69577998Y-47467463D01*
X69563516Y-47376025D01*
X69507358Y-47265808D01*
X69419891Y-47178341D01*
X69309672Y-47122182D01*
X69218236Y-47107700D01*
X68816761Y-47107700D01*
X68725324Y-47122182D01*
X68701768Y-47134185D01*
X68645474Y-47147700D01*
X68508931Y-47147700D01*
X68450478Y-47133058D01*
X68405829Y-47092590D01*
X68361001Y-47025500D01*
X68361000Y-47025499D01*
X68278139Y-46970134D01*
X68278138Y-46970133D01*
X68278137Y-46970133D01*
X68205074Y-46955600D01*
X68205073Y-46955600D01*
X67469925Y-46955600D01*
X67469924Y-46955600D01*
X67396860Y-46970133D01*
X67313998Y-47025499D01*
X67258632Y-47108361D01*
X67244099Y-47181425D01*
X67244099Y-47762749D01*
X67226458Y-47826497D01*
X67178553Y-47872107D01*
X67114016Y-47886600D01*
X67051210Y-47865852D01*
X67003141Y-47833734D01*
X67003140Y-47833733D01*
X67003139Y-47833733D01*
X66930076Y-47819200D01*
X66930075Y-47819200D01*
X66194927Y-47819200D01*
X66194926Y-47819200D01*
X66121862Y-47833733D01*
X66038998Y-47889100D01*
X65994171Y-47956190D01*
X65949522Y-47996658D01*
X65891069Y-48011300D01*
X65663106Y-48011300D01*
X65637660Y-48008661D01*
X65628584Y-48006758D01*
X65599783Y-48010348D01*
X65585102Y-48011259D01*
X65565885Y-48014465D01*
X65560823Y-48015202D01*
X65505090Y-48022150D01*
X65455705Y-48048876D01*
X65451147Y-48051223D01*
X65443212Y-48055102D01*
X65388755Y-48067700D01*
X65176761Y-48067700D01*
X65085324Y-48082182D01*
X64975107Y-48138340D01*
X64887640Y-48225807D01*
X64831481Y-48336026D01*
X64816999Y-48427462D01*
X64816999Y-48768937D01*
X64831481Y-48860374D01*
X64887639Y-48970591D01*
X64975105Y-49058057D01*
X64975107Y-49058058D01*
X64975108Y-49058059D01*
X64999747Y-49070613D01*
X65046114Y-49111551D01*
X65066937Y-49169795D01*
X65057034Y-49230851D01*
X65018869Y-49279527D01*
X64961939Y-49303712D01*
X64949763Y-49305547D01*
X64944850Y-49307164D01*
X64888965Y-49336699D01*
X64884830Y-49338786D01*
X64827948Y-49366180D01*
X64823707Y-49369189D01*
X64779047Y-49413848D01*
X64775710Y-49417062D01*
X64729394Y-49460037D01*
X64717968Y-49474926D01*
X64494264Y-49698631D01*
X64483898Y-49707895D01*
X64456031Y-49730118D01*
X64423824Y-49777356D01*
X64421144Y-49781132D01*
X64383633Y-49831959D01*
X64381301Y-49836578D01*
X64362674Y-49896966D01*
X64361225Y-49901369D01*
X64340369Y-49960973D01*
X64339500Y-49966090D01*
X64339500Y-50029262D01*
X64339413Y-50033899D01*
X64337050Y-50097029D01*
X64339500Y-50115635D01*
X64339500Y-51985500D01*
X64322887Y-52047500D01*
X64277500Y-52092887D01*
X64215500Y-52109500D01*
X64062262Y-52109500D01*
X64048378Y-52108720D01*
X64012964Y-52104729D01*
X63956782Y-52115358D01*
X63952217Y-52116134D01*
X63889763Y-52125548D01*
X63884840Y-52127169D01*
X63828965Y-52156699D01*
X63824854Y-52158774D01*
X63805298Y-52168193D01*
X63767948Y-52186180D01*
X63763709Y-52189188D01*
X63719059Y-52233837D01*
X63715722Y-52237051D01*
X63669392Y-52280039D01*
X63657967Y-52294928D01*
X62054264Y-53898631D01*
X62043898Y-53907895D01*
X62016031Y-53930118D01*
X61983824Y-53977356D01*
X61981144Y-53981132D01*
X61943633Y-54031959D01*
X61941301Y-54036578D01*
X61922674Y-54096966D01*
X61921225Y-54101369D01*
X61900369Y-54160973D01*
X61899500Y-54166090D01*
X61899500Y-54229262D01*
X61899413Y-54233899D01*
X61897050Y-54297029D01*
X61899500Y-54315635D01*
X61899500Y-57962764D01*
X61886384Y-58018269D01*
X61849810Y-58062031D01*
X61785312Y-58110312D01*
X61703372Y-58219773D01*
X61655588Y-58347883D01*
X61654593Y-58357140D01*
X61651287Y-58387898D01*
X61649500Y-58404518D01*
X61649500Y-58995482D01*
X61655588Y-59052117D01*
X61703371Y-59180225D01*
X61785312Y-59289687D01*
X61878682Y-59359582D01*
X61894774Y-59371628D01*
X61968275Y-59399042D01*
X62012620Y-59427542D01*
X62023846Y-59438768D01*
X62027063Y-59442107D01*
X62070043Y-59488429D01*
X62084930Y-59499852D01*
X63780812Y-61195733D01*
X63790078Y-61206101D01*
X63812302Y-61233969D01*
X63859546Y-61266180D01*
X63863323Y-61268860D01*
X63881320Y-61282143D01*
X63914155Y-61306376D01*
X63918750Y-61308695D01*
X63924507Y-61310470D01*
X63924509Y-61310472D01*
X63949533Y-61318190D01*
X63979162Y-61327330D01*
X63983553Y-61328774D01*
X64037483Y-61347646D01*
X64037485Y-61347646D01*
X64043172Y-61349636D01*
X64048253Y-61350500D01*
X64054280Y-61350500D01*
X64111428Y-61350500D01*
X64116065Y-61350586D01*
X64173192Y-61352725D01*
X64173192Y-61352724D01*
X64179208Y-61352950D01*
X64197820Y-61350500D01*
X75610500Y-61350500D01*
X75672500Y-61367113D01*
X75717887Y-61412500D01*
X75734500Y-61474500D01*
X75734500Y-63358960D01*
X75725060Y-63406415D01*
X75698177Y-63446645D01*
X75687677Y-63457144D01*
X75632090Y-63489235D01*
X75567905Y-63489233D01*
X75512319Y-63457140D01*
X75452101Y-63396922D01*
X75336518Y-63340417D01*
X75261585Y-63329500D01*
X75261582Y-63329500D01*
X74918418Y-63329500D01*
X74918415Y-63329500D01*
X74843481Y-63340417D01*
X74727900Y-63396921D01*
X74682270Y-63442551D01*
X74636924Y-63487898D01*
X74636923Y-63487899D01*
X74636642Y-63488181D01*
X74596413Y-63515061D01*
X74548960Y-63524500D01*
X74148694Y-63524500D01*
X74099882Y-63514488D01*
X74058951Y-63486070D01*
X74032513Y-63443834D01*
X74022336Y-63416550D01*
X73941472Y-63308527D01*
X73833452Y-63227665D01*
X73833450Y-63227664D01*
X73707022Y-63180509D01*
X73651130Y-63174500D01*
X73123870Y-63174500D01*
X73081950Y-63179006D01*
X73067977Y-63180509D01*
X72941547Y-63227665D01*
X72833527Y-63308527D01*
X72752665Y-63416547D01*
X72725555Y-63489233D01*
X72705509Y-63542978D01*
X72699500Y-63598870D01*
X72699500Y-64201130D01*
X72705509Y-64257022D01*
X72740001Y-64349500D01*
X72752665Y-64383452D01*
X72833527Y-64491472D01*
X72941547Y-64572334D01*
X72941550Y-64572336D01*
X73067978Y-64619491D01*
X73123870Y-64625500D01*
X73651127Y-64625500D01*
X73651130Y-64625500D01*
X73707022Y-64619491D01*
X73833450Y-64572336D01*
X73941472Y-64491472D01*
X74022336Y-64383450D01*
X74026003Y-64373616D01*
X74032513Y-64356166D01*
X74058951Y-64313930D01*
X74099882Y-64285512D01*
X74148694Y-64275500D01*
X74548960Y-64275500D01*
X74596413Y-64284939D01*
X74636642Y-64311819D01*
X74636923Y-64312100D01*
X74636924Y-64312102D01*
X74708271Y-64383449D01*
X74727900Y-64403078D01*
X74843481Y-64459582D01*
X74918415Y-64470500D01*
X74918418Y-64470500D01*
X75261582Y-64470500D01*
X75261585Y-64470500D01*
X75336518Y-64459582D01*
X75452101Y-64403077D01*
X75512319Y-64342860D01*
X75567906Y-64310766D01*
X75632094Y-64310766D01*
X75687681Y-64342860D01*
X75747898Y-64403077D01*
X75863481Y-64459582D01*
X75938415Y-64470500D01*
X75938418Y-64470500D01*
X76281582Y-64470500D01*
X76281585Y-64470500D01*
X76356518Y-64459582D01*
X76472101Y-64403077D01*
X76563077Y-64312101D01*
X76619582Y-64196518D01*
X76630500Y-64121585D01*
X76630500Y-63678415D01*
X76619582Y-63603481D01*
X76563077Y-63487898D01*
X76521820Y-63446642D01*
X76494939Y-63406413D01*
X76485500Y-63358960D01*
X76485500Y-61474500D01*
X76502113Y-61412500D01*
X76547500Y-61367113D01*
X76609500Y-61350500D01*
X82739926Y-61350500D01*
X82774861Y-61355523D01*
X82789945Y-61359952D01*
X82789947Y-61359953D01*
X82928039Y-61400500D01*
X83071961Y-61400500D01*
X83210053Y-61359953D01*
X83331128Y-61282143D01*
X83425377Y-61173373D01*
X83485165Y-61042457D01*
X83505647Y-60900000D01*
X83485165Y-60757543D01*
X83482182Y-60751011D01*
X83471293Y-60690654D01*
X83490662Y-60632460D01*
X83535550Y-60590668D01*
X83594977Y-60575500D01*
X83693101Y-60575500D01*
X83740554Y-60584939D01*
X83780782Y-60611819D01*
X84197850Y-61028887D01*
X84213977Y-61048746D01*
X84219915Y-61057835D01*
X84244894Y-61077277D01*
X84256412Y-61087449D01*
X84256481Y-61087518D01*
X84273389Y-61099590D01*
X84277494Y-61102650D01*
X84318811Y-61134809D01*
X84318812Y-61134809D01*
X84325043Y-61139659D01*
X84325234Y-61139757D01*
X84332800Y-61142009D01*
X84332801Y-61142010D01*
X84382955Y-61156941D01*
X84387792Y-61158490D01*
X84437340Y-61175500D01*
X84444797Y-61178060D01*
X84445030Y-61178093D01*
X84452909Y-61177767D01*
X84452912Y-61177768D01*
X84505193Y-61175605D01*
X84510316Y-61175500D01*
X90622126Y-61175500D01*
X90689163Y-61195183D01*
X90789947Y-61259953D01*
X90928039Y-61300500D01*
X91071961Y-61300500D01*
X91210053Y-61259953D01*
X91331128Y-61182143D01*
X91425377Y-61073373D01*
X91485165Y-60942457D01*
X91505647Y-60800000D01*
X91485165Y-60657543D01*
X91478275Y-60642457D01*
X91425376Y-60526625D01*
X91331129Y-60417858D01*
X91331128Y-60417857D01*
X91210053Y-60340047D01*
X91071961Y-60299500D01*
X90928039Y-60299500D01*
X90789947Y-60340046D01*
X90722281Y-60383533D01*
X90689163Y-60404816D01*
X90622126Y-60424500D01*
X87694977Y-60424500D01*
X87635550Y-60409332D01*
X87590662Y-60367540D01*
X87571293Y-60309346D01*
X87582182Y-60248989D01*
X87585165Y-60242456D01*
X87589236Y-60214143D01*
X87605647Y-60100000D01*
X87585165Y-59957543D01*
X87525377Y-59826627D01*
X87525376Y-59826626D01*
X87525376Y-59826625D01*
X87431129Y-59717858D01*
X87431128Y-59717857D01*
X87310053Y-59640047D01*
X87171961Y-59599500D01*
X87154854Y-59594477D01*
X87154952Y-59594140D01*
X87134446Y-59590061D01*
X87094218Y-59563181D01*
X86269900Y-58738863D01*
X85422149Y-57891111D01*
X85406022Y-57871253D01*
X85400083Y-57862162D01*
X85375110Y-57842725D01*
X85363593Y-57832554D01*
X85363519Y-57832480D01*
X85346594Y-57820397D01*
X85342480Y-57817330D01*
X85301189Y-57785191D01*
X85301186Y-57785190D01*
X85294963Y-57780346D01*
X85294761Y-57780242D01*
X85287200Y-57777990D01*
X85287199Y-57777990D01*
X85237036Y-57763055D01*
X85232174Y-57761497D01*
X85219472Y-57757137D01*
X85175202Y-57741939D01*
X85174969Y-57741906D01*
X85129910Y-57743769D01*
X85114806Y-57744394D01*
X85109684Y-57744500D01*
X79541040Y-57744500D01*
X79493587Y-57735061D01*
X79453359Y-57708181D01*
X79442859Y-57697681D01*
X79410765Y-57642093D01*
X79410765Y-57577906D01*
X79442857Y-57522320D01*
X79503076Y-57462102D01*
X79503076Y-57462100D01*
X79503078Y-57462099D01*
X79559582Y-57346518D01*
X79570500Y-57271585D01*
X79570500Y-56928415D01*
X79559582Y-56853481D01*
X79503077Y-56737898D01*
X79412101Y-56646922D01*
X79296518Y-56590417D01*
X79221585Y-56579500D01*
X79221582Y-56579500D01*
X78826544Y-56579500D01*
X78779091Y-56570061D01*
X78738863Y-56543181D01*
X77432638Y-55236956D01*
X77416509Y-55217094D01*
X77411437Y-55209330D01*
X77388533Y-55191504D01*
X77377508Y-55181768D01*
X77361653Y-55170448D01*
X77357544Y-55167384D01*
X77313229Y-55132892D01*
X77259409Y-55116869D01*
X77254531Y-55115306D01*
X77201421Y-55097074D01*
X77145332Y-55099394D01*
X77140208Y-55099500D01*
X74874204Y-55099500D01*
X74822290Y-55088110D01*
X74779914Y-55056032D01*
X74754860Y-55009159D01*
X74751731Y-54956102D01*
X74757439Y-54920061D01*
X74760500Y-54900735D01*
X74760499Y-54499266D01*
X74760499Y-54499265D01*
X74760499Y-54499262D01*
X74746017Y-54407825D01*
X74689859Y-54297608D01*
X74602392Y-54210141D01*
X74492173Y-54153982D01*
X74400737Y-54139500D01*
X74400735Y-54139500D01*
X74216544Y-54139500D01*
X74169091Y-54130061D01*
X74128863Y-54103181D01*
X73887363Y-53861681D01*
X73857113Y-53812318D01*
X73852571Y-53754602D01*
X73874726Y-53701115D01*
X73918749Y-53663515D01*
X73975044Y-53650000D01*
X74665000Y-53650000D01*
X74665000Y-53618500D01*
X74681613Y-53556500D01*
X74727000Y-53511113D01*
X74789000Y-53494500D01*
X74890674Y-53494500D01*
X75647456Y-53494500D01*
X75694909Y-53503939D01*
X75735137Y-53530819D01*
X76163496Y-53959178D01*
X76186699Y-53991355D01*
X76198553Y-54029212D01*
X76214834Y-54142457D01*
X76274623Y-54273374D01*
X76363116Y-54375500D01*
X76368872Y-54382143D01*
X76489947Y-54459953D01*
X76628039Y-54500500D01*
X76771961Y-54500500D01*
X76910053Y-54459953D01*
X77031128Y-54382143D01*
X77125377Y-54273373D01*
X77185165Y-54142457D01*
X77205647Y-54000000D01*
X77186306Y-53865479D01*
X77185165Y-53857542D01*
X77125376Y-53726625D01*
X77031129Y-53617858D01*
X77031128Y-53617857D01*
X76910053Y-53540047D01*
X76771961Y-53499500D01*
X76746544Y-53499500D01*
X76699091Y-53490061D01*
X76658863Y-53463181D01*
X76126638Y-52930956D01*
X76110509Y-52911094D01*
X76105437Y-52903330D01*
X76082533Y-52885504D01*
X76071508Y-52875768D01*
X76055653Y-52864448D01*
X76051544Y-52861384D01*
X76007229Y-52826892D01*
X75953409Y-52810869D01*
X75948531Y-52809306D01*
X75895421Y-52791074D01*
X75839332Y-52793394D01*
X75834208Y-52793500D01*
X75240500Y-52793500D01*
X75178500Y-52776887D01*
X75133113Y-52731500D01*
X75116500Y-52669500D01*
X75116500Y-52619327D01*
X75116500Y-52619326D01*
X75106328Y-52568189D01*
X75106328Y-52519811D01*
X75116500Y-52468674D01*
X75116500Y-52219326D01*
X75106328Y-52168189D01*
X75106328Y-52119811D01*
X75116500Y-52068674D01*
X75116500Y-51819326D01*
X75106328Y-51768189D01*
X75106328Y-51719811D01*
X75116500Y-51668674D01*
X75116500Y-51618500D01*
X75133113Y-51556500D01*
X75178500Y-51511113D01*
X75240500Y-51494500D01*
X80186788Y-51494500D01*
X80212234Y-51497139D01*
X80213556Y-51497416D01*
X80221315Y-51499043D01*
X80247364Y-51495795D01*
X80250123Y-51495452D01*
X80264795Y-51494541D01*
X80284013Y-51491334D01*
X80289069Y-51490596D01*
X80337393Y-51484573D01*
X80337393Y-51484572D01*
X80345645Y-51483544D01*
X80361903Y-51478336D01*
X80371808Y-51476685D01*
X80371981Y-51477723D01*
X80400506Y-51470500D01*
X80651585Y-51470500D01*
X80726518Y-51459582D01*
X80842101Y-51403077D01*
X80902319Y-51342860D01*
X80957906Y-51310766D01*
X81022094Y-51310766D01*
X81077681Y-51342860D01*
X81137898Y-51403077D01*
X81253481Y-51459582D01*
X81328415Y-51470500D01*
X81328418Y-51470500D01*
X81671582Y-51470500D01*
X81671585Y-51470500D01*
X81746518Y-51459582D01*
X81862099Y-51403078D01*
X81862100Y-51403076D01*
X81862102Y-51403076D01*
X81953076Y-51312102D01*
X81953076Y-51312100D01*
X81967706Y-51297471D01*
X81968672Y-51298437D01*
X81994937Y-51269310D01*
X82060596Y-51250500D01*
X82754482Y-51250500D01*
X82803295Y-51260512D01*
X82844225Y-51288930D01*
X82870664Y-51331167D01*
X82890164Y-51383451D01*
X82971027Y-51491472D01*
X83079047Y-51572334D01*
X83079050Y-51572336D01*
X83205478Y-51619491D01*
X83261370Y-51625500D01*
X83788627Y-51625500D01*
X83788630Y-51625500D01*
X83844522Y-51619491D01*
X83970950Y-51572336D01*
X84078972Y-51491472D01*
X84159836Y-51383450D01*
X84206991Y-51257022D01*
X84213000Y-51201130D01*
X84213000Y-50598870D01*
X84206991Y-50542978D01*
X84159836Y-50416550D01*
X84155307Y-50410500D01*
X84078972Y-50308527D01*
X83970952Y-50227665D01*
X83970950Y-50227664D01*
X83844522Y-50180509D01*
X83788630Y-50174500D01*
X83261370Y-50174500D01*
X83222797Y-50178647D01*
X83205477Y-50180509D01*
X83079047Y-50227665D01*
X82971027Y-50308527D01*
X82890164Y-50416548D01*
X82878157Y-50448739D01*
X82874875Y-50457543D01*
X82870664Y-50468833D01*
X82844225Y-50511070D01*
X82803295Y-50539488D01*
X82754482Y-50549500D01*
X82060596Y-50549500D01*
X81994937Y-50530690D01*
X81968672Y-50501562D01*
X81967706Y-50502529D01*
X81953076Y-50487899D01*
X81953076Y-50487898D01*
X81862102Y-50396924D01*
X81862101Y-50396923D01*
X81862099Y-50396921D01*
X81746518Y-50340417D01*
X81671585Y-50329500D01*
X81671582Y-50329500D01*
X81328418Y-50329500D01*
X81328415Y-50329500D01*
X81253481Y-50340417D01*
X81137898Y-50396922D01*
X81077681Y-50457140D01*
X81022094Y-50489234D01*
X80957906Y-50489234D01*
X80902319Y-50457140D01*
X80842101Y-50396922D01*
X80726518Y-50340417D01*
X80651585Y-50329500D01*
X80651582Y-50329500D01*
X80308418Y-50329500D01*
X80308415Y-50329500D01*
X80233481Y-50340417D01*
X80117898Y-50396922D01*
X80026922Y-50487898D01*
X79970417Y-50603481D01*
X79958204Y-50687310D01*
X79954858Y-50686822D01*
X79942887Y-50731500D01*
X79897500Y-50776887D01*
X79835500Y-50793500D01*
X78301544Y-50793500D01*
X78245249Y-50779985D01*
X78201226Y-50742385D01*
X78179071Y-50688898D01*
X78183613Y-50631182D01*
X78213863Y-50581819D01*
X79308863Y-49486819D01*
X79349091Y-49459939D01*
X79396544Y-49450500D01*
X79929404Y-49450500D01*
X79995063Y-49469310D01*
X80021327Y-49498437D01*
X80022294Y-49497471D01*
X80036923Y-49512100D01*
X80036924Y-49512102D01*
X80075596Y-49550774D01*
X80127900Y-49603078D01*
X80243481Y-49659582D01*
X80318415Y-49670500D01*
X80318418Y-49670500D01*
X80661582Y-49670500D01*
X80661585Y-49670500D01*
X80736518Y-49659582D01*
X80852101Y-49603077D01*
X80912319Y-49542860D01*
X80967906Y-49510766D01*
X81032094Y-49510766D01*
X81087681Y-49542860D01*
X81147898Y-49603077D01*
X81263481Y-49659582D01*
X81338415Y-49670500D01*
X81338418Y-49670500D01*
X81681582Y-49670500D01*
X81681585Y-49670500D01*
X81756518Y-49659582D01*
X81872099Y-49603078D01*
X81872100Y-49603076D01*
X81872102Y-49603076D01*
X81963076Y-49512102D01*
X81963076Y-49512100D01*
X81977706Y-49497471D01*
X81978672Y-49498437D01*
X82004937Y-49469310D01*
X82070596Y-49450500D01*
X82741982Y-49450500D01*
X82790795Y-49460512D01*
X82831725Y-49488930D01*
X82858162Y-49531165D01*
X82862525Y-49542860D01*
X82877664Y-49583451D01*
X82958527Y-49691472D01*
X83064148Y-49770538D01*
X83066550Y-49772336D01*
X83192978Y-49819491D01*
X83248870Y-49825500D01*
X83776127Y-49825500D01*
X83776130Y-49825500D01*
X83832022Y-49819491D01*
X83958450Y-49772336D01*
X84066472Y-49691472D01*
X84147336Y-49583450D01*
X84194491Y-49457022D01*
X84200500Y-49401130D01*
X84200500Y-48798870D01*
X84194491Y-48742978D01*
X84147336Y-48616550D01*
X84147334Y-48616547D01*
X84066472Y-48508527D01*
X83958452Y-48427665D01*
X83958450Y-48427664D01*
X83832022Y-48380509D01*
X83776130Y-48374500D01*
X83248870Y-48374500D01*
X83206950Y-48379006D01*
X83192977Y-48380509D01*
X83066547Y-48427665D01*
X82958527Y-48508527D01*
X82877664Y-48616548D01*
X82870120Y-48636775D01*
X82862331Y-48657661D01*
X82858164Y-48668833D01*
X82831725Y-48711070D01*
X82790795Y-48739488D01*
X82741982Y-48749500D01*
X82070596Y-48749500D01*
X82004937Y-48730690D01*
X81978672Y-48701562D01*
X81977706Y-48702529D01*
X81963076Y-48687899D01*
X81963076Y-48687898D01*
X81872102Y-48596924D01*
X81872101Y-48596923D01*
X81872099Y-48596921D01*
X81756518Y-48540417D01*
X81681585Y-48529500D01*
X81681582Y-48529500D01*
X81338418Y-48529500D01*
X81338415Y-48529500D01*
X81263481Y-48540417D01*
X81147898Y-48596922D01*
X81087681Y-48657140D01*
X81032094Y-48689234D01*
X80967906Y-48689234D01*
X80912319Y-48657140D01*
X80852101Y-48596922D01*
X80736518Y-48540417D01*
X80661585Y-48529500D01*
X80661582Y-48529500D01*
X80318418Y-48529500D01*
X80318415Y-48529500D01*
X80243481Y-48540417D01*
X80127900Y-48596921D01*
X80099322Y-48625500D01*
X80036924Y-48687898D01*
X80036923Y-48687899D01*
X80022294Y-48702529D01*
X80021327Y-48701562D01*
X79995063Y-48730690D01*
X79929404Y-48749500D01*
X79249207Y-48749500D01*
X79223761Y-48746861D01*
X79214685Y-48744958D01*
X79185884Y-48748548D01*
X79171203Y-48749459D01*
X79151986Y-48752665D01*
X79146924Y-48753402D01*
X79091192Y-48760350D01*
X79041813Y-48787072D01*
X79037261Y-48789415D01*
X78986804Y-48814082D01*
X78948780Y-48855387D01*
X78945233Y-48859083D01*
X77447137Y-50357181D01*
X77406909Y-50384061D01*
X77359456Y-50393500D01*
X75240500Y-50393500D01*
X75178500Y-50376887D01*
X75133113Y-50331500D01*
X75116500Y-50269500D01*
X75116500Y-50219327D01*
X75116500Y-50219326D01*
X75106328Y-50168189D01*
X75106328Y-50119811D01*
X75116500Y-50068674D01*
X75116500Y-49819326D01*
X75101966Y-49746260D01*
X75046601Y-49663399D01*
X74963740Y-49608034D01*
X74963739Y-49608033D01*
X74963738Y-49608033D01*
X74890675Y-49593500D01*
X74890674Y-49593500D01*
X74789000Y-49593500D01*
X74727000Y-49576887D01*
X74681613Y-49531500D01*
X74665000Y-49469500D01*
X74665000Y-49050000D01*
X73840500Y-49050000D01*
X73778500Y-49033387D01*
X73733113Y-48988000D01*
X73716500Y-48926000D01*
X73716500Y-48504040D01*
X73725939Y-48456587D01*
X73752816Y-48416361D01*
X73803076Y-48366102D01*
X73803076Y-48366100D01*
X73803078Y-48366099D01*
X73859582Y-48250518D01*
X73870500Y-48175585D01*
X73870500Y-47732415D01*
X73859582Y-47657481D01*
X73803077Y-47541898D01*
X73712101Y-47450922D01*
X73596518Y-47394417D01*
X73521585Y-47383500D01*
X73521582Y-47383500D01*
X73178418Y-47383500D01*
X73178415Y-47383500D01*
X73103481Y-47394417D01*
X72987898Y-47450922D01*
X72896922Y-47541898D01*
X72840417Y-47657481D01*
X72829500Y-47732415D01*
X72829500Y-48175585D01*
X72840417Y-48250518D01*
X72896921Y-48366099D01*
X72896923Y-48366101D01*
X72896924Y-48366102D01*
X72979183Y-48448361D01*
X73006061Y-48488587D01*
X73015500Y-48536040D01*
X73015500Y-48926000D01*
X72998887Y-48988000D01*
X72953500Y-49033387D01*
X72891500Y-49050000D01*
X72400000Y-49050000D01*
X72400000Y-40124500D01*
X72416613Y-40062500D01*
X72462000Y-40017113D01*
X72524000Y-40000500D01*
X97496949Y-40000500D01*
X97503032Y-40000649D01*
X97507384Y-40000862D01*
X97652450Y-40007989D01*
X97843670Y-40018010D01*
X97855324Y-40019177D01*
X98021254Y-40043791D01*
X98022225Y-40043940D01*
X98194897Y-40071289D01*
X98205570Y-40073465D01*
X98371374Y-40114997D01*
X98373014Y-40115422D01*
X98538880Y-40159866D01*
X98548544Y-40162884D01*
X98652693Y-40200150D01*
X98710526Y-40220843D01*
X98713188Y-40221830D01*
X98746726Y-40234704D01*
X98872097Y-40282829D01*
X98880623Y-40286475D01*
X99036869Y-40360374D01*
X99040055Y-40361939D01*
X99182487Y-40434511D01*
X99191094Y-40438897D01*
X99198547Y-40443023D01*
X99347075Y-40532047D01*
X99350824Y-40534387D01*
X99492670Y-40626503D01*
X99498977Y-40630884D01*
X99638210Y-40734147D01*
X99642365Y-40737367D01*
X99773635Y-40843667D01*
X99778872Y-40848155D01*
X99907389Y-40964636D01*
X99911797Y-40968833D01*
X100031165Y-41088201D01*
X100035362Y-41092609D01*
X100151843Y-41221126D01*
X100156331Y-41226363D01*
X100262620Y-41357619D01*
X100265851Y-41361788D01*
X100369114Y-41501021D01*
X100373512Y-41507353D01*
X100465599Y-41649155D01*
X100467963Y-41652942D01*
X100556975Y-41801451D01*
X100561101Y-41808904D01*
X100638037Y-41959898D01*
X100639647Y-41963176D01*
X100713510Y-42119345D01*
X100717179Y-42127925D01*
X100778168Y-42286810D01*
X100779155Y-42289472D01*
X100837111Y-42451447D01*
X100840135Y-42461128D01*
X100884535Y-42626827D01*
X100885044Y-42628792D01*
X100926526Y-42794398D01*
X100928715Y-42805130D01*
X100956041Y-42977665D01*
X100956226Y-42978867D01*
X100980818Y-43144649D01*
X100981990Y-43156354D01*
X100989830Y-43305941D01*
X100990000Y-43312431D01*
X100990000Y-76687569D01*
X100989830Y-76694059D01*
X100981990Y-76843644D01*
X100980818Y-76855349D01*
X100956226Y-77021131D01*
X100956041Y-77022333D01*
X100928715Y-77194868D01*
X100926526Y-77205600D01*
X100885044Y-77371206D01*
X100884535Y-77373171D01*
X100840135Y-77538870D01*
X100837111Y-77548551D01*
X100779155Y-77710526D01*
X100778168Y-77713188D01*
X100717179Y-77872073D01*
X100713510Y-77880653D01*
X100639647Y-78036822D01*
X100638037Y-78040100D01*
X100561101Y-78191094D01*
X100556975Y-78198547D01*
X100467963Y-78347056D01*
X100465599Y-78350843D01*
X100373512Y-78492645D01*
X100369114Y-78498977D01*
X100265851Y-78638210D01*
X100262620Y-78642379D01*
X100156331Y-78773635D01*
X100151843Y-78778872D01*
X100035362Y-78907389D01*
X100031165Y-78911797D01*
X99911797Y-79031165D01*
X99907389Y-79035362D01*
X99778872Y-79151843D01*
X99773635Y-79156331D01*
X99642379Y-79262620D01*
X99638210Y-79265851D01*
X99498977Y-79369114D01*
X99492645Y-79373512D01*
X99350843Y-79465599D01*
X99347056Y-79467963D01*
X99198547Y-79556975D01*
X99191094Y-79561101D01*
X99040100Y-79638037D01*
X99036822Y-79639647D01*
X98880653Y-79713510D01*
X98872073Y-79717179D01*
X98713188Y-79778168D01*
X98710526Y-79779155D01*
X98548551Y-79837111D01*
X98538870Y-79840135D01*
X98373171Y-79884535D01*
X98371206Y-79885044D01*
X98205600Y-79926526D01*
X98194868Y-79928715D01*
X98022333Y-79956041D01*
X98021131Y-79956226D01*
X97855349Y-79980818D01*
X97843644Y-79981990D01*
X97652774Y-79991993D01*
X97652369Y-79992014D01*
X97503033Y-79999351D01*
X97496948Y-79999500D01*
X64503052Y-79999500D01*
X64496967Y-79999351D01*
X64347629Y-79992014D01*
X64347224Y-79991993D01*
X64156354Y-79981990D01*
X64144649Y-79980818D01*
X63978867Y-79956226D01*
X63977665Y-79956041D01*
X63805130Y-79928715D01*
X63794398Y-79926526D01*
X63628792Y-79885044D01*
X63626827Y-79884535D01*
X63461128Y-79840135D01*
X63451447Y-79837111D01*
X63289472Y-79779155D01*
X63286810Y-79778168D01*
X63127925Y-79717179D01*
X63119351Y-79713512D01*
X62963176Y-79639647D01*
X62959898Y-79638037D01*
X62808904Y-79561101D01*
X62801451Y-79556975D01*
X62652942Y-79467963D01*
X62649155Y-79465599D01*
X62601996Y-79434973D01*
X62507343Y-79373505D01*
X62501021Y-79369114D01*
X62361788Y-79265851D01*
X62357619Y-79262620D01*
X62226363Y-79156331D01*
X62221126Y-79151843D01*
X62092609Y-79035362D01*
X62088201Y-79031165D01*
X61968833Y-78911797D01*
X61964636Y-78907389D01*
X61848155Y-78778872D01*
X61843667Y-78773635D01*
X61737378Y-78642379D01*
X61734147Y-78638210D01*
X61630884Y-78498977D01*
X61626503Y-78492670D01*
X61534387Y-78350824D01*
X61532035Y-78347056D01*
X61443023Y-78198547D01*
X61438897Y-78191094D01*
X61434511Y-78182487D01*
X61361939Y-78040055D01*
X61360374Y-78036869D01*
X61286475Y-77880623D01*
X61282829Y-77872097D01*
X61221830Y-77713188D01*
X61220843Y-77710526D01*
X61162887Y-77548551D01*
X61159863Y-77538870D01*
X61115422Y-77373014D01*
X61114997Y-77371374D01*
X61073465Y-77205570D01*
X61071289Y-77194897D01*
X61043940Y-77022225D01*
X61043791Y-77021254D01*
X61019177Y-76855324D01*
X61018010Y-76843670D01*
X61007989Y-76652450D01*
X61000649Y-76503032D01*
X61000500Y-76496949D01*
X61000500Y-64799999D01*
X83194353Y-64799999D01*
X83214834Y-64942457D01*
X83218293Y-64950029D01*
X83229500Y-65001543D01*
X83229500Y-66889262D01*
X83229413Y-66893899D01*
X83227050Y-66957029D01*
X83229500Y-66975635D01*
X83229500Y-69267738D01*
X83228720Y-69281622D01*
X83224729Y-69317034D01*
X83235356Y-69373194D01*
X83236130Y-69377751D01*
X83239607Y-69400819D01*
X83245550Y-69440248D01*
X83247163Y-69445148D01*
X83276687Y-69501010D01*
X83278777Y-69505150D01*
X83306184Y-69562060D01*
X83309183Y-69566287D01*
X83353846Y-69610950D01*
X83357063Y-69614289D01*
X83400043Y-69660611D01*
X83414930Y-69672034D01*
X84816281Y-71073385D01*
X86203181Y-72460284D01*
X86230061Y-72500511D01*
X86239500Y-72547963D01*
X86239500Y-72590736D01*
X86253982Y-72682174D01*
X86310140Y-72792391D01*
X86397607Y-72879858D01*
X86397609Y-72879859D01*
X86507825Y-72936017D01*
X86599265Y-72950500D01*
X87000734Y-72950499D01*
X87000737Y-72950499D01*
X87046454Y-72943258D01*
X87092175Y-72936017D01*
X87184421Y-72889014D01*
X87240716Y-72875500D01*
X88077009Y-72875500D01*
X88111515Y-72884364D01*
X88147034Y-72875500D01*
X88797175Y-72875500D01*
X88821529Y-72870655D01*
X88870240Y-72860966D01*
X88953101Y-72805601D01*
X89008466Y-72722740D01*
X89023000Y-72649674D01*
X89023000Y-72350326D01*
X89008466Y-72277260D01*
X89008464Y-72277258D01*
X89007855Y-72274193D01*
X89007855Y-72225807D01*
X89008464Y-72222741D01*
X89008466Y-72222740D01*
X89023000Y-72149674D01*
X89023000Y-71999500D01*
X89039613Y-71937500D01*
X89085000Y-71892113D01*
X89147000Y-71875500D01*
X89216000Y-71875500D01*
X89278000Y-71892113D01*
X89323387Y-71937500D01*
X89340000Y-71999500D01*
X89340000Y-73039288D01*
X89337361Y-73064734D01*
X89335457Y-73073814D01*
X89339048Y-73102623D01*
X89339958Y-73117292D01*
X89343165Y-73136508D01*
X89343903Y-73141577D01*
X89350851Y-73197308D01*
X89361419Y-73216837D01*
X89376362Y-73275427D01*
X89361822Y-73334118D01*
X89321254Y-73378955D01*
X89298281Y-73394305D01*
X89294399Y-73396899D01*
X89250101Y-73463196D01*
X89203296Y-73504789D01*
X89142133Y-73518209D01*
X89082211Y-73500033D01*
X89038811Y-73454894D01*
X89023000Y-73394305D01*
X89023000Y-73350325D01*
X89013035Y-73300232D01*
X89008466Y-73277260D01*
X88953101Y-73194399D01*
X88870240Y-73139034D01*
X88870239Y-73139033D01*
X88870238Y-73139033D01*
X88797175Y-73124500D01*
X88797174Y-73124500D01*
X88497660Y-73124500D01*
X88151804Y-73124500D01*
X88126364Y-73121862D01*
X88121589Y-73120861D01*
X88110391Y-73115434D01*
X88092346Y-73122548D01*
X88084323Y-73123548D01*
X88068986Y-73124500D01*
X88068884Y-73124500D01*
X88048381Y-73127920D01*
X88043320Y-73128657D01*
X87983572Y-73136105D01*
X87983308Y-73136190D01*
X87930365Y-73164840D01*
X87925814Y-73167183D01*
X87871718Y-73193630D01*
X87871505Y-73193788D01*
X87830719Y-73238093D01*
X87827172Y-73241789D01*
X87269108Y-73799852D01*
X87249254Y-73815976D01*
X87240165Y-73821914D01*
X87220722Y-73846894D01*
X87210563Y-73858398D01*
X87210484Y-73858476D01*
X87210479Y-73858482D01*
X87210480Y-73858482D01*
X87198390Y-73875414D01*
X87195341Y-73879504D01*
X87158354Y-73927024D01*
X87158237Y-73927253D01*
X87141057Y-73984955D01*
X87139495Y-73989831D01*
X87119940Y-74046795D01*
X87119906Y-74047030D01*
X87122394Y-74107192D01*
X87122500Y-74112316D01*
X87122500Y-75344195D01*
X87119861Y-75369641D01*
X87117633Y-75380266D01*
X87121548Y-75411677D01*
X87122500Y-75427014D01*
X87122500Y-75427116D01*
X87125918Y-75447602D01*
X87126657Y-75452670D01*
X87134107Y-75512438D01*
X87134185Y-75512682D01*
X87162827Y-75565608D01*
X87165171Y-75570162D01*
X87191634Y-75624292D01*
X87191779Y-75624485D01*
X87236080Y-75665267D01*
X87239779Y-75668816D01*
X87695850Y-76124888D01*
X87711976Y-76144744D01*
X87717916Y-76153836D01*
X87742890Y-76173274D01*
X87754407Y-76183445D01*
X87754482Y-76183520D01*
X87764410Y-76190608D01*
X87771399Y-76195598D01*
X87775508Y-76198662D01*
X87823041Y-76235658D01*
X87823232Y-76235757D01*
X87857601Y-76245988D01*
X87880955Y-76252941D01*
X87885792Y-76254490D01*
X87935340Y-76271500D01*
X87942797Y-76274060D01*
X87943030Y-76274093D01*
X87950909Y-76273767D01*
X87950912Y-76273768D01*
X88003193Y-76271605D01*
X88008316Y-76271500D01*
X92752195Y-76271500D01*
X92777641Y-76274139D01*
X92781440Y-76274935D01*
X92788268Y-76276367D01*
X92818138Y-76272643D01*
X92819677Y-76272452D01*
X92835014Y-76271500D01*
X92835111Y-76271500D01*
X92835114Y-76271500D01*
X92855643Y-76268073D01*
X92860659Y-76267342D01*
X92912626Y-76260866D01*
X92912628Y-76260864D01*
X92920457Y-76259889D01*
X92920666Y-76259822D01*
X92927607Y-76256065D01*
X92927610Y-76256065D01*
X92973666Y-76231140D01*
X92978144Y-76228835D01*
X93025211Y-76205826D01*
X93025212Y-76205824D01*
X93032308Y-76202356D01*
X93032476Y-76202230D01*
X93037824Y-76196419D01*
X93037826Y-76196419D01*
X93073294Y-76157889D01*
X93076771Y-76154264D01*
X93394220Y-75836816D01*
X93434446Y-75809939D01*
X93454952Y-75805859D01*
X93454854Y-75805523D01*
X93471960Y-75800500D01*
X93471961Y-75800500D01*
X93610053Y-75759953D01*
X93731128Y-75682143D01*
X93825377Y-75573373D01*
X93885165Y-75442457D01*
X93905647Y-75300000D01*
X93885165Y-75157543D01*
X93885164Y-75157541D01*
X93825376Y-75026625D01*
X93731129Y-74917858D01*
X93731128Y-74917857D01*
X93610053Y-74840047D01*
X93471961Y-74799500D01*
X93328039Y-74799500D01*
X93189947Y-74840047D01*
X93068870Y-74917858D01*
X92974623Y-75026625D01*
X92914835Y-75157541D01*
X92904489Y-75229497D01*
X92892635Y-75267353D01*
X92869432Y-75299529D01*
X92684781Y-75484181D01*
X92644553Y-75511061D01*
X92597100Y-75520500D01*
X92120991Y-75520500D01*
X92086484Y-75511634D01*
X92050965Y-75520500D01*
X90282861Y-75520500D01*
X90221602Y-75504312D01*
X90199728Y-75482885D01*
X90184112Y-75500866D01*
X90117151Y-75520500D01*
X88204899Y-75520500D01*
X88157446Y-75511061D01*
X88117218Y-75484181D01*
X87909819Y-75276781D01*
X87882939Y-75236553D01*
X87873500Y-75189100D01*
X87873500Y-74308899D01*
X87882939Y-74261446D01*
X87909819Y-74221218D01*
X88219218Y-73911819D01*
X88259446Y-73884939D01*
X88306899Y-73875500D01*
X88797175Y-73875500D01*
X88827996Y-73869369D01*
X88870240Y-73860966D01*
X88953101Y-73805601D01*
X88997398Y-73739303D01*
X89044204Y-73697711D01*
X89105367Y-73684291D01*
X89165289Y-73702467D01*
X89208689Y-73747606D01*
X89224500Y-73808195D01*
X89224500Y-74248195D01*
X89221861Y-74273641D01*
X89219633Y-74284266D01*
X89223548Y-74315677D01*
X89224500Y-74331014D01*
X89224500Y-74331116D01*
X89227918Y-74351602D01*
X89228657Y-74356670D01*
X89236107Y-74416438D01*
X89236185Y-74416682D01*
X89264827Y-74469608D01*
X89267171Y-74474162D01*
X89293634Y-74528292D01*
X89293777Y-74528482D01*
X89299579Y-74533824D01*
X89299581Y-74533826D01*
X89338108Y-74569293D01*
X89341780Y-74572817D01*
X89919871Y-75150908D01*
X89926802Y-75158436D01*
X89953959Y-75190500D01*
X89990049Y-75212005D01*
X89998617Y-75217603D01*
X90032801Y-75242010D01*
X90032969Y-75242060D01*
X90033176Y-75242122D01*
X90061271Y-75254444D01*
X90061615Y-75254649D01*
X90102747Y-75263273D01*
X90112654Y-75265782D01*
X90117930Y-75267353D01*
X90152535Y-75277656D01*
X90200715Y-75308851D01*
X90217200Y-75291311D01*
X90277738Y-75272606D01*
X90298802Y-75271735D01*
X90298834Y-75272519D01*
X90304256Y-75271500D01*
X92046195Y-75271500D01*
X92071637Y-75274137D01*
X92076408Y-75275138D01*
X92087607Y-75280565D01*
X92105654Y-75273452D01*
X92113677Y-75272452D01*
X92129014Y-75271500D01*
X92129111Y-75271500D01*
X92129114Y-75271500D01*
X92149643Y-75268073D01*
X92154659Y-75267342D01*
X92206626Y-75260866D01*
X92206628Y-75260864D01*
X92214457Y-75259889D01*
X92214666Y-75259822D01*
X92221607Y-75256065D01*
X92221610Y-75256065D01*
X92267666Y-75231140D01*
X92272144Y-75228835D01*
X92319211Y-75205826D01*
X92319212Y-75205824D01*
X92326308Y-75202356D01*
X92326476Y-75202230D01*
X92331824Y-75196419D01*
X92331826Y-75196419D01*
X92367294Y-75157889D01*
X92370795Y-75154240D01*
X94753889Y-72771146D01*
X94773741Y-72755025D01*
X94782836Y-72749084D01*
X94802273Y-72724110D01*
X94812453Y-72712583D01*
X94812519Y-72712518D01*
X94824624Y-72695561D01*
X94827627Y-72691534D01*
X94859809Y-72650189D01*
X94859810Y-72650185D01*
X94864666Y-72643947D01*
X94864753Y-72643779D01*
X94867010Y-72636199D01*
X94881955Y-72585997D01*
X94883486Y-72581218D01*
X94900500Y-72531660D01*
X94900500Y-72531658D01*
X94903060Y-72524201D01*
X94903093Y-72523970D01*
X94902767Y-72516091D01*
X94902768Y-72516089D01*
X94900605Y-72463807D01*
X94900500Y-72458685D01*
X94900500Y-70281899D01*
X94909939Y-70234446D01*
X94936819Y-70194218D01*
X97594218Y-67536819D01*
X97634446Y-67509939D01*
X97654952Y-67505859D01*
X97654854Y-67505523D01*
X97671960Y-67500500D01*
X97671961Y-67500500D01*
X97810053Y-67459953D01*
X97931128Y-67382143D01*
X98025377Y-67273373D01*
X98085165Y-67142457D01*
X98105647Y-67000000D01*
X98085165Y-66857543D01*
X98085164Y-66857541D01*
X98025376Y-66726625D01*
X97931129Y-66617858D01*
X97931128Y-66617857D01*
X97810053Y-66540047D01*
X97671961Y-66499500D01*
X97528039Y-66499500D01*
X97389947Y-66540047D01*
X97268870Y-66617858D01*
X97174623Y-66726625D01*
X97114835Y-66857541D01*
X97104489Y-66929497D01*
X97092634Y-66967353D01*
X97069432Y-66999529D01*
X94296108Y-69772852D01*
X94276254Y-69788976D01*
X94267165Y-69794914D01*
X94247722Y-69819894D01*
X94237563Y-69831398D01*
X94237484Y-69831476D01*
X94237479Y-69831482D01*
X94237480Y-69831482D01*
X94225390Y-69848414D01*
X94222341Y-69852504D01*
X94185354Y-69900024D01*
X94185237Y-69900253D01*
X94168057Y-69957955D01*
X94166495Y-69962831D01*
X94146940Y-70019795D01*
X94146906Y-70020030D01*
X94149394Y-70080192D01*
X94149500Y-70085316D01*
X94149500Y-72262100D01*
X94140061Y-72309553D01*
X94113181Y-72349781D01*
X91978781Y-74484181D01*
X91938553Y-74511061D01*
X91891100Y-74520500D01*
X90402899Y-74520500D01*
X90355446Y-74511061D01*
X90315218Y-74484181D01*
X90011819Y-74180781D01*
X89984939Y-74140553D01*
X89975500Y-74093100D01*
X89975500Y-73975008D01*
X89991269Y-73914492D01*
X90034567Y-73869369D01*
X90094379Y-73851114D01*
X90101673Y-73850812D01*
X90106672Y-73850606D01*
X90111792Y-73850500D01*
X90276481Y-73850500D01*
X90312476Y-73855839D01*
X90318642Y-73858755D01*
X90402824Y-73875500D01*
X90402826Y-73875500D01*
X91127174Y-73875500D01*
X91127175Y-73875500D01*
X91157996Y-73869369D01*
X91200240Y-73860966D01*
X91283101Y-73805601D01*
X91338466Y-73722740D01*
X91353000Y-73649674D01*
X91353000Y-73350326D01*
X91338466Y-73277260D01*
X91283101Y-73194399D01*
X91200240Y-73139034D01*
X91200239Y-73139033D01*
X91200238Y-73139033D01*
X91127175Y-73124500D01*
X91127174Y-73124500D01*
X90402826Y-73124500D01*
X90390079Y-73127035D01*
X90317156Y-73141540D01*
X90256970Y-73138582D01*
X90205285Y-73107603D01*
X90101593Y-73003911D01*
X90070613Y-72952225D01*
X90067657Y-72892039D01*
X90093420Y-72837566D01*
X90141821Y-72801669D01*
X90201427Y-72792827D01*
X90258161Y-72813125D01*
X90329760Y-72860966D01*
X90366292Y-72868232D01*
X90402825Y-72875500D01*
X90402826Y-72875500D01*
X91127174Y-72875500D01*
X91127175Y-72875500D01*
X91151529Y-72870655D01*
X91200240Y-72860966D01*
X91283101Y-72805601D01*
X91338466Y-72722740D01*
X91353000Y-72649674D01*
X91353000Y-72350326D01*
X91338466Y-72277260D01*
X91283101Y-72194399D01*
X91200240Y-72139034D01*
X91200239Y-72139033D01*
X91200238Y-72139033D01*
X91127175Y-72124500D01*
X91127174Y-72124500D01*
X90402826Y-72124500D01*
X90402825Y-72124500D01*
X90329759Y-72139034D01*
X90239522Y-72199327D01*
X90182786Y-72219627D01*
X90123179Y-72210785D01*
X90074779Y-72174888D01*
X90049016Y-72120415D01*
X90051972Y-72060228D01*
X90082950Y-72008545D01*
X90200128Y-71891367D01*
X90251812Y-71860389D01*
X90311999Y-71857433D01*
X90402825Y-71875500D01*
X90402826Y-71875500D01*
X91127174Y-71875500D01*
X91127176Y-71875500D01*
X91211357Y-71858755D01*
X91217524Y-71855839D01*
X91253519Y-71850500D01*
X92036887Y-71850500D01*
X92084340Y-71859939D01*
X92124568Y-71886819D01*
X92197607Y-71959858D01*
X92197609Y-71959859D01*
X92307825Y-72016017D01*
X92399265Y-72030500D01*
X92800734Y-72030499D01*
X92800737Y-72030499D01*
X92869314Y-72019637D01*
X92892175Y-72016017D01*
X93002391Y-71959859D01*
X93089859Y-71872391D01*
X93146017Y-71762175D01*
X93160500Y-71670735D01*
X93160499Y-71329266D01*
X93160499Y-71329262D01*
X93146017Y-71237825D01*
X93089859Y-71127608D01*
X93084819Y-71122568D01*
X93057939Y-71082340D01*
X93048500Y-71034887D01*
X93048500Y-65374500D01*
X93065113Y-65312500D01*
X93110500Y-65267113D01*
X93172500Y-65250500D01*
X98067738Y-65250500D01*
X98081622Y-65251280D01*
X98117033Y-65255270D01*
X98117033Y-65255269D01*
X98117035Y-65255270D01*
X98173228Y-65244636D01*
X98177726Y-65243872D01*
X98234287Y-65235348D01*
X98234288Y-65235347D01*
X98240268Y-65234446D01*
X98245128Y-65232846D01*
X98250467Y-65230023D01*
X98250472Y-65230023D01*
X98301045Y-65203292D01*
X98305136Y-65201227D01*
X98356642Y-65176425D01*
X98356644Y-65176422D01*
X98362078Y-65173806D01*
X98366271Y-65170831D01*
X98370533Y-65166568D01*
X98370538Y-65166566D01*
X98411001Y-65126101D01*
X98414259Y-65122962D01*
X98456194Y-65084055D01*
X98456195Y-65084053D01*
X98460613Y-65079954D01*
X98472033Y-65065069D01*
X99295744Y-64241357D01*
X99306093Y-64232109D01*
X99333970Y-64209879D01*
X99366191Y-64162618D01*
X99368859Y-64158859D01*
X99402793Y-64112882D01*
X99402794Y-64112877D01*
X99406381Y-64108018D01*
X99408692Y-64103441D01*
X99410470Y-64097675D01*
X99410472Y-64097673D01*
X99427334Y-64043002D01*
X99428761Y-64038669D01*
X99447646Y-63984700D01*
X99447646Y-63984696D01*
X99449637Y-63979007D01*
X99450500Y-63973932D01*
X99450500Y-63910739D01*
X99450587Y-63906102D01*
X99452949Y-63842970D01*
X99450500Y-63824365D01*
X99450500Y-49110739D01*
X99450587Y-49106102D01*
X99452346Y-49059083D01*
X99452724Y-49048990D01*
X99452723Y-49048989D01*
X99452949Y-49042970D01*
X99450500Y-49024365D01*
X99450500Y-46332262D01*
X99451280Y-46318378D01*
X99455270Y-46282966D01*
X99447002Y-46239271D01*
X99444635Y-46226761D01*
X99443864Y-46222220D01*
X99435348Y-46165713D01*
X99435347Y-46165711D01*
X99434448Y-46159744D01*
X99432842Y-46154861D01*
X99425622Y-46141202D01*
X99403296Y-46098961D01*
X99401241Y-46094892D01*
X99376425Y-46043358D01*
X99376423Y-46043356D01*
X99373807Y-46037923D01*
X99370827Y-46033723D01*
X99326165Y-45989062D01*
X99322946Y-45985721D01*
X99279958Y-45939391D01*
X99265067Y-45927964D01*
X98741368Y-45404265D01*
X98732102Y-45393897D01*
X98709879Y-45366030D01*
X98662608Y-45333800D01*
X98658870Y-45331148D01*
X98656214Y-45329188D01*
X98615026Y-45298789D01*
X98608035Y-45293629D01*
X98603424Y-45291302D01*
X98543049Y-45272679D01*
X98538644Y-45271230D01*
X98535060Y-45269976D01*
X98484699Y-45252354D01*
X98484698Y-45252353D01*
X98479023Y-45250368D01*
X98473914Y-45249500D01*
X98467902Y-45249500D01*
X98410738Y-45249500D01*
X98406101Y-45249413D01*
X98342970Y-45247050D01*
X98324365Y-45249500D01*
X93432262Y-45249500D01*
X93418379Y-45248720D01*
X93413926Y-45248218D01*
X93382964Y-45244729D01*
X93326784Y-45255358D01*
X93322219Y-45256134D01*
X93259761Y-45265549D01*
X93254834Y-45267170D01*
X93198964Y-45296699D01*
X93194825Y-45298789D01*
X93137949Y-45326179D01*
X93133708Y-45329188D01*
X93089046Y-45373849D01*
X93085709Y-45377063D01*
X93039394Y-45420037D01*
X93027968Y-45434926D01*
X92304264Y-46158631D01*
X92293898Y-46167895D01*
X92266031Y-46190118D01*
X92233824Y-46237356D01*
X92231144Y-46241132D01*
X92193633Y-46291959D01*
X92191301Y-46296578D01*
X92172674Y-46356966D01*
X92171225Y-46361369D01*
X92150369Y-46420973D01*
X92149500Y-46426090D01*
X92149500Y-46489262D01*
X92149413Y-46493899D01*
X92147050Y-46557029D01*
X92149500Y-46575635D01*
X92149500Y-49467738D01*
X92148720Y-49481622D01*
X92144729Y-49517034D01*
X92155356Y-49573194D01*
X92156130Y-49577751D01*
X92156990Y-49583451D01*
X92165550Y-49640248D01*
X92167163Y-49645148D01*
X92196687Y-49701010D01*
X92198777Y-49705150D01*
X92226184Y-49762060D01*
X92229183Y-49766287D01*
X92273845Y-49810949D01*
X92277062Y-49814288D01*
X92320043Y-49860611D01*
X92334930Y-49872034D01*
X92638630Y-50175733D01*
X92647896Y-50186101D01*
X92666842Y-50209859D01*
X92670121Y-50213970D01*
X92700640Y-50234777D01*
X92717364Y-50246180D01*
X92721141Y-50248860D01*
X92750460Y-50270499D01*
X92771973Y-50286376D01*
X92776568Y-50288695D01*
X92782325Y-50290470D01*
X92782327Y-50290472D01*
X92807351Y-50298190D01*
X92836980Y-50307330D01*
X92841371Y-50308774D01*
X92895301Y-50327646D01*
X92895302Y-50327646D01*
X92900989Y-50329636D01*
X92906073Y-50330500D01*
X92912098Y-50330500D01*
X92969262Y-50330500D01*
X92973899Y-50330587D01*
X93031010Y-50332724D01*
X93031010Y-50332723D01*
X93037029Y-50332949D01*
X93055635Y-50330500D01*
X93149470Y-50330500D01*
X93205765Y-50344015D01*
X93228869Y-50355787D01*
X93307825Y-50396017D01*
X93399265Y-50410500D01*
X93800734Y-50410499D01*
X93800737Y-50410499D01*
X93869314Y-50399637D01*
X93892175Y-50396017D01*
X94002391Y-50339859D01*
X94015625Y-50326625D01*
X94037819Y-50304432D01*
X94087182Y-50274182D01*
X94144898Y-50269640D01*
X94198385Y-50291795D01*
X94235985Y-50335818D01*
X94249500Y-50392113D01*
X94249500Y-54550788D01*
X94246861Y-54576234D01*
X94244957Y-54585314D01*
X94248548Y-54614123D01*
X94249458Y-54628795D01*
X94252665Y-54648013D01*
X94253403Y-54653078D01*
X94260351Y-54708809D01*
X94287081Y-54758202D01*
X94289421Y-54762747D01*
X94310802Y-54806484D01*
X94310803Y-54806485D01*
X94314084Y-54813196D01*
X94319581Y-54818256D01*
X94319582Y-54818258D01*
X94335628Y-54833029D01*
X94355399Y-54851230D01*
X94359097Y-54854779D01*
X94463496Y-54959178D01*
X94486699Y-54991355D01*
X94498553Y-55029212D01*
X94514834Y-55142457D01*
X94574623Y-55273374D01*
X94668870Y-55382141D01*
X94668872Y-55382143D01*
X94789947Y-55459953D01*
X94928039Y-55500500D01*
X95071961Y-55500500D01*
X95210053Y-55459953D01*
X95331128Y-55382143D01*
X95425377Y-55273373D01*
X95485165Y-55142457D01*
X95505647Y-55000000D01*
X95485165Y-54857543D01*
X95478275Y-54842457D01*
X95425376Y-54726625D01*
X95331129Y-54617858D01*
X95331128Y-54617857D01*
X95210053Y-54540047D01*
X95071961Y-54499500D01*
X95054854Y-54494477D01*
X95054919Y-54494253D01*
X95012500Y-54482887D01*
X94967113Y-54437500D01*
X94950500Y-54375500D01*
X94950500Y-52945544D01*
X94964015Y-52889249D01*
X95001615Y-52845226D01*
X95055102Y-52823071D01*
X95112818Y-52827613D01*
X95162181Y-52857863D01*
X96063181Y-53758863D01*
X96090061Y-53799091D01*
X96099500Y-53846544D01*
X96099500Y-60036260D01*
X96091682Y-60079593D01*
X96069213Y-60117462D01*
X95974623Y-60226625D01*
X95914834Y-60357542D01*
X95894353Y-60499999D01*
X95914834Y-60642457D01*
X95974623Y-60773374D01*
X95997695Y-60800000D01*
X96068872Y-60882143D01*
X96189947Y-60959953D01*
X96328039Y-61000500D01*
X96471961Y-61000500D01*
X96610053Y-60959953D01*
X96731128Y-60882143D01*
X96825377Y-60773373D01*
X96885165Y-60642457D01*
X96905647Y-60500000D01*
X96885165Y-60357543D01*
X96879390Y-60344898D01*
X96819676Y-60214143D01*
X96808319Y-60195002D01*
X96800500Y-60151668D01*
X96800500Y-53699212D01*
X96803139Y-53673766D01*
X96803364Y-53672687D01*
X96805043Y-53664685D01*
X96801452Y-53635877D01*
X96800541Y-53621213D01*
X96800500Y-53620967D01*
X96800500Y-53620960D01*
X96797330Y-53601965D01*
X96796595Y-53596919D01*
X96790573Y-53548607D01*
X96790572Y-53548605D01*
X96789648Y-53541191D01*
X96786092Y-53534620D01*
X96786092Y-53534619D01*
X96762913Y-53491788D01*
X96760579Y-53487253D01*
X96735915Y-53436801D01*
X96694588Y-53398757D01*
X96690890Y-53395209D01*
X95386819Y-52091137D01*
X95359939Y-52050909D01*
X95350500Y-52003456D01*
X95350500Y-51214014D01*
X95363616Y-51158509D01*
X95400190Y-51114747D01*
X95452484Y-51091984D01*
X95509432Y-51095036D01*
X95528039Y-51100500D01*
X95671961Y-51100500D01*
X95810053Y-51059953D01*
X95931128Y-50982143D01*
X96025377Y-50873373D01*
X96085165Y-50742457D01*
X96105647Y-50600000D01*
X96085165Y-50457543D01*
X96063680Y-50410499D01*
X96025376Y-50326625D01*
X95980787Y-50275166D01*
X95958318Y-50237297D01*
X95950500Y-50193964D01*
X95950500Y-49949212D01*
X95953139Y-49923766D01*
X95953364Y-49922687D01*
X95955043Y-49914685D01*
X95951452Y-49885877D01*
X95950500Y-49870540D01*
X95950500Y-49860685D01*
X95952573Y-49860685D01*
X95955574Y-49818593D01*
X95985695Y-49768854D01*
X96035179Y-49738315D01*
X96093143Y-49733692D01*
X96142294Y-49741476D01*
X96199265Y-49750500D01*
X96600734Y-49750499D01*
X96600737Y-49750499D01*
X96677665Y-49738315D01*
X96692175Y-49736017D01*
X96802391Y-49679859D01*
X96802391Y-49679858D01*
X96816945Y-49672443D01*
X96835660Y-49659939D01*
X96883113Y-49650500D01*
X98425500Y-49650500D01*
X98487500Y-49667113D01*
X98532887Y-49712500D01*
X98549500Y-49774500D01*
X98549500Y-63662035D01*
X98540061Y-63709488D01*
X98513181Y-63749716D01*
X97949716Y-64313181D01*
X97909488Y-64340061D01*
X97862035Y-64349500D01*
X92567902Y-64349500D01*
X92510738Y-64349500D01*
X92506101Y-64349413D01*
X92442970Y-64347050D01*
X92424365Y-64349500D01*
X83960074Y-64349500D01*
X83925139Y-64344477D01*
X83910054Y-64340047D01*
X83910053Y-64340047D01*
X83771961Y-64299500D01*
X83628039Y-64299500D01*
X83489947Y-64340047D01*
X83368870Y-64417858D01*
X83274623Y-64526625D01*
X83214834Y-64657542D01*
X83194353Y-64799999D01*
X61000500Y-64799999D01*
X61000500Y-43503051D01*
X61000649Y-43496967D01*
X61007998Y-43347372D01*
X61018010Y-43156327D01*
X61019176Y-43144679D01*
X61043801Y-42978671D01*
X61043929Y-42977842D01*
X61071290Y-42805093D01*
X61073463Y-42794438D01*
X61115016Y-42628551D01*
X61115406Y-42627043D01*
X61159870Y-42461105D01*
X61162880Y-42451469D01*
X61220867Y-42289405D01*
X61221830Y-42286810D01*
X61282836Y-42127883D01*
X61286466Y-42119395D01*
X61360400Y-41963076D01*
X61361912Y-41959997D01*
X61438909Y-41808881D01*
X61443010Y-41801474D01*
X61532078Y-41652873D01*
X61534354Y-41649225D01*
X61626523Y-41507298D01*
X61630860Y-41501055D01*
X61734170Y-41361757D01*
X61737331Y-41357679D01*
X61843698Y-41226325D01*
X61848123Y-41221162D01*
X61964674Y-41092568D01*
X61968793Y-41088242D01*
X62088242Y-40968793D01*
X62092568Y-40964674D01*
X62221162Y-40848123D01*
X62226325Y-40843698D01*
X62357679Y-40737331D01*
X62361757Y-40734170D01*
X62501055Y-40630860D01*
X62507298Y-40626523D01*
X62649225Y-40534354D01*
X62652873Y-40532078D01*
X62801474Y-40443010D01*
X62808881Y-40438909D01*
X62959997Y-40361912D01*
X62963076Y-40360400D01*
X63119395Y-40286466D01*
X63127883Y-40282836D01*
X63286847Y-40221816D01*
X63289405Y-40220867D01*
X63451469Y-40162880D01*
X63461105Y-40159870D01*
X63627043Y-40115406D01*
X63628551Y-40115016D01*
X63794438Y-40073463D01*
X63805093Y-40071290D01*
X63977842Y-40043929D01*
X63978671Y-40043801D01*
X64144679Y-40019176D01*
X64156325Y-40018010D01*
X64347402Y-40007996D01*
X64493747Y-40000807D01*
X64496968Y-40000649D01*
X64503051Y-40000500D01*
X70176000Y-40000500D01*
X70238000Y-40017113D01*
G37*
%TD.AperFunction*%
%TA.AperFunction,Conductor*%
G36*
X64288385Y-53086647D02*
G01*
X64325985Y-53130670D01*
X64339500Y-53186965D01*
X64339500Y-53757738D01*
X64338720Y-53771622D01*
X64334729Y-53807034D01*
X64342205Y-53846544D01*
X64345069Y-53861681D01*
X64345356Y-53863194D01*
X64346133Y-53867766D01*
X64355550Y-53930248D01*
X64357163Y-53935148D01*
X64386687Y-53991010D01*
X64388777Y-53995150D01*
X64416184Y-54052060D01*
X64419183Y-54056287D01*
X64463847Y-54100951D01*
X64467064Y-54104291D01*
X64510040Y-54150608D01*
X64524930Y-54162034D01*
X65658634Y-55295738D01*
X65667900Y-55306106D01*
X65690121Y-55333970D01*
X65737336Y-55366161D01*
X65741117Y-55368843D01*
X65791968Y-55406372D01*
X65796576Y-55408698D01*
X65802326Y-55410471D01*
X65802327Y-55410472D01*
X65857001Y-55427336D01*
X65861337Y-55428763D01*
X65915300Y-55447646D01*
X65915302Y-55447646D01*
X65920989Y-55449636D01*
X65926070Y-55450500D01*
X65932098Y-55450500D01*
X65989261Y-55450500D01*
X65993898Y-55450587D01*
X66051010Y-55452724D01*
X66051010Y-55452723D01*
X66057029Y-55452949D01*
X66075635Y-55450500D01*
X66577034Y-55450500D01*
X66624487Y-55459939D01*
X66664715Y-55486819D01*
X66733181Y-55555285D01*
X66760061Y-55595512D01*
X66769500Y-55642964D01*
X66769500Y-55703818D01*
X66784260Y-55797021D01*
X66784261Y-55797022D01*
X66841498Y-55909355D01*
X66894961Y-55962818D01*
X66930646Y-55998503D01*
X66973331Y-56020252D01*
X67007935Y-56046395D01*
X67035043Y-56075611D01*
X67049930Y-56087034D01*
X67458630Y-56495733D01*
X67467896Y-56506101D01*
X67490120Y-56533969D01*
X67537364Y-56566180D01*
X67541141Y-56568860D01*
X67586344Y-56602222D01*
X67591973Y-56606376D01*
X67596568Y-56608695D01*
X67602325Y-56610470D01*
X67602327Y-56610472D01*
X67627351Y-56618190D01*
X67656980Y-56627330D01*
X67661371Y-56628774D01*
X67715301Y-56647646D01*
X67715303Y-56647646D01*
X67720990Y-56649636D01*
X67726071Y-56650500D01*
X67732098Y-56650500D01*
X67789246Y-56650500D01*
X67793883Y-56650586D01*
X67851010Y-56652725D01*
X67851010Y-56652724D01*
X67857026Y-56652950D01*
X67875638Y-56650500D01*
X68567738Y-56650500D01*
X68581622Y-56651280D01*
X68617033Y-56655270D01*
X68617033Y-56655269D01*
X68617035Y-56655270D01*
X68673228Y-56644636D01*
X68677726Y-56643872D01*
X68734287Y-56635348D01*
X68734288Y-56635347D01*
X68740268Y-56634446D01*
X68745128Y-56632846D01*
X68750467Y-56630023D01*
X68750472Y-56630023D01*
X68801045Y-56603292D01*
X68805136Y-56601227D01*
X68856642Y-56576425D01*
X68856644Y-56576422D01*
X68862078Y-56573806D01*
X68866271Y-56570831D01*
X68870533Y-56566568D01*
X68870538Y-56566566D01*
X68911001Y-56526101D01*
X68914259Y-56522962D01*
X68956194Y-56484055D01*
X68956195Y-56484053D01*
X68960613Y-56479954D01*
X68972033Y-56465069D01*
X69715744Y-55721357D01*
X69726093Y-55712109D01*
X69753970Y-55689879D01*
X69786191Y-55642618D01*
X69788859Y-55638859D01*
X69822793Y-55592882D01*
X69822794Y-55592877D01*
X69826381Y-55588018D01*
X69828692Y-55583441D01*
X69830470Y-55577675D01*
X69830472Y-55577673D01*
X69847330Y-55523014D01*
X69848775Y-55518626D01*
X69859906Y-55486819D01*
X69867646Y-55464699D01*
X69867646Y-55464697D01*
X69869637Y-55459008D01*
X69870500Y-55453930D01*
X69870500Y-55390738D01*
X69870587Y-55386101D01*
X69871333Y-55366161D01*
X69872724Y-55328990D01*
X69872723Y-55328989D01*
X69872949Y-55322970D01*
X69870500Y-55304365D01*
X69870500Y-55150530D01*
X69884015Y-55094235D01*
X69903480Y-55056032D01*
X69936017Y-54992175D01*
X69950500Y-54900735D01*
X69950499Y-54499266D01*
X69950499Y-54499265D01*
X69950499Y-54499262D01*
X69936017Y-54407825D01*
X69879859Y-54297608D01*
X69806819Y-54224568D01*
X69779939Y-54184340D01*
X69770500Y-54136887D01*
X69770500Y-53218500D01*
X69787113Y-53156500D01*
X69832500Y-53111113D01*
X69894500Y-53094500D01*
X69936000Y-53094500D01*
X69998000Y-53111113D01*
X70043387Y-53156500D01*
X70060000Y-53218500D01*
X70060000Y-53650000D01*
X70091500Y-53650000D01*
X70153500Y-53666613D01*
X70198887Y-53712000D01*
X70215500Y-53774000D01*
X70215500Y-53868675D01*
X70230033Y-53941738D01*
X70230033Y-53941739D01*
X70230034Y-53941740D01*
X70285399Y-54024601D01*
X70368260Y-54079966D01*
X70390189Y-54084328D01*
X70441325Y-54094500D01*
X70441326Y-54094500D01*
X70690673Y-54094500D01*
X70690674Y-54094500D01*
X70741811Y-54084328D01*
X70790189Y-54084328D01*
X70841326Y-54094500D01*
X70891500Y-54094500D01*
X70953500Y-54111113D01*
X70998887Y-54156500D01*
X71015500Y-54218500D01*
X71015500Y-58233203D01*
X71007682Y-58276537D01*
X70985214Y-58314404D01*
X70976724Y-58324202D01*
X70974622Y-58326628D01*
X70914834Y-58457542D01*
X70894353Y-58600000D01*
X70914834Y-58742457D01*
X70974623Y-58873374D01*
X71068870Y-58982141D01*
X71068872Y-58982143D01*
X71189947Y-59059953D01*
X71328039Y-59100500D01*
X71471961Y-59100500D01*
X71610053Y-59059953D01*
X71731128Y-58982143D01*
X71825377Y-58873373D01*
X71863872Y-58789081D01*
X71892572Y-58726239D01*
X71896564Y-58728062D01*
X71910354Y-58697100D01*
X71966343Y-58658934D01*
X72034034Y-58655898D01*
X72093215Y-58688897D01*
X72143181Y-58738863D01*
X72170061Y-58779091D01*
X72179500Y-58826544D01*
X72179500Y-59021585D01*
X72190417Y-59096518D01*
X72246922Y-59212101D01*
X72337898Y-59303077D01*
X72453481Y-59359582D01*
X72528415Y-59370500D01*
X72528418Y-59370500D01*
X72871582Y-59370500D01*
X72871585Y-59370500D01*
X72946518Y-59359582D01*
X73062101Y-59303077D01*
X73122319Y-59242860D01*
X73177906Y-59210766D01*
X73242094Y-59210766D01*
X73297681Y-59242860D01*
X73357898Y-59303077D01*
X73473481Y-59359582D01*
X73548415Y-59370500D01*
X73548418Y-59370500D01*
X73708101Y-59370500D01*
X73755554Y-59379939D01*
X73795782Y-59406819D01*
X74626781Y-60237819D01*
X74657031Y-60287182D01*
X74661573Y-60344898D01*
X74639418Y-60398385D01*
X74595395Y-60435985D01*
X74539100Y-60449500D01*
X64360148Y-60449500D01*
X64312695Y-60440061D01*
X64272467Y-60413181D01*
X63668618Y-59809332D01*
X63064626Y-59205341D01*
X63038319Y-59166473D01*
X63028343Y-59120610D01*
X63036126Y-59074327D01*
X63044412Y-59052114D01*
X63050500Y-58995485D01*
X63050499Y-58404516D01*
X63044412Y-58347886D01*
X63031924Y-58314406D01*
X62996628Y-58219774D01*
X62914687Y-58110312D01*
X62850190Y-58062031D01*
X62813616Y-58018269D01*
X62800500Y-57962764D01*
X62800500Y-54477966D01*
X62809939Y-54430513D01*
X62836819Y-54390285D01*
X63472502Y-53754602D01*
X64127819Y-53099283D01*
X64177182Y-53069034D01*
X64234898Y-53064492D01*
X64288385Y-53086647D01*
G37*
%TD.AperFunction*%
%TA.AperFunction,Conductor*%
G36*
X72278818Y-55911613D02*
G01*
X72328181Y-55941863D01*
X72499361Y-56113043D01*
X72515489Y-56132903D01*
X72520563Y-56140669D01*
X72543473Y-56158500D01*
X72554496Y-56168235D01*
X72570355Y-56179558D01*
X72574464Y-56182622D01*
X72618771Y-56217107D01*
X72625932Y-56219239D01*
X72625934Y-56219240D01*
X72672614Y-56233137D01*
X72677461Y-56234690D01*
X72707891Y-56245137D01*
X72763739Y-56284070D01*
X72790616Y-56346619D01*
X72780421Y-56413930D01*
X72714834Y-56557542D01*
X72694353Y-56700000D01*
X72714834Y-56842457D01*
X72774623Y-56973374D01*
X72830363Y-57037702D01*
X72849923Y-57068454D01*
X72859697Y-57103563D01*
X72860351Y-57108809D01*
X72887081Y-57158202D01*
X72889421Y-57162747D01*
X72910802Y-57206484D01*
X72910803Y-57206485D01*
X72914084Y-57213196D01*
X72919581Y-57218256D01*
X72919582Y-57218258D01*
X72931350Y-57229091D01*
X72955399Y-57251230D01*
X72959097Y-57254779D01*
X73017361Y-57313043D01*
X73033489Y-57332903D01*
X73038563Y-57340670D01*
X73061469Y-57358498D01*
X73072488Y-57368228D01*
X73072690Y-57368372D01*
X73072693Y-57368375D01*
X73088332Y-57379540D01*
X73092446Y-57382607D01*
X73136770Y-57417106D01*
X73143933Y-57419238D01*
X73143934Y-57419239D01*
X73190612Y-57433135D01*
X73195438Y-57434681D01*
X73241512Y-57450500D01*
X73241514Y-57450500D01*
X73248577Y-57452925D01*
X73256043Y-57452616D01*
X73256046Y-57452617D01*
X73304668Y-57450605D01*
X73309792Y-57450500D01*
X74933960Y-57450500D01*
X74981413Y-57459939D01*
X75021641Y-57486819D01*
X75057140Y-57522318D01*
X75089234Y-57577905D01*
X75089234Y-57642092D01*
X75057141Y-57697680D01*
X74996922Y-57757899D01*
X74940417Y-57873481D01*
X74929500Y-57948415D01*
X74929500Y-58291585D01*
X74940417Y-58366518D01*
X74996922Y-58482101D01*
X75087898Y-58573077D01*
X75203481Y-58629582D01*
X75278415Y-58640500D01*
X75278418Y-58640500D01*
X75438101Y-58640500D01*
X75485554Y-58649939D01*
X75525782Y-58676819D01*
X76461782Y-59612819D01*
X76492032Y-59662182D01*
X76496574Y-59719898D01*
X76474419Y-59773385D01*
X76430396Y-59810985D01*
X76374101Y-59824500D01*
X75326899Y-59824500D01*
X75279446Y-59815061D01*
X75239218Y-59788181D01*
X74276819Y-58825781D01*
X74249939Y-58785553D01*
X74240500Y-58738100D01*
X74240500Y-58578415D01*
X74229582Y-58503481D01*
X74173077Y-58387898D01*
X74082101Y-58296922D01*
X73966518Y-58240417D01*
X73891585Y-58229500D01*
X73891582Y-58229500D01*
X73548418Y-58229500D01*
X73548415Y-58229500D01*
X73473481Y-58240417D01*
X73357898Y-58296922D01*
X73297681Y-58357140D01*
X73242094Y-58389234D01*
X73177906Y-58389234D01*
X73122319Y-58357140D01*
X73062101Y-58296922D01*
X72946518Y-58240417D01*
X72871585Y-58229500D01*
X72871582Y-58229500D01*
X72676544Y-58229500D01*
X72629091Y-58220061D01*
X72588863Y-58193181D01*
X72152819Y-57757137D01*
X72125939Y-57716909D01*
X72116500Y-57669456D01*
X72116500Y-56029544D01*
X72130015Y-55973249D01*
X72167615Y-55929226D01*
X72221102Y-55907071D01*
X72278818Y-55911613D01*
G37*
%TD.AperFunction*%
%TA.AperFunction,Conductor*%
G36*
X76232818Y-56847613D02*
G01*
X76282181Y-56877863D01*
X76593181Y-57188863D01*
X76620061Y-57229091D01*
X76626785Y-57262896D01*
X76628204Y-57262690D01*
X76640417Y-57346518D01*
X76696922Y-57462101D01*
X76757140Y-57522319D01*
X76789234Y-57577906D01*
X76789234Y-57642094D01*
X76757140Y-57697681D01*
X76696922Y-57757898D01*
X76640417Y-57873481D01*
X76629500Y-57948415D01*
X76629500Y-58291585D01*
X76640417Y-58366515D01*
X76661115Y-58408854D01*
X76672999Y-58476615D01*
X76646934Y-58540283D01*
X76590945Y-58580258D01*
X76522264Y-58584238D01*
X76462033Y-58550995D01*
X76106819Y-58195781D01*
X76079939Y-58155553D01*
X76070500Y-58108100D01*
X76070500Y-57948415D01*
X76059582Y-57873481D01*
X76003077Y-57757898D01*
X75942860Y-57697681D01*
X75910766Y-57642094D01*
X75910766Y-57577906D01*
X75942860Y-57522319D01*
X76003077Y-57462101D01*
X76059582Y-57346518D01*
X76070500Y-57271585D01*
X76070500Y-56965544D01*
X76084015Y-56909249D01*
X76121615Y-56865226D01*
X76175102Y-56843071D01*
X76232818Y-56847613D01*
G37*
%TD.AperFunction*%
%TA.AperFunction,Conductor*%
G36*
X75650909Y-56259939D02*
G01*
X75691137Y-56286819D01*
X75772137Y-56367819D01*
X75802387Y-56417182D01*
X75806929Y-56474898D01*
X75784774Y-56528385D01*
X75740751Y-56565985D01*
X75684456Y-56579500D01*
X75278415Y-56579500D01*
X75203481Y-56590417D01*
X75087900Y-56646921D01*
X75054771Y-56680050D01*
X75021638Y-56713183D01*
X74981413Y-56740061D01*
X74933960Y-56749500D01*
X73820211Y-56749500D01*
X73763391Y-56735716D01*
X73719203Y-56697427D01*
X73697473Y-56643147D01*
X73685165Y-56557542D01*
X73625096Y-56426012D01*
X73614206Y-56365655D01*
X73633574Y-56307461D01*
X73678463Y-56265668D01*
X73737890Y-56250500D01*
X75603456Y-56250500D01*
X75650909Y-56259939D01*
G37*
%TD.AperFunction*%
%TA.AperFunction,Conductor*%
G36*
X77000909Y-55809939D02*
G01*
X77041137Y-55836819D01*
X77581327Y-56377009D01*
X77612636Y-56429800D01*
X77614792Y-56491139D01*
X77587268Y-56545998D01*
X77536805Y-56580937D01*
X77475769Y-56587394D01*
X77421582Y-56579500D01*
X77026544Y-56579500D01*
X76979091Y-56570061D01*
X76938863Y-56543181D01*
X76407863Y-56012181D01*
X76377613Y-55962818D01*
X76373071Y-55905102D01*
X76395226Y-55851615D01*
X76439249Y-55814015D01*
X76495544Y-55800500D01*
X76953456Y-55800500D01*
X77000909Y-55809939D01*
G37*
%TD.AperFunction*%
%TA.AperFunction,Conductor*%
G36*
X66339765Y-53024015D02*
G01*
X66377575Y-53043280D01*
X66441825Y-53076017D01*
X66533265Y-53090500D01*
X66934734Y-53090499D01*
X66934737Y-53090499D01*
X66980454Y-53083257D01*
X67026175Y-53076017D01*
X67128234Y-53024014D01*
X67184529Y-53010500D01*
X67283470Y-53010500D01*
X67339765Y-53024015D01*
X67377575Y-53043280D01*
X67441825Y-53076017D01*
X67533265Y-53090500D01*
X67597381Y-53090499D01*
X67649293Y-53101889D01*
X67691670Y-53133967D01*
X67716724Y-53180840D01*
X67719853Y-53233897D01*
X67709500Y-53299262D01*
X67709500Y-53700737D01*
X67723982Y-53792174D01*
X67789057Y-53919891D01*
X67788317Y-53920267D01*
X67807160Y-53952899D01*
X67807164Y-54017086D01*
X67788317Y-54049733D01*
X67789057Y-54050110D01*
X67723982Y-54177826D01*
X67709500Y-54269262D01*
X67709500Y-54670737D01*
X67723982Y-54762175D01*
X67726444Y-54767006D01*
X67739576Y-54833029D01*
X67716275Y-54896184D01*
X67663411Y-54937859D01*
X67596561Y-54945771D01*
X67493826Y-54929500D01*
X67493823Y-54929500D01*
X67432965Y-54929500D01*
X67385512Y-54920061D01*
X67345284Y-54893181D01*
X67156368Y-54704265D01*
X67147102Y-54693897D01*
X67124879Y-54666030D01*
X67077608Y-54633800D01*
X67073870Y-54631148D01*
X67023035Y-54593629D01*
X67018424Y-54591302D01*
X66999014Y-54585315D01*
X66958045Y-54572677D01*
X66953644Y-54571230D01*
X66931978Y-54563649D01*
X66899699Y-54552354D01*
X66899698Y-54552353D01*
X66894023Y-54550368D01*
X66888914Y-54549500D01*
X66882902Y-54549500D01*
X66825738Y-54549500D01*
X66821101Y-54549413D01*
X66757970Y-54547050D01*
X66739365Y-54549500D01*
X66237965Y-54549500D01*
X66190512Y-54540061D01*
X66150284Y-54513181D01*
X65276819Y-53639716D01*
X65249939Y-53599488D01*
X65240500Y-53552035D01*
X65240500Y-53175787D01*
X65256310Y-53115198D01*
X65299710Y-53070060D01*
X65359631Y-53051883D01*
X65420794Y-53065302D01*
X65441824Y-53076017D01*
X65463021Y-53079374D01*
X65533265Y-53090500D01*
X65934734Y-53090499D01*
X65934737Y-53090499D01*
X65980454Y-53083257D01*
X66026175Y-53076017D01*
X66128234Y-53024014D01*
X66184529Y-53010500D01*
X66283470Y-53010500D01*
X66339765Y-53024015D01*
G37*
%TD.AperFunction*%
%TA.AperFunction,Conductor*%
G36*
X68342965Y-50178647D02*
G01*
X68721359Y-50557040D01*
X68737487Y-50576900D01*
X68742563Y-50584670D01*
X68765473Y-50602501D01*
X68776488Y-50612228D01*
X68792349Y-50623553D01*
X68796456Y-50626616D01*
X68840771Y-50661108D01*
X68894593Y-50677131D01*
X68899437Y-50678682D01*
X68945512Y-50694500D01*
X68945515Y-50694500D01*
X68952579Y-50696925D01*
X68960044Y-50696616D01*
X68960046Y-50696617D01*
X69008678Y-50694606D01*
X69013802Y-50694500D01*
X69936000Y-50694500D01*
X69998000Y-50711113D01*
X70043387Y-50756500D01*
X70060000Y-50818500D01*
X70060000Y-51069500D01*
X70043387Y-51131500D01*
X69998000Y-51176887D01*
X69936000Y-51193500D01*
X68799212Y-51193500D01*
X68773766Y-51190861D01*
X68764685Y-51188957D01*
X68735877Y-51192548D01*
X68721201Y-51193458D01*
X68701961Y-51196668D01*
X68696903Y-51197405D01*
X68641189Y-51204351D01*
X68591813Y-51231072D01*
X68587261Y-51233415D01*
X68536804Y-51258082D01*
X68498780Y-51299387D01*
X68495233Y-51303083D01*
X67805135Y-51993181D01*
X67764907Y-52020061D01*
X67717455Y-52029500D01*
X67533262Y-52029500D01*
X67441827Y-52043982D01*
X67441825Y-52043982D01*
X67441825Y-52043983D01*
X67349281Y-52091137D01*
X67339766Y-52095985D01*
X67283471Y-52109500D01*
X67184530Y-52109500D01*
X67128235Y-52095985D01*
X67026173Y-52043982D01*
X66934737Y-52029500D01*
X66533262Y-52029500D01*
X66441827Y-52043982D01*
X66441825Y-52043982D01*
X66441825Y-52043983D01*
X66349281Y-52091137D01*
X66339766Y-52095985D01*
X66283471Y-52109500D01*
X66184530Y-52109500D01*
X66128235Y-52095985D01*
X66026173Y-52043982D01*
X65934737Y-52029500D01*
X65533262Y-52029500D01*
X65441827Y-52043982D01*
X65441825Y-52043982D01*
X65441825Y-52043983D01*
X65420792Y-52054699D01*
X65359632Y-52068118D01*
X65299710Y-52049941D01*
X65256310Y-52004803D01*
X65240500Y-51944214D01*
X65240500Y-50355787D01*
X65256310Y-50295198D01*
X65299710Y-50250060D01*
X65359631Y-50231883D01*
X65420794Y-50245302D01*
X65441824Y-50256017D01*
X65463021Y-50259374D01*
X65533265Y-50270500D01*
X65934734Y-50270499D01*
X65934737Y-50270499D01*
X65980454Y-50263258D01*
X66026175Y-50256017D01*
X66128234Y-50204014D01*
X66184529Y-50190500D01*
X66283470Y-50190500D01*
X66339765Y-50204015D01*
X66351235Y-50209859D01*
X66441825Y-50256017D01*
X66533265Y-50270500D01*
X66934734Y-50270499D01*
X66934737Y-50270499D01*
X66980454Y-50263258D01*
X67026175Y-50256017D01*
X67128234Y-50204014D01*
X67184529Y-50190500D01*
X67263844Y-50190500D01*
X67320139Y-50204015D01*
X67331609Y-50209859D01*
X67441825Y-50266017D01*
X67533265Y-50280500D01*
X67934734Y-50280499D01*
X67934737Y-50280499D01*
X68004183Y-50269500D01*
X68026175Y-50266017D01*
X68136391Y-50209859D01*
X68167602Y-50178648D01*
X68223190Y-50146553D01*
X68287377Y-50146553D01*
X68342965Y-50178647D01*
G37*
%TD.AperFunction*%
%TA.AperFunction,Conductor*%
G36*
X68486491Y-47971975D02*
G01*
X68511636Y-47998819D01*
X68513752Y-47996704D01*
X68615106Y-48098058D01*
X68615108Y-48098059D01*
X68725324Y-48154217D01*
X68816764Y-48168700D01*
X69000954Y-48168699D01*
X69048406Y-48178138D01*
X69088635Y-48205018D01*
X69679181Y-48795564D01*
X69706061Y-48835792D01*
X69715500Y-48883245D01*
X69715500Y-49180733D01*
X69710161Y-49216727D01*
X69694603Y-49249622D01*
X69630034Y-49346259D01*
X69615500Y-49419325D01*
X69615500Y-49450456D01*
X69601985Y-49506751D01*
X69564385Y-49550774D01*
X69510898Y-49572929D01*
X69453182Y-49568387D01*
X69403819Y-49538137D01*
X68782638Y-48916956D01*
X68766509Y-48897094D01*
X68761437Y-48889330D01*
X68738533Y-48871504D01*
X68727508Y-48861768D01*
X68711653Y-48850448D01*
X68707544Y-48847384D01*
X68663229Y-48812892D01*
X68609409Y-48796869D01*
X68604531Y-48795306D01*
X68551421Y-48777074D01*
X68495332Y-48779394D01*
X68490208Y-48779500D01*
X67496544Y-48779500D01*
X67449091Y-48770061D01*
X67408863Y-48743181D01*
X67192220Y-48526538D01*
X67165340Y-48486310D01*
X67155901Y-48438857D01*
X67155901Y-48097251D01*
X67173542Y-48033503D01*
X67221447Y-47987893D01*
X67285984Y-47973400D01*
X67348789Y-47994147D01*
X67396859Y-48026266D01*
X67433241Y-48033503D01*
X67469924Y-48040800D01*
X67469925Y-48040800D01*
X68205073Y-48040800D01*
X68205074Y-48040800D01*
X68229428Y-48035955D01*
X68278139Y-48026266D01*
X68354207Y-47975439D01*
X68419846Y-47954586D01*
X68486491Y-47971975D01*
G37*
%TD.AperFunction*%
%TD*%
M02*
