M48
; DRILL file {KiCad 7.0.1} date Thu Feb 15 14:31:55 2024
; FORMAT={-:-/ absolute / inch / decimal}
; #@! TF.CreationDate,2024-02-15T14:31:55+01:00
; #@! TF.GenerationSoftware,Kicad,Pcbnew,7.0.1
; #@! TF.FileFunction,Plated,1,4,PTH
FMAT,2
INCH
; #@! TA.AperFunction,Plated,PTH,ViaDrill
T1C0.0098
%
G90
G05
T1
X2.4409Y-1.811
X2.4409Y-1.8898
X2.4409Y-1.9685
X2.4409Y-2.0472
X2.4409Y-2.4409
X2.5Y-2.2441
X2.5154Y-2.0236
X2.5193Y-2.126
X2.5197Y-1.811
X2.5197Y-2.4409
X2.598Y-2.2835
X2.598Y-2.3622
X2.5984Y-1.811
X2.5984Y-2.4409
X2.6079Y-2.0146
X2.6177Y-2.122
X2.6472Y-2.0146
X2.6654Y-1.5866
X2.6654Y-1.6102
X2.6654Y-1.6339
X2.6654Y-1.6575
X2.6654Y-1.6811
X2.6654Y-1.7047
X2.6654Y-1.7283
X2.6768Y-2.2835
X2.6768Y-2.3622
X2.6772Y-1.811
X2.6772Y-2.4409
X2.689Y-1.5866
X2.689Y-1.6102
X2.689Y-1.6339
X2.689Y-1.6575
X2.689Y-1.6811
X2.689Y-1.7047
X2.689Y-1.7283
X2.7126Y-1.5866
X2.7126Y-1.6102
X2.7126Y-1.6339
X2.7126Y-1.6575
X2.7126Y-1.6811
X2.7126Y-1.7047
X2.7126Y-1.7283
X2.7362Y-1.5866
X2.7362Y-1.6102
X2.7362Y-1.6339
X2.7362Y-1.6575
X2.7362Y-1.6811
X2.7362Y-1.7047
X2.7362Y-1.7283
X2.752Y-2.2205
X2.7559Y-2.2835
X2.7559Y-2.3622
X2.7559Y-2.4409
X2.7579Y-1.7717
X2.7579Y-1.8189
X2.7579Y-1.8425
X2.7579Y-1.8661
X2.7583Y-1.748
X2.7583Y-1.7953
X2.7764Y-1.9012
X2.7807Y-1.7598
X2.7807Y-1.7835
X2.7807Y-1.8071
X2.7807Y-1.8307
X2.7807Y-1.8543
X2.7807Y-1.878
X2.7949Y-2.0472
X2.7949Y-2.0827
X2.811Y-2.3071
X2.8303Y-2.0472
X2.8303Y-2.0827
X2.8346Y-2.3622
X2.8346Y-2.4409
X2.8382Y-1.7598
X2.8382Y-1.7835
X2.8382Y-1.8071
X2.8382Y-1.8307
X2.8382Y-1.8543
X2.8382Y-1.878
X2.8382Y-1.9016
X2.8622Y-1.7717
X2.8622Y-1.8189
X2.8622Y-1.8425
X2.8622Y-1.8661
X2.8622Y-2.2598
X2.8626Y-1.748
X2.8626Y-1.7953
X2.8657Y-2.0472
X2.8657Y-2.0827
X2.8815Y-2.1535
X2.8819Y-2.2323
X2.8858Y-1.5866
X2.8858Y-1.6102
X2.8858Y-1.6339
X2.8858Y-1.6575
X2.8858Y-1.6811
X2.8858Y-1.7047
X2.8858Y-1.7283
X2.9012Y-2.0472
X2.9012Y-2.0827
X2.9094Y-1.5866
X2.9094Y-1.6102
X2.9094Y-1.6339
X2.9094Y-1.6575
X2.9094Y-1.6811
X2.9094Y-1.7047
X2.9094Y-1.7283
X2.913Y-1.811
X2.9134Y-2.4409
X2.9331Y-1.5866
X2.9331Y-1.6102
X2.9331Y-1.6339
X2.9331Y-1.6575
X2.9331Y-1.6811
X2.9331Y-1.7047
X2.9331Y-1.7283
X2.9331Y-2.2244
X2.9543Y-1.8878
X2.9567Y-1.5866
X2.9567Y-1.6102
X2.9567Y-1.6339
X2.9567Y-1.6575
X2.9567Y-1.6811
X2.9567Y-1.7047
X2.9567Y-1.7283
X2.9882Y-2.1535
X2.9917Y-1.8898
X2.9921Y-1.9685
X2.9921Y-2.0472
X3.0039Y-2.2677
X3.0197Y-2.126
X3.0315Y-2.2126
X3.0705Y-1.6535
X3.0705Y-1.7323
X3.0705Y-1.8898
X3.1492Y-1.6535
X3.1492Y-1.7323
X3.1492Y-1.811
X3.1496Y-2.126
X3.1496Y-2.2047
X3.1496Y-2.5984
X3.1929Y-2.3425
X3.228Y-1.6535
X3.228Y-1.7323
X3.228Y-1.811
X3.2283Y-2.126
X3.2677Y-2.3976
X3.2953Y-2.5512
X3.3071Y-1.6535
X3.3071Y-1.7323
X3.3071Y-1.811
X3.3071Y-2.126
X3.3071Y-2.8346
X3.3465Y-2.3661
X3.3504Y-1.8858
X3.3504Y-2.0512
X3.3858Y-1.6535
X3.3858Y-1.7323
X3.3858Y-1.811
X3.3858Y-2.126
X3.3858Y-2.5984
X3.3858Y-2.6772
X3.3937Y-2.185
X3.4094Y-2.935
X3.4133Y-2.74
X3.4133Y-2.7912
X3.4291Y-2.3661
X3.4646Y-1.6535
X3.4646Y-1.7323
X3.4646Y-1.811
X3.4646Y-2.126
X3.4646Y-2.5984
X3.4646Y-2.6772
X3.5039Y-2.7087
X3.5039Y-2.3622
X3.5039Y-2.9528
X3.5433Y-1.6535
X3.5433Y-1.7323
X3.5433Y-1.811
X3.5433Y-1.8898
X3.5433Y-1.9685
X3.5433Y-2.0472
X3.5433Y-2.5984
X3.5433Y-2.6772
X3.5669Y-2.185
X3.5826Y-2.7164
X3.5827Y-2.3937
X3.622Y-1.6535
X3.622Y-1.7323
X3.622Y-2.0472
X3.622Y-2.126
X3.6772Y-2.9646
X3.685Y-1.8937
X3.689Y-2.752
X3.689Y-2.815
X3.7008Y-1.6535
X3.7008Y-1.7323
X3.7008Y-2.5984
X3.7008Y-2.6772
X3.7402Y-2.1654
X3.7402Y-2.3622
X3.7598Y-2.1142
X3.7638Y-1.9921
X3.7795Y-1.6535
X3.7795Y-1.7323
X3.7795Y-2.9803
X3.7953Y-2.0079
X3.7953Y-2.3819
X3.8386Y-2.3622
X3.8386Y-2.5157
X3.8425Y-2.4291
X3.8425Y-2.6378
X3.8583Y-1.6535
X3.8583Y-1.7323
X3.8583Y-1.8622
X3.8583Y-1.9685
X3.8583Y-2.0472
X3.8583Y-2.126
X3.8583Y-2.2047
X3.8583Y-2.2835
X3.8583Y-2.6772
X3.8583Y-2.9134
X3.8583Y-2.9803
X3.937Y-1.8898
X3.937Y-1.9685
X3.937Y-2.0472
X3.937Y-2.126
X3.937Y-2.2047
X3.937Y-2.2835
X3.937Y-2.3622
X3.937Y-2.4409
X3.937Y-2.5197
X3.937Y-2.5984
X3.937Y-2.6772
X3.937Y-2.7559
X3.937Y-2.8346
X3.937Y-2.9134
T0
M30
