%TF.GenerationSoftware,KiCad,Pcbnew,7.0.1*%
%TF.CreationDate,2023-06-15T11:30:52+02:00*%
%TF.ProjectId,USB-PCB-bridge,5553422d-5043-4422-9d62-72696467652e,rev?*%
%TF.SameCoordinates,Original*%
%TF.FileFunction,Legend,Bot*%
%TF.FilePolarity,Positive*%
%FSLAX46Y46*%
G04 Gerber Fmt 4.6, Leading zero omitted, Abs format (unit mm)*
G04 Created by KiCad (PCBNEW 7.0.1) date 2023-06-15 11:30:52*
%MOMM*%
%LPD*%
G01*
G04 APERTURE LIST*
%ADD10C,0.000000*%
%ADD11C,0.150000*%
%ADD12C,0.100000*%
G04 APERTURE END LIST*
D10*
G36*
X106304221Y-113601037D02*
G01*
X106312713Y-113601682D01*
X106321082Y-113602746D01*
X106329316Y-113604216D01*
X106337406Y-113606083D01*
X106345341Y-113608337D01*
X106353111Y-113610966D01*
X106360705Y-113613960D01*
X106368112Y-113617308D01*
X106375322Y-113621001D01*
X106382324Y-113625028D01*
X106389109Y-113629377D01*
X106395665Y-113634039D01*
X106401982Y-113639003D01*
X106408049Y-113644259D01*
X106413856Y-113649796D01*
X106419393Y-113655603D01*
X106424649Y-113661670D01*
X106429613Y-113667987D01*
X106434275Y-113674543D01*
X106438625Y-113681328D01*
X106442651Y-113688330D01*
X106446344Y-113695540D01*
X106449692Y-113702947D01*
X106452687Y-113710541D01*
X106455315Y-113718311D01*
X106457569Y-113726246D01*
X106459436Y-113734336D01*
X106460906Y-113742570D01*
X106461970Y-113750939D01*
X106462616Y-113759431D01*
X106462833Y-113768036D01*
X106462616Y-113776641D01*
X106461970Y-113785133D01*
X106460906Y-113793501D01*
X106459436Y-113801736D01*
X106457569Y-113809826D01*
X106455315Y-113817761D01*
X106452687Y-113825530D01*
X106449692Y-113833124D01*
X106446344Y-113840531D01*
X106442651Y-113847741D01*
X106438625Y-113854744D01*
X106434275Y-113861528D01*
X106429613Y-113868084D01*
X106424649Y-113874401D01*
X106419393Y-113880468D01*
X106413856Y-113886276D01*
X106408049Y-113891812D01*
X106401982Y-113897068D01*
X106395665Y-113902032D01*
X106389109Y-113906694D01*
X106382324Y-113911044D01*
X106375322Y-113915070D01*
X106368112Y-113918763D01*
X106360705Y-113922112D01*
X106353111Y-113925106D01*
X106345341Y-113927735D01*
X106337406Y-113929988D01*
X106329316Y-113931855D01*
X106321082Y-113933326D01*
X106312713Y-113934389D01*
X106304221Y-113935035D01*
X106295616Y-113935252D01*
X106287011Y-113935035D01*
X106278519Y-113934389D01*
X106270151Y-113933326D01*
X106261916Y-113931855D01*
X106253826Y-113929988D01*
X106245891Y-113927735D01*
X106238122Y-113925106D01*
X106230528Y-113922112D01*
X106223121Y-113918763D01*
X106215911Y-113915070D01*
X106208908Y-113911044D01*
X106202124Y-113906694D01*
X106195568Y-113902032D01*
X106189251Y-113897068D01*
X106183184Y-113891812D01*
X106177376Y-113886276D01*
X106171839Y-113880468D01*
X106166584Y-113874401D01*
X106161620Y-113868084D01*
X106156958Y-113861528D01*
X106152608Y-113854744D01*
X106148582Y-113847741D01*
X106144889Y-113840531D01*
X106141540Y-113833124D01*
X106138546Y-113825530D01*
X106135917Y-113817761D01*
X106133664Y-113809826D01*
X106131797Y-113801736D01*
X106130326Y-113793501D01*
X106129263Y-113785133D01*
X106128617Y-113776641D01*
X106128399Y-113768036D01*
X106128617Y-113759431D01*
X106129263Y-113750939D01*
X106130326Y-113742570D01*
X106131797Y-113734336D01*
X106133664Y-113726246D01*
X106135917Y-113718311D01*
X106138546Y-113710541D01*
X106141540Y-113702947D01*
X106144889Y-113695540D01*
X106148582Y-113688330D01*
X106152608Y-113681328D01*
X106156958Y-113674543D01*
X106161620Y-113667987D01*
X106166584Y-113661670D01*
X106171839Y-113655603D01*
X106177376Y-113649796D01*
X106183184Y-113644259D01*
X106189251Y-113639003D01*
X106195568Y-113634039D01*
X106202124Y-113629377D01*
X106208908Y-113625028D01*
X106215911Y-113621001D01*
X106223121Y-113617308D01*
X106230528Y-113613960D01*
X106238122Y-113610966D01*
X106245891Y-113608337D01*
X106253826Y-113606083D01*
X106261916Y-113604216D01*
X106270151Y-113602746D01*
X106278519Y-113601682D01*
X106287011Y-113601037D01*
X106295616Y-113600819D01*
X106304221Y-113601037D01*
G37*
G36*
X106311325Y-112718530D02*
G01*
X106327060Y-112720381D01*
X106342498Y-112723416D01*
X106357578Y-112727595D01*
X106372244Y-112732878D01*
X106386434Y-112739224D01*
X106400092Y-112746594D01*
X106413157Y-112754946D01*
X106425572Y-112764241D01*
X106437276Y-112774438D01*
X106448211Y-112785498D01*
X106458318Y-112797379D01*
X106467539Y-112810041D01*
X106475814Y-112823444D01*
X106483084Y-112837548D01*
X106489291Y-112852313D01*
X107070845Y-114403300D01*
X107072201Y-114407233D01*
X107073345Y-114411188D01*
X107074279Y-114415160D01*
X107075007Y-114419141D01*
X107075530Y-114423126D01*
X107075853Y-114427106D01*
X107075979Y-114431076D01*
X107075909Y-114435029D01*
X107075648Y-114438959D01*
X107075198Y-114442858D01*
X107074562Y-114446720D01*
X107073743Y-114450539D01*
X107072743Y-114454308D01*
X107071567Y-114458019D01*
X107070217Y-114461668D01*
X107068695Y-114465246D01*
X107067006Y-114468747D01*
X107065151Y-114472165D01*
X107063133Y-114475493D01*
X107060957Y-114478724D01*
X107058624Y-114481852D01*
X107056137Y-114484871D01*
X107053501Y-114487772D01*
X107050716Y-114490551D01*
X107047787Y-114493199D01*
X107044717Y-114495711D01*
X107041507Y-114498080D01*
X107038162Y-114500299D01*
X107034685Y-114502362D01*
X107031077Y-114504262D01*
X107027343Y-114505992D01*
X107023485Y-114507546D01*
X107021743Y-114508172D01*
X107019990Y-114508761D01*
X107018227Y-114509312D01*
X107016457Y-114509824D01*
X107014680Y-114510297D01*
X107012899Y-114510732D01*
X107011115Y-114511127D01*
X107009330Y-114511482D01*
X107007544Y-114511796D01*
X107005760Y-114512070D01*
X107003979Y-114512303D01*
X107002202Y-114512494D01*
X107000432Y-114512644D01*
X106998670Y-114512751D01*
X106996917Y-114512816D01*
X106995174Y-114512838D01*
X106989048Y-114512604D01*
X106982991Y-114511910D01*
X106977026Y-114510767D01*
X106971180Y-114509187D01*
X106965476Y-114507181D01*
X106959939Y-114504759D01*
X106954595Y-114501933D01*
X106949468Y-114498715D01*
X106944582Y-114495116D01*
X106939963Y-114491146D01*
X106935636Y-114486818D01*
X106931625Y-114482142D01*
X106927955Y-114477129D01*
X106924651Y-114471791D01*
X106921737Y-114466140D01*
X106919239Y-114460186D01*
X106337685Y-112909198D01*
X106337035Y-112907577D01*
X106336326Y-112905991D01*
X106335560Y-112904438D01*
X106334738Y-112902923D01*
X106333861Y-112901444D01*
X106332932Y-112900003D01*
X106331952Y-112898602D01*
X106330922Y-112897242D01*
X106329844Y-112895924D01*
X106328719Y-112894649D01*
X106327550Y-112893417D01*
X106326337Y-112892232D01*
X106325082Y-112891092D01*
X106323787Y-112890001D01*
X106322453Y-112888958D01*
X106321082Y-112887965D01*
X106319676Y-112887024D01*
X106318235Y-112886134D01*
X106316762Y-112885299D01*
X106315257Y-112884517D01*
X106313724Y-112883792D01*
X106312162Y-112883124D01*
X106310574Y-112882513D01*
X106308961Y-112881963D01*
X106307325Y-112881472D01*
X106305667Y-112881043D01*
X106303989Y-112880677D01*
X106302293Y-112880375D01*
X106300579Y-112880138D01*
X106298850Y-112879967D01*
X106297107Y-112879864D01*
X106295352Y-112879829D01*
X106291853Y-112879967D01*
X106288410Y-112880375D01*
X106285036Y-112881043D01*
X106281742Y-112881963D01*
X106278541Y-112883124D01*
X106275446Y-112884517D01*
X106272468Y-112886134D01*
X106269621Y-112887965D01*
X106266916Y-112890001D01*
X106264366Y-112892232D01*
X106261984Y-112894649D01*
X106259781Y-112897242D01*
X106257771Y-112900003D01*
X106255966Y-112902923D01*
X106254377Y-112905991D01*
X106253018Y-112909198D01*
X105710887Y-114354881D01*
X105707401Y-114363621D01*
X105703596Y-114372174D01*
X105699482Y-114380536D01*
X105695065Y-114388700D01*
X105690355Y-114396660D01*
X105685361Y-114404411D01*
X105680090Y-114411945D01*
X105674552Y-114419258D01*
X105668754Y-114426342D01*
X105662706Y-114433193D01*
X105656415Y-114439804D01*
X105649890Y-114446169D01*
X105643140Y-114452282D01*
X105636174Y-114458137D01*
X105628998Y-114463728D01*
X105621623Y-114469049D01*
X105614056Y-114474094D01*
X105606307Y-114478857D01*
X105598382Y-114483333D01*
X105590292Y-114487514D01*
X105582044Y-114491395D01*
X105573647Y-114494970D01*
X105565110Y-114498234D01*
X105556441Y-114501179D01*
X105547647Y-114503800D01*
X105538739Y-114506092D01*
X105529724Y-114508047D01*
X105520611Y-114509660D01*
X105511408Y-114510925D01*
X105502124Y-114511837D01*
X105492767Y-114512388D01*
X105483346Y-114512573D01*
X105378570Y-114512573D01*
X105366095Y-114512256D01*
X105353780Y-114511316D01*
X105341642Y-114509768D01*
X105329696Y-114507627D01*
X105317957Y-114504910D01*
X105306441Y-114501630D01*
X105295163Y-114497805D01*
X105284139Y-114493448D01*
X105273384Y-114488576D01*
X105262913Y-114483204D01*
X105252742Y-114477348D01*
X105242886Y-114471022D01*
X105233360Y-114464242D01*
X105224181Y-114457024D01*
X105215363Y-114449383D01*
X105206922Y-114441334D01*
X105198873Y-114432893D01*
X105191232Y-114424075D01*
X105184014Y-114414895D01*
X105177234Y-114405370D01*
X105170908Y-114395514D01*
X105165052Y-114385343D01*
X105159680Y-114374872D01*
X105154808Y-114364117D01*
X105150451Y-114353092D01*
X105146626Y-114341815D01*
X105143346Y-114330299D01*
X105140629Y-114318560D01*
X105138488Y-114306614D01*
X105136940Y-114294476D01*
X105136000Y-114282161D01*
X105135683Y-114269685D01*
X105135683Y-112799132D01*
X105135789Y-112794965D01*
X105136101Y-112790854D01*
X105136616Y-112786802D01*
X105137328Y-112782815D01*
X105138232Y-112778898D01*
X105139323Y-112775056D01*
X105140596Y-112771294D01*
X105142046Y-112767617D01*
X105143667Y-112764031D01*
X105145455Y-112760540D01*
X105147404Y-112757150D01*
X105149510Y-112753865D01*
X105151768Y-112750690D01*
X105154171Y-112747632D01*
X105156716Y-112744694D01*
X105159397Y-112741882D01*
X105162208Y-112739202D01*
X105165146Y-112736657D01*
X105168205Y-112734253D01*
X105171379Y-112731996D01*
X105174664Y-112729890D01*
X105178054Y-112727941D01*
X105181545Y-112726153D01*
X105185131Y-112724532D01*
X105188808Y-112723082D01*
X105192570Y-112721809D01*
X105196412Y-112720718D01*
X105200329Y-112719814D01*
X105204316Y-112719102D01*
X105208368Y-112718587D01*
X105212479Y-112718274D01*
X105216646Y-112718169D01*
X105220812Y-112718274D01*
X105224924Y-112718587D01*
X105228975Y-112719102D01*
X105232962Y-112719814D01*
X105236879Y-112720718D01*
X105240721Y-112721809D01*
X105244483Y-112723082D01*
X105248160Y-112724532D01*
X105251746Y-112726153D01*
X105255237Y-112727941D01*
X105258628Y-112729890D01*
X105261912Y-112731996D01*
X105265087Y-112734253D01*
X105268145Y-112736657D01*
X105271083Y-112739202D01*
X105273895Y-112741882D01*
X105276575Y-112744694D01*
X105279120Y-112747632D01*
X105281524Y-112750690D01*
X105283781Y-112753865D01*
X105285887Y-112757150D01*
X105287836Y-112760540D01*
X105289624Y-112764031D01*
X105291246Y-112767617D01*
X105292695Y-112771294D01*
X105293968Y-112775056D01*
X105295059Y-112778898D01*
X105295963Y-112782815D01*
X105296675Y-112786802D01*
X105297190Y-112790854D01*
X105297503Y-112794965D01*
X105297608Y-112799132D01*
X105297608Y-114269950D01*
X105297713Y-114274117D01*
X105298026Y-114278228D01*
X105298541Y-114282280D01*
X105299253Y-114286267D01*
X105300157Y-114290184D01*
X105301248Y-114294026D01*
X105302521Y-114297788D01*
X105303970Y-114301465D01*
X105305592Y-114305051D01*
X105307380Y-114308542D01*
X105309329Y-114311932D01*
X105311435Y-114315217D01*
X105313692Y-114318391D01*
X105316096Y-114321450D01*
X105318641Y-114324388D01*
X105321321Y-114327199D01*
X105324133Y-114329880D01*
X105327071Y-114332425D01*
X105330129Y-114334828D01*
X105333303Y-114337086D01*
X105336588Y-114339191D01*
X105339979Y-114341141D01*
X105343470Y-114342929D01*
X105347056Y-114344550D01*
X105350733Y-114346000D01*
X105354495Y-114347273D01*
X105358337Y-114348364D01*
X105362254Y-114349268D01*
X105366241Y-114349980D01*
X105370292Y-114350495D01*
X105374404Y-114350807D01*
X105378570Y-114350913D01*
X105483346Y-114350913D01*
X105489605Y-114350667D01*
X105495767Y-114349942D01*
X105501810Y-114348752D01*
X105507712Y-114347113D01*
X105513449Y-114345042D01*
X105518999Y-114342555D01*
X105524340Y-114339667D01*
X105529449Y-114336394D01*
X105534304Y-114332752D01*
X105538882Y-114328756D01*
X105543161Y-114324424D01*
X105547118Y-114319770D01*
X105550731Y-114314811D01*
X105553977Y-114309563D01*
X105556835Y-114304041D01*
X105559280Y-114298261D01*
X106101412Y-112852313D01*
X106104379Y-112844850D01*
X106107619Y-112837548D01*
X106111125Y-112830411D01*
X106114889Y-112823444D01*
X106118905Y-112816652D01*
X106123164Y-112810041D01*
X106127660Y-112803615D01*
X106132385Y-112797379D01*
X106137331Y-112791338D01*
X106142492Y-112785498D01*
X106147860Y-112779863D01*
X106153427Y-112774438D01*
X106159187Y-112769229D01*
X106165132Y-112764241D01*
X106171254Y-112759478D01*
X106177546Y-112754946D01*
X106184001Y-112750649D01*
X106190611Y-112746594D01*
X106197370Y-112742783D01*
X106204269Y-112739224D01*
X106211301Y-112735920D01*
X106218460Y-112732878D01*
X106225737Y-112730101D01*
X106233125Y-112727595D01*
X106240617Y-112725365D01*
X106248206Y-112723416D01*
X106255883Y-112721753D01*
X106263643Y-112720381D01*
X106271477Y-112719305D01*
X106279378Y-112718530D01*
X106287339Y-112718062D01*
X106295352Y-112717904D01*
X106311325Y-112718530D01*
G37*
G36*
X108492981Y-114107232D02*
G01*
X108272054Y-114107232D01*
X108272054Y-113103402D01*
X108492981Y-113103402D01*
X108492981Y-114107232D01*
G37*
G36*
X111289362Y-113817777D02*
G01*
X111501822Y-113155790D01*
X111802918Y-113155790D01*
X111802918Y-114107496D01*
X111573525Y-114107496D01*
X111573525Y-113885246D01*
X111595750Y-113429634D01*
X111365033Y-114107232D01*
X111213427Y-114107232D01*
X110983504Y-113430163D01*
X111005729Y-113884982D01*
X111005729Y-114107232D01*
X110775806Y-114107232D01*
X110775806Y-113155790D01*
X111077695Y-113155790D01*
X111289362Y-113817777D01*
G37*
G36*
X108063201Y-113798727D02*
G01*
X107954554Y-114114375D01*
X107972281Y-114161471D01*
X107973816Y-114165750D01*
X107975445Y-114169856D01*
X107977168Y-114173790D01*
X107978986Y-114177553D01*
X107980901Y-114181145D01*
X107982913Y-114184568D01*
X107985022Y-114187821D01*
X107987230Y-114190906D01*
X107989537Y-114193824D01*
X107991944Y-114196575D01*
X107994452Y-114199160D01*
X107997061Y-114201580D01*
X107999773Y-114203836D01*
X108002587Y-114205928D01*
X108005506Y-114207858D01*
X108008529Y-114209625D01*
X108011689Y-114211259D01*
X108015016Y-114212788D01*
X108018512Y-114214211D01*
X108022176Y-114215529D01*
X108026009Y-114216741D01*
X108030011Y-114217848D01*
X108034184Y-114218850D01*
X108038526Y-114219746D01*
X108043039Y-114220536D01*
X108047723Y-114221222D01*
X108052578Y-114221802D01*
X108057605Y-114222276D01*
X108062804Y-114222645D01*
X108068175Y-114222908D01*
X108079437Y-114223119D01*
X108108277Y-114223119D01*
X108108277Y-114380017D01*
X108096444Y-114383081D01*
X108084758Y-114385726D01*
X108073214Y-114387956D01*
X108061809Y-114389774D01*
X108050541Y-114391182D01*
X108039406Y-114392184D01*
X108028402Y-114392783D01*
X108017525Y-114392982D01*
X107998447Y-114392445D01*
X107989184Y-114391775D01*
X107980106Y-114390836D01*
X107971213Y-114389629D01*
X107962503Y-114388154D01*
X107953978Y-114386411D01*
X107945637Y-114384399D01*
X107937480Y-114382120D01*
X107929507Y-114379572D01*
X107921718Y-114376755D01*
X107914112Y-114373671D01*
X107906691Y-114370319D01*
X107899454Y-114366698D01*
X107892401Y-114362809D01*
X107885531Y-114358652D01*
X107878845Y-114354227D01*
X107872342Y-114349533D01*
X107866024Y-114344571D01*
X107859888Y-114339341D01*
X107853937Y-114333843D01*
X107848169Y-114328077D01*
X107842584Y-114322043D01*
X107837182Y-114315740D01*
X107831964Y-114309169D01*
X107826929Y-114302330D01*
X107822078Y-114295222D01*
X107817409Y-114287847D01*
X107812924Y-114280203D01*
X107808622Y-114272291D01*
X107804503Y-114264111D01*
X107800566Y-114255663D01*
X107788131Y-114225500D01*
X107639263Y-113798992D01*
X107853483Y-113798992D01*
X107853747Y-113798727D01*
X107853650Y-113798397D01*
X107853483Y-113798992D01*
X107639263Y-113798992D01*
X107500000Y-113400000D01*
X107736008Y-113400000D01*
X107853650Y-113798397D01*
X107965137Y-113400265D01*
X108200352Y-113400265D01*
X108063201Y-113798727D01*
G37*
G36*
X112438183Y-114859177D02*
G01*
X112438183Y-114938552D01*
X104500683Y-114938552D01*
X104500683Y-114859177D01*
X104580058Y-114859177D01*
X112358808Y-114859177D01*
X112358808Y-112372094D01*
X104580058Y-112372094D01*
X104580058Y-114859177D01*
X104500683Y-114859177D01*
X104500683Y-112292719D01*
X112438183Y-112292719D01*
X112438183Y-114859177D01*
G37*
G36*
X110672081Y-113896094D02*
G01*
X110672354Y-113907736D01*
X110672081Y-113919028D01*
X110671262Y-113930084D01*
X110669898Y-113940902D01*
X110667988Y-113951483D01*
X110665532Y-113961825D01*
X110662531Y-113971927D01*
X110658984Y-113981789D01*
X110654891Y-113991410D01*
X110650253Y-114000789D01*
X110645068Y-114009926D01*
X110639339Y-114018819D01*
X110633063Y-114027468D01*
X110626242Y-114035872D01*
X110618875Y-114044030D01*
X110610962Y-114051942D01*
X110602504Y-114059606D01*
X110593655Y-114066958D01*
X110584570Y-114073833D01*
X110575250Y-114080230D01*
X110565694Y-114086152D01*
X110555902Y-114091597D01*
X110545875Y-114096567D01*
X110535612Y-114101062D01*
X110525113Y-114105082D01*
X110514379Y-114108627D01*
X110503409Y-114111699D01*
X110492203Y-114114297D01*
X110480762Y-114116422D01*
X110469085Y-114118074D01*
X110457173Y-114119253D01*
X110445025Y-114119960D01*
X110432641Y-114120196D01*
X110419188Y-114119898D01*
X110406113Y-114119005D01*
X110393416Y-114117515D01*
X110381097Y-114115429D01*
X110369157Y-114112747D01*
X110357595Y-114109466D01*
X110346411Y-114105589D01*
X110335605Y-114101113D01*
X110325178Y-114096039D01*
X110315129Y-114090366D01*
X110305458Y-114084094D01*
X110296166Y-114077222D01*
X110287252Y-114069750D01*
X110278716Y-114061678D01*
X110270558Y-114053006D01*
X110262779Y-114043732D01*
X110260459Y-114053926D01*
X110258062Y-114063476D01*
X110255584Y-114072381D01*
X110253022Y-114080641D01*
X110251709Y-114084529D01*
X110250374Y-114088256D01*
X110249016Y-114091822D01*
X110247635Y-114095226D01*
X110246232Y-114098469D01*
X110244804Y-114101551D01*
X110243353Y-114104472D01*
X110241877Y-114107232D01*
X110241083Y-114106967D01*
X110020949Y-114106967D01*
X110020949Y-114095854D01*
X110024462Y-114089226D01*
X110027758Y-114082237D01*
X110030837Y-114074890D01*
X110033699Y-114067184D01*
X110036344Y-114059121D01*
X110038772Y-114050699D01*
X110040982Y-114041920D01*
X110042976Y-114032785D01*
X110044753Y-114023292D01*
X110046312Y-114013444D01*
X110047655Y-114003239D01*
X110048780Y-113992679D01*
X110049689Y-113981765D01*
X110050380Y-113970495D01*
X110051112Y-113946894D01*
X110051112Y-113905884D01*
X110272568Y-113905884D01*
X110274115Y-113908646D01*
X110275780Y-113911377D01*
X110277563Y-113914075D01*
X110279464Y-113916740D01*
X110281482Y-113919371D01*
X110283619Y-113921967D01*
X110285873Y-113924527D01*
X110288245Y-113927050D01*
X110290735Y-113929537D01*
X110293342Y-113931986D01*
X110296068Y-113934395D01*
X110298911Y-113936766D01*
X110301872Y-113939096D01*
X110304951Y-113941384D01*
X110308147Y-113943631D01*
X110311462Y-113945836D01*
X110314891Y-113947997D01*
X110318432Y-113950016D01*
X110322085Y-113951893D01*
X110325849Y-113953629D01*
X110329724Y-113955223D01*
X110333712Y-113956677D01*
X110337811Y-113957991D01*
X110342021Y-113959164D01*
X110346344Y-113960198D01*
X110350777Y-113961093D01*
X110355323Y-113961849D01*
X110359980Y-113962467D01*
X110364749Y-113962947D01*
X110369629Y-113963290D01*
X110374621Y-113963495D01*
X110379724Y-113963563D01*
X110379724Y-113963299D01*
X110383600Y-113963227D01*
X110387389Y-113963013D01*
X110391091Y-113962655D01*
X110394706Y-113962153D01*
X110398235Y-113961508D01*
X110401677Y-113960717D01*
X110405031Y-113959782D01*
X110408299Y-113958701D01*
X110411481Y-113957475D01*
X110414575Y-113956103D01*
X110417583Y-113954584D01*
X110420503Y-113952918D01*
X110423337Y-113951105D01*
X110426084Y-113949144D01*
X110428745Y-113947035D01*
X110431318Y-113944778D01*
X110433771Y-113942402D01*
X110436068Y-113939940D01*
X110438209Y-113937390D01*
X110440194Y-113934752D01*
X110442023Y-113932026D01*
X110443694Y-113929211D01*
X110445208Y-113926307D01*
X110446565Y-113923313D01*
X110447763Y-113920230D01*
X110448803Y-113917056D01*
X110449684Y-113913791D01*
X110450405Y-113910435D01*
X110450967Y-113906988D01*
X110451369Y-113903449D01*
X110451610Y-113899818D01*
X110451691Y-113896094D01*
X110451579Y-113889746D01*
X110451241Y-113883599D01*
X110450679Y-113877653D01*
X110449893Y-113871910D01*
X110448881Y-113866367D01*
X110447645Y-113861027D01*
X110446184Y-113855887D01*
X110444498Y-113850950D01*
X110442587Y-113846214D01*
X110440451Y-113841679D01*
X110438091Y-113837346D01*
X110435506Y-113833214D01*
X110432696Y-113829284D01*
X110429661Y-113825556D01*
X110426402Y-113822029D01*
X110422918Y-113818704D01*
X110419209Y-113815580D01*
X110415275Y-113812657D01*
X110411116Y-113809937D01*
X110406733Y-113807417D01*
X110402124Y-113805100D01*
X110397291Y-113802984D01*
X110392233Y-113801069D01*
X110386951Y-113799356D01*
X110381443Y-113797844D01*
X110375711Y-113796534D01*
X110369754Y-113795426D01*
X110363572Y-113794519D01*
X110350534Y-113793310D01*
X110336597Y-113792907D01*
X110272568Y-113792907D01*
X110272568Y-113905884D01*
X110051112Y-113905884D01*
X110051112Y-113633892D01*
X110051658Y-113619698D01*
X110052799Y-113605888D01*
X110054537Y-113592462D01*
X110056871Y-113579421D01*
X110059802Y-113566764D01*
X110063330Y-113554492D01*
X110067456Y-113542605D01*
X110072179Y-113531101D01*
X110077502Y-113519983D01*
X110083423Y-113509249D01*
X110089943Y-113498899D01*
X110097063Y-113488933D01*
X110104782Y-113479353D01*
X110113102Y-113470156D01*
X110122023Y-113461344D01*
X110131545Y-113452917D01*
X110141588Y-113444939D01*
X110152072Y-113437476D01*
X110162996Y-113430528D01*
X110174362Y-113424094D01*
X110186170Y-113418175D01*
X110198420Y-113412771D01*
X110211113Y-113407881D01*
X110224249Y-113403506D01*
X110237828Y-113399646D01*
X110251851Y-113396300D01*
X110266318Y-113393469D01*
X110281229Y-113391153D01*
X110296586Y-113389352D01*
X110312388Y-113388065D01*
X110328635Y-113387293D01*
X110345329Y-113387036D01*
X110362056Y-113387287D01*
X110378406Y-113388040D01*
X110394379Y-113389294D01*
X110409974Y-113391050D01*
X110425192Y-113393306D01*
X110440034Y-113396063D01*
X110454501Y-113399320D01*
X110468591Y-113403076D01*
X110482307Y-113407332D01*
X110495648Y-113412086D01*
X110508614Y-113417339D01*
X110521206Y-113423089D01*
X110533425Y-113429338D01*
X110545270Y-113436083D01*
X110556743Y-113443326D01*
X110567843Y-113451065D01*
X110578416Y-113459204D01*
X110588307Y-113467646D01*
X110597516Y-113476392D01*
X110606042Y-113485440D01*
X110613887Y-113494791D01*
X110621049Y-113504443D01*
X110627529Y-113514397D01*
X110633328Y-113524652D01*
X110638444Y-113535208D01*
X110642877Y-113546064D01*
X110646629Y-113557221D01*
X110649699Y-113568676D01*
X110652086Y-113580431D01*
X110653791Y-113592485D01*
X110654815Y-113604837D01*
X110655156Y-113617488D01*
X110435022Y-113617488D01*
X110434946Y-113612726D01*
X110434718Y-113608115D01*
X110434338Y-113603654D01*
X110433806Y-113599344D01*
X110433121Y-113595184D01*
X110432284Y-113591175D01*
X110431295Y-113587316D01*
X110430152Y-113583609D01*
X110428857Y-113580052D01*
X110427410Y-113576646D01*
X110425809Y-113573390D01*
X110424056Y-113570286D01*
X110422149Y-113567333D01*
X110420089Y-113564530D01*
X110417876Y-113561879D01*
X110415509Y-113559379D01*
X110412989Y-113557030D01*
X110410316Y-113554832D01*
X110407488Y-113552785D01*
X110404507Y-113550890D01*
X110401373Y-113549146D01*
X110398084Y-113547553D01*
X110394641Y-113546112D01*
X110391044Y-113544822D01*
X110387292Y-113543684D01*
X110383387Y-113542698D01*
X110379326Y-113541863D01*
X110375112Y-113541180D01*
X110370742Y-113540648D01*
X110366218Y-113540269D01*
X110361539Y-113540041D01*
X110356706Y-113539965D01*
X110351505Y-113540060D01*
X110346471Y-113540346D01*
X110341602Y-113540823D01*
X110336899Y-113541491D01*
X110332361Y-113542349D01*
X110327989Y-113543399D01*
X110323783Y-113544639D01*
X110319743Y-113546071D01*
X110315867Y-113547694D01*
X110312158Y-113549507D01*
X110308613Y-113551512D01*
X110305234Y-113553708D01*
X110302021Y-113556096D01*
X110298972Y-113558674D01*
X110296089Y-113561444D01*
X110293371Y-113564406D01*
X110290818Y-113567559D01*
X110288430Y-113570903D01*
X110286207Y-113574439D01*
X110284149Y-113578167D01*
X110282256Y-113582086D01*
X110280528Y-113586197D01*
X110278965Y-113590500D01*
X110277566Y-113594994D01*
X110276332Y-113599680D01*
X110275263Y-113604559D01*
X110273619Y-113614891D01*
X110272632Y-113625992D01*
X110272304Y-113637861D01*
X110272304Y-113675167D01*
X110340302Y-113675167D01*
X110360288Y-113675396D01*
X110379667Y-113676085D01*
X110398439Y-113677232D01*
X110416605Y-113678838D01*
X110434164Y-113680903D01*
X110451118Y-113683427D01*
X110467466Y-113686410D01*
X110483210Y-113689851D01*
X110498348Y-113693752D01*
X110512883Y-113698111D01*
X110526813Y-113702930D01*
X110540141Y-113708207D01*
X110552865Y-113713943D01*
X110564986Y-113720138D01*
X110576505Y-113726792D01*
X110587422Y-113733905D01*
X110597707Y-113741467D01*
X110607328Y-113749469D01*
X110616286Y-113757912D01*
X110624580Y-113766796D01*
X110632210Y-113776119D01*
X110639177Y-113785883D01*
X110645481Y-113796087D01*
X110651121Y-113806731D01*
X110656097Y-113817816D01*
X110660410Y-113829341D01*
X110664059Y-113841306D01*
X110667045Y-113853711D01*
X110669368Y-113866557D01*
X110671026Y-113879843D01*
X110672022Y-113893569D01*
X110672081Y-113896094D01*
G37*
G36*
X109856546Y-113798727D02*
G01*
X109747900Y-114114375D01*
X109765627Y-114161471D01*
X109767162Y-114165750D01*
X109768791Y-114169856D01*
X109770514Y-114173790D01*
X109772332Y-114177553D01*
X109774247Y-114181145D01*
X109776259Y-114184568D01*
X109778368Y-114187821D01*
X109780576Y-114190906D01*
X109782883Y-114193824D01*
X109785290Y-114196575D01*
X109787798Y-114199160D01*
X109790407Y-114201580D01*
X109793118Y-114203836D01*
X109795933Y-114205928D01*
X109798852Y-114207858D01*
X109801875Y-114209625D01*
X109805034Y-114211259D01*
X109808362Y-114212788D01*
X109811857Y-114214211D01*
X109815522Y-114215529D01*
X109819355Y-114216741D01*
X109823357Y-114217848D01*
X109827530Y-114218850D01*
X109831872Y-114219746D01*
X109836385Y-114220536D01*
X109841069Y-114221222D01*
X109845924Y-114221802D01*
X109850951Y-114222276D01*
X109856150Y-114222645D01*
X109861521Y-114222908D01*
X109872783Y-114223119D01*
X109901623Y-114223119D01*
X109901623Y-114380017D01*
X109889790Y-114383081D01*
X109878104Y-114385726D01*
X109866560Y-114387956D01*
X109855155Y-114389774D01*
X109843887Y-114391182D01*
X109832752Y-114392184D01*
X109821748Y-114392783D01*
X109810871Y-114392982D01*
X109791793Y-114392445D01*
X109782530Y-114391775D01*
X109773452Y-114390836D01*
X109764558Y-114389629D01*
X109755849Y-114388154D01*
X109747324Y-114386411D01*
X109738983Y-114384399D01*
X109730825Y-114382120D01*
X109722852Y-114379572D01*
X109715063Y-114376755D01*
X109707458Y-114373671D01*
X109700037Y-114370319D01*
X109692800Y-114366698D01*
X109685746Y-114362809D01*
X109678877Y-114358652D01*
X109672191Y-114354227D01*
X109665688Y-114349533D01*
X109659370Y-114344571D01*
X109653234Y-114339341D01*
X109647283Y-114333843D01*
X109641514Y-114328077D01*
X109635930Y-114322043D01*
X109630528Y-114315740D01*
X109625310Y-114309169D01*
X109620275Y-114302330D01*
X109615424Y-114295222D01*
X109610755Y-114287847D01*
X109606270Y-114280203D01*
X109601968Y-114272291D01*
X109597849Y-114264111D01*
X109593912Y-114255663D01*
X109581477Y-114225500D01*
X109432609Y-113798992D01*
X109646829Y-113798992D01*
X109647093Y-113798727D01*
X109646996Y-113798397D01*
X109646829Y-113798992D01*
X109432609Y-113798992D01*
X109293346Y-113400000D01*
X109529354Y-113400000D01*
X109646996Y-113798397D01*
X109758483Y-113400265D01*
X109993698Y-113400265D01*
X109856546Y-113798727D01*
G37*
G36*
X109226141Y-114107496D02*
G01*
X108996747Y-114107496D01*
X108996747Y-113728348D01*
X108626860Y-113728348D01*
X108626860Y-113551607D01*
X108996747Y-113551607D01*
X108996747Y-113332796D01*
X108589554Y-113332796D01*
X108589554Y-113155790D01*
X109226141Y-113155790D01*
X109226141Y-114107496D01*
G37*
D11*
X112833333Y-115423833D02*
X112600000Y-116123833D01*
X112600000Y-116123833D02*
X112366666Y-115423833D01*
X111733333Y-116057166D02*
X111766666Y-116090500D01*
X111766666Y-116090500D02*
X111866666Y-116123833D01*
X111866666Y-116123833D02*
X111933333Y-116123833D01*
X111933333Y-116123833D02*
X112033333Y-116090500D01*
X112033333Y-116090500D02*
X112100000Y-116023833D01*
X112100000Y-116023833D02*
X112133333Y-115957166D01*
X112133333Y-115957166D02*
X112166666Y-115823833D01*
X112166666Y-115823833D02*
X112166666Y-115723833D01*
X112166666Y-115723833D02*
X112133333Y-115590500D01*
X112133333Y-115590500D02*
X112100000Y-115523833D01*
X112100000Y-115523833D02*
X112033333Y-115457166D01*
X112033333Y-115457166D02*
X111933333Y-115423833D01*
X111933333Y-115423833D02*
X111866666Y-115423833D01*
X111866666Y-115423833D02*
X111766666Y-115457166D01*
X111766666Y-115457166D02*
X111733333Y-115490500D01*
X111033333Y-116057166D02*
X111066666Y-116090500D01*
X111066666Y-116090500D02*
X111166666Y-116123833D01*
X111166666Y-116123833D02*
X111233333Y-116123833D01*
X111233333Y-116123833D02*
X111333333Y-116090500D01*
X111333333Y-116090500D02*
X111400000Y-116023833D01*
X111400000Y-116023833D02*
X111433333Y-115957166D01*
X111433333Y-115957166D02*
X111466666Y-115823833D01*
X111466666Y-115823833D02*
X111466666Y-115723833D01*
X111466666Y-115723833D02*
X111433333Y-115590500D01*
X111433333Y-115590500D02*
X111400000Y-115523833D01*
X111400000Y-115523833D02*
X111333333Y-115457166D01*
X111333333Y-115457166D02*
X111233333Y-115423833D01*
X111233333Y-115423833D02*
X111166666Y-115423833D01*
X111166666Y-115423833D02*
X111066666Y-115457166D01*
X111066666Y-115457166D02*
X111033333Y-115490500D01*
X107916666Y-116123833D02*
X107916666Y-115423833D01*
X107916666Y-115423833D02*
X107749999Y-115423833D01*
X107749999Y-115423833D02*
X107649999Y-115457166D01*
X107649999Y-115457166D02*
X107583333Y-115523833D01*
X107583333Y-115523833D02*
X107549999Y-115590500D01*
X107549999Y-115590500D02*
X107516666Y-115723833D01*
X107516666Y-115723833D02*
X107516666Y-115823833D01*
X107516666Y-115823833D02*
X107549999Y-115957166D01*
X107549999Y-115957166D02*
X107583333Y-116023833D01*
X107583333Y-116023833D02*
X107649999Y-116090500D01*
X107649999Y-116090500D02*
X107749999Y-116123833D01*
X107749999Y-116123833D02*
X107916666Y-116123833D01*
X107216666Y-115857166D02*
X106683333Y-115857166D01*
X106949999Y-116123833D02*
X106949999Y-115590500D01*
D12*
X113196900Y-111003403D02*
X113196900Y-111408165D01*
X113196900Y-111408165D02*
X113173090Y-111455784D01*
X113173090Y-111455784D02*
X113149281Y-111479594D01*
X113149281Y-111479594D02*
X113101662Y-111503403D01*
X113101662Y-111503403D02*
X113006424Y-111503403D01*
X113006424Y-111503403D02*
X112958805Y-111479594D01*
X112958805Y-111479594D02*
X112934995Y-111455784D01*
X112934995Y-111455784D02*
X112911186Y-111408165D01*
X112911186Y-111408165D02*
X112911186Y-111003403D01*
X112696899Y-111479594D02*
X112625471Y-111503403D01*
X112625471Y-111503403D02*
X112506423Y-111503403D01*
X112506423Y-111503403D02*
X112458804Y-111479594D01*
X112458804Y-111479594D02*
X112434995Y-111455784D01*
X112434995Y-111455784D02*
X112411185Y-111408165D01*
X112411185Y-111408165D02*
X112411185Y-111360546D01*
X112411185Y-111360546D02*
X112434995Y-111312927D01*
X112434995Y-111312927D02*
X112458804Y-111289117D01*
X112458804Y-111289117D02*
X112506423Y-111265308D01*
X112506423Y-111265308D02*
X112601661Y-111241498D01*
X112601661Y-111241498D02*
X112649280Y-111217689D01*
X112649280Y-111217689D02*
X112673090Y-111193879D01*
X112673090Y-111193879D02*
X112696899Y-111146260D01*
X112696899Y-111146260D02*
X112696899Y-111098641D01*
X112696899Y-111098641D02*
X112673090Y-111051022D01*
X112673090Y-111051022D02*
X112649280Y-111027213D01*
X112649280Y-111027213D02*
X112601661Y-111003403D01*
X112601661Y-111003403D02*
X112482614Y-111003403D01*
X112482614Y-111003403D02*
X112411185Y-111027213D01*
X112030233Y-111241498D02*
X111958805Y-111265308D01*
X111958805Y-111265308D02*
X111934995Y-111289117D01*
X111934995Y-111289117D02*
X111911186Y-111336736D01*
X111911186Y-111336736D02*
X111911186Y-111408165D01*
X111911186Y-111408165D02*
X111934995Y-111455784D01*
X111934995Y-111455784D02*
X111958805Y-111479594D01*
X111958805Y-111479594D02*
X112006424Y-111503403D01*
X112006424Y-111503403D02*
X112196900Y-111503403D01*
X112196900Y-111503403D02*
X112196900Y-111003403D01*
X112196900Y-111003403D02*
X112030233Y-111003403D01*
X112030233Y-111003403D02*
X111982614Y-111027213D01*
X111982614Y-111027213D02*
X111958805Y-111051022D01*
X111958805Y-111051022D02*
X111934995Y-111098641D01*
X111934995Y-111098641D02*
X111934995Y-111146260D01*
X111934995Y-111146260D02*
X111958805Y-111193879D01*
X111958805Y-111193879D02*
X111982614Y-111217689D01*
X111982614Y-111217689D02*
X112030233Y-111241498D01*
X112030233Y-111241498D02*
X112196900Y-111241498D01*
X111315948Y-111503403D02*
X111315948Y-111003403D01*
X111315948Y-111003403D02*
X111125472Y-111003403D01*
X111125472Y-111003403D02*
X111077853Y-111027213D01*
X111077853Y-111027213D02*
X111054043Y-111051022D01*
X111054043Y-111051022D02*
X111030234Y-111098641D01*
X111030234Y-111098641D02*
X111030234Y-111170070D01*
X111030234Y-111170070D02*
X111054043Y-111217689D01*
X111054043Y-111217689D02*
X111077853Y-111241498D01*
X111077853Y-111241498D02*
X111125472Y-111265308D01*
X111125472Y-111265308D02*
X111315948Y-111265308D01*
X110530234Y-111455784D02*
X110554043Y-111479594D01*
X110554043Y-111479594D02*
X110625472Y-111503403D01*
X110625472Y-111503403D02*
X110673091Y-111503403D01*
X110673091Y-111503403D02*
X110744519Y-111479594D01*
X110744519Y-111479594D02*
X110792138Y-111431974D01*
X110792138Y-111431974D02*
X110815948Y-111384355D01*
X110815948Y-111384355D02*
X110839757Y-111289117D01*
X110839757Y-111289117D02*
X110839757Y-111217689D01*
X110839757Y-111217689D02*
X110815948Y-111122451D01*
X110815948Y-111122451D02*
X110792138Y-111074832D01*
X110792138Y-111074832D02*
X110744519Y-111027213D01*
X110744519Y-111027213D02*
X110673091Y-111003403D01*
X110673091Y-111003403D02*
X110625472Y-111003403D01*
X110625472Y-111003403D02*
X110554043Y-111027213D01*
X110554043Y-111027213D02*
X110530234Y-111051022D01*
X110149281Y-111241498D02*
X110077853Y-111265308D01*
X110077853Y-111265308D02*
X110054043Y-111289117D01*
X110054043Y-111289117D02*
X110030234Y-111336736D01*
X110030234Y-111336736D02*
X110030234Y-111408165D01*
X110030234Y-111408165D02*
X110054043Y-111455784D01*
X110054043Y-111455784D02*
X110077853Y-111479594D01*
X110077853Y-111479594D02*
X110125472Y-111503403D01*
X110125472Y-111503403D02*
X110315948Y-111503403D01*
X110315948Y-111503403D02*
X110315948Y-111003403D01*
X110315948Y-111003403D02*
X110149281Y-111003403D01*
X110149281Y-111003403D02*
X110101662Y-111027213D01*
X110101662Y-111027213D02*
X110077853Y-111051022D01*
X110077853Y-111051022D02*
X110054043Y-111098641D01*
X110054043Y-111098641D02*
X110054043Y-111146260D01*
X110054043Y-111146260D02*
X110077853Y-111193879D01*
X110077853Y-111193879D02*
X110101662Y-111217689D01*
X110101662Y-111217689D02*
X110149281Y-111241498D01*
X110149281Y-111241498D02*
X110315948Y-111241498D01*
X109458805Y-111051022D02*
X109434996Y-111027213D01*
X109434996Y-111027213D02*
X109387377Y-111003403D01*
X109387377Y-111003403D02*
X109268329Y-111003403D01*
X109268329Y-111003403D02*
X109220710Y-111027213D01*
X109220710Y-111027213D02*
X109196901Y-111051022D01*
X109196901Y-111051022D02*
X109173091Y-111098641D01*
X109173091Y-111098641D02*
X109173091Y-111146260D01*
X109173091Y-111146260D02*
X109196901Y-111217689D01*
X109196901Y-111217689D02*
X109482615Y-111503403D01*
X109482615Y-111503403D02*
X109173091Y-111503403D01*
X108958806Y-111455784D02*
X108934996Y-111479594D01*
X108934996Y-111479594D02*
X108958806Y-111503403D01*
X108958806Y-111503403D02*
X108982615Y-111479594D01*
X108982615Y-111479594D02*
X108958806Y-111455784D01*
X108958806Y-111455784D02*
X108958806Y-111503403D01*
X108625473Y-111003403D02*
X108577854Y-111003403D01*
X108577854Y-111003403D02*
X108530235Y-111027213D01*
X108530235Y-111027213D02*
X108506425Y-111051022D01*
X108506425Y-111051022D02*
X108482616Y-111098641D01*
X108482616Y-111098641D02*
X108458806Y-111193879D01*
X108458806Y-111193879D02*
X108458806Y-111312927D01*
X108458806Y-111312927D02*
X108482616Y-111408165D01*
X108482616Y-111408165D02*
X108506425Y-111455784D01*
X108506425Y-111455784D02*
X108530235Y-111479594D01*
X108530235Y-111479594D02*
X108577854Y-111503403D01*
X108577854Y-111503403D02*
X108625473Y-111503403D01*
X108625473Y-111503403D02*
X108673092Y-111479594D01*
X108673092Y-111479594D02*
X108696901Y-111455784D01*
X108696901Y-111455784D02*
X108720711Y-111408165D01*
X108720711Y-111408165D02*
X108744520Y-111312927D01*
X108744520Y-111312927D02*
X108744520Y-111193879D01*
X108744520Y-111193879D02*
X108720711Y-111098641D01*
X108720711Y-111098641D02*
X108696901Y-111051022D01*
X108696901Y-111051022D02*
X108673092Y-111027213D01*
X108673092Y-111027213D02*
X108625473Y-111003403D01*
X107696902Y-111241498D02*
X107625474Y-111265308D01*
X107625474Y-111265308D02*
X107601664Y-111289117D01*
X107601664Y-111289117D02*
X107577855Y-111336736D01*
X107577855Y-111336736D02*
X107577855Y-111408165D01*
X107577855Y-111408165D02*
X107601664Y-111455784D01*
X107601664Y-111455784D02*
X107625474Y-111479594D01*
X107625474Y-111479594D02*
X107673093Y-111503403D01*
X107673093Y-111503403D02*
X107863569Y-111503403D01*
X107863569Y-111503403D02*
X107863569Y-111003403D01*
X107863569Y-111003403D02*
X107696902Y-111003403D01*
X107696902Y-111003403D02*
X107649283Y-111027213D01*
X107649283Y-111027213D02*
X107625474Y-111051022D01*
X107625474Y-111051022D02*
X107601664Y-111098641D01*
X107601664Y-111098641D02*
X107601664Y-111146260D01*
X107601664Y-111146260D02*
X107625474Y-111193879D01*
X107625474Y-111193879D02*
X107649283Y-111217689D01*
X107649283Y-111217689D02*
X107696902Y-111241498D01*
X107696902Y-111241498D02*
X107863569Y-111241498D01*
X107363569Y-111503403D02*
X107363569Y-111170070D01*
X107363569Y-111265308D02*
X107339759Y-111217689D01*
X107339759Y-111217689D02*
X107315950Y-111193879D01*
X107315950Y-111193879D02*
X107268331Y-111170070D01*
X107268331Y-111170070D02*
X107220712Y-111170070D01*
X107054045Y-111503403D02*
X107054045Y-111170070D01*
X107054045Y-111003403D02*
X107077854Y-111027213D01*
X107077854Y-111027213D02*
X107054045Y-111051022D01*
X107054045Y-111051022D02*
X107030235Y-111027213D01*
X107030235Y-111027213D02*
X107054045Y-111003403D01*
X107054045Y-111003403D02*
X107054045Y-111051022D01*
X106601664Y-111503403D02*
X106601664Y-111003403D01*
X106601664Y-111479594D02*
X106649283Y-111503403D01*
X106649283Y-111503403D02*
X106744521Y-111503403D01*
X106744521Y-111503403D02*
X106792140Y-111479594D01*
X106792140Y-111479594D02*
X106815950Y-111455784D01*
X106815950Y-111455784D02*
X106839759Y-111408165D01*
X106839759Y-111408165D02*
X106839759Y-111265308D01*
X106839759Y-111265308D02*
X106815950Y-111217689D01*
X106815950Y-111217689D02*
X106792140Y-111193879D01*
X106792140Y-111193879D02*
X106744521Y-111170070D01*
X106744521Y-111170070D02*
X106649283Y-111170070D01*
X106649283Y-111170070D02*
X106601664Y-111193879D01*
X106149283Y-111170070D02*
X106149283Y-111574832D01*
X106149283Y-111574832D02*
X106173093Y-111622451D01*
X106173093Y-111622451D02*
X106196902Y-111646260D01*
X106196902Y-111646260D02*
X106244521Y-111670070D01*
X106244521Y-111670070D02*
X106315950Y-111670070D01*
X106315950Y-111670070D02*
X106363569Y-111646260D01*
X106149283Y-111479594D02*
X106196902Y-111503403D01*
X106196902Y-111503403D02*
X106292140Y-111503403D01*
X106292140Y-111503403D02*
X106339759Y-111479594D01*
X106339759Y-111479594D02*
X106363569Y-111455784D01*
X106363569Y-111455784D02*
X106387378Y-111408165D01*
X106387378Y-111408165D02*
X106387378Y-111265308D01*
X106387378Y-111265308D02*
X106363569Y-111217689D01*
X106363569Y-111217689D02*
X106339759Y-111193879D01*
X106339759Y-111193879D02*
X106292140Y-111170070D01*
X106292140Y-111170070D02*
X106196902Y-111170070D01*
X106196902Y-111170070D02*
X106149283Y-111193879D01*
X105720712Y-111479594D02*
X105768331Y-111503403D01*
X105768331Y-111503403D02*
X105863569Y-111503403D01*
X105863569Y-111503403D02*
X105911188Y-111479594D01*
X105911188Y-111479594D02*
X105934997Y-111431974D01*
X105934997Y-111431974D02*
X105934997Y-111241498D01*
X105934997Y-111241498D02*
X105911188Y-111193879D01*
X105911188Y-111193879D02*
X105863569Y-111170070D01*
X105863569Y-111170070D02*
X105768331Y-111170070D01*
X105768331Y-111170070D02*
X105720712Y-111193879D01*
X105720712Y-111193879D02*
X105696902Y-111241498D01*
X105696902Y-111241498D02*
X105696902Y-111289117D01*
X105696902Y-111289117D02*
X105934997Y-111336736D01*
X105173093Y-111003403D02*
X105006427Y-111503403D01*
X105006427Y-111503403D02*
X104839760Y-111003403D01*
X104411189Y-111503403D02*
X104696903Y-111503403D01*
X104554046Y-111503403D02*
X104554046Y-111003403D01*
X104554046Y-111003403D02*
X104601665Y-111074832D01*
X104601665Y-111074832D02*
X104649284Y-111122451D01*
X104649284Y-111122451D02*
X104696903Y-111146260D01*
X104196904Y-111455784D02*
X104173094Y-111479594D01*
X104173094Y-111479594D02*
X104196904Y-111503403D01*
X104196904Y-111503403D02*
X104220713Y-111479594D01*
X104220713Y-111479594D02*
X104196904Y-111455784D01*
X104196904Y-111455784D02*
X104196904Y-111503403D01*
X103744523Y-111170070D02*
X103744523Y-111503403D01*
X103863571Y-110979594D02*
X103982618Y-111336736D01*
X103982618Y-111336736D02*
X103673095Y-111336736D01*
D11*
X110216666Y-116123833D02*
X110216666Y-115423833D01*
X110216666Y-115423833D02*
X110049999Y-115423833D01*
X110049999Y-115423833D02*
X109949999Y-115457166D01*
X109949999Y-115457166D02*
X109883333Y-115523833D01*
X109883333Y-115523833D02*
X109849999Y-115590500D01*
X109849999Y-115590500D02*
X109816666Y-115723833D01*
X109816666Y-115723833D02*
X109816666Y-115823833D01*
X109816666Y-115823833D02*
X109849999Y-115957166D01*
X109849999Y-115957166D02*
X109883333Y-116023833D01*
X109883333Y-116023833D02*
X109949999Y-116090500D01*
X109949999Y-116090500D02*
X110049999Y-116123833D01*
X110049999Y-116123833D02*
X110216666Y-116123833D01*
X109516666Y-115857166D02*
X108983333Y-115857166D01*
X105533332Y-115557166D02*
X105599999Y-115523833D01*
X105599999Y-115523833D02*
X105699999Y-115523833D01*
X105699999Y-115523833D02*
X105799999Y-115557166D01*
X105799999Y-115557166D02*
X105866666Y-115623833D01*
X105866666Y-115623833D02*
X105899999Y-115690500D01*
X105899999Y-115690500D02*
X105933332Y-115823833D01*
X105933332Y-115823833D02*
X105933332Y-115923833D01*
X105933332Y-115923833D02*
X105899999Y-116057166D01*
X105899999Y-116057166D02*
X105866666Y-116123833D01*
X105866666Y-116123833D02*
X105799999Y-116190500D01*
X105799999Y-116190500D02*
X105699999Y-116223833D01*
X105699999Y-116223833D02*
X105633332Y-116223833D01*
X105633332Y-116223833D02*
X105533332Y-116190500D01*
X105533332Y-116190500D02*
X105499999Y-116157166D01*
X105499999Y-116157166D02*
X105499999Y-115923833D01*
X105499999Y-115923833D02*
X105633332Y-115923833D01*
X105199999Y-116223833D02*
X105199999Y-115523833D01*
X105199999Y-115523833D02*
X104799999Y-116223833D01*
X104799999Y-116223833D02*
X104799999Y-115523833D01*
X104466666Y-116223833D02*
X104466666Y-115523833D01*
X104466666Y-115523833D02*
X104299999Y-115523833D01*
X104299999Y-115523833D02*
X104199999Y-115557166D01*
X104199999Y-115557166D02*
X104133333Y-115623833D01*
X104133333Y-115623833D02*
X104099999Y-115690500D01*
X104099999Y-115690500D02*
X104066666Y-115823833D01*
X104066666Y-115823833D02*
X104066666Y-115923833D01*
X104066666Y-115923833D02*
X104099999Y-116057166D01*
X104099999Y-116057166D02*
X104133333Y-116123833D01*
X104133333Y-116123833D02*
X104199999Y-116190500D01*
X104199999Y-116190500D02*
X104299999Y-116223833D01*
X104299999Y-116223833D02*
X104466666Y-116223833D01*
M02*
