%TF.GenerationSoftware,KiCad,Pcbnew,7.0.1*%
%TF.CreationDate,2023-06-15T11:30:52+02:00*%
%TF.ProjectId,USB-PCB-bridge,5553422d-5043-4422-9d62-72696467652e,rev?*%
%TF.SameCoordinates,Original*%
%TF.FileFunction,Copper,L1,Top*%
%TF.FilePolarity,Positive*%
%FSLAX46Y46*%
G04 Gerber Fmt 4.6, Leading zero omitted, Abs format (unit mm)*
G04 Created by KiCad (PCBNEW 7.0.1) date 2023-06-15 11:30:52*
%MOMM*%
%LPD*%
G01*
G04 APERTURE LIST*
%TA.AperFunction,SMDPad,CuDef*%
%ADD10R,1.000000X1.200000*%
%TD*%
%TA.AperFunction,SMDPad,CuDef*%
%ADD11R,8.000000X0.600000*%
%TD*%
%TA.AperFunction,ComponentPad*%
%ADD12C,1.000000*%
%TD*%
%TA.AperFunction,ComponentPad*%
%ADD13C,0.800000*%
%TD*%
%TA.AperFunction,ComponentPad*%
%ADD14C,0.700000*%
%TD*%
%TA.AperFunction,ViaPad*%
%ADD15C,0.800000*%
%TD*%
%TA.AperFunction,Conductor*%
%ADD16C,0.400000*%
%TD*%
%TA.AperFunction,Conductor*%
%ADD17C,0.300000*%
%TD*%
G04 APERTURE END LIST*
D10*
%TO.P,J2,1,VBUS*%
%TO.N,Net-(J1-VBUS)*%
X111900000Y-117100000D03*
%TO.P,J2,2,D-*%
%TO.N,unconnected-(J2-D--Pad2)*%
X109600000Y-117100000D03*
%TO.P,J2,3,D+*%
%TO.N,Net-(J1-D+)*%
X107300000Y-117100000D03*
%TO.P,J2,4,GND*%
%TO.N,GND*%
X105000000Y-117100000D03*
D11*
%TO.P,J2,5,Shield*%
X108450000Y-120200000D03*
%TD*%
D12*
%TO.P,J1,6,Shield*%
%TO.N,GND*%
X111825000Y-108515000D03*
D13*
X110000000Y-109475000D03*
X110000000Y-106965000D03*
X107000000Y-109475000D03*
X107000000Y-106965000D03*
D12*
X105175000Y-108515000D03*
D14*
%TO.P,J1,5,GND*%
X109800000Y-107900000D03*
%TO.P,J1,4,ID*%
%TO.N,unconnected-(J1-ID-Pad4)*%
X109150000Y-108550000D03*
%TO.P,J1,3,D+*%
%TO.N,Net-(J1-D+)*%
X108500000Y-107900000D03*
%TO.P,J1,2,D-*%
%TO.N,Net-(J1-D-)*%
X107850000Y-108550000D03*
%TO.P,J1,1,VBUS*%
%TO.N,Net-(J1-VBUS)*%
X107200000Y-107900000D03*
%TD*%
D15*
%TO.N,GND*%
X106000000Y-116300000D03*
X110500000Y-110500000D03*
X111000000Y-116300000D03*
X110000000Y-112800000D03*
X106750000Y-112800000D03*
X103700000Y-114800000D03*
X112500000Y-106250000D03*
X113200000Y-114800000D03*
X106500000Y-110500000D03*
X110000000Y-115300000D03*
X113200000Y-112800000D03*
X107000000Y-115300000D03*
X103700000Y-112800000D03*
X104500000Y-106250000D03*
%TD*%
D16*
%TO.N,Net-(J1-VBUS)*%
X112725000Y-107697918D02*
X112725000Y-111475000D01*
X111192082Y-106165000D02*
X112725000Y-107697918D01*
X108935000Y-106165000D02*
X111192082Y-106165000D01*
X107200000Y-107900000D02*
X108935000Y-106165000D01*
X112725000Y-111475000D02*
X111900000Y-112300000D01*
X111900000Y-112300000D02*
X111900000Y-117100000D01*
D17*
%TO.N,Net-(J1-D+)*%
X107500000Y-117100000D02*
X107300000Y-117100000D01*
X108550000Y-116050000D02*
X107500000Y-117100000D01*
X108550000Y-107950000D02*
X108550000Y-116050000D01*
X108500000Y-107900000D02*
X108550000Y-107950000D01*
D16*
%TO.N,GND*%
X108450000Y-120200000D02*
X112850000Y-120200000D01*
X108450000Y-120200000D02*
X104417157Y-120200000D01*
X112850000Y-120200000D02*
X113200000Y-119850000D01*
X103700000Y-119482843D02*
X103700000Y-114800000D01*
X104417157Y-120200000D02*
X103700000Y-119482843D01*
X113200000Y-119850000D02*
X113200000Y-114800000D01*
%TD*%
%TA.AperFunction,Conductor*%
%TO.N,GND*%
G36*
X112004119Y-105500770D02*
G01*
X112083648Y-105505982D01*
X112261461Y-105518699D01*
X112277024Y-105520796D01*
X112388397Y-105542949D01*
X112390394Y-105543364D01*
X112530143Y-105573765D01*
X112543806Y-105577557D01*
X112657737Y-105616232D01*
X112661067Y-105617417D01*
X112788725Y-105665031D01*
X112800384Y-105670065D01*
X112910600Y-105724418D01*
X112915254Y-105726835D01*
X113032421Y-105790812D01*
X113041994Y-105796608D01*
X113145238Y-105865594D01*
X113150724Y-105869477D01*
X113256668Y-105948786D01*
X113264216Y-105954906D01*
X113357936Y-106037097D01*
X113363953Y-106042733D01*
X113457265Y-106136045D01*
X113462901Y-106142062D01*
X113545092Y-106235782D01*
X113551218Y-106243337D01*
X113605338Y-106315633D01*
X113630519Y-106349271D01*
X113634415Y-106354776D01*
X113703382Y-106457993D01*
X113709196Y-106467595D01*
X113773162Y-106584742D01*
X113775580Y-106589398D01*
X113829925Y-106699597D01*
X113834975Y-106711293D01*
X113882253Y-106838051D01*
X113882549Y-106838843D01*
X113883794Y-106842342D01*
X113922434Y-106956170D01*
X113926240Y-106969881D01*
X113956613Y-107109506D01*
X113957071Y-107111708D01*
X113979200Y-107222959D01*
X113981300Y-107238551D01*
X113993993Y-107416021D01*
X113994044Y-107416768D01*
X113999230Y-107495880D01*
X113999500Y-107504122D01*
X113999500Y-118695878D01*
X113999230Y-118704120D01*
X113994044Y-118783230D01*
X113993993Y-118783977D01*
X113981300Y-118961447D01*
X113979200Y-118977039D01*
X113957071Y-119088290D01*
X113956613Y-119090492D01*
X113926240Y-119230117D01*
X113922432Y-119243836D01*
X113883806Y-119357624D01*
X113882549Y-119361155D01*
X113834975Y-119488705D01*
X113829925Y-119500401D01*
X113775580Y-119610600D01*
X113773162Y-119615256D01*
X113709196Y-119732403D01*
X113703373Y-119742021D01*
X113634415Y-119845222D01*
X113630519Y-119850727D01*
X113551230Y-119956646D01*
X113545092Y-119964216D01*
X113462901Y-120057936D01*
X113457265Y-120063953D01*
X113363953Y-120157265D01*
X113357936Y-120162901D01*
X113264216Y-120245092D01*
X113256647Y-120251229D01*
X113159509Y-120323946D01*
X113095231Y-120348576D01*
X113027600Y-120335750D01*
X112976803Y-120289296D01*
X112958000Y-120223078D01*
X112958000Y-119851411D01*
X112951494Y-119790906D01*
X112900445Y-119654037D01*
X112812904Y-119537095D01*
X112695962Y-119449554D01*
X112582468Y-119407223D01*
X112539550Y-119380358D01*
X112510673Y-119338767D01*
X112500500Y-119289167D01*
X112500500Y-118066215D01*
X112509724Y-118018894D01*
X112536044Y-117978501D01*
X112570382Y-117954589D01*
X112652205Y-117872766D01*
X112652205Y-117872765D01*
X112652206Y-117872765D01*
X112697585Y-117769991D01*
X112700500Y-117744865D01*
X112700499Y-116455136D01*
X112700066Y-116451405D01*
X112697585Y-116430009D01*
X112652205Y-116327233D01*
X112572766Y-116247794D01*
X112475606Y-116204894D01*
X112436043Y-116177343D01*
X112409723Y-116136950D01*
X112400500Y-116089630D01*
X112400500Y-112559505D01*
X112410091Y-112511287D01*
X112437404Y-112470410D01*
X112571741Y-112336073D01*
X113031281Y-111876531D01*
X113052256Y-111859631D01*
X113056128Y-111857143D01*
X113088601Y-111819665D01*
X113094717Y-111813096D01*
X113104221Y-111803593D01*
X113112266Y-111792844D01*
X113117907Y-111785845D01*
X113150378Y-111748372D01*
X113152288Y-111744190D01*
X113166038Y-111721015D01*
X113168796Y-111717331D01*
X113186127Y-111670862D01*
X113189566Y-111662561D01*
X113210163Y-111617461D01*
X113210162Y-111617461D01*
X113210165Y-111617457D01*
X113210820Y-111612897D01*
X113217481Y-111586798D01*
X113219091Y-111582483D01*
X113222629Y-111533009D01*
X113223587Y-111524097D01*
X113225500Y-111510799D01*
X113225500Y-111497380D01*
X113225821Y-111488391D01*
X113229359Y-111438927D01*
X113228380Y-111434426D01*
X113225500Y-111407643D01*
X113225500Y-107765273D01*
X113228379Y-107738493D01*
X113228679Y-107737110D01*
X113229358Y-107733991D01*
X113225820Y-107684534D01*
X113225500Y-107675548D01*
X113225500Y-107662118D01*
X113223589Y-107648833D01*
X113222627Y-107639896D01*
X113219091Y-107590435D01*
X113217483Y-107586124D01*
X113210820Y-107560022D01*
X113210165Y-107555461D01*
X113189559Y-107510341D01*
X113186125Y-107502049D01*
X113168796Y-107455590D01*
X113168795Y-107455587D01*
X113166031Y-107451895D01*
X113152289Y-107428732D01*
X113150377Y-107424545D01*
X113117906Y-107387072D01*
X113112260Y-107380065D01*
X113104221Y-107369325D01*
X113103776Y-107368880D01*
X113094722Y-107359826D01*
X113088604Y-107353254D01*
X113056129Y-107315775D01*
X113052248Y-107313281D01*
X113031275Y-107296379D01*
X111593619Y-105858723D01*
X111576717Y-105837749D01*
X111574225Y-105833872D01*
X111573306Y-105833076D01*
X111536743Y-105801394D01*
X111530171Y-105795275D01*
X111520675Y-105785779D01*
X111520674Y-105785778D01*
X111520670Y-105785774D01*
X111509928Y-105777733D01*
X111502926Y-105772091D01*
X111451766Y-105727761D01*
X111452226Y-105727229D01*
X111417051Y-105697617D01*
X111395267Y-105633691D01*
X111409624Y-105567699D01*
X111455997Y-105518600D01*
X111521062Y-105500500D01*
X111995880Y-105500500D01*
X112004119Y-105500770D01*
G37*
%TD.AperFunction*%
%TA.AperFunction,Conductor*%
G36*
X108671086Y-105518599D02*
G01*
X108717458Y-105567697D01*
X108731816Y-105633688D01*
X108710034Y-105697615D01*
X108674853Y-105727232D01*
X108675314Y-105727764D01*
X108624153Y-105772093D01*
X108617156Y-105777731D01*
X108606406Y-105785778D01*
X108596908Y-105795276D01*
X108590333Y-105801398D01*
X108552854Y-105833874D01*
X108550361Y-105837754D01*
X108533463Y-105858721D01*
X107900187Y-106491997D01*
X107851594Y-106522215D01*
X107796575Y-106527634D01*
X107089094Y-107235115D01*
X107032610Y-107267726D01*
X106967388Y-107267726D01*
X106910903Y-107235114D01*
X106203817Y-106528027D01*
X106165930Y-106593650D01*
X106103712Y-106785137D01*
X106070132Y-106838051D01*
X106015214Y-106868242D01*
X105952544Y-106868243D01*
X105941369Y-106865373D01*
X105941368Y-106865373D01*
X105782177Y-106824500D01*
X105659075Y-106824500D01*
X105659072Y-106824500D01*
X105536944Y-106839928D01*
X105497782Y-106855433D01*
X105384129Y-106900432D01*
X105384127Y-106900433D01*
X105384128Y-106900433D01*
X105251162Y-106997037D01*
X105146399Y-107123674D01*
X105076420Y-107272386D01*
X105046323Y-107430161D01*
X105016247Y-107490800D01*
X104959132Y-107527125D01*
X104787388Y-107579223D01*
X104664252Y-107645041D01*
X105175001Y-108155790D01*
X106058540Y-109039330D01*
X106060451Y-109039535D01*
X106112184Y-109076063D01*
X106139613Y-109133145D01*
X106135807Y-109196360D01*
X106106949Y-109285173D01*
X106086998Y-109474999D01*
X106106949Y-109664825D01*
X106165930Y-109846351D01*
X106203817Y-109911971D01*
X106640790Y-109475000D01*
X106640790Y-109474999D01*
X106172807Y-109007016D01*
X106145340Y-108987501D01*
X106118047Y-108931577D01*
X106120847Y-108869411D01*
X106168415Y-108712601D01*
X106187877Y-108515000D01*
X106168415Y-108317396D01*
X106110777Y-108127392D01*
X106106016Y-108118485D01*
X106091147Y-108060736D01*
X106104498Y-108002617D01*
X106143078Y-107957147D01*
X106148837Y-107952963D01*
X106253600Y-107826326D01*
X106287385Y-107754529D01*
X106321075Y-107711096D01*
X106370055Y-107686139D01*
X106425001Y-107684412D01*
X106475452Y-107706244D01*
X106500772Y-107724640D01*
X106542226Y-107776255D01*
X106551793Y-107841761D01*
X106544722Y-107900002D01*
X106563762Y-108056816D01*
X106619779Y-108204522D01*
X106619780Y-108204523D01*
X106709517Y-108334530D01*
X106771931Y-108389823D01*
X106808970Y-108447619D01*
X106810216Y-108516254D01*
X106775298Y-108575355D01*
X106729232Y-108599652D01*
X106729965Y-108601297D01*
X106560816Y-108676605D01*
X107000001Y-109115790D01*
X107796181Y-109911971D01*
X107796182Y-109911971D01*
X107834068Y-109846353D01*
X107853667Y-109786036D01*
X107893184Y-109727888D01*
X107957708Y-109699966D01*
X108027148Y-109710964D01*
X108079885Y-109757458D01*
X108099500Y-109824972D01*
X108099500Y-115811206D01*
X108089909Y-115859424D01*
X108062595Y-115900302D01*
X107800300Y-116162596D01*
X107759423Y-116189909D01*
X107711205Y-116199500D01*
X106755134Y-116199500D01*
X106730009Y-116202414D01*
X106627233Y-116247794D01*
X106547794Y-116327233D01*
X106502415Y-116430007D01*
X106502414Y-116430009D01*
X106502415Y-116430009D01*
X106499954Y-116451228D01*
X106499500Y-116455138D01*
X106499501Y-117573500D01*
X106482620Y-117636500D01*
X106436501Y-117682619D01*
X106373501Y-117699500D01*
X106134000Y-117699500D01*
X106071000Y-117682619D01*
X106024881Y-117636500D01*
X106008000Y-117573500D01*
X106008000Y-116451413D01*
X106007979Y-116451229D01*
X105000001Y-117459210D01*
X104999997Y-117459212D01*
X104796616Y-117662595D01*
X104755738Y-117689909D01*
X104707520Y-117699500D01*
X104425158Y-117699500D01*
X104424952Y-117699459D01*
X104399998Y-117699459D01*
X104399901Y-117699499D01*
X104399696Y-117699584D01*
X104399618Y-117699615D01*
X104399617Y-117699617D01*
X104399459Y-117700000D01*
X104399476Y-117725014D01*
X104399471Y-117725014D01*
X104399500Y-117725158D01*
X104399500Y-118007519D01*
X104389909Y-118055738D01*
X104362595Y-118096615D01*
X104293897Y-118165311D01*
X104317532Y-118174127D01*
X104360450Y-118200992D01*
X104389327Y-118242583D01*
X104399500Y-118292183D01*
X104399500Y-119289167D01*
X104389327Y-119338767D01*
X104360450Y-119380358D01*
X104317532Y-119407223D01*
X104204037Y-119449554D01*
X104087095Y-119537095D01*
X103999554Y-119654037D01*
X103948505Y-119790906D01*
X103942000Y-119851411D01*
X103942000Y-120147852D01*
X103929006Y-120203580D01*
X103892704Y-120247815D01*
X103840581Y-120271431D01*
X103783389Y-120269559D01*
X103732922Y-120242584D01*
X103642062Y-120162902D01*
X103636045Y-120157265D01*
X103542733Y-120063953D01*
X103537097Y-120057936D01*
X103454906Y-119964216D01*
X103448786Y-119956668D01*
X103369477Y-119850724D01*
X103365594Y-119845238D01*
X103296608Y-119741994D01*
X103290812Y-119732421D01*
X103226835Y-119615254D01*
X103224418Y-119610600D01*
X103188169Y-119537095D01*
X103170065Y-119500384D01*
X103165031Y-119488725D01*
X103117417Y-119361067D01*
X103116232Y-119357737D01*
X103077557Y-119243806D01*
X103073765Y-119230143D01*
X103043364Y-119090394D01*
X103042949Y-119088397D01*
X103020796Y-118977024D01*
X103018699Y-118961461D01*
X103005977Y-118783570D01*
X103000770Y-118704119D01*
X103000500Y-118695880D01*
X103000500Y-117748590D01*
X103992000Y-117748590D01*
X103992019Y-117748770D01*
X104640790Y-117100000D01*
X104640790Y-117099999D01*
X103992019Y-116451228D01*
X103992018Y-116451228D01*
X103992000Y-116451405D01*
X103992000Y-117748590D01*
X103000500Y-117748590D01*
X103000500Y-116034687D01*
X104293897Y-116034687D01*
X105000000Y-116740789D01*
X105000001Y-116740789D01*
X105706101Y-116034688D01*
X105706101Y-116034687D01*
X105609093Y-115998505D01*
X105548589Y-115992000D01*
X104451411Y-115992000D01*
X104390904Y-115998505D01*
X104293897Y-116034686D01*
X104293897Y-116034687D01*
X103000500Y-116034687D01*
X103000500Y-110273392D01*
X106560816Y-110273392D01*
X106717867Y-110343316D01*
X106904567Y-110383000D01*
X107095434Y-110383000D01*
X107282132Y-110343316D01*
X107439183Y-110273392D01*
X107000001Y-109834210D01*
X107000000Y-109834210D01*
X106560816Y-110273392D01*
X103000500Y-110273392D01*
X103000500Y-109384956D01*
X104664252Y-109384956D01*
X104787392Y-109450777D01*
X104977396Y-109508415D01*
X105175000Y-109527877D01*
X105372603Y-109508415D01*
X105562607Y-109450777D01*
X105685747Y-109384956D01*
X105175001Y-108874210D01*
X105175000Y-108874210D01*
X104664252Y-109384956D01*
X103000500Y-109384956D01*
X103000500Y-108515000D01*
X104162122Y-108515000D01*
X104181584Y-108712603D01*
X104239222Y-108902607D01*
X104305042Y-109025746D01*
X104815790Y-108515000D01*
X104815790Y-108514999D01*
X104305042Y-108004251D01*
X104305041Y-108004252D01*
X104239223Y-108127390D01*
X104181584Y-108317396D01*
X104162122Y-108515000D01*
X103000500Y-108515000D01*
X103000500Y-107504120D01*
X103000770Y-107495882D01*
X103002763Y-107465470D01*
X103005983Y-107416339D01*
X103018700Y-107238534D01*
X103020795Y-107222979D01*
X103042958Y-107111556D01*
X103043355Y-107109648D01*
X103073767Y-106969847D01*
X103077554Y-106956202D01*
X103116246Y-106842220D01*
X103117402Y-106838974D01*
X103165037Y-106711260D01*
X103170058Y-106699629D01*
X103224440Y-106589355D01*
X103226814Y-106584784D01*
X103290824Y-106467558D01*
X103296595Y-106458025D01*
X103365618Y-106354725D01*
X103369451Y-106349309D01*
X103448805Y-106243305D01*
X103454883Y-106235809D01*
X103515572Y-106166606D01*
X106560815Y-106166606D01*
X106999999Y-106605790D01*
X107000000Y-106605790D01*
X107439183Y-106166606D01*
X107439182Y-106166605D01*
X107282135Y-106096684D01*
X107095433Y-106057000D01*
X106904567Y-106057000D01*
X106717864Y-106096684D01*
X106560816Y-106166605D01*
X106560815Y-106166606D01*
X103515572Y-106166606D01*
X103537110Y-106142047D01*
X103542703Y-106136076D01*
X103636076Y-106042703D01*
X103642047Y-106037110D01*
X103735809Y-105954883D01*
X103743305Y-105948805D01*
X103849309Y-105869451D01*
X103854725Y-105865618D01*
X103958025Y-105796595D01*
X103967558Y-105790824D01*
X104084784Y-105726814D01*
X104089355Y-105724440D01*
X104199629Y-105670058D01*
X104211260Y-105665037D01*
X104338974Y-105617402D01*
X104342220Y-105616246D01*
X104456202Y-105577554D01*
X104469847Y-105573767D01*
X104609648Y-105543355D01*
X104611556Y-105542958D01*
X104722979Y-105520795D01*
X104738534Y-105518700D01*
X104916339Y-105505983D01*
X104991005Y-105501089D01*
X104995882Y-105500770D01*
X105004120Y-105500500D01*
X108606021Y-105500500D01*
X108671086Y-105518599D01*
G37*
%TD.AperFunction*%
%TA.AperFunction,Conductor*%
G36*
X109889094Y-107629885D02*
G01*
X110559578Y-108300369D01*
X110559579Y-108300369D01*
X110588138Y-108250903D01*
X110592702Y-108236857D01*
X110627917Y-108182433D01*
X110685529Y-108152718D01*
X110750290Y-108155579D01*
X110805058Y-108190258D01*
X110835336Y-108247576D01*
X110833112Y-108312361D01*
X110831584Y-108317396D01*
X110812122Y-108515000D01*
X110831584Y-108712603D01*
X110879153Y-108869413D01*
X110881953Y-108931577D01*
X110854662Y-108987501D01*
X110827186Y-109007022D01*
X110359210Y-109475000D01*
X110359210Y-109475001D01*
X110796181Y-109911972D01*
X110796182Y-109911971D01*
X110834068Y-109846353D01*
X110893050Y-109664826D01*
X110913001Y-109474999D01*
X110893050Y-109285175D01*
X110864192Y-109196361D01*
X110860386Y-109133145D01*
X110887814Y-109076064D01*
X110939548Y-109039535D01*
X110941459Y-109039330D01*
X111735905Y-108244885D01*
X111792389Y-108212273D01*
X111857611Y-108212273D01*
X111914095Y-108244885D01*
X112095114Y-108425904D01*
X112127726Y-108482388D01*
X112127726Y-108547610D01*
X112095114Y-108604094D01*
X111314251Y-109384956D01*
X111437392Y-109450777D01*
X111627396Y-109508415D01*
X111825000Y-109527877D01*
X112022601Y-109508415D01*
X112061923Y-109496487D01*
X112120040Y-109492916D01*
X112173558Y-109515856D01*
X112211046Y-109560410D01*
X112224500Y-109617061D01*
X112224500Y-111215495D01*
X112214909Y-111263713D01*
X112187595Y-111304591D01*
X111593718Y-111898466D01*
X111572751Y-111915363D01*
X111568874Y-111917854D01*
X111536398Y-111955333D01*
X111530276Y-111961908D01*
X111520778Y-111971406D01*
X111512731Y-111982156D01*
X111507093Y-111989153D01*
X111474621Y-112026629D01*
X111472706Y-112030822D01*
X111458972Y-112053970D01*
X111456205Y-112057666D01*
X111438875Y-112104128D01*
X111435434Y-112112434D01*
X111414834Y-112157541D01*
X111414178Y-112162108D01*
X111407520Y-112188195D01*
X111405909Y-112192513D01*
X111402370Y-112241981D01*
X111401410Y-112250912D01*
X111399500Y-112264202D01*
X111399500Y-112277620D01*
X111399179Y-112286609D01*
X111395641Y-112336074D01*
X111396620Y-112340574D01*
X111399500Y-112367357D01*
X111399500Y-116089630D01*
X111390277Y-116136950D01*
X111363957Y-116177343D01*
X111324394Y-116204894D01*
X111227233Y-116247794D01*
X111147794Y-116327233D01*
X111102415Y-116430007D01*
X111102414Y-116430009D01*
X111102415Y-116430009D01*
X111099954Y-116451228D01*
X111099500Y-116455138D01*
X111099501Y-117573500D01*
X111082620Y-117636500D01*
X111036501Y-117682619D01*
X110973501Y-117699500D01*
X110526500Y-117699500D01*
X110463500Y-117682619D01*
X110417381Y-117636500D01*
X110400500Y-117573500D01*
X110400499Y-116455134D01*
X110397585Y-116430009D01*
X110352205Y-116327233D01*
X110272766Y-116247794D01*
X110169992Y-116202415D01*
X110164965Y-116201832D01*
X110144865Y-116199500D01*
X110144861Y-116199500D01*
X110144803Y-116199500D01*
X109126499Y-116199500D01*
X109063500Y-116182620D01*
X109017381Y-116136501D01*
X109000500Y-116073501D01*
X109000500Y-116060786D01*
X109000588Y-116056075D01*
X109001388Y-116034686D01*
X109002724Y-115998990D01*
X109002723Y-115998987D01*
X109002956Y-115992763D01*
X109000500Y-115974101D01*
X109000500Y-110273392D01*
X109560816Y-110273392D01*
X109717867Y-110343316D01*
X109904567Y-110383000D01*
X110095434Y-110383000D01*
X110282132Y-110343316D01*
X110439183Y-110273392D01*
X110000001Y-109834210D01*
X110000000Y-109834210D01*
X109560816Y-110273392D01*
X109000500Y-110273392D01*
X109000500Y-110028880D01*
X109020233Y-109961180D01*
X109073251Y-109914685D01*
X109142947Y-109903958D01*
X109203816Y-109911972D01*
X110000000Y-109115790D01*
X110000000Y-109115791D01*
X110000001Y-109115790D01*
X110000000Y-109115790D01*
X110439183Y-108676605D01*
X110338282Y-108631680D01*
X110331607Y-108632918D01*
X110287987Y-108658103D01*
X110222765Y-108658103D01*
X110166281Y-108625491D01*
X109529885Y-107989095D01*
X109497273Y-107932611D01*
X109497273Y-107867389D01*
X109529884Y-107810905D01*
X109710903Y-107629885D01*
X109767388Y-107597273D01*
X109832610Y-107597273D01*
X109889094Y-107629885D01*
G37*
%TD.AperFunction*%
%TD*%
M02*
