M48
; DRILL file {KiCad 7.0.1} date Thu Jun 15 11:30:50 2023
; FORMAT={-:-/ absolute / inch / decimal}
; #@! TF.CreationDate,2023-06-15T11:30:50+02:00
; #@! TF.GenerationSoftware,Kicad,Pcbnew,7.0.1
; #@! TF.FileFunction,Plated,1,2,PTH
FMAT,2
INCH
; #@! TA.AperFunction,Plated,PTH,ViaDrill
T1C0.0157
; #@! TA.AperFunction,Plated,PTH,ComponentDrill
T2C0.0177
; #@! TA.AperFunction,Plated,PTH,ComponentDrill
T3C0.0217
; #@! TA.AperFunction,Plated,PTH,ComponentDrill
T4C0.0276
%
G90
G05
T1
X4.0827Y-4.4409
X4.0827Y-4.5197
X4.1142Y-4.1831
X4.1732Y-4.5787
X4.1929Y-4.3504
X4.2028Y-4.4409
X4.2126Y-4.5394
X4.3307Y-4.4409
X4.3307Y-4.5394
X4.3504Y-4.3504
X4.3701Y-4.5787
X4.4291Y-4.1831
X4.4567Y-4.4409
X4.4567Y-4.5197
T2
X4.2205Y-4.248
X4.2461Y-4.2736
X4.2717Y-4.248
X4.2972Y-4.2736
X4.3228Y-4.248
T3
X4.2126Y-4.2112
X4.2126Y-4.31
X4.3307Y-4.2112
X4.3307Y-4.31
T4
X4.1407Y-4.2722
X4.4026Y-4.2722
T0
M30
